<svg width="154" height="154" viewBox="0 0 154 154" fill="none" xmlns="http://www.w3.org/2000/svg">
<path d="M95.4719 0L117.762 9.11289L99.1453 54.6503L144.509 35.6147L153.827 57.8202L108.464 76.8553L154 95.4715L144.887 117.762L99.3502 99.1451L118.386 144.508L96.1801 153.826L77.145 108.464L58.5285 154L36.2381 144.887L54.8545 99.351L9.4916 118.386L0.173744 96.1808L45.5377 77.1452L0 58.5281L9.11289 36.2378L54.6495 54.8544L35.6141 9.49101L57.8195 0.173156L76.8551 45.537L95.4719 0Z" fill="#ED4747" fill-opacity="0.04"/>
<path d="M116.062 36.375H106.688V34.8125C106.688 33.5693 106.194 32.377 105.315 31.4979C104.435 30.6189 103.243 30.125 102 30.125C100.757 30.125 99.5645 30.6189 98.6854 31.4979C97.8064 32.377 97.3125 33.5693 97.3125 34.8125V36.375H81.6875V34.8125C81.6875 33.5693 81.1936 32.377 80.3146 31.4979C79.4355 30.6189 78.2432 30.125 77 30.125C75.7568 30.125 74.5645 30.6189 73.6854 31.4979C72.8064 32.377 72.3125 33.5693 72.3125 34.8125V36.375H56.6875V34.8125C56.6875 33.5693 56.1936 32.377 55.3146 31.4979C54.4355 30.6189 53.2432 30.125 52 30.125C50.7568 30.125 49.5645 30.6189 48.6854 31.4979C47.8064 32.377 47.3125 33.5693 47.3125 34.8125V36.375H37.9375C35.8662 36.3773 33.8804 37.2012 32.4158 38.6658C30.9512 40.1304 30.1273 42.1162 30.125 44.1875V116.062C30.1273 118.134 30.9512 120.12 32.4158 121.584C33.8804 123.049 35.8662 123.873 37.9375 123.875H116.062C118.134 123.873 120.12 123.049 121.584 121.584C123.049 120.12 123.873 118.134 123.875 116.062V44.1875C123.873 42.1162 123.049 40.1304 121.584 38.6658C120.12 37.2012 118.134 36.3773 116.062 36.375ZM100.438 34.8125C100.438 34.3981 100.602 34.0007 100.895 33.7076C101.188 33.4146 101.586 33.25 102 33.25C102.414 33.25 102.812 33.4146 103.105 33.7076C103.398 34.0007 103.562 34.3981 103.562 34.8125V44.1875C103.562 44.6019 103.398 44.9993 103.105 45.2924C102.812 45.5854 102.414 45.75 102 45.75C101.586 45.75 101.188 45.5854 100.895 45.2924C100.602 44.9993 100.438 44.6019 100.438 44.1875V34.8125ZM75.4375 34.8125C75.4375 34.3981 75.6021 34.0007 75.8951 33.7076C76.1882 33.4146 76.5856 33.25 77 33.25C77.4144 33.25 77.8118 33.4146 78.1049 33.7076C78.3979 34.0007 78.5625 34.3981 78.5625 34.8125V44.1875C78.5625 44.6019 78.3979 44.9993 78.1049 45.2924C77.8118 45.5854 77.4144 45.75 77 45.75C76.5856 45.75 76.1882 45.5854 75.8951 45.2924C75.6021 44.9993 75.4375 44.6019 75.4375 44.1875V34.8125ZM50.4375 34.8125C50.4375 34.3981 50.6021 34.0007 50.8951 33.7076C51.1882 33.4146 51.5856 33.25 52 33.25C52.4144 33.25 52.8118 33.4146 53.1049 33.7076C53.3979 34.0007 53.5625 34.3981 53.5625 34.8125V44.1875C53.5625 44.6019 53.3979 44.9993 53.1049 45.2924C52.8118 45.5854 52.4144 45.75 52 45.75C51.5856 45.75 51.1882 45.5854 50.8951 45.2924C50.6021 44.9993 50.4375 44.6019 50.4375 44.1875V34.8125ZM37.9375 39.5H47.3125V44.1875C47.3125 45.4307 47.8064 46.623 48.6854 47.5021C49.5645 48.3811 50.7568 48.875 52 48.875C53.2432 48.875 54.4355 48.3811 55.3146 47.5021C56.1936 46.623 56.6875 45.4307 56.6875 44.1875V39.5H72.3125V44.1875C72.3125 45.4307 72.8064 46.623 73.6854 47.5021C74.5645 48.3811 75.7568 48.875 77 48.875C78.2432 48.875 79.4355 48.3811 80.3146 47.5021C81.1936 46.623 81.6875 45.4307 81.6875 44.1875V39.5H97.3125V44.1875C97.3125 45.4307 97.8064 46.623 98.6854 47.5021C99.5645 48.3811 100.757 48.875 102 48.875C103.243 48.875 104.435 48.3811 105.315 47.5021C106.194 46.623 106.688 45.4307 106.688 44.1875V39.5H116.062C117.305 39.5014 118.497 39.9958 119.375 40.8745C120.254 41.7533 120.749 42.9447 120.75 44.1875V55.125H33.25V44.1875C33.2514 42.9447 33.7458 41.7533 34.6245 40.8745C35.5033 39.9958 36.6947 39.5014 37.9375 39.5ZM116.062 120.75H37.9375C36.6947 120.749 35.5033 120.254 34.6245 119.375C33.7458 118.497 33.2514 117.305 33.25 116.062V58.25H120.75V116.062C120.749 117.305 120.254 118.497 119.375 119.375C118.497 120.254 117.305 120.749 116.062 120.75Z" fill="#ED4747"/>
<path d="M112.938 69.1875H106.688C106.273 69.1875 105.876 69.3521 105.583 69.6451C105.29 69.9382 105.125 70.3356 105.125 70.75V77C105.125 77.4144 105.29 77.8118 105.583 78.1049C105.876 78.3979 106.273 78.5625 106.688 78.5625H112.938C113.352 78.5625 113.749 78.3979 114.042 78.1049C114.335 77.8118 114.5 77.4144 114.5 77V70.75C114.5 70.3356 114.335 69.9382 114.042 69.6451C113.749 69.3521 113.352 69.1875 112.938 69.1875ZM111.375 75.4375H108.25V72.3125H111.375V75.4375ZM81.6875 100.438H75.4375C75.0231 100.438 74.6257 100.602 74.3326 100.895C74.0396 101.188 73.875 101.586 73.875 102V108.25C73.875 108.664 74.0396 109.062 74.3326 109.355C74.6257 109.648 75.0231 109.812 75.4375 109.812H81.6875C82.1019 109.812 82.4993 109.648 82.7924 109.355C83.0854 109.062 83.25 108.664 83.25 108.25V102C83.25 101.586 83.0854 101.188 82.7924 100.895C82.4993 100.602 82.1019 100.438 81.6875 100.438ZM80.125 106.688H77V103.562H80.125V106.688ZM66.0625 69.1875H59.8125C59.3981 69.1875 59.0007 69.3521 58.7076 69.6451C58.4146 69.9382 58.25 70.3356 58.25 70.75V77C58.25 77.4144 58.4146 77.8118 58.7076 78.1049C59.0007 78.3979 59.3981 78.5625 59.8125 78.5625H66.0625C66.4769 78.5625 66.8743 78.3979 67.1674 78.1049C67.4604 77.8118 67.625 77.4144 67.625 77V70.75C67.625 70.3356 67.4604 69.9382 67.1674 69.6451C66.8743 69.3521 66.4769 69.1875 66.0625 69.1875ZM64.5 75.4375H61.375V72.3125H64.5V75.4375ZM50.4375 84.8125H44.1875C43.7731 84.8125 43.3757 84.9771 43.0826 85.2701C42.7896 85.5632 42.625 85.9606 42.625 86.375V92.625C42.625 93.0394 42.7896 93.4368 43.0826 93.7299C43.3757 94.0229 43.7731 94.1875 44.1875 94.1875H50.4375C50.8519 94.1875 51.2493 94.0229 51.5424 93.7299C51.8354 93.4368 52 93.0394 52 92.625V86.375C52 85.9606 51.8354 85.5632 51.5424 85.2701C51.2493 84.9771 50.8519 84.8125 50.4375 84.8125ZM48.875 91.0625H45.75V87.9375H48.875V91.0625ZM66.0625 84.8125H59.8125C59.3981 84.8125 59.0007 84.9771 58.7076 85.2701C58.4146 85.5632 58.25 85.9606 58.25 86.375V92.625C58.25 93.0394 58.4146 93.4368 58.7076 93.7299C59.0007 94.0229 59.3981 94.1875 59.8125 94.1875H66.0625C66.4769 94.1875 66.8743 94.0229 67.1674 93.7299C67.4604 93.4368 67.625 93.0394 67.625 92.625V86.375C67.625 85.9606 67.4604 85.5632 67.1674 85.2701C66.8743 84.9771 66.4769 84.8125 66.0625 84.8125ZM64.5 91.0625H61.375V87.9375H64.5V91.0625ZM50.4375 100.438H44.1875C43.7731 100.438 43.3757 100.602 43.0826 100.895C42.7896 101.188 42.625 101.586 42.625 102V108.25C42.625 108.664 42.7896 109.062 43.0826 109.355C43.3757 109.648 43.7731 109.812 44.1875 109.812H50.4375C50.8519 109.812 51.2493 109.648 51.5424 109.355C51.8354 109.062 52 108.664 52 108.25V102C52 101.586 51.8354 101.188 51.5424 100.895C51.2493 100.602 50.8519 100.438 50.4375 100.438ZM48.875 106.688H45.75V103.562H48.875V106.688ZM66.0625 100.438H59.8125C59.3981 100.438 59.0007 100.602 58.7076 100.895C58.4146 101.188 58.25 101.586 58.25 102V108.25C58.25 108.664 58.4146 109.062 58.7076 109.355C59.0007 109.648 59.3981 109.812 59.8125 109.812H66.0625C66.4769 109.812 66.8743 109.648 67.1674 109.355C67.4604 109.062 67.625 108.664 67.625 108.25V102C67.625 101.586 67.4604 101.188 67.1674 100.895C66.8743 100.602 66.4769 100.438 66.0625 100.438ZM64.5 106.688H61.375V103.562H64.5V106.688ZM112.938 84.8125H106.688C106.273 84.8125 105.876 84.9771 105.583 85.2701C105.29 85.5632 105.125 85.9606 105.125 86.375V92.625C105.125 93.0394 105.29 93.4368 105.583 93.7299C105.876 94.0229 106.273 94.1875 106.688 94.1875H112.938C113.352 94.1875 113.749 94.0229 114.042 93.7299C114.335 93.4368 114.5 93.0394 114.5 92.625V86.375C114.5 85.9606 114.335 85.5632 114.042 85.2701C113.749 84.9771 113.352 84.8125 112.938 84.8125ZM111.375 91.0625H108.25V87.9375H111.375V91.0625ZM112.938 100.438H106.688C106.273 100.438 105.876 100.602 105.583 100.895C105.29 101.188 105.125 101.586 105.125 102V108.25C105.125 108.664 105.29 109.062 105.583 109.355C105.876 109.648 106.273 109.812 106.688 109.812H112.938C113.352 109.812 113.749 109.648 114.042 109.355C114.335 109.062 114.5 108.664 114.5 108.25V102C114.5 101.586 114.335 101.188 114.042 100.895C113.749 100.602 113.352 100.438 112.938 100.438ZM111.375 106.688H108.25V103.562H111.375V106.688ZM97.3125 100.438H91.0625C90.6481 100.438 90.2507 100.602 89.9576 100.895C89.6646 101.188 89.5 101.586 89.5 102V108.25C89.5 108.664 89.6646 109.062 89.9576 109.355C90.2507 109.648 90.6481 109.812 91.0625 109.812H97.3125C97.7269 109.812 98.1243 109.648 98.4174 109.355C98.7104 109.062 98.875 108.664 98.875 108.25V102C98.875 101.586 98.7104 101.188 98.4174 100.895C98.1243 100.602 97.7269 100.438 97.3125 100.438ZM95.75 106.688H92.625V103.562H95.75V106.688Z" fill="#ED4747"/>
<path fill-rule="evenodd" clip-rule="evenodd" d="M99.1109 75.6297L91.2984 74.4359L87.7894 66.9611C87.6633 66.6925 87.4634 66.4653 87.2129 66.3062C86.9624 66.147 86.6717 66.0625 86.375 66.0625C86.0782 66.0625 85.7876 66.147 85.5371 66.3062C85.2866 66.4653 85.0866 66.6925 84.9605 66.9611L81.4531 74.4359L73.6406 75.6297C73.3565 75.6729 73.0897 75.7937 72.8698 75.9788C72.6499 76.1638 72.4852 76.4059 72.394 76.6785C72.3028 76.9511 72.2885 77.2435 72.3528 77.5237C72.417 77.8038 72.5573 78.0608 72.7582 78.2664L78.4576 84.1076L77.1099 92.3744C77.0633 92.6634 77.0988 92.9597 77.2124 93.2295C77.326 93.4993 77.513 93.7318 77.7523 93.9004C77.9916 94.069 78.2734 94.1671 78.5657 94.1833C78.858 94.1996 79.149 94.1334 79.4055 93.9924L86.375 90.14L93.3445 93.9924C93.6012 94.1342 93.8925 94.201 94.1854 94.1851C94.4782 94.1692 94.7606 94.0711 95.0003 93.9022C95.24 93.7334 95.4274 93.5004 95.541 93.2301C95.6545 92.9597 95.6898 92.6629 95.6426 92.3734L94.2949 84.1066L99.9943 78.2654C100.195 78.0598 100.335 77.8028 100.4 77.5227C100.464 77.2425 100.45 76.9501 100.358 76.6775C100.267 76.405 100.103 76.1628 99.8827 75.9778C99.6628 75.7927 99.396 75.672 99.1119 75.6287L99.1109 75.6297ZM91.1349 83.1094C91.2085 82.8762 91.3358 82.6635 91.5066 82.4885L95.633 78.2586L90.0015 77.3992C89.7479 77.3604 89.5078 77.2598 89.3023 77.1062C89.0968 76.9526 88.9322 76.7508 88.8232 76.5185L86.375 71.3025L83.9269 76.5195C83.8179 76.7518 83.6534 76.9536 83.4479 77.1072C83.2424 77.2608 83.0022 77.3614 82.7486 77.4002L77.1172 78.2596L81.2426 82.4885C81.4134 82.6635 81.5407 82.8762 81.6143 83.1094C81.6879 83.3426 81.7058 83.5899 81.6664 83.8312L80.7094 89.7006L85.6187 86.9857C85.8501 86.8578 86.1102 86.7907 86.3746 86.7907C86.639 86.7907 86.8991 86.8578 87.1304 86.9857L92.0398 89.7006L91.0828 83.8312C91.0434 83.5899 91.0613 83.3426 91.1349 83.1094Z" fill="#2D2D2D"/>
</svg>
