<svg width="154" height="154" viewBox="0 0 154 154" fill="none" xmlns="http://www.w3.org/2000/svg">
<path d="M95.4719 0L117.762 9.11289L99.1453 54.6503L144.509 35.6147L153.827 57.8202L108.464 76.8553L154 95.4715L144.887 117.762L99.3502 99.1451L118.386 144.508L96.1801 153.826L77.145 108.464L58.5285 154L36.2381 144.887L54.8545 99.351L9.4916 118.386L0.173744 96.1808L45.5377 77.1452L0 58.5281L9.11289 36.2378L54.6495 54.8544L35.6141 9.49101L57.8195 0.173156L76.8551 45.537L95.4719 0Z" fill="#ED4747" fill-opacity="0.04"/>
<path d="M112.938 39.5H37.9375C35.8655 39.5 33.8784 40.3231 32.4132 41.7882C30.9481 43.2534 30.125 45.2405 30.125 47.3125V100.438C30.125 102.51 30.9481 104.497 32.4132 105.962C33.8784 107.427 35.8655 108.25 37.9375 108.25H91.0625V116.062C91.0607 116.373 91.1514 116.677 91.3229 116.935C91.4945 117.194 91.7392 117.396 92.0258 117.515C92.3124 117.634 92.628 117.665 92.9323 117.604C93.2366 117.543 93.5158 117.392 93.7344 117.172L97.3125 113.578L105.578 121.844C105.871 122.135 106.267 122.298 106.68 122.298C107.092 122.298 107.488 122.135 107.781 121.844L114.031 115.594C114.322 115.301 114.486 114.905 114.486 114.492C114.486 114.079 114.322 113.683 114.031 113.391L108.891 108.25H112.938C115.01 108.25 116.997 107.427 118.462 105.962C119.927 104.497 120.75 102.51 120.75 100.438V47.3125C120.75 45.2405 119.927 43.2534 118.462 41.7882C116.997 40.3231 115.01 39.5 112.938 39.5ZM109.812 42.625V54.8281C109.81 54.8849 109.791 54.9398 109.758 54.9862C109.726 55.0326 109.68 55.0687 109.628 55.0901C109.575 55.1114 109.517 55.1173 109.461 55.1069C109.406 55.0964 109.354 55.0702 109.313 55.0313L107.172 52.8906C106.214 51.9346 104.916 51.3976 103.562 51.3976C102.209 51.3976 100.911 51.9346 99.9531 52.8906L97.8125 55.0313C97.7657 55.068 97.7079 55.088 97.6484 55.088C97.5889 55.088 97.5312 55.068 97.4844 55.0313C97.4281 55.014 97.3792 54.9786 97.3452 54.9305C97.3113 54.8824 97.2943 54.8244 97.2969 54.7656V42.625H109.812ZM106.688 118.547L98.4219 110.281C98.1291 109.99 97.7331 109.827 97.3203 109.827C96.9075 109.827 96.5115 109.99 96.2187 110.281L94.1875 112.266V102H104.391L102.391 104C102.1 104.293 101.936 104.689 101.936 105.102C101.936 105.514 102.1 105.91 102.391 106.203L103.953 107.766L110.734 114.5L106.688 118.547ZM117.625 100.438C117.625 101.681 117.131 102.873 116.252 103.752C115.373 104.631 114.181 105.125 112.938 105.125H105.766L109.344 101.547C109.563 101.329 109.713 101.051 109.774 100.747C109.835 100.444 109.805 100.13 109.687 99.8437C109.57 99.5584 109.371 99.3142 109.115 99.1418C108.86 98.9694 108.558 98.8765 108.25 98.875L92.625 98.9531C92.2106 98.9531 91.8132 99.1177 91.5201 99.4108C91.2271 99.7038 91.0625 100.101 91.0625 100.516V105.203H37.9375C36.6943 105.203 35.502 104.709 34.6229 103.83C33.7439 102.951 33.25 101.759 33.25 100.516V47.3125C33.25 46.0693 33.7439 44.877 34.6229 43.9979C35.502 43.1189 36.6943 42.625 37.9375 42.625H94.1875V54.8281C94.1866 55.5056 94.3868 56.168 94.7628 56.7316C95.1387 57.2951 95.6734 57.7344 96.2993 57.9938C96.9251 58.2531 97.6138 58.3209 98.2782 58.1885C98.9426 58.0561 99.5527 57.7295 100.031 57.25L102.156 55.125C102.534 54.7667 103.034 54.567 103.555 54.567C104.075 54.567 104.576 54.7667 104.953 55.125L107.094 57.2656C107.573 57.7461 108.185 58.073 108.851 58.2049C109.516 58.3368 110.207 58.2678 110.833 58.0065C111.459 57.7451 111.994 57.3034 112.369 56.7375C112.744 56.1715 112.942 55.5069 112.938 54.8281V42.625C114.181 42.625 115.373 43.1189 116.252 43.9979C117.131 44.877 117.625 46.0693 117.625 47.3125V100.438Z" fill="#ED4747"/>
<path d="M42.625 52C43.4879 52 44.1875 51.3004 44.1875 50.4375C44.1875 49.5746 43.4879 48.875 42.625 48.875C41.7621 48.875 41.0625 49.5746 41.0625 50.4375C41.0625 51.3004 41.7621 52 42.625 52Z" fill="#ED4747"/>
<path d="M48.875 52C49.7379 52 50.4375 51.3004 50.4375 50.4375C50.4375 49.5746 49.7379 48.875 48.875 48.875C48.0121 48.875 47.3125 49.5746 47.3125 50.4375C47.3125 51.3004 48.0121 52 48.875 52Z" fill="#ED4747"/>
<path d="M55.125 52C55.9879 52 56.6875 51.3004 56.6875 50.4375C56.6875 49.5746 55.9879 48.875 55.125 48.875C54.2621 48.875 53.5625 49.5746 53.5625 50.4375C53.5625 51.3004 54.2621 52 55.125 52Z" fill="#ED4747"/>
<path d="M67.625 69.1877H98.875C99.2894 69.1877 99.6868 69.0231 99.9799 68.7301C100.273 68.4371 100.438 68.0396 100.438 67.6252C100.438 67.2108 100.273 66.8134 99.9799 66.5204C99.6868 66.2273 99.2894 66.0627 98.875 66.0627H67.625C67.2106 66.0627 66.8132 66.2273 66.5201 66.5204C66.2271 66.8134 66.0625 67.2108 66.0625 67.6252C66.0625 68.0396 66.2271 68.4371 66.5201 68.7301C66.8132 69.0231 67.2106 69.1877 67.625 69.1877ZM103.562 78.5627H67.625C67.2106 78.5627 66.8132 78.7273 66.5201 79.0204C66.2271 79.3134 66.0625 79.7108 66.0625 80.1252C66.0625 80.5396 66.2271 80.9371 66.5201 81.2301C66.8132 81.5231 67.2106 81.6877 67.625 81.6877H103.562C103.977 81.6877 104.374 81.5231 104.667 81.2301C104.96 80.9371 105.125 80.5396 105.125 80.1252C105.125 79.7108 104.96 79.3134 104.667 79.0204C104.374 78.7273 103.977 78.5627 103.562 78.5627ZM94.1875 91.0627H67.625C67.2106 91.0627 66.8132 91.2273 66.5201 91.5204C66.2271 91.8134 66.0625 92.2108 66.0625 92.6252C66.0625 93.0396 66.2271 93.4371 66.5201 93.7301C66.8132 94.0231 67.2106 94.1877 67.625 94.1877H94.1875C94.6019 94.1877 94.9993 94.0231 95.2924 93.7301C95.5854 93.4371 95.75 93.0396 95.75 92.6252C95.75 92.2108 95.5854 91.8134 95.2924 91.5204C94.9993 91.2273 94.6019 91.0627 94.1875 91.0627ZM55.5781 63.3909L50.4375 68.5471L48.4219 66.5315C48.123 66.2755 47.7385 66.1417 47.3452 66.1569C46.952 66.1721 46.579 66.3351 46.3007 66.6134C46.0224 66.8917 45.8594 67.2647 45.8442 67.658C45.829 68.0512 45.9628 68.4357 46.2188 68.7346L49.3438 71.8596C49.6365 72.1506 50.0325 72.314 50.4453 72.314C50.8581 72.314 51.2541 72.1506 51.5469 71.8596L57.7969 65.6096C58.0529 65.3107 58.1866 64.9262 58.1714 64.533C58.1562 64.1397 57.9932 63.7667 57.7149 63.4884C57.4367 63.2101 57.0636 63.0471 56.6704 63.0319C56.2772 63.0167 55.8927 63.1505 55.5938 63.4065L55.5781 63.3909ZM55.5781 74.3284L50.4375 79.4846L48.4219 77.469C48.123 77.213 47.7385 77.0792 47.3452 77.0944C46.952 77.1096 46.579 77.2726 46.3007 77.5509C46.0224 77.8292 45.8594 78.2022 45.8442 78.5955C45.829 78.9887 45.9628 79.3732 46.2188 79.6721L49.3438 82.7971C49.6365 83.0881 50.0325 83.2515 50.4453 83.2515C50.8581 83.2515 51.2541 83.0881 51.5469 82.7971L57.7969 76.5471C58.0529 76.2482 58.1866 75.8637 58.1714 75.4705C58.1562 75.0772 57.9932 74.7042 57.7149 74.4259C57.4367 74.1476 57.0636 73.9846 56.6704 73.9694C56.2772 73.9542 55.8927 74.088 55.5938 74.344L55.5781 74.3284ZM50.4375 87.9377C49.5104 87.9377 48.6041 88.2126 47.8333 88.7277C47.0624 89.2428 46.4616 89.9749 46.1068 90.8314C45.752 91.6879 45.6592 92.6304 45.8401 93.5397C46.0209 94.449 46.4674 95.2842 47.1229 95.9398C47.7785 96.5953 48.6137 97.0418 49.523 97.2227C50.4323 97.4035 51.3748 97.3107 52.2313 96.9559C53.0879 96.6011 53.8199 96.0003 54.335 95.2295C54.8501 94.4586 55.125 93.5523 55.125 92.6252C55.125 91.382 54.6311 90.1897 53.7521 89.3107C52.873 88.4316 51.6807 87.9377 50.4375 87.9377ZM50.4375 94.1877C50.1285 94.1877 49.8264 94.0961 49.5694 93.9244C49.3125 93.7527 49.1122 93.5087 48.9939 93.2232C48.8757 92.9377 48.8447 92.6235 48.905 92.3204C48.9653 92.0173 49.1141 91.7389 49.3326 91.5204C49.5512 91.3018 49.8296 91.153 50.1327 91.0927C50.4358 91.0325 50.7499 91.0634 51.0354 91.1817C51.321 91.2999 51.565 91.5002 51.7367 91.7571C51.9084 92.0141 52 92.3162 52 92.6252C52 93.0396 51.8354 93.4371 51.5424 93.7301C51.2493 94.0231 50.8519 94.1877 50.4375 94.1877Z" fill="#2D2D2D"/>
</svg>
