<svg width="154" height="154" viewBox="0 0 154 154" fill="none" xmlns="http://www.w3.org/2000/svg">
<path d="M95.4719 0L117.762 9.11289L99.1453 54.6503L144.509 35.6147L153.827 57.8202L108.464 76.8553L154 95.4715L144.887 117.762L99.3502 99.1451L118.386 144.508L96.1801 153.826L77.145 108.464L58.5285 154L36.2381 144.887L54.8545 99.351L9.4916 118.386L0.173744 96.1808L45.5377 77.1452L0 58.5281L9.11289 36.2378L54.6495 54.8544L35.6141 9.49101L57.8195 0.173156L76.8551 45.537L95.4719 0Z" fill="#ED4747" fill-opacity="0.04"/>
<path d="M103.172 108.25C103.172 107.939 103.048 107.641 102.829 107.421C102.609 107.202 102.311 107.078 102 107.078C101.689 107.078 101.391 107.202 101.171 107.421C100.952 107.641 100.828 107.939 100.828 108.25V112.938C100.828 113.169 100.897 113.395 101.025 113.588C102.937 116.451 103.956 119.817 103.953 123.259V125.438C103.953 125.748 104.077 126.046 104.296 126.266C104.516 126.486 104.814 126.609 105.125 126.609C105.436 126.609 105.734 126.486 105.954 126.266C106.173 126.046 106.297 125.748 106.297 125.438V123.258C106.301 119.475 105.216 115.772 103.172 112.589V108.25ZM52 107.078C51.6892 107.078 51.3911 107.202 51.1714 107.421C50.9516 107.641 50.8281 107.939 50.8281 108.25V112.589C48.7842 115.772 47.6994 119.475 47.7031 123.258V125.438C47.7031 125.748 47.8266 126.046 48.0464 126.266C48.2661 126.486 48.5642 126.609 48.875 126.609C49.1858 126.609 49.4839 126.486 49.7036 126.266C49.9234 126.046 50.0469 125.748 50.0469 125.438V123.258C50.044 119.815 51.0631 116.449 52.975 113.586C53.1031 113.394 53.1716 113.168 53.1719 112.938V108.25C53.1719 107.939 53.0484 107.641 52.8287 107.421C52.6089 107.202 52.3108 107.078 52 107.078Z" fill="#2D2D2D"/>
<path d="M110.488 95.8018L87.5469 85.4268V77.0299C88.2658 76.3395 88.9158 75.5807 89.4875 74.7643C92.1359 77.7532 95.4089 80.1237 99.0747 81.7078C102.741 83.2919 106.71 84.051 110.702 83.9314C113.683 83.9528 116.653 83.5755 119.534 82.8096C119.771 82.7367 119.978 82.591 120.126 82.3933C120.275 82.1955 120.357 81.9558 120.361 81.7086C120.365 81.4613 120.291 81.2191 120.149 81.0166C120.007 80.8142 119.804 80.6618 119.57 80.5814C109.12 76.9643 109.848 66.2064 110.617 54.8158C111.239 45.6252 111.881 36.1236 105.897 30.8877C99.1031 24.9346 90.7109 27.7877 85.8734 30.3502C83.6284 28.4383 80.7754 27.3891 77.8266 27.3908H73.875C69.0076 27.3966 64.3412 29.3328 60.8994 32.7746C57.4576 36.2163 55.5214 40.8828 55.5156 45.7502V59.6502C55.0291 60.0492 54.6367 60.5508 54.3666 61.1191C54.0964 61.6875 53.9553 62.3085 53.9531 62.9377V66.0627C53.9544 67.2019 54.4075 68.2941 55.213 69.0997C56.0186 69.9052 57.1108 70.3583 58.25 70.3596H62.3922C63.1433 72.8985 64.5429 75.198 66.4531 77.0314V85.4252L43.5125 95.8018C40.5721 97.1368 38.0779 99.2897 36.3275 102.003C34.5771 104.717 33.6443 107.877 33.6406 111.106V125.438C33.6406 125.748 33.7641 126.047 33.9839 126.266C34.2036 126.486 34.5017 126.61 34.8125 126.61C35.1233 126.61 35.4214 126.486 35.6411 126.266C35.8609 126.047 35.9844 125.748 35.9844 125.438V111.106C35.9876 108.327 36.7904 105.608 38.297 103.272C39.8037 100.937 41.9505 99.0846 44.4813 97.9361L54.5688 93.3736L70.8531 115.358L63.9016 124.741C63.8071 124.864 63.7382 125.005 63.6988 125.156C63.6593 125.306 63.6502 125.463 63.6719 125.616C63.6936 125.77 63.7456 125.918 63.8251 126.052C63.9045 126.185 64.0097 126.302 64.1346 126.394C64.2594 126.487 64.4014 126.554 64.5523 126.591C64.7032 126.628 64.86 126.635 65.0135 126.611C65.1671 126.587 65.3143 126.532 65.4466 126.451C65.579 126.369 65.6938 126.262 65.7844 126.136L92.4063 90.1955L97.2453 92.3846L73.2766 124.741C73.1791 124.864 73.1074 125.005 73.0658 125.157C73.0241 125.308 73.0133 125.467 73.034 125.622C73.0547 125.778 73.1064 125.928 73.1862 126.063C73.266 126.198 73.3722 126.316 73.4984 126.41C73.6246 126.503 73.7684 126.57 73.921 126.607C74.0737 126.644 74.2322 126.65 74.3872 126.624C74.5421 126.598 74.6903 126.542 74.823 126.458C74.9556 126.374 75.07 126.264 75.1594 126.135L99.4297 93.3752L109.52 97.9377C112.051 99.0864 114.197 100.939 115.704 103.274C117.21 105.61 118.013 108.329 118.016 111.108V125.438C118.016 125.748 118.139 126.047 118.359 126.266C118.579 126.486 118.877 126.61 119.188 126.61C119.498 126.61 119.796 126.486 120.016 126.266C120.236 126.047 120.359 125.748 120.359 125.438V111.106C120.356 107.877 119.423 104.717 117.673 102.003C115.922 99.2897 113.428 97.1368 110.488 95.8018ZM97.7031 62.9377V66.0627C97.7027 66.5806 97.4968 67.0771 97.1306 67.4433C96.7644 67.8095 96.2679 68.0154 95.75 68.0158H92.0938C92.1825 67.3685 92.2295 66.7161 92.2344 66.0627V60.9846H95.75C96.2679 60.985 96.7644 61.1909 97.1306 61.5571C97.4968 61.9233 97.7027 62.4198 97.7031 62.9377ZM104.353 32.6502C109.464 37.1221 108.889 45.6393 108.28 54.6564C107.564 65.2361 106.827 76.1408 115.509 81.2893C109.952 82.1439 98.6734 82.358 90.7438 72.5924C91.0904 71.8722 91.3794 71.1255 91.6078 70.3596H95.75C96.8892 70.3583 97.9814 69.9052 98.787 69.0997C99.5925 68.2941 100.046 67.2019 100.047 66.0627V62.9377C100.045 62.3085 99.9036 61.6875 99.6334 61.1191C99.3633 60.5508 98.971 60.0492 98.4844 59.6502V45.8783C98.4917 43.0447 97.5244 40.2949 95.7445 38.09C93.9647 35.8851 91.4807 34.3595 88.7094 33.7689C88.3778 33.1865 88 32.6316 87.5797 32.1096C91.9234 29.9393 98.8688 27.8455 104.353 32.6502ZM57.8594 45.7502C57.8639 41.504 59.5527 37.433 62.5553 34.4305C65.5578 31.4279 69.6288 29.7391 73.875 29.7346H77.825C79.7083 29.7281 81.5558 30.2494 83.1579 31.2395C84.7599 32.2296 86.0525 33.6488 86.8891 35.3361C86.9717 35.5017 87.0923 35.6454 87.2412 35.7554C87.39 35.8654 87.5628 35.9386 87.7453 35.9689C90.0941 36.354 92.229 37.5629 93.7674 39.379C95.3058 41.1951 96.1471 43.4998 96.1406 45.8799V58.6799C96.0094 58.6689 95.8844 58.6408 95.75 58.6408H92.2344V56.6877C92.2345 56.3825 92.1156 56.0893 91.9028 55.8704C91.6901 55.6516 91.4004 55.5244 91.0953 55.5158C76.5734 55.0986 71.9656 47.0877 71.7797 46.7533C71.6858 46.5807 71.55 46.4345 71.3848 46.328C71.2196 46.2215 71.0304 46.1582 70.8344 46.1439C70.6375 46.124 70.4388 46.1568 70.2587 46.2389C70.0786 46.321 69.9235 46.4494 69.8094 46.6111C67.9975 48.9144 65.5062 50.5884 62.6891 51.3955C62.4275 51.4523 62.1932 51.5968 62.0252 51.8052C61.8572 52.0136 61.7656 52.2732 61.7656 52.5408V58.6408H58.25C58.1156 58.6408 57.9906 58.6689 57.8594 58.6799V45.7502ZM58.25 68.0158C57.7321 68.0154 57.2356 67.8095 56.8694 67.4433C56.5032 67.0771 56.2973 66.5806 56.2969 66.0627V62.9377C56.2973 62.4198 56.5032 61.9233 56.8694 61.5571C57.2356 61.1909 57.7321 60.985 58.25 60.9846H61.7656V66.0627C61.7705 66.7161 61.8175 67.3685 61.9063 68.0158H58.25ZM64.1094 66.0627V53.4455C66.6052 52.6028 68.8516 51.1512 70.6453 49.2221C72.6656 51.7908 78.2391 57.1549 89.8906 57.8111V66.0627C89.8906 69.4815 88.5325 72.7603 86.1151 75.1777C83.6976 77.5952 80.4188 78.9533 77 78.9533C73.5812 78.9533 70.3024 77.5952 67.885 75.1777C65.4675 72.7603 64.1094 69.4815 64.1094 66.0627ZM56.7531 92.3846L61.5938 90.1971L75.5406 109.028L72.3109 113.388L56.7531 92.3846ZM77 107.063L69.9266 97.5111C74.5527 98.8103 79.4473 98.8103 84.0734 97.5111L77 107.063ZM86.5375 94.1861C83.5156 95.4451 80.2744 96.0932 77.0008 96.0932C73.7272 96.0932 70.4859 95.4451 67.4641 94.1861L63.7797 89.2096L68.1109 87.2502C68.3159 87.1571 68.4898 87.007 68.6117 86.8178C68.7336 86.6285 68.7985 86.4081 68.7984 86.183V78.8814C71.2433 80.4597 74.0915 81.2992 77.0016 81.2992C79.9116 81.2992 82.7598 80.4597 85.2047 78.8814V86.183C85.2047 86.4081 85.2695 86.6285 85.3914 86.8178C85.5133 87.007 85.6872 87.1571 85.8922 87.2502L90.2234 89.2096L86.5375 94.1861Z" fill="#ED4747"/>
<g clip-path="url(#clip0_109_291)">
<path d="M110.488 95.8018L87.5469 85.4268V77.0299C88.2658 76.3395 88.9158 75.5807 89.4875 74.7643C92.1359 77.7532 95.4089 80.1237 99.0747 81.7078C102.741 83.2919 106.71 84.051 110.702 83.9314C113.683 83.9528 116.653 83.5755 119.534 82.8096C119.771 82.7367 119.978 82.591 120.126 82.3933C120.275 82.1955 120.357 81.9558 120.361 81.7086C120.365 81.4613 120.291 81.2191 120.149 81.0166C120.007 80.8142 119.804 80.6618 119.57 80.5814C109.12 76.9643 109.848 66.2064 110.617 54.8158C111.239 45.6252 111.881 36.1236 105.897 30.8877C99.1031 24.9346 90.7109 27.7877 85.8734 30.3502C83.6284 28.4383 80.7754 27.3891 77.8266 27.3908H73.875C69.0076 27.3966 64.3412 29.3328 60.8994 32.7746C57.4576 36.2163 55.5214 40.8828 55.5156 45.7502V59.6502C55.0291 60.0492 54.6367 60.5508 54.3666 61.1191C54.0964 61.6875 53.9553 62.3084 53.9531 62.9377V66.0627C53.9544 67.2019 54.4075 68.2941 55.213 69.0997C56.0186 69.9052 57.1108 70.3583 58.25 70.3596H62.3922C63.1433 72.8985 64.5429 75.198 66.4531 77.0314V85.4252L43.5125 95.8018C40.5721 97.1368 38.0779 99.2897 36.3275 102.003C34.5771 104.717 33.6443 107.877 33.6406 111.106V125.438C33.6406 125.748 33.7641 126.047 33.9839 126.266C34.2036 126.486 34.5017 126.61 34.8125 126.61C35.1233 126.61 35.4214 126.486 35.6411 126.266C35.8609 126.047 35.9844 125.748 35.9844 125.438V111.106C35.9876 108.327 36.7904 105.608 38.297 103.272C39.8037 100.937 41.9505 99.0846 44.4813 97.9361L54.5688 93.3736L70.8531 115.358L63.9016 124.741C63.8071 124.864 63.7382 125.005 63.6988 125.156C63.6593 125.306 63.6502 125.463 63.6719 125.616C63.6936 125.77 63.7456 125.918 63.8251 126.052C63.9045 126.185 64.0097 126.302 64.1346 126.394C64.2594 126.487 64.4014 126.554 64.5523 126.591C64.7032 126.628 64.86 126.635 65.0135 126.611C65.1671 126.587 65.3143 126.532 65.4466 126.451C65.579 126.369 65.6938 126.262 65.7844 126.136L92.4063 90.1955L97.2453 92.3846L73.2766 124.741C73.1791 124.864 73.1074 125.005 73.0658 125.157C73.0241 125.308 73.0133 125.467 73.034 125.622C73.0547 125.778 73.1064 125.928 73.1862 126.063C73.266 126.198 73.3722 126.316 73.4984 126.41C73.6246 126.503 73.7684 126.57 73.921 126.607C74.0737 126.644 74.2322 126.65 74.3872 126.624C74.5421 126.598 74.6903 126.542 74.823 126.458C74.9556 126.374 75.07 126.264 75.1594 126.135L99.4297 93.3752L109.52 97.9377C112.051 99.0864 114.197 100.939 115.704 103.274C117.21 105.61 118.013 108.329 118.016 111.108V125.438C118.016 125.748 118.139 126.047 118.359 126.266C118.579 126.486 118.877 126.61 119.188 126.61C119.498 126.61 119.796 126.486 120.016 126.266C120.236 126.047 120.359 125.748 120.359 125.438V111.106C120.356 107.877 119.423 104.717 117.673 102.003C115.922 99.2897 113.428 97.1368 110.488 95.8018ZM97.7031 62.9377V66.0627C97.7027 66.5806 97.4968 67.0771 97.1306 67.4433C96.7644 67.8095 96.2679 68.0154 95.75 68.0158H92.0938C92.1825 67.3685 92.2295 66.7161 92.2344 66.0627V60.9846H95.75C96.2679 60.985 96.7644 61.1909 97.1306 61.5571C97.4968 61.9233 97.7027 62.4198 97.7031 62.9377ZM104.353 32.6502C109.464 37.1221 108.889 45.6393 108.28 54.6564C107.564 65.2361 106.827 76.1408 115.509 81.2893C109.952 82.1439 98.6734 82.358 90.7438 72.5924C91.0904 71.8722 91.3794 71.1255 91.6078 70.3596H95.75C96.8892 70.3583 97.9814 69.9052 98.787 69.0997C99.5925 68.2941 100.046 67.2019 100.047 66.0627V62.9377C100.045 62.3084 99.9036 61.6875 99.6334 61.1191C99.3633 60.5508 98.971 60.0492 98.4844 59.6502V45.8783C98.4917 43.0448 97.5244 40.2949 95.7445 38.09C93.9647 35.8851 91.4807 34.3595 88.7094 33.7689C88.3778 33.1865 88 32.6316 87.5797 32.1096C91.9234 29.9393 98.8688 27.8455 104.353 32.6502ZM57.8594 45.7502C57.8639 41.504 59.5527 37.433 62.5553 34.4305C65.5578 31.4279 69.6288 29.7391 73.875 29.7346H77.825C79.7083 29.7281 81.5558 30.2494 83.1579 31.2395C84.7599 32.2296 86.0525 33.6488 86.8891 35.3361C86.9717 35.5017 87.0923 35.6454 87.2412 35.7554C87.39 35.8654 87.5628 35.9386 87.7453 35.9689C90.0941 36.354 92.229 37.5629 93.7674 39.379C95.3058 41.1951 96.1471 43.4998 96.1406 45.8799V58.6799C96.0094 58.6689 95.8844 58.6408 95.75 58.6408H92.2344V56.6877C92.2345 56.3825 92.1156 56.0893 91.9028 55.8704C91.6901 55.6516 91.4004 55.5244 91.0953 55.5158C76.5734 55.0986 71.9656 47.0877 71.7797 46.7533C71.6858 46.5807 71.55 46.4345 71.3848 46.328C71.2196 46.2215 71.0304 46.1582 70.8344 46.1439C70.6375 46.124 70.4388 46.1568 70.2587 46.2389C70.0786 46.321 69.9235 46.4494 69.8094 46.6111C67.9975 48.9144 65.5062 50.5884 62.6891 51.3955C62.4275 51.4523 62.1932 51.5968 62.0252 51.8052C61.8572 52.0136 61.7656 52.2732 61.7656 52.5408V58.6408H58.25C58.1156 58.6408 57.9906 58.6689 57.8594 58.6799V45.7502ZM58.25 68.0158C57.7321 68.0154 57.2356 67.8095 56.8694 67.4433C56.5032 67.0771 56.2973 66.5806 56.2969 66.0627V62.9377C56.2973 62.4198 56.5032 61.9233 56.8694 61.5571C57.2356 61.1909 57.7321 60.985 58.25 60.9846H61.7656V66.0627C61.7705 66.7161 61.8175 67.3685 61.9063 68.0158H58.25ZM64.1094 66.0627V53.4455C66.6052 52.6028 68.8516 51.1512 70.6453 49.2221C72.6656 51.7908 78.2391 57.1549 89.8906 57.8111V66.0627C89.8906 69.4815 88.5325 72.7603 86.1151 75.1777C83.6976 77.5952 80.4188 78.9533 77 78.9533C73.5812 78.9533 70.3024 77.5952 67.885 75.1777C65.4675 72.7603 64.1094 69.4815 64.1094 66.0627ZM56.7531 92.3846L61.5938 90.1971L75.5406 109.028L72.3109 113.388L56.7531 92.3846ZM77 107.063L69.9266 97.5111C74.5527 98.8103 79.4473 98.8103 84.0734 97.5111L77 107.063ZM86.5375 94.1861C83.5156 95.4451 80.2744 96.0932 77.0008 96.0932C73.7272 96.0932 70.4859 95.4451 67.4641 94.1861L63.7797 89.2096L68.1109 87.2502C68.3159 87.1571 68.4898 87.007 68.6117 86.8178C68.7336 86.6285 68.7985 86.4081 68.7984 86.183V78.8814C71.2433 80.4597 74.0915 81.2992 77.0016 81.2992C79.9116 81.2992 82.7598 80.4597 85.2047 78.8814V86.183C85.2047 86.4081 85.2695 86.6285 85.3914 86.8178C85.5133 87.007 85.6872 87.1571 85.8922 87.2502L90.2234 89.2096L86.5375 94.1861Z" fill="#2D2D2D"/>
</g>
<defs>
<clipPath id="clip0_109_291">
<rect width="86" height="38" fill="white" transform="translate(34 89)"/>
</clipPath>
</defs>
</svg>
