<svg width="154" height="154" viewBox="0 0 154 154" fill="none" xmlns="http://www.w3.org/2000/svg">
<path d="M95.4719 0L117.762 9.11289L99.1453 54.6503L144.509 35.6147L153.827 57.8202L108.464 76.8553L154 95.4715L144.887 117.762L99.3502 99.1451L118.386 144.508L96.1801 153.826L77.145 108.464L58.5285 154L36.2381 144.887L54.8545 99.351L9.4916 118.386L0.173744 96.1808L45.5377 77.1452L0 58.5281L9.11289 36.2378L54.6495 54.8544L35.6141 9.49101L57.8195 0.173156L76.8551 45.537L95.4719 0Z" fill="#ED4747" fill-opacity="0.04"/>
<path d="M114.581 116.8L116.063 100.58C116.084 100.351 116.054 100.12 115.976 99.9043C115.898 99.6882 115.773 99.492 115.611 99.3297L103.25 86.9766L114.1 74.9203C114.31 74.6871 114.445 74.3961 114.488 74.0851C114.53 73.774 114.478 73.4574 114.338 73.1766L106.525 57.5516C106.36 57.2211 106.083 56.9598 105.744 56.8141L96.2781 52.7516C97.5894 51.7113 98.6459 50.3854 99.3672 48.875H100.438C101.542 48.8771 102.611 48.4883 103.457 47.7773C104.302 47.0664 104.868 46.0793 105.055 44.9909C105.242 43.9025 105.038 42.7829 104.479 41.8305C103.92 40.8781 103.042 40.1544 102 39.7875V37.1562C102 36.6433 101.899 36.1353 101.703 35.6614C101.506 35.1875 101.219 34.7568 100.856 34.3941C100.493 34.0314 100.063 33.7437 99.5886 33.5473C99.1147 33.351 98.6067 33.25 98.0938 33.25C97.8866 33.25 97.6878 33.1677 97.5413 33.0212C97.3948 32.8747 97.3125 32.676 97.3125 32.4688C97.3125 31.4327 96.901 30.4392 96.1684 29.7066C95.4358 28.9741 94.4423 28.5625 93.4063 28.5625H84.8125C82.7413 28.565 80.7556 29.3889 79.291 30.8535C77.8264 32.3181 77.0025 34.3038 77 36.375V39.7875C75.9583 40.1544 75.0801 40.8781 74.5209 41.8305C73.9617 42.7829 73.7576 43.9025 73.9447 44.9909C74.1319 46.0793 74.6982 47.0664 75.5434 47.7773C76.3886 48.4883 77.4581 48.8771 78.5625 48.875H79.6328C80.3028 50.2841 81.2653 51.5342 82.4563 52.5422L71.9344 55.1719C71.6022 55.2545 71.3063 55.4438 71.0922 55.7109L64.8422 63.5234C64.6205 63.8006 64.4998 64.1451 64.5 64.5C64.5 66.1576 65.1585 67.7473 66.3306 68.9194C67.5027 70.0915 69.0924 70.75 70.75 70.75H77V87.1328L44.8422 110.102C44.6577 110.233 44.5042 110.404 44.3923 110.601C44.2803 110.798 44.2126 111.018 44.1939 111.243C44.1751 111.469 44.2058 111.697 44.2838 111.91C44.3617 112.123 44.4851 112.316 44.6453 112.477L45.0594 112.891L38.525 116.977C37.6826 117.504 37.0348 118.291 36.6793 119.22C36.3237 120.148 36.2798 121.167 36.5542 122.122C36.8285 123.077 37.4062 123.917 38.2 124.515C38.9939 125.114 39.9607 125.437 40.9547 125.438C44.4381 125.427 47.7771 124.044 50.2469 121.587L52.9813 118.853L85.0313 98.4578C86.1027 97.7894 87.3266 97.4045 88.5878 97.3394C89.8491 97.2744 91.1061 97.5313 92.2406 98.0859L102 102.964V123.875C102 124.289 102.165 124.687 102.458 124.98C102.751 125.273 103.148 125.438 103.563 125.438H116.063C116.477 125.438 116.874 125.273 117.167 124.98C117.46 124.687 117.625 124.289 117.625 123.875V122.681C117.628 121.528 117.353 120.392 116.823 119.368C116.293 118.344 115.524 117.463 114.581 116.8ZM100.438 45.75H100.313C100.391 45.2328 100.433 44.7106 100.438 44.1875V42.625C100.852 42.625 101.249 42.7896 101.542 43.0826C101.835 43.3757 102 43.7731 102 44.1875C102 44.6019 101.835 44.9993 101.542 45.2924C101.249 45.5854 100.852 45.75 100.438 45.75ZM80.125 36.375C80.125 35.1318 80.6189 33.9395 81.4979 33.0604C82.377 32.1814 83.5693 31.6875 84.8125 31.6875H93.4063C93.6135 31.6875 93.8122 31.7698 93.9587 31.9163C94.1052 32.0628 94.1875 32.2615 94.1875 32.4688C94.1875 33.5048 94.5991 34.4983 95.3316 35.2309C96.0642 35.9634 97.0578 36.375 98.0938 36.375C98.301 36.375 98.4997 36.4573 98.6462 36.6038C98.7927 36.7503 98.875 36.949 98.875 37.1562V39.5C97.8374 39.5006 96.8261 39.1742 95.9846 38.5672C95.1431 37.9602 94.5143 37.1035 94.1875 36.1187L94.1063 35.8781C94.0021 35.5677 93.8031 35.2978 93.5373 35.1066C93.2716 34.9154 92.9524 34.8125 92.625 34.8125C92.2975 34.8131 91.9784 34.9166 91.7129 35.1083C91.4474 35.3001 91.2488 35.5705 91.1453 35.8813C90.7944 36.9357 90.1201 37.8528 89.2184 38.5024C88.3167 39.152 87.2332 39.5011 86.1219 39.5H80.125V36.375ZM78.5625 45.75C78.1481 45.75 77.7507 45.5854 77.4576 45.2924C77.1646 44.9993 77 44.6019 77 44.1875C77 43.7731 77.1646 43.3757 77.4576 43.0826C77.7507 42.7896 78.1481 42.625 78.5625 42.625V44.1875C78.5669 44.7106 78.6087 45.2328 78.6875 45.75H78.5625ZM81.6875 44.1875V42.625H86.1219C87.3543 42.6262 88.5718 42.3564 89.6883 41.8347C90.8048 41.313 91.793 40.5523 92.5828 39.6062C93.7715 41.0895 95.4472 42.1036 97.3125 42.4687V44.1875C97.3125 46.2595 96.4894 48.2466 95.0243 49.7118C93.5591 51.1769 91.572 52 89.5 52C87.428 52 85.4409 51.1769 83.9757 49.7118C82.5106 48.2466 81.6875 46.2595 81.6875 44.1875ZM92.3953 54.7234C92.1649 55.3032 91.7657 55.8004 91.2495 56.1507C90.7333 56.501 90.1239 56.6883 89.5 56.6883C88.8762 56.6883 88.2667 56.501 87.7505 56.1507C87.2343 55.8004 86.8351 55.3032 86.6047 54.7234C88.4978 55.2588 90.5022 55.2588 92.3953 54.7234ZM87.1563 70.75C88.6067 70.75 89.9977 70.1738 91.0232 69.1482C92.0488 68.1227 92.625 66.7317 92.625 65.2812C92.625 63.8308 92.0488 62.4398 91.0232 61.4143C89.9977 60.3887 88.6067 59.8125 87.1563 59.8125H75.4375V62.9375H81.6875V67.625H70.75C70.0074 67.6252 69.2891 67.361 68.7236 66.8797C68.1581 66.3984 67.7825 65.7315 67.6641 64.9984L73.2031 58.0766L83.5828 55.4797C83.975 56.7132 84.7425 57.7934 85.7782 58.5696C86.814 59.3458 88.0663 59.7793 89.3602 59.8094C90.6542 59.8395 91.9253 59.4648 92.996 58.7376C94.0668 58.0104 94.8837 56.967 95.3328 55.7531L103.984 59.4594L111.063 73.6219L99.2453 86.7469L97.6031 83.4656L104.763 74.8719C104.942 74.6548 105.06 74.3936 105.104 74.1154C105.148 73.8373 105.116 73.5524 105.013 73.2906L101.888 65.4781L98.9844 66.6375L101.766 73.5844L95.0172 81.6875H91.0625C89.8193 81.6875 88.627 82.1814 87.7479 83.0604C86.8689 83.9395 86.375 85.1318 86.375 86.375H80.125V70.75H87.1563ZM87.1563 62.9375C87.7779 62.9375 88.374 63.1844 88.8135 63.624C89.2531 64.0635 89.5 64.6596 89.5 65.2812C89.5 65.9029 89.2531 66.499 88.8135 66.9385C88.374 67.3781 87.7779 67.625 87.1563 67.625H84.8125V62.9375H87.1563ZM94.7844 84.8125L96.3469 87.9375H91.0625C90.6481 87.9375 90.2507 87.7729 89.9576 87.4799C89.6646 87.1868 89.5 86.7894 89.5 86.375C89.5 85.9606 89.6646 85.5632 89.9576 85.2701C90.2507 84.9771 90.6481 84.8125 91.0625 84.8125H94.7844ZM40.9547 122.312C40.6391 122.312 40.3322 122.209 40.0803 122.019C39.8284 121.829 39.6452 121.562 39.5582 121.259C39.4712 120.955 39.4853 120.632 39.5983 120.337C39.7112 120.042 39.9169 119.793 40.1844 119.625L47.3281 115.162L49.7906 117.625L48.0375 119.378C46.1547 121.25 43.6098 122.304 40.9547 122.312ZM93.6359 95.2906C92.0172 94.5001 90.2241 94.1341 88.4251 94.227C86.6261 94.3199 84.8802 94.8687 83.3516 95.8219L52.2188 115.634L48.1563 111.572L79.0625 89.5H87.5938C88.0297 89.9896 88.5639 90.3818 89.1616 90.651C89.7593 90.9202 90.407 91.0604 91.0625 91.0625H98.875C99.0939 91.0624 99.3104 91.0164 99.5104 90.9273C99.7104 90.8382 99.8895 90.708 100.036 90.5453L100.973 89.5H101.35L112.875 101.025L111.511 116.062H105.125V102C105.127 101.708 105.047 101.422 104.894 101.173C104.741 100.925 104.522 100.724 104.261 100.594L93.6359 95.2906ZM105.125 122.312V119.188H112.484C113.042 119.511 113.515 119.964 113.863 120.508C114.21 121.051 114.423 121.67 114.483 122.312H105.125Z" fill="#ED4747"/>
<g clip-path="url(#clip0_109_285)">
<path d="M114.581 116.8L116.063 100.58C116.084 100.351 116.054 100.12 115.976 99.9043C115.898 99.6882 115.773 99.492 115.611 99.3297L103.25 86.9766L114.1 74.9203C114.31 74.6871 114.445 74.3961 114.488 74.0851C114.53 73.774 114.478 73.4574 114.338 73.1766L106.525 57.5516C106.36 57.2211 106.083 56.9598 105.744 56.8141L96.2781 52.7516C97.5894 51.7113 98.6459 50.3854 99.3672 48.875H100.438C101.542 48.8771 102.611 48.4883 103.457 47.7773C104.302 47.0664 104.868 46.0793 105.055 44.9909C105.242 43.9025 105.038 42.7829 104.479 41.8305C103.92 40.8781 103.042 40.1544 102 39.7875V37.1562C102 36.6433 101.899 36.1353 101.703 35.6614C101.506 35.1875 101.219 34.7568 100.856 34.3941C100.493 34.0314 100.063 33.7437 99.5886 33.5473C99.1147 33.351 98.6067 33.25 98.0938 33.25C97.8866 33.25 97.6878 33.1677 97.5413 33.0212C97.3948 32.8747 97.3125 32.676 97.3125 32.4688C97.3125 31.4327 96.901 30.4392 96.1684 29.7066C95.4358 28.9741 94.4423 28.5625 93.4063 28.5625H84.8125C82.7413 28.565 80.7556 29.3889 79.291 30.8535C77.8264 32.3181 77.0025 34.3038 77 36.375V39.7875C75.9583 40.1544 75.0801 40.8781 74.5209 41.8305C73.9617 42.7829 73.7576 43.9025 73.9447 44.9909C74.1319 46.0793 74.6982 47.0664 75.5434 47.7773C76.3886 48.4883 77.4581 48.8771 78.5625 48.875H79.6328C80.3028 50.2841 81.2653 51.5342 82.4563 52.5422L71.9344 55.1719C71.6022 55.2545 71.3063 55.4438 71.0922 55.7109L64.8422 63.5234C64.6205 63.8006 64.4998 64.1451 64.5 64.5C64.5 66.1576 65.1585 67.7473 66.3306 68.9194C67.5027 70.0915 69.0924 70.75 70.75 70.75H77V87.1328L44.8422 110.102C44.6577 110.233 44.5042 110.404 44.3923 110.601C44.2803 110.798 44.2126 111.018 44.1939 111.243C44.1751 111.469 44.2058 111.697 44.2838 111.91C44.3617 112.123 44.4851 112.316 44.6453 112.477L45.0594 112.891L38.525 116.977C37.6826 117.504 37.0348 118.291 36.6793 119.22C36.3237 120.148 36.2798 121.167 36.5542 122.122C36.8285 123.077 37.4062 123.917 38.2 124.515C38.9939 125.114 39.9607 125.437 40.9547 125.438C44.4381 125.427 47.7771 124.044 50.2469 121.588L52.9813 118.853L85.0313 98.4578C86.1027 97.7894 87.3266 97.4045 88.5878 97.3394C89.8491 97.2744 91.1061 97.5313 92.2406 98.0859L102 102.964V123.875C102 124.289 102.165 124.687 102.458 124.98C102.751 125.273 103.148 125.438 103.563 125.438H116.063C116.477 125.438 116.874 125.273 117.167 124.98C117.46 124.687 117.625 124.289 117.625 123.875V122.681C117.628 121.528 117.353 120.392 116.823 119.368C116.293 118.344 115.524 117.463 114.581 116.8ZM100.438 45.75H100.313C100.391 45.2328 100.433 44.7106 100.438 44.1875V42.625C100.852 42.625 101.249 42.7896 101.542 43.0826C101.835 43.3757 102 43.7731 102 44.1875C102 44.6019 101.835 44.9993 101.542 45.2924C101.249 45.5854 100.852 45.75 100.438 45.75ZM80.125 36.375C80.125 35.1318 80.6189 33.9395 81.4979 33.0604C82.377 32.1814 83.5693 31.6875 84.8125 31.6875H93.4063C93.6135 31.6875 93.8122 31.7698 93.9587 31.9163C94.1052 32.0628 94.1875 32.2615 94.1875 32.4688C94.1875 33.5048 94.5991 34.4983 95.3316 35.2309C96.0642 35.9634 97.0578 36.375 98.0938 36.375C98.301 36.375 98.4997 36.4573 98.6462 36.6038C98.7927 36.7503 98.875 36.949 98.875 37.1562V39.5C97.8374 39.5006 96.8261 39.1742 95.9846 38.5672C95.1431 37.9602 94.5143 37.1035 94.1875 36.1188L94.1063 35.8781C94.0021 35.5677 93.8031 35.2978 93.5373 35.1066C93.2716 34.9154 92.9524 34.8125 92.625 34.8125C92.2975 34.8131 91.9784 34.9166 91.7129 35.1083C91.4474 35.3001 91.2488 35.5705 91.1453 35.8812C90.7944 36.9357 90.1201 37.8528 89.2184 38.5024C88.3167 39.152 87.2332 39.5011 86.1219 39.5H80.125V36.375ZM78.5625 45.75C78.1481 45.75 77.7507 45.5854 77.4576 45.2924C77.1646 44.9993 77 44.6019 77 44.1875C77 43.7731 77.1646 43.3757 77.4576 43.0826C77.7507 42.7896 78.1481 42.625 78.5625 42.625V44.1875C78.5669 44.7106 78.6087 45.2328 78.6875 45.75H78.5625ZM81.6875 44.1875V42.625H86.1219C87.3543 42.6262 88.5718 42.3564 89.6883 41.8347C90.8048 41.313 91.793 40.5523 92.5828 39.6062C93.7715 41.0895 95.4472 42.1036 97.3125 42.4687V44.1875C97.3125 46.2595 96.4894 48.2466 95.0243 49.7118C93.5592 51.1769 91.572 52 89.5 52C87.428 52 85.4409 51.1769 83.9757 49.7118C82.5106 48.2466 81.6875 46.2595 81.6875 44.1875ZM92.3953 54.7234C92.1649 55.3032 91.7657 55.8004 91.2495 56.1507C90.7333 56.501 90.1239 56.6883 89.5 56.6883C88.8762 56.6883 88.2667 56.501 87.7505 56.1507C87.2343 55.8004 86.8351 55.3032 86.6047 54.7234C88.4978 55.2588 90.5022 55.2588 92.3953 54.7234ZM87.1563 70.75C88.6067 70.75 89.9977 70.1738 91.0232 69.1482C92.0488 68.1227 92.625 66.7317 92.625 65.2812C92.625 63.8308 92.0488 62.4398 91.0232 61.4143C89.9977 60.3887 88.6067 59.8125 87.1563 59.8125H75.4375V62.9375H81.6875V67.625H70.75C70.0074 67.6252 69.2891 67.361 68.7236 66.8797C68.1581 66.3984 67.7825 65.7315 67.6641 64.9984L73.2031 58.0766L83.5828 55.4797C83.975 56.7132 84.7425 57.7934 85.7782 58.5696C86.814 59.3458 88.0663 59.7793 89.3602 59.8094C90.6542 59.8395 91.9253 59.4648 92.996 58.7376C94.0668 58.0104 94.8837 56.967 95.3328 55.7531L103.984 59.4594L111.063 73.6219L99.2453 86.7469L97.6031 83.4656L104.763 74.8719C104.942 74.6548 105.06 74.3936 105.104 74.1154C105.148 73.8373 105.116 73.5524 105.013 73.2906L101.888 65.4781L98.9844 66.6375L101.766 73.5844L95.0172 81.6875H91.0625C89.8193 81.6875 88.627 82.1814 87.7479 83.0604C86.8689 83.9395 86.375 85.1318 86.375 86.375H80.125V70.75H87.1563ZM87.1563 62.9375C87.7779 62.9375 88.374 63.1844 88.8135 63.624C89.2531 64.0635 89.5 64.6596 89.5 65.2812C89.5 65.9029 89.2531 66.499 88.8135 66.9385C88.374 67.3781 87.7779 67.625 87.1563 67.625H84.8125V62.9375H87.1563ZM94.7844 84.8125L96.3469 87.9375H91.0625C90.6481 87.9375 90.2507 87.7729 89.9576 87.4799C89.6646 87.1868 89.5 86.7894 89.5 86.375C89.5 85.9606 89.6646 85.5632 89.9576 85.2701C90.2507 84.9771 90.6481 84.8125 91.0625 84.8125H94.7844ZM40.9547 122.312C40.6391 122.312 40.3322 122.209 40.0803 122.019C39.8284 121.829 39.6452 121.562 39.5582 121.259C39.4712 120.955 39.4853 120.632 39.5983 120.337C39.7112 120.042 39.9169 119.793 40.1844 119.625L47.3281 115.162L49.7906 117.625L48.0375 119.378C46.1547 121.25 43.6098 122.304 40.9547 122.312ZM93.6359 95.2906C92.0172 94.5001 90.2241 94.1341 88.4251 94.227C86.6261 94.3199 84.8802 94.8688 83.3516 95.8219L52.2188 115.634L48.1563 111.572L79.0625 89.5H87.5938C88.0297 89.9896 88.5639 90.3818 89.1616 90.651C89.7593 90.9202 90.407 91.0604 91.0625 91.0625H98.875C99.0939 91.0624 99.3104 91.0164 99.5104 90.9273C99.7104 90.8382 99.8895 90.708 100.036 90.5453L100.973 89.5H101.35L112.875 101.025L111.511 116.062H105.125V102C105.127 101.708 105.047 101.422 104.894 101.173C104.741 100.925 104.522 100.724 104.261 100.594L93.6359 95.2906ZM105.125 122.312V119.188H112.484C113.042 119.511 113.515 119.964 113.863 120.508C114.21 121.051 114.423 121.67 114.483 122.312H105.125Z" fill="#2D2D2D"/>
</g>
<defs>
<clipPath id="clip0_109_285">
<rect width="82" height="38" fill="white" transform="translate(36 87)"/>
</clipPath>
</defs>
</svg>
