<svg width="154" height="154" viewBox="0 0 154 154" fill="none" xmlns="http://www.w3.org/2000/svg">
<path d="M95.4719 0L117.762 9.11289L99.1453 54.6503L144.509 35.6147L153.827 57.8202L108.464 76.8553L154 95.4715L144.887 117.762L99.3502 99.1451L118.386 144.508L96.1801 153.826L77.145 108.464L58.5285 154L36.2381 144.887L54.8545 99.351L9.4916 118.386L0.173744 96.1808L45.5377 77.1452L0 58.5281L9.11289 36.2378L54.6495 54.8544L35.6141 9.49101L57.8195 0.173156L76.8551 45.537L95.4719 0Z" fill="#ED4747" fill-opacity="0.04"/>
<g clip-path="url(#clip0_109_287)">
<path d="M90.5521 82.3249L81.1396 77.9791C75.4188 75.3353 68.1854 78.1333 62.9604 84.3353L54.7458 79.8458C52.9229 78.9978 50.3563 80.5499 49.1375 83.1791C48.546 84.3969 48.332 85.7638 48.5229 87.1041C48.5733 87.6147 48.7463 88.1055 49.027 88.535C49.3077 88.9644 49.688 89.3197 50.1354 89.5708L57.7417 93.7374C54.5938 103.233 56.9563 112.731 63.6625 115.821L73.0729 120.165C74.5481 120.843 76.1536 121.19 77.7771 121.183C80.4834 121.121 83.1227 120.329 85.4167 118.892C89.7747 116.151 93.2113 112.167 95.2833 107.454C100.102 97.0353 97.9792 85.7499 90.5521 82.3249ZM51.6854 86.8687C51.6463 86.7774 51.619 86.6815 51.6042 86.5833C51.5255 85.8679 51.6535 85.1449 51.9729 84.4999C52.2656 83.7425 52.827 83.1195 53.55 82.7499L61.0625 86.8603C60.2565 88.0786 59.5433 89.3558 58.9292 90.6812L58.8792 90.7999L51.6854 86.8687ZM61.7667 91.9999C65.8625 83.1312 73.9625 78.1187 79.8313 80.8228L82.1375 81.8895C80.7609 82.2917 79.4407 82.8664 78.2083 83.5999C73.8504 86.3399 70.4137 90.3231 68.3417 95.0354C66.0991 99.6697 65.2951 104.869 66.0333 109.965C66.2764 111.378 66.6964 112.754 67.2833 114.062L64.9917 113C59.1104 110.283 57.6708 100.862 61.7667 91.9999ZM92.4479 106.167C90.6398 110.304 87.6362 113.807 83.8229 116.225C82.463 117.174 80.8899 117.772 79.2432 117.967C77.5964 118.162 75.9271 117.947 74.3833 117.342C72.9215 116.558 71.6757 115.425 70.7566 114.044C69.8375 112.663 69.2735 111.076 69.1146 109.425C68.4812 104.954 69.1995 100.395 71.1771 96.3353C72.9841 92.1971 75.9879 88.6942 79.8021 86.277C81.6148 85.1331 83.7012 84.4964 85.8438 84.4333C87.0128 84.4263 88.1694 84.6736 89.2333 85.1583C95.1042 87.8687 96.5438 97.2895 92.4479 106.167Z" fill="#ED4747"/>
<path d="M52.9583 100.969C51.7445 101.594 50.4088 101.946 49.0446 102.001C47.6804 102.056 46.3207 101.812 45.0604 101.287C41.6687 99.7206 39.6042 95.7143 39.5396 90.5685C39.5341 90.1577 39.3671 89.7656 39.0746 89.4771C38.7822 89.1886 38.3879 89.0268 37.9771 89.0268H37.9562C37.751 89.0296 37.5484 89.0727 37.3599 89.1537C37.1713 89.2348 37.0006 89.3521 36.8575 89.4992C36.7143 89.6462 36.6015 89.82 36.5255 90.0106C36.4495 90.2012 36.4118 90.405 36.4146 90.6102C36.4201 93.1606 36.9535 95.6823 37.9812 98.0164L35.6479 96.9414C34.186 96.1571 32.9401 95.0243 32.0207 93.6434C31.1013 92.2625 30.5367 90.6761 30.3771 89.0248C29.7454 84.5533 30.4643 79.9951 32.4417 75.9352C34.2494 71.7974 37.253 68.2946 41.0667 65.8768C42.4269 64.9297 43.9995 64.3321 45.6455 64.137C47.2915 63.9419 48.9602 64.1552 50.5042 64.7581C50.5353 64.7737 50.5673 64.7876 50.6 64.7998L52.8646 65.8414C49.7695 66.944 46.939 68.6811 44.5543 70.9413C42.1697 73.2014 40.2835 75.9349 39.0167 78.9664C38.1063 80.926 37.42 82.9821 36.9708 85.0956C36.885 85.5009 36.9637 85.9236 37.1895 86.2709C37.4153 86.6182 37.7698 86.8617 38.175 86.9477C38.2826 86.97 38.3922 86.9812 38.5021 86.981C38.8599 86.9805 39.2066 86.8571 39.4842 86.6314C39.7619 86.4058 39.9535 86.0916 40.0271 85.7414C40.4288 83.8573 41.041 82.0243 41.8521 80.2768C45.9479 71.4102 54.05 66.3852 59.9167 69.1018C61.4425 69.9285 62.7333 71.1295 63.6677 72.5919C64.602 74.0543 65.1494 75.7302 65.2583 77.4623C65.2876 77.6654 65.3566 77.8608 65.4614 78.0372C65.5662 78.2137 65.7047 78.3678 65.869 78.4908C66.0334 78.6137 66.2203 78.7031 66.4192 78.7538C66.6181 78.8045 66.825 78.8155 67.0281 78.7862C67.2313 78.7569 67.4266 78.6879 67.6031 78.5832C67.7796 78.4784 67.9337 78.3399 68.0566 78.1755C68.1796 78.0112 68.2689 77.8242 68.3196 77.6254C68.3703 77.4265 68.3814 77.2196 68.3521 77.0164C68.1646 74.7696 67.4133 72.6064 66.1679 70.727C64.9225 68.8476 63.2231 67.3127 61.2271 66.2643L51.8187 61.9164C51.7848 61.9001 51.75 61.8855 51.7146 61.8727C49.7223 61.0738 47.5645 60.7757 45.4303 61.0045C43.2961 61.2333 41.2505 61.9821 39.4729 63.1852C35.1155 65.9257 31.6789 69.9087 29.6062 74.6206C24.7875 85.0685 26.9083 96.3498 34.3375 99.781L43.75 104.125C45.2202 104.796 46.8192 105.139 48.4354 105.129C50.439 105.106 52.4153 104.661 54.2354 103.823C54.6139 103.653 54.9096 103.341 55.0575 102.953C55.2054 102.566 55.1933 102.136 55.024 101.757C54.8546 101.379 54.5418 101.083 54.1545 100.935C53.7671 100.787 53.3368 100.799 52.9583 100.969ZM100.456 90.6706C100.042 90.6756 99.6464 90.845 99.3569 91.1415C99.0674 91.438 98.9075 91.8374 98.9125 92.2518C98.9175 92.6662 99.0869 93.0617 99.3834 93.3512C99.6799 93.6407 100.079 93.8006 100.494 93.7956H100.542C102.578 93.7447 104.564 93.1472 106.29 92.0657C108.016 90.9841 109.42 89.4584 110.355 87.6481C111.289 85.8379 111.719 83.8098 111.601 81.776C111.482 79.7423 110.819 77.7779 109.681 76.0883C108.543 74.3988 106.972 73.0463 105.131 72.1725C103.291 71.2987 101.25 70.9357 99.2212 71.1215C97.1925 71.3073 95.2511 72.0351 93.6003 73.2287C91.9494 74.4223 90.6498 76.0378 89.8375 77.906C89.7554 78.0941 89.7112 78.2965 89.7073 78.5017C89.7035 78.7069 89.7401 78.9108 89.8151 79.1018C89.89 79.2929 90.0019 79.4673 90.1442 79.6151C90.2866 79.7629 90.4567 79.8812 90.6448 79.9633C90.8329 80.0454 91.0353 80.0896 91.2405 80.0934C91.4457 80.0973 91.6496 80.0607 91.8406 79.9857C92.0317 79.9108 92.2061 79.7989 92.3539 79.6565C92.5017 79.5142 92.62 79.3441 92.7021 79.156C93.2908 77.8016 94.2328 76.6304 95.4295 75.7649C96.6262 74.8995 98.0336 74.3717 99.5042 74.2368C100.975 74.1019 102.455 74.3649 103.789 74.9981C105.123 75.6314 106.263 76.6117 107.088 77.8364C107.913 79.0611 108.394 80.4851 108.48 81.9594C108.566 83.4338 108.255 84.9041 107.577 86.2166C106.9 87.5291 105.883 88.6354 104.631 89.4197C103.38 90.204 101.941 90.6375 100.465 90.6748L100.456 90.6706Z" fill="#2D2D2D"/>
<path d="M124.352 40.5603C122.839 38.181 120.749 36.223 118.276 34.8687C115.803 33.5144 113.028 32.8077 110.208 32.8145H90.4687C87.6508 32.815 84.8783 33.525 82.407 34.879C79.9356 36.2331 77.845 38.1876 76.328 40.5623C74.8109 42.9371 73.9162 45.6556 73.7263 48.4671C73.5365 51.2787 74.0576 54.0928 75.2417 56.6499L80.5104 68.0228C79.3125 69.6646 78.3223 71.4483 77.5625 73.3333C77.4183 73.7158 77.4298 74.1395 77.5944 74.5137C77.7591 74.8878 78.0638 75.1826 78.4432 75.3347C78.8226 75.4868 79.2465 75.4841 79.624 75.3273C80.0015 75.1705 80.3025 74.8719 80.4625 74.4958C81.213 72.6296 82.2214 70.8778 83.4583 69.2916C83.4754 69.2717 83.4914 69.2508 83.5062 69.2291C84.8889 67.466 86.5428 65.9337 88.4062 64.6895C88.4187 64.6895 88.425 64.6728 88.4375 64.6687C90.8123 63.1028 93.4764 62.0279 96.273 61.5073C99.0695 60.9866 101.942 61.0307 104.721 61.637C107.5 62.2432 110.13 63.3994 112.456 65.0374C114.782 66.6754 116.756 68.7622 118.263 71.1748C119.77 73.5875 120.779 76.2772 121.231 79.0857C121.682 81.8942 121.568 84.7647 120.893 87.5282C120.219 90.2916 118.998 92.8923 117.303 95.1769C115.609 97.4615 113.474 99.384 111.025 100.831H100.333C99.9189 100.831 99.5215 100.996 99.2285 101.289C98.9354 101.582 98.7708 101.979 98.7708 102.394C98.7708 102.808 98.9354 103.206 99.2285 103.499C99.5215 103.792 99.9189 103.956 100.333 103.956H111.435C111.704 103.954 111.967 103.882 112.2 103.748C115.202 102.071 117.815 99.7789 119.868 97.0208C121.921 94.2627 123.367 91.1015 124.112 87.7448C124.856 84.3881 124.882 80.9119 124.188 77.5445C123.494 74.1771 122.095 70.9946 120.083 68.2062L125.437 56.6478C126.628 54.0924 127.153 51.2773 126.963 48.4645C126.773 45.6518 125.875 42.9327 124.352 40.5603ZM122.602 55.3353L117.873 65.5437C116.932 64.5673 115.912 63.6705 114.823 62.8624L119.067 53.6958C119.756 52.2085 120.059 50.5717 119.949 48.9363C119.838 47.3009 119.318 45.7197 118.435 44.3386C117.552 42.9575 116.336 41.8209 114.898 41.0339C113.46 40.2469 111.847 39.8347 110.208 39.8353H108.25C107.836 39.8353 107.438 40 107.145 40.293C106.852 40.586 106.687 40.9834 106.687 41.3978C106.687 41.8122 106.852 42.2097 107.145 42.5027C107.438 42.7957 107.836 42.9603 108.25 42.9603H110.202C111.317 42.9594 112.414 43.2394 113.392 43.7745C114.37 44.3095 115.197 45.0824 115.797 46.0218C116.397 46.9611 116.751 48.0365 116.826 49.1488C116.901 50.261 116.694 51.3741 116.225 52.3853L112.183 61.1249C108.564 59.092 104.486 58.0154 100.335 57.9968C96.1833 57.9782 92.0959 59.0182 88.4583 61.0187L84.4583 52.3853C83.9893 51.3743 83.7825 50.2613 83.8572 49.1493C83.9318 48.0372 84.2855 46.9619 84.8855 46.0226C85.4856 45.0834 86.3126 44.3104 87.2902 43.7752C88.2679 43.24 89.3646 42.9597 90.4792 42.9603H103.585C104 42.9603 104.397 42.7957 104.69 42.5027C104.983 42.2097 105.148 41.8122 105.148 41.3978C105.148 40.9834 104.983 40.586 104.69 40.293C104.397 40 104 39.8353 103.585 39.8353H90.4687C88.8297 39.8358 87.2171 40.2489 85.7797 41.0366C84.3423 41.8243 83.1264 42.9612 82.2441 44.3425C81.3617 45.7238 80.8414 47.3051 80.731 48.9404C80.6206 50.5758 80.9238 52.2126 81.6125 53.6999L85.7917 62.7187C84.699 63.5185 83.6753 64.4084 82.7312 65.3791L78.0792 55.3333C77.1143 53.2525 76.6892 50.9622 76.843 48.6738C76.9969 46.3854 77.7246 44.1727 78.9592 42.2397C80.1938 40.3068 81.8954 38.716 83.9069 37.6142C85.9185 36.5123 88.1752 35.935 90.4687 35.9353H110.208C112.502 35.935 114.758 36.5122 116.77 37.6138C118.781 38.7154 120.483 40.3058 121.718 42.2384C122.953 44.171 123.681 46.3834 123.836 48.6716C123.99 50.9599 123.566 53.2501 122.602 55.3312V55.3353Z" fill="#ED4747"/>
</g>
<defs>
<clipPath id="clip0_109_287">
<rect width="100" height="100" fill="white" transform="translate(27 27)"/>
</clipPath>
</defs>
</svg>
