<svg width="295" height="27" viewBox="0 0 295 27" fill="none" xmlns="http://www.w3.org/2000/svg">
<path d="M44.996 23.8312C44.996 25.3903 43.7186 26.6549 42.1446 26.6549H2.85142C1.2774 26.6549 0 25.3888 0 23.8312V2.82448C0 1.26375 1.2774 0 2.85142 0H42.1446C43.7194 0 44.996 1.26375 44.996 2.82448V23.8312Z" fill="white"/>
<path d="M19.4713 8.84766L17.9268 17.8258H20.397L21.9423 8.84766H19.4713Z" fill="#07085B"/>
<path d="M15.856 8.85686L13.4367 14.9797L13.1792 14.0556C12.7016 12.9419 11.3468 11.3417 9.75684 10.3339L11.9688 17.8216L14.5826 17.8169L18.473 8.85449L15.856 8.85686Z" fill="#07085B"/>
<path d="M12.2413 9.64714C12.097 9.0437 11.6816 8.86361 11.1641 8.84229H7.33426L7.30237 9.03975C11.1641 11.2063 12.5906 12.8105 13.4095 15.101L12.2413 9.64714Z" fill="#07085B"/>
<path d="M26.9489 10.5685C27.7582 10.5558 28.3435 10.7304 28.798 10.912L29.0213 11.0155L29.3546 9.07012C28.8666 8.88845 28.0987 8.69336 27.1418 8.69336C24.7011 8.69336 22.9811 9.91051 22.9684 11.6561C22.9516 12.9459 24.1939 13.6654 25.1317 14.0959C26.0933 14.5366 26.417 14.8162 26.4122 15.2104C26.4043 15.8106 25.6444 16.0855 24.9339 16.0855C23.9452 16.0855 23.4205 15.9497 22.608 15.6171L22.2898 15.4718L21.9421 17.4804C22.521 17.7323 23.5871 17.948 24.6947 17.9598C27.2917 17.9598 28.979 16.7569 28.9973 14.8913C29.0085 13.8708 28.3491 13.0928 26.921 12.4538C26.0574 12.0376 25.5279 11.7603 25.5335 11.3401C25.5335 10.9673 25.9833 10.5685 26.9489 10.5685Z" fill="#07085B"/>
<path d="M35.6955 8.85693H33.7865C33.1941 8.85693 32.7531 9.01648 32.4924 9.60255L28.8245 17.8304H31.4191C31.4191 17.8304 31.8417 16.7246 31.9374 16.4821C32.2205 16.4821 34.7418 16.4852 35.1014 16.4852C35.1748 16.798 35.402 17.8304 35.402 17.8304H37.6937L35.6955 8.85693ZM32.6479 14.6433C32.852 14.1276 33.6319 12.134 33.6319 12.134C33.6183 12.1585 33.8336 11.6151 33.962 11.277L34.1278 12.0511C34.1278 12.0511 34.6023 14.1947 34.7011 14.6433H32.6479Z" fill="#07085B"/>
<path d="M95.0018 24.1764C95.0018 25.7348 93.7252 27.0001 92.1503 27.0001H52.8572C51.2823 27.0001 50.0057 25.734 50.0057 24.1764V3.16891C50.0057 1.60897 51.2823 0.345215 52.8572 0.345215H92.1503C93.7252 0.345215 95.0018 1.60897 95.0018 3.16891V24.1764Z" fill="white"/>
<path d="M68.6748 6.83585L64.5077 16.6813H61.7894L59.7386 8.8223C59.6142 8.33971 59.5065 8.16199 59.1278 7.95822C58.5098 7.62569 57.4884 7.31449 56.5913 7.12098L56.6511 6.83506H61.0279C61.5845 6.83506 62.0868 7.20233 62.2136 7.83816L63.2965 13.5369L65.9709 6.83585H68.6748ZM72.3499 6.83585L70.2233 16.6813H67.6517L69.7783 6.83585H72.3499ZM79.3261 13.4666C79.3365 10.8688 75.6989 10.725 75.7228 9.56397C75.7316 9.21091 76.0712 8.83494 76.8136 8.73937C77.1812 8.69198 78.1986 8.65486 79.3501 9.1801L79.8006 7.09097C79.1818 6.86902 78.3852 6.65576 77.3949 6.65576C74.8528 6.65576 73.0635 7.99297 73.05 9.90992C73.0332 11.3285 74.3274 12.1183 75.3002 12.5899C76.3033 13.0725 76.639 13.3821 76.6342 13.8133C76.627 14.4736 75.8336 14.7659 75.0961 14.7777C73.8019 14.7975 73.0524 14.431 72.4543 14.1553L71.9887 16.3124C72.5899 16.5873 73.699 16.8226 74.8473 16.8353C77.5504 16.8361 79.3174 15.5131 79.3261 13.4666ZM86.0385 16.6813H88.4162L86.3391 6.83585H84.1455C83.6511 6.83585 83.2349 7.12019 83.0507 7.55697L79.1922 16.6813H81.8929L82.4279 15.2106H85.7275L86.0385 16.6813ZM83.1679 13.1933L84.5226 9.49525L85.3009 13.1933H83.1679ZM75.6415 19.392H74.5969V20.3556H75.765V20.6455H74.2445V17.9727H75.7052V18.2609H74.5969V19.1053H75.6415V19.392ZM76.3049 17.8297H76.6565V20.6447H76.3049V17.8297ZM77.5448 19.7482C77.5528 20.2213 77.8534 20.4156 78.209 20.4156C78.461 20.4156 78.6181 20.3714 78.7456 20.3161L78.8094 20.5641C78.685 20.6194 78.469 20.6873 78.1612 20.6873C77.5647 20.6873 77.2091 20.2956 77.2091 19.7166C77.2091 19.1377 77.5536 18.6843 78.1173 18.6843C78.7536 18.6843 78.9179 19.2309 78.9179 19.5855C78.9179 19.6566 78.9139 19.7072 78.9051 19.7474H77.5448V19.7482ZM78.5782 19.4986C78.5822 19.2814 78.4857 18.9355 78.0902 18.9355C77.7298 18.9355 77.5775 19.2562 77.5496 19.4986H78.5782ZM80.8348 20.5776C80.7423 20.6218 80.5382 20.6897 80.2782 20.6897C79.6937 20.6897 79.3142 20.2964 79.3142 19.7103C79.3142 19.1195 79.7216 18.6875 80.3548 18.6875C80.5629 18.6875 80.7471 18.738 80.8428 18.7894L80.763 19.0563C80.6785 19.0113 80.5461 18.9647 80.3548 18.9647C79.9098 18.9647 79.6706 19.2941 79.6706 19.6906C79.6706 20.1352 79.9585 20.4077 80.3428 20.4077C80.5421 20.4077 80.6753 20.3611 80.775 20.3177L80.8348 20.5776ZM81.8227 18.2657V18.7254H82.3267V18.9908H81.8227V20.027C81.8227 20.264 81.8905 20.3998 82.0867 20.3998C82.1823 20.3998 82.239 20.3919 82.2908 20.3769L82.3067 20.6431C82.239 20.6652 82.1305 20.6905 81.9942 20.6905C81.8299 20.6905 81.6975 20.6352 81.6138 20.5428C81.5173 20.4354 81.4783 20.264 81.4783 20.0389V18.9908H81.1777V18.7254H81.4783V18.3684L81.8227 18.2657ZM82.8187 19.3249C82.8187 19.0982 82.8139 18.9047 82.8027 18.7254H83.1105L83.1264 19.1053H83.1384C83.2269 18.8486 83.443 18.6851 83.679 18.6851C83.7149 18.6851 83.7428 18.6898 83.7747 18.693V19.0231C83.7388 19.0137 83.7029 19.0137 83.6543 19.0137C83.4063 19.0137 83.2309 19.1961 83.1823 19.4583C83.1743 19.5073 83.1703 19.565 83.1703 19.6211V20.6447H82.8187V19.3249ZM85.9404 19.67C85.9404 20.3785 85.4404 20.6881 84.9756 20.6881C84.4549 20.6881 84.0466 20.3074 84.0466 19.7008C84.0466 19.0618 84.4756 18.6859 85.0075 18.6859C85.564 18.6859 85.9404 19.0863 85.9404 19.67ZM84.407 19.689C84.407 20.1092 84.6478 20.4275 84.9915 20.4275C85.3272 20.4275 85.58 20.1147 85.58 19.6827C85.58 19.358 85.4157 18.9481 84.9995 18.9481C84.588 18.9481 84.407 19.3296 84.407 19.689ZM86.4802 19.2443C86.4802 19.0421 86.4762 18.8849 86.4643 18.7262H86.7768L86.7968 19.0421H86.8047C86.9012 18.8636 87.1253 18.6859 87.445 18.6859C87.713 18.6859 88.1292 18.8446 88.1292 19.5034V20.6447H87.7775V19.5389C87.7775 19.2285 87.6611 18.971 87.3286 18.971C87.1006 18.971 86.9204 19.1337 86.8566 19.3288C86.8406 19.3723 86.8326 19.4307 86.8326 19.4899V20.6447H86.481L86.4802 19.2443Z" fill="#1A1F71"/>
<path d="M145.027 23.9529C145.027 25.5152 143.751 26.7789 142.175 26.7789H102.864C101.288 26.7789 100.011 25.5136 100.011 23.9529V2.93904C100.011 1.37752 101.289 0.11377 102.864 0.11377H142.175C143.751 0.11377 145.027 1.37831 145.027 2.93904V23.9529Z" fill="white"/>
<path d="M113.188 24.2488V22.797C113.188 22.2386 112.847 21.8761 112.26 21.8761C111.966 21.8761 111.648 21.9732 111.428 22.2876C111.258 22.0214 111.014 21.8761 110.647 21.8761C110.402 21.8761 110.158 21.9487 109.962 22.2157V21.9258H109.449V24.2488H109.962V22.9653C109.962 22.5538 110.183 22.3603 110.525 22.3603C110.867 22.3603 111.038 22.5775 111.038 22.9653V24.2488H111.552V22.9653C111.552 22.5538 111.797 22.3603 112.114 22.3603C112.457 22.3603 112.627 22.5775 112.627 22.9653V24.2488H113.188ZM120.788 21.9251H119.957V21.2229H119.443V21.9251H118.979V22.384H119.443V23.4502C119.443 23.9834 119.663 24.2962 120.25 24.2962C120.469 24.2962 120.714 24.2235 120.884 24.1271L120.738 23.6911C120.591 23.7867 120.42 23.8112 120.298 23.8112C120.053 23.8112 119.956 23.6667 119.956 23.4242V22.384H120.787L120.788 21.9251ZM125.138 21.8761C124.844 21.8761 124.65 22.0222 124.528 22.2157V21.9258H124.013V24.2488H124.528V22.9424C124.528 22.5546 124.698 22.3358 125.016 22.3358C125.114 22.3358 125.236 22.361 125.333 22.3855L125.48 21.9014C125.382 21.8761 125.236 21.8761 125.138 21.8761ZM118.564 22.1178C118.32 21.948 117.978 21.8753 117.611 21.8753C117.025 21.8753 116.634 22.1652 116.634 22.6241C116.634 23.0119 116.928 23.2299 117.44 23.3017L117.684 23.3262C117.953 23.3752 118.1 23.4463 118.1 23.5671C118.1 23.7377 117.904 23.8586 117.562 23.8586C117.22 23.8586 116.951 23.7377 116.78 23.6161L116.536 24.0031C116.804 24.1966 117.172 24.293 117.538 24.293C118.222 24.293 118.613 23.9802 118.613 23.5434C118.613 23.1319 118.295 22.9155 117.806 22.8413L117.562 22.8168C117.343 22.7939 117.172 22.7449 117.172 22.5996C117.172 22.4298 117.343 22.3326 117.611 22.3326C117.904 22.3326 118.198 22.4535 118.344 22.5277L118.564 22.1178ZM132.2 21.8761C131.906 21.8761 131.711 22.0222 131.59 22.2157V21.9258H131.076V24.2488H131.59V22.9424C131.59 22.5546 131.76 22.3358 132.078 22.3358C132.175 22.3358 132.297 22.361 132.394 22.3855L132.543 21.9014C132.444 21.8761 132.297 21.8761 132.2 21.8761ZM125.65 23.0861C125.65 23.7875 126.139 24.2954 126.897 24.2954C127.239 24.2954 127.483 24.2219 127.727 24.03L127.483 23.6177C127.287 23.7646 127.093 23.8365 126.872 23.8365C126.456 23.8365 126.164 23.545 126.164 23.0861C126.164 22.6493 126.457 22.3603 126.872 22.3358C127.092 22.3358 127.288 22.4084 127.483 22.553L127.727 22.1423C127.483 21.9464 127.239 21.8737 126.897 21.8737C126.141 21.8761 125.65 22.384 125.65 23.0861ZM130.391 23.0861V21.9235H129.878V22.2133C129.707 21.9961 129.462 21.8737 129.146 21.8737C128.486 21.8737 127.973 22.3816 127.973 23.0845C127.973 23.7851 128.485 24.2938 129.146 24.2938C129.488 24.2938 129.731 24.1729 129.878 23.9542V24.2456H130.391V23.0861ZM128.51 23.0861C128.51 22.6738 128.78 22.3358 129.218 22.3358C129.634 22.3358 129.927 22.6493 129.927 23.0861C129.927 23.4976 129.634 23.8365 129.218 23.8365C128.78 23.812 128.51 23.4968 128.51 23.0861ZM122.377 21.8761C121.693 21.8761 121.204 22.3603 121.204 23.0861C121.204 23.812 121.693 24.2962 122.402 24.2962C122.744 24.2962 123.086 24.1998 123.355 23.9818L123.11 23.6193C122.914 23.7646 122.67 23.8617 122.426 23.8617C122.107 23.8617 121.79 23.7164 121.716 23.3057H123.452V23.113C123.476 22.3603 123.036 21.8761 122.377 21.8761ZM122.377 22.3121C122.694 22.3121 122.914 22.5048 122.964 22.8673H121.741C121.791 22.5538 122.01 22.3121 122.377 22.3121ZM135.107 23.0861V21.0049H134.595V22.2133C134.424 21.9969 134.179 21.8753 133.862 21.8753C133.201 21.8753 132.689 22.3832 132.689 23.0853C132.689 23.7867 133.201 24.2946 133.862 24.2946C134.203 24.2946 134.448 24.1737 134.595 23.9557V24.2472H135.107V23.0861ZM133.226 23.0861C133.226 22.6738 133.495 22.3358 133.935 22.3358C134.35 22.3358 134.644 22.6493 134.644 23.0861C134.644 23.4976 134.35 23.8365 133.935 23.8365C133.495 23.812 133.226 23.4968 133.226 23.0861ZM116.072 23.0861V21.9235H115.559V22.2133C115.388 21.9961 115.143 21.8737 114.827 21.8737C114.167 21.8737 113.654 22.3816 113.654 23.0845C113.654 23.7851 114.167 24.2938 114.827 24.2938C115.168 24.2938 115.413 24.1729 115.559 23.9542V24.2456H116.072V23.0861ZM114.166 23.0861C114.166 22.6738 114.434 22.3358 114.874 22.3358C115.29 22.3358 115.583 22.6493 115.583 23.0861C115.583 23.4976 115.29 23.8365 114.874 23.8365C114.435 23.812 114.166 23.4968 114.166 23.0861Z" fill="#000002"/>
<path d="M126.091 4.27979H118.394V17.9796H126.091V4.27979Z" fill="#FF5F00"/>
<path d="M118.882 11.1286C118.882 8.34519 120.202 5.87614 122.23 4.27907C120.739 3.11721 118.858 2.41504 116.805 2.41504C111.943 2.41504 108.008 6.31213 108.008 11.1286C108.008 15.9451 111.943 19.8422 116.805 19.8422C118.858 19.8422 120.739 19.14 122.23 17.9789C120.202 16.4048 118.882 13.912 118.882 11.1286Z" fill="#EB001B"/>
<path d="M136.476 11.1288C136.476 15.9453 132.542 19.8424 127.679 19.8424C125.625 19.8424 123.745 19.1402 122.254 17.9791C124.307 16.3828 125.602 13.913 125.602 11.1296C125.602 8.34617 124.283 5.87711 122.254 4.28005C123.745 3.11819 125.625 2.41602 127.679 2.41602C132.543 2.41523 136.476 6.33601 136.476 11.1288Z" fill="#F79E1B"/>
<path d="M195.054 23.9529C195.054 25.5152 193.776 26.7789 192.201 26.7789H152.89C151.314 26.7789 150.037 25.5136 150.037 23.9529V2.93904C150.037 1.37752 151.315 0.11377 152.89 0.11377H192.201C193.776 0.11377 195.054 1.37831 195.054 2.93904V23.9529Z" fill="white"/>
<path d="M176.327 18.4517H168.416V4.36719H176.327V18.4517Z" fill="#6C6BBD"/>
<path d="M168.918 11.4098C168.918 8.55291 170.268 6.00803 172.371 4.36752C170.834 3.16854 168.893 2.45215 166.784 2.45215C161.791 2.45215 157.743 6.46219 157.743 11.409C157.743 16.3566 161.791 20.3658 166.784 20.3658C168.893 20.3658 170.834 19.6486 172.371 18.4512C170.269 16.8123 168.918 14.2659 168.918 11.4098Z" fill="#D32011"/>
<path d="M187.002 11.4094C187.002 16.3562 182.953 20.3654 177.961 20.3654C175.851 20.3654 173.911 19.6483 172.372 18.4509C174.476 16.8111 175.826 14.2647 175.826 11.4078C175.826 8.55095 174.478 6.00607 172.372 4.36557C173.911 3.16658 175.851 2.4502 177.961 2.4502C182.952 2.45178 187.002 6.4626 187.002 11.4094Z" fill="#0099DF"/>
<path d="M179.004 22.4292C179.11 22.4292 179.259 22.4497 179.376 22.4939L179.215 22.9813C179.104 22.9355 178.994 22.922 178.888 22.922C178.547 22.922 178.375 23.1416 178.375 23.5326V24.8666H177.854V22.4876H178.37V22.7759C178.506 22.569 178.702 22.4292 179.004 22.4292ZM177.073 22.9623H176.221V24.0357C176.221 24.2766 176.305 24.4354 176.568 24.4354C176.703 24.4354 176.874 24.3888 177.03 24.2995L177.18 24.7426C177.014 24.8579 176.752 24.9274 176.527 24.9274C175.909 24.9274 175.693 24.5981 175.693 24.0468V22.9623H175.206V22.4892H175.693V21.7681H176.221V22.4892H177.073V22.9623ZM170.389 23.4702C170.445 23.125 170.656 22.8928 171.027 22.8928C171.363 22.8928 171.581 23.1029 171.635 23.4702H170.389ZM172.177 23.6771C172.172 22.9362 171.71 22.4292 171.037 22.4292C170.334 22.4292 169.842 22.9378 169.842 23.6771C169.842 24.4346 170.354 24.9267 171.071 24.9267C171.433 24.9267 171.764 24.8382 172.055 24.5933L171.8 24.2103C171.599 24.3682 171.343 24.4583 171.102 24.4583C170.766 24.4583 170.459 24.3043 170.385 23.8777H172.167C172.172 23.8114 172.177 23.749 172.177 23.6771ZM174.471 23.0966C174.326 23.0073 174.031 22.8928 173.724 22.8928C173.438 22.8928 173.267 22.9979 173.267 23.1724C173.267 23.3296 173.448 23.3754 173.674 23.4062L173.92 23.441C174.442 23.5152 174.758 23.7348 174.758 24.1518C174.758 24.6036 174.357 24.9274 173.664 24.9274C173.272 24.9274 172.912 24.8271 172.623 24.617L172.87 24.2142C173.047 24.3485 173.309 24.4622 173.669 24.4622C174.025 24.4622 174.217 24.358 174.217 24.1755C174.217 24.0389 174.081 23.9646 173.795 23.9259L173.548 23.8935C173.01 23.8177 172.718 23.5792 172.718 23.1914C172.718 22.7175 173.112 22.4284 173.718 22.4284C174.1 22.4284 174.446 22.5121 174.698 22.6772L174.471 23.0966ZM180.913 22.9212C180.806 22.9212 180.706 22.9386 180.613 22.9765C180.522 23.0144 180.442 23.0666 180.374 23.1329C180.307 23.1993 180.255 23.2814 180.216 23.3754C180.176 23.471 180.159 23.5737 180.159 23.6874C180.159 23.8011 180.176 23.9014 180.216 23.997C180.254 24.0918 180.306 24.1731 180.374 24.2403C180.442 24.3074 180.522 24.3595 180.613 24.3967C180.706 24.4354 180.806 24.4527 180.913 24.4527C181.022 24.4527 181.121 24.4354 181.212 24.3967C181.306 24.3595 181.386 24.3074 181.453 24.2403C181.522 24.1731 181.574 24.0918 181.615 23.997C181.652 23.903 181.671 23.8011 181.671 23.6874C181.671 23.5737 181.652 23.4726 181.615 23.3754C181.575 23.2822 181.522 23.1993 181.453 23.1329C181.386 23.0666 181.306 23.0144 181.212 22.9765C181.121 22.9402 181.022 22.9212 180.913 22.9212ZM180.913 22.4292C181.1 22.4292 181.272 22.4608 181.431 22.5255C181.588 22.5895 181.727 22.678 181.843 22.7901C181.959 22.9023 182.049 23.0366 182.115 23.189C182.18 23.3399 182.213 23.5065 182.213 23.6874C182.213 23.8667 182.18 24.0333 182.115 24.1858C182.049 24.3374 181.959 24.4725 181.843 24.5839C181.727 24.6968 181.59 24.7845 181.431 24.8492C181.272 24.9124 181.1 24.9448 180.913 24.9448C180.727 24.9448 180.556 24.9124 180.397 24.8492C180.239 24.7845 180.101 24.6968 179.986 24.5839C179.871 24.4725 179.781 24.3374 179.716 24.1858C179.65 24.0333 179.617 23.8667 179.617 23.6874C179.617 23.5065 179.651 23.3414 179.716 23.189C179.782 23.0366 179.872 22.9023 179.986 22.7901C180.102 22.678 180.238 22.5895 180.397 22.5255C180.556 22.4608 180.727 22.4292 180.913 22.4292ZM167.336 23.6771C167.336 23.2601 167.614 22.9173 168.065 22.9173C168.496 22.9173 168.787 23.2451 168.787 23.6771C168.787 24.1131 168.496 24.4401 168.065 24.4401C167.614 24.4401 167.336 24.0981 167.336 23.6771ZM169.28 23.6771V22.4892H168.759V22.7783C168.594 22.5642 168.343 22.4292 168 22.4292C167.327 22.4292 166.8 22.9513 166.8 23.6771C166.8 24.4046 167.327 24.9274 168 24.9274C168.343 24.9274 168.592 24.7924 168.759 24.5807V24.8674H169.28V23.6771ZM166.338 24.8674V23.3746C166.338 22.8122 165.975 22.4363 165.393 22.43C165.087 22.4252 164.771 22.52 164.548 22.8541C164.383 22.5895 164.122 22.43 163.755 22.43C163.499 22.43 163.247 22.5058 163.051 22.7838V22.49H162.53V24.869H163.056V23.5492C163.056 23.1369 163.288 22.9181 163.643 22.9181C163.99 22.9181 164.166 23.1424 164.166 23.5444V24.869H164.693V23.5492C164.693 23.1369 164.935 22.9181 165.279 22.9181C165.637 22.9181 165.807 23.1424 165.807 23.5444V24.869H166.336V24.8674H166.338Z" fill="#110F0D"/>
<path d="M245.052 23.8423C245.052 25.403 243.777 26.6667 242.203 26.6667H202.913C201.34 26.6667 200.064 25.4006 200.064 23.8423V2.8403C200.064 1.28035 201.341 0.0166016 202.913 0.0166016H242.201C243.777 0.0166016 245.052 1.28035 245.052 2.8403V23.8423Z" fill="white"/>
<path d="M218.649 14.3436L216.743 19.4294L216.541 18.3955C216.065 17.1286 215.038 15.7977 213.842 15.2575L215.585 21.7918L217.646 21.7887L220.711 14.3389H218.649V14.3436Z" fill="#025EA3"/>
<path d="M220.283 21.8015L221.501 14.3335H223.445L222.228 21.8015H220.283Z" fill="#025EA3"/>
<path d="M229.29 14.5174C228.904 14.3681 228.298 14.2046 227.545 14.2046C225.619 14.2046 224.267 15.218 224.254 16.6673C224.242 17.7415 225.221 18.341 225.958 18.6972C226.719 19.0629 226.972 19.2967 226.972 19.6229C226.961 20.1245 226.362 20.3519 225.803 20.3519C225.025 20.3519 224.612 20.239 223.973 19.961L223.721 19.8433L223.448 21.5154C223.904 21.7239 224.744 21.9024 225.62 21.9119C227.664 21.9119 228.992 20.9096 229.008 19.3615C229.018 18.5092 228.496 17.8639 227.372 17.3332C226.692 16.9872 226.273 16.7574 226.281 16.4051C226.281 16.0939 226.631 15.763 227.394 15.763C228.033 15.7535 228.491 15.8988 228.852 16.0512L229.027 16.1365L229.29 14.5174Z" fill="#025EA3"/>
<path d="M234.28 14.3433H232.777C232.311 14.3433 231.961 14.4728 231.755 14.9617L228.867 21.8033H230.911C230.911 21.8033 231.244 20.8808 231.321 20.6802C231.543 20.6802 233.53 20.6849 233.813 20.6849C233.872 20.9456 234.05 21.8033 234.05 21.8033H235.858L234.28 14.3433ZM231.88 19.1526C232.043 18.7237 232.656 17.0643 232.656 17.0643C232.643 17.0848 232.814 16.6314 232.916 16.3542L233.045 16.9971C233.045 16.9971 233.419 18.779 233.496 19.1526C233.192 19.1526 232.26 19.1526 231.88 19.1526Z" fill="#025EA3"/>
<path d="M214.976 14.3374H211.838L211.819 14.4654C214.262 15.0838 215.87 16.6003 216.541 18.398L215.86 14.9685C215.741 14.4946 215.401 14.3548 214.976 14.3374Z" fill="#F1A535"/>
<path d="M205.95 12.5336H204.708L203.277 6.13977L204.65 5.91309L205.629 10.9167L208.124 5.97943H209.441L205.95 12.5336Z" fill="#025EA3"/>
<path d="M212.404 10.4432H209.445C209.362 11.3318 209.781 11.7196 210.487 11.7196C211.079 11.7196 211.601 11.5016 212.162 11.1517L212.157 12.0403C211.609 12.3815 210.973 12.5987 210.228 12.5987C208.94 12.5987 208.087 11.8713 208.344 10.2252C208.575 8.74034 209.611 7.84229 210.815 7.84229C212.198 7.84229 212.659 8.87382 212.459 10.1692C212.443 10.2632 212.414 10.3761 212.404 10.4432ZM210.662 8.62739C210.204 8.62739 209.777 8.98677 209.574 9.73317H211.409C211.44 9.02468 211.215 8.62739 210.662 8.62739Z" fill="#025EA3"/>
<path d="M214.334 9.88501L213.927 12.5049H212.78L213.491 7.93725H214.464L214.466 8.85426C214.853 8.32507 215.38 7.88038 216.103 7.84326L216.11 8.96879C215.385 9.01539 214.735 9.39373 214.334 9.88501Z" fill="#025EA3"/>
<path d="M216.095 12.5039L216.804 7.93621H217.95L217.24 12.5039H216.095ZM217.507 7.17085C217.125 7.17085 216.859 6.90625 216.919 6.52791C216.978 6.14089 217.327 5.86523 217.71 5.86523C218.082 5.86523 218.344 6.14089 218.285 6.52791C218.224 6.90625 217.877 7.17085 217.507 7.17085Z" fill="#025EA3"/>
<path d="M221.122 6.68821C220.732 6.68821 220.495 6.85802 220.433 7.26558L220.327 7.93695H221.205V8.86344H220.185L219.618 12.5046H218.481L219.048 8.86344H218.38L218.523 7.93695H219.193L219.314 7.15184C219.47 6.14005 220.18 5.76172 221.124 5.76172C221.326 5.76172 221.474 5.78067 221.587 5.79963L221.595 6.72612C221.483 6.70795 221.314 6.68821 221.122 6.68821Z" fill="#025EA3"/>
<path d="M221.135 12.5039L221.845 7.93621H222.992L222.281 12.5039H221.135ZM222.545 7.17085C222.164 7.17085 221.898 6.90625 221.96 6.52791C222.019 6.14089 222.368 5.86523 222.749 5.86523C223.122 5.86523 223.385 6.14089 223.326 6.52791C223.267 6.90625 222.92 7.17085 222.545 7.17085Z" fill="#025EA3"/>
<path d="M227.432 10.4432H224.474C224.392 11.3318 224.809 11.7196 225.516 11.7196C226.108 11.7196 226.63 11.5016 227.191 11.1517L227.186 12.0403C226.637 12.3815 226.001 12.5987 225.255 12.5987C223.967 12.5987 223.115 11.8713 223.372 10.2252C223.603 8.74034 224.64 7.84229 225.844 7.84229C227.227 7.84229 227.688 8.87382 227.488 10.1692C227.471 10.2632 227.444 10.3761 227.432 10.4432ZM225.69 8.62739C225.232 8.62739 224.804 8.98677 224.603 9.73317H226.438C226.468 9.02468 226.245 8.62739 225.69 8.62739Z" fill="#025EA3"/>
<path d="M230.826 12.504L230.831 11.8705C230.446 12.2583 229.945 12.5988 229.303 12.5988C228.339 12.5988 227.675 11.8903 227.915 10.3477C228.18 8.6456 229.244 7.88893 230.312 7.88893C230.752 7.88893 231.093 7.96396 231.356 8.05874L231.699 5.85508L232.874 5.67578L231.813 12.5048L230.826 12.504ZM231.209 8.9955C230.945 8.86359 230.736 8.79646 230.343 8.79646C229.742 8.79646 229.229 9.27905 229.072 10.2814C228.932 11.1699 229.25 11.5862 229.754 11.5862C230.176 11.5862 230.537 11.3398 230.902 10.963L231.209 8.9955Z" fill="#025EA3"/>
<path d="M235.32 12.5488C234.778 12.5488 234.335 12.4627 233.923 12.319L234.677 7.46935L235.564 7.3335L235.241 9.43211C235.499 9.20306 235.859 8.974 236.301 8.974C237.038 8.974 237.533 9.51741 237.354 10.6801C237.155 11.9525 236.363 12.5488 235.32 12.5488ZM235.961 9.73225C235.671 9.73225 235.379 9.92497 235.124 10.1833L234.878 11.7519C235.049 11.8167 235.167 11.8451 235.414 11.8451C235.962 11.8451 236.347 11.5149 236.469 10.7275C236.574 10.0616 236.35 9.73225 235.961 9.73225Z" fill="#025EA3"/>
<path d="M239.398 12.6901C238.955 13.5432 238.517 13.807 237.844 13.807C237.691 13.807 237.607 13.7935 237.529 13.7722L237.525 13.0629C237.636 13.0914 237.754 13.1127 237.921 13.1127C238.173 13.1127 238.396 12.9982 238.54 12.7486L238.656 12.5187L237.921 9.10897L238.843 8.99365L239.269 11.458L240.425 9.0442H241.286L239.398 12.6901Z" fill="#025EA3"/>
<path d="M295 23.9614C295 25.5198 293.724 26.7827 292.153 26.7827H252.91C251.337 26.7827 250.062 25.5182 250.062 23.9614V2.98313C250.062 1.42477 251.338 0.162598 252.91 0.162598H292.153C293.727 0.162598 295 1.42477 295 2.98313V23.9614Z" fill="white"/>
<path d="M290.46 11.783C290.46 11.3668 290.792 11.0264 291.19 11.0264C291.6 11.0264 291.921 11.366 291.921 11.783C291.921 12.2001 291.6 12.5397 291.19 12.5397C290.792 12.5508 290.46 12.2096 290.46 11.783ZM291.192 12.3746C291.502 12.3746 291.744 12.1116 291.744 11.7941C291.744 11.4766 291.489 11.2128 291.192 11.2128C290.882 11.2128 290.638 11.4758 290.638 11.7941C290.636 12.1124 290.882 12.3746 291.192 12.3746ZM291.091 12.1235H290.938V11.4537H291.214C291.27 11.4537 291.337 11.4537 291.381 11.4868C291.433 11.52 291.457 11.5856 291.457 11.6511C291.457 11.7285 291.414 11.7933 291.348 11.8154L291.468 12.1116H291.303L291.203 11.8486H291.091V12.1235ZM291.091 11.7507H291.179C291.213 11.7507 291.246 11.7507 291.266 11.7388C291.288 11.7285 291.3 11.6954 291.3 11.6622C291.3 11.6401 291.288 11.6077 291.266 11.5966C291.246 11.5856 291.201 11.5856 291.179 11.5856H291.101L291.091 11.7507Z" fill="#FD0C15"/>
<path d="M280.002 6.72961L279.803 8.02338C279.372 7.79274 279.053 7.70586 278.708 7.70586C277.8 7.70586 277.159 8.62603 277.159 9.93085C277.159 10.8297 277.592 11.3771 278.301 11.3771C278.6 11.3771 278.93 11.2791 279.341 11.0706L279.129 12.4299C278.676 12.5618 278.388 12.6053 278.047 12.6053C276.73 12.6053 275.91 11.6187 275.91 10.0399C275.91 7.91359 277.038 6.42236 278.665 6.42236C278.874 6.42236 279.064 6.44448 279.218 6.48792L279.729 6.61903C279.859 6.67511 279.893 6.68538 280.002 6.72961Z" fill="#FD0C15"/>
<path d="M275.942 7.61701C275.909 7.60596 275.862 7.60596 275.819 7.60596C275.422 7.60596 275.19 7.81448 274.813 8.3958L274.924 7.66125H273.816L273.066 12.4959H274.293C274.736 9.53634 274.846 9.03163 275.433 9.03163C275.468 9.03163 275.477 9.03163 275.522 9.03163C275.633 8.4503 275.775 8.02299 275.986 7.62807L275.942 7.61701Z" fill="#FD0C15"/>
<path d="M268.627 12.4297C268.293 12.5402 268.029 12.5947 267.751 12.5947C267.132 12.5947 266.789 12.2219 266.789 11.5308C266.789 11.3997 266.802 11.2465 266.823 11.0932L266.901 10.6217L266.955 10.2378L267.487 6.93945H268.703L268.559 7.65189H269.19L269.013 8.82402H268.394L268.072 10.8413C268.061 10.9297 268.052 10.9945 268.052 11.0387C268.052 11.2915 268.183 11.4005 268.47 11.4005C268.616 11.4005 268.715 11.3886 268.802 11.3571L268.627 12.4297Z" fill="#FD0C15"/>
<path d="M263.803 9.18613C263.803 9.79984 264.089 10.2161 264.731 10.5344C265.218 10.7753 265.309 10.8519 265.309 11.0715C265.309 11.3677 265.086 11.5106 264.611 11.5106C264.245 11.5106 263.913 11.4554 263.515 11.3132L263.35 12.4308L263.404 12.4419L263.625 12.4853C263.703 12.4972 263.803 12.5185 263.945 12.5295C264.233 12.5509 264.465 12.5738 264.618 12.5738C265.903 12.5738 266.501 12.0588 266.501 10.9617C266.501 10.3038 266.258 9.90884 265.638 9.61344C265.129 9.37175 265.073 9.31725 265.073 9.08661C265.073 8.82359 265.272 8.69248 265.673 8.69248C265.916 8.69248 266.236 8.72565 266.546 8.76909L266.723 7.65146C266.404 7.59618 265.928 7.55273 265.649 7.55273C264.267 7.55273 263.791 8.2865 263.803 9.18613Z" fill="#FD0C15"/>
<path d="M289.752 12.4842H288.591L288.646 12.0134C288.314 12.3863 287.961 12.5505 287.517 12.5505C286.621 12.5505 286.034 11.7512 286.034 10.5443C286.034 8.93305 286.941 7.57373 288.026 7.57373C288.503 7.57373 288.856 7.78304 289.201 8.23167L289.465 6.53271H290.673L289.752 12.4842ZM287.948 11.3555C288.525 11.3555 288.922 10.6865 288.922 9.72211C288.922 9.1084 288.69 8.76797 288.269 8.76797C287.717 8.76797 287.32 9.44803 287.32 10.3895C287.319 11.0261 287.528 11.3555 287.948 11.3555Z" fill="#FD0C15"/>
<path d="M272.499 12.3856C272.08 12.5167 271.682 12.583 271.239 12.583C269.878 12.583 269.159 11.8366 269.159 10.4117C269.159 8.74596 270.065 7.52881 271.294 7.52881C272.304 7.52881 272.943 8.21992 272.943 9.29332C272.943 9.6448 272.898 9.99549 272.788 10.4891H270.353C270.342 10.5658 270.342 10.5981 270.342 10.6424C270.342 11.2126 270.708 11.4978 271.415 11.4978C271.848 11.4978 272.245 11.399 272.69 11.1913L272.499 12.3856ZM271.814 9.50263C271.827 9.4039 271.827 9.31702 271.827 9.26173C271.827 8.86681 271.615 8.63696 271.25 8.63696C270.863 8.63696 270.585 8.94342 270.476 9.50263H271.814Z" fill="#FD0C15"/>
<path d="M258.889 12.4839H257.671L258.369 7.91305L256.796 12.4839H255.967L255.867 7.94622L255.126 12.4839H253.986L254.937 6.54346H256.698L256.741 10.2265L257.937 6.54346H259.841L258.889 12.4839Z" fill="#FD0C15"/>
<path d="M262.043 10.3368C261.909 10.3249 261.855 10.3146 261.767 10.3146C261.069 10.3146 260.723 10.5658 260.723 11.0484C260.723 11.3446 260.904 11.5421 261.169 11.5421C261.656 11.5421 262.021 11.0484 262.043 10.3368ZM262.927 12.4844H261.909L261.931 11.9804C261.622 12.3856 261.213 12.561 260.649 12.561C259.986 12.561 259.531 12.0231 259.531 11.2451C259.531 10.0611 260.329 9.38184 261.679 9.38184C261.822 9.38184 261.998 9.39211 262.177 9.41501C262.21 9.25073 262.221 9.18517 262.221 9.09829C262.221 8.77998 262.01 8.65913 261.436 8.65913C261.092 8.65913 260.695 8.71442 260.42 8.8021L260.264 8.85738L260.153 8.88977L260.32 7.80452C260.929 7.61733 261.338 7.5415 261.781 7.5415C262.832 7.5415 263.385 8.03516 263.385 8.95533C263.385 9.19623 263.363 9.37157 263.285 9.91973L263.042 11.64L262.995 11.9465L262.964 12.1874L262.941 12.3627L262.927 12.4844Z" fill="#FD0C15"/>
<path d="M282.115 10.3363C281.994 10.3244 281.928 10.3142 281.839 10.3142C281.143 10.3142 280.788 10.5653 280.788 11.0479C280.788 11.3441 280.966 11.5416 281.232 11.5416C281.729 11.5416 282.094 11.0479 282.115 10.3363ZM283.002 12.4839H281.984L282.005 11.98C281.695 12.3851 281.287 12.5605 280.724 12.5605C280.057 12.5605 279.604 12.0226 279.604 11.2446C279.604 10.0606 280.402 9.38137 281.751 9.38137C281.885 9.38137 282.074 9.39163 282.251 9.41454C282.284 9.25025 282.294 9.1847 282.294 9.09781C282.294 8.77951 282.083 8.65866 281.509 8.65866C281.165 8.65866 280.768 8.71395 280.492 8.80162L280.315 8.84585L280.204 8.87903L280.369 7.79378C280.978 7.60738 281.387 7.53076 281.83 7.53076C282.881 7.53076 283.436 8.02441 283.436 8.94458C283.436 9.18549 283.412 9.36083 283.334 9.90898L283.081 11.619L283.046 11.9255L283.014 12.1671L282.991 12.3314L283.002 12.4839Z" fill="#FD0C15"/>
<path d="M286.422 7.61701C286.389 7.60596 286.344 7.60596 286.299 7.60596C285.902 7.60596 285.67 7.81448 285.293 8.3958L285.404 7.66125H284.298L283.546 12.4959H284.775C285.214 9.53634 285.327 9.03163 285.913 9.03163C285.948 9.03163 285.948 9.03163 286.002 9.03163C286.111 8.4503 286.267 8.02299 286.466 7.62807L286.422 7.61701Z" fill="#FD0C15"/>
<path d="M281.287 17.1871C281.287 18.2842 280.942 18.9303 280.401 18.9303C280.002 18.9413 279.77 18.503 279.77 17.8577C279.77 17.0907 280.123 16.2148 280.68 16.2148C281.133 16.2116 281.287 16.6816 281.287 17.1871ZM282.492 17.1989C282.492 15.9818 281.885 15.0269 280.744 15.0269C279.428 15.0269 278.577 16.1769 278.577 17.8774C278.577 19.093 279.087 20.0921 280.323 20.0921C281.575 20.0921 282.492 19.2138 282.492 17.1989Z" fill="#F3AE12"/>
<path d="M278.963 14.1832L278.777 15.477C278.364 15.2479 278.079 15.1595 277.759 15.1595C276.907 15.1595 276.309 16.082 276.309 17.3845C276.309 18.2841 276.708 18.8307 277.371 18.8307C277.659 18.8307 277.967 18.7327 278.346 18.5234L278.147 19.8835C277.727 20.0146 277.449 20.0605 277.127 20.0605C275.9 20.0605 275.124 19.0724 275.124 17.495C275.124 15.368 276.188 13.876 277.703 13.876C277.901 13.876 278.067 13.8973 278.214 13.9423L278.676 14.0742C278.829 14.1192 278.862 14.1287 278.963 14.1832Z" fill="#F3AE12"/>
<path d="M271.404 15.0619C271.371 15.0469 271.326 15.0469 271.284 15.0469C270.906 15.0469 270.696 15.2578 270.34 15.8375L270.451 15.1014H269.423L268.726 19.936H269.867C270.277 16.9773 270.387 16.471 270.928 16.471C270.962 16.471 270.962 16.471 271.016 16.482C271.118 15.9023 271.261 15.4758 271.449 15.0816L271.404 15.0619Z" fill="#F3AE12"/>
<path d="M286.32 19.8934H285.237L285.293 19.4226C284.982 19.7946 284.651 19.9589 284.231 19.9589C283.4 19.9589 282.846 19.1596 282.846 17.9519C282.846 16.3422 283.7 14.9813 284.707 14.9813C285.15 14.9813 285.492 15.1898 285.802 15.6511L286.056 13.9521H287.185L286.32 19.8934ZM284.629 18.7544C285.171 18.7544 285.536 18.0838 285.536 17.1202C285.536 16.5073 285.327 16.1771 284.927 16.1771C284.408 16.1771 284.042 16.8485 284.042 17.8018C284.042 18.4369 284.24 18.7544 284.629 18.7544Z" fill="#F3AE12"/>
<path d="M260.692 19.8723C260.306 20.005 259.929 20.0697 259.519 20.0697C258.247 20.0697 257.582 19.3249 257.582 17.8992C257.582 16.2429 258.433 15.0171 259.573 15.0171C260.514 15.0171 261.112 15.6964 261.112 16.7824C261.112 17.1339 261.067 17.483 260.969 17.9774H258.699C258.688 18.054 258.688 18.0864 258.688 18.1291C258.688 18.6891 259.031 18.9726 259.695 18.9726C260.104 18.9726 260.47 18.8747 260.879 18.6662L260.692 19.8723ZM260.051 16.9901C260.051 16.8906 260.064 16.8029 260.064 16.7476C260.064 16.3527 259.863 16.1229 259.52 16.1229C259.156 16.1229 258.9 16.4309 258.79 16.9901H260.051Z" fill="#F3AE12"/>
<path d="M274.282 19.8723C273.896 20.005 273.519 20.0697 273.107 20.0697C271.824 20.0697 271.161 19.3249 271.161 17.8992C271.161 16.2429 272.012 15.0171 273.153 15.0171C274.094 15.0171 274.702 15.6964 274.702 16.7824C274.702 17.1339 274.658 17.483 274.557 17.9774H272.288C272.276 18.054 272.276 18.0864 272.276 18.1291C272.276 18.6891 272.621 18.9726 273.284 18.9726C273.694 18.9726 274.06 18.8747 274.468 18.6662L274.282 19.8723ZM273.641 16.9901C273.652 16.8906 273.652 16.8029 273.652 16.7476C273.652 16.3527 273.453 16.1229 273.11 16.1229C272.744 16.1229 272.49 16.4309 272.379 16.9901H273.641Z" fill="#F3AE12"/>
<path d="M290.217 19.8723C289.82 20.005 289.443 20.0697 289.043 20.0697C287.77 20.0697 287.097 19.3249 287.097 17.8992C287.097 16.2429 287.948 15.0171 289.1 15.0171C290.04 15.0171 290.639 15.6964 290.639 16.7824C290.639 17.1339 290.593 17.483 290.493 17.9774H288.226C288.214 18.054 288.214 18.0864 288.214 18.1291C288.214 18.6891 288.557 18.9726 289.222 18.9726C289.632 18.9726 289.995 18.8747 290.406 18.6662L290.217 19.8723ZM289.576 16.9901C289.576 16.8906 289.587 16.8029 289.587 16.7476C289.587 16.3527 289.387 16.1229 289.045 16.1229C288.677 16.1229 288.425 16.4309 288.314 16.9901H289.576Z" fill="#F3AE12"/>
<path d="M257.305 15.2794C257.086 15.1269 256.775 15.0061 256.355 15.0061C255.891 15.0061 255.527 15.1048 255.527 15.5858C255.527 16.4404 257.208 16.1229 257.208 17.9648C257.208 19.6417 256.099 20.0816 255.094 20.0816C254.651 20.0816 254.133 19.9379 253.754 19.7641L254.032 18.5351C254.265 18.7436 254.718 18.8842 255.106 18.8842C255.471 18.8842 256.025 18.7855 256.025 18.1623C256.025 17.186 254.342 17.5486 254.342 15.8394C254.342 14.2723 255.326 13.811 256.279 13.811C256.81 13.811 257.32 13.8884 257.608 14.0859L257.305 15.2794Z" fill="#F3AE12"/>
<path d="M264.035 19.8727C263.803 19.9825 263.482 20.0599 263.018 20.0599C262.021 20.0599 261.402 19.0718 261.402 17.8673C261.402 16.2876 262.297 15.0381 263.614 15.0381C263.902 15.0381 264.345 15.1581 264.688 15.3572L264.434 16.5072C264.189 16.3421 263.936 16.2434 263.671 16.2434C263.062 16.2434 262.619 16.8018 262.619 17.7891C262.619 18.361 262.941 18.8301 263.439 18.8301C263.736 18.8301 263.949 18.7638 264.201 18.6208L264.035 19.8727Z" fill="#F3AE12"/>
<path d="M268.306 18.6561C268.252 19.0708 268.197 19.4783 268.163 19.9041H267.066L267.155 19.1284H267.142C266.799 19.6537 266.445 20.0146 265.814 20.0146C265.129 20.0146 264.753 19.2919 264.753 18.3599C264.753 18.0313 264.773 17.8552 264.84 17.3521L265.15 15.1152H266.379L266.047 17.3639C266.015 17.6048 265.969 17.8426 265.969 18.0969C265.969 18.382 266.102 18.6687 266.433 18.645C266.932 18.645 267.229 18.0408 267.319 17.3292L267.664 15.1152H268.847L268.306 18.6561Z" fill="#F3AE12"/>
<path d="M291.357 19.8505H291.167V19.0503H290.904V18.875H291.622V19.0503H291.357V19.8505Z" fill="#F3AE12"/>
<path d="M292.584 19.8505H292.409V19.0393L292.242 19.8505H292.064L291.899 19.0393V19.8505H291.721V18.875H291.999L292.153 19.6427H292.164L292.318 18.875H292.584V19.8505Z" fill="#F3AE12"/>
</svg>
