<svg width="22" height="25" viewBox="0 0 22 25" fill="none" xmlns="http://www.w3.org/2000/svg">
<path d="M0.703125 1.37109C0.703125 0.956881 1.03891 0.621094 1.45312 0.621094C1.86734 0.621094 2.20312 0.956881 2.20312 1.37109H0.703125ZM2.20312 1.37109V24.6289H0.703125V1.37109H2.20312Z" fill="white"/>
<path d="M1.82478 4.07346C1.465 4.27872 1.00695 4.15346 0.801688 3.79368C0.596427 3.43391 0.721688 2.97585 1.08147 2.77059L1.82478 4.07346ZM11 3.42203L10.6283 4.07346L10.6283 4.07346L11 3.42203ZM20.5469 3.42203L20.1752 2.77059L21.2969 2.13065V3.42203H20.5469ZM20.5469 15.7225H21.2969V16.1581L20.9185 16.3739L20.5469 15.7225ZM11 15.7225L11.3717 15.0711L11.3717 15.0711L11 15.7225ZM1.08147 2.77059C4.3549 0.903028 7.92233 0.802643 11.3717 2.77059L10.6283 4.07346C7.65399 2.3765 4.65199 2.46049 1.82478 4.07346L1.08147 2.77059ZM11.3717 2.77059C14.1989 4.38357 17.2009 4.46755 20.1752 2.77059L20.9185 4.07346C17.4692 6.04141 13.9018 5.94102 10.6283 4.07346L11.3717 2.77059ZM21.2969 3.42203V15.7225H19.7969V3.42203H21.2969ZM20.9185 16.3739C17.6451 18.2415 14.0777 18.3419 10.6283 16.3739L11.3717 15.0711C14.346 16.768 17.348 16.684 20.1752 15.0711L20.9185 16.3739ZM10.6283 16.3739C7.80114 14.761 4.79914 14.677 1.82479 16.3739L1.08146 15.0711C4.53079 13.1031 8.09823 13.2035 11.3717 15.0711L10.6283 16.3739Z" fill="white"/>
</svg>
