<svg width="30" height="30" viewBox="0 0 30 30" fill="none" xmlns="http://www.w3.org/2000/svg">
<path d="M22.9613 13.2292C22.3522 13.2292 21.8705 12.7333 21.8705 12.1383C21.8705 11.6142 21.3463 10.5234 20.468 9.57418C19.6038 8.65335 18.6547 8.11502 17.8613 8.11502C17.2522 8.11502 16.7705 7.61918 16.7705 7.02418C16.7705 6.42918 17.2663 5.93335 17.8613 5.93335C19.278 5.93335 20.7655 6.69835 22.0688 8.07252C23.2872 9.36168 24.0663 10.9625 24.0663 12.1242C24.0663 12.7334 23.5705 13.2292 22.9613 13.2292Z" fill="white"/>
<path d="M28.076 13.2291C27.4668 13.2291 26.9852 12.7333 26.9852 12.1383C26.9852 7.10908 22.891 3.02909 17.876 3.02909C17.2668 3.02909 16.7852 2.53325 16.7852 1.93825C16.7852 1.34325 17.2668 0.833252 17.8618 0.833252C24.0952 0.833252 29.1668 5.90492 29.1668 12.1383C29.1668 12.7333 28.671 13.2291 28.076 13.2291Z" fill="white"/>
<path d="M13.6538 19.1791L11.033 21.7999C10.4805 22.3524 9.60217 22.3524 9.03551 21.8141C8.87967 21.6583 8.72384 21.5166 8.56801 21.3608C7.10884 19.8874 5.79134 18.3433 4.61551 16.7283C3.45384 15.1133 2.51884 13.4983 1.83884 11.8974C1.17301 10.2824 0.833008 8.73825 0.833008 7.26492C0.833008 6.30159 1.00301 5.38075 1.34301 4.53075C1.68301 3.66659 2.22134 2.87325 2.97217 2.16492C3.87884 1.27242 4.87051 0.833252 5.91884 0.833252C6.31551 0.833252 6.71217 0.918252 7.06634 1.08825C7.43467 1.25825 7.76051 1.51325 8.01551 1.88159L11.3022 6.51409C11.5572 6.86825 11.7413 7.19409 11.8688 7.50575C11.9963 7.80325 12.0672 8.10075 12.0672 8.36992C12.0672 8.70992 11.968 9.04992 11.7697 9.37575C11.5855 9.70159 11.3163 10.0416 10.9763 10.3816L9.89967 11.5008C9.74384 11.6566 9.67301 11.8408 9.67301 12.0674C9.67301 12.1808 9.68717 12.2799 9.71551 12.3933C9.75801 12.5066 9.80051 12.5916 9.82884 12.6766C10.0838 13.1441 10.523 13.7533 11.1463 14.4899C11.7838 15.2266 12.4638 15.9774 13.2005 16.7283C13.3422 16.8699 13.498 17.0116 13.6397 17.1533C14.2063 17.7058 14.2205 18.6124 13.6538 19.1791Z" fill="white"/>
<path d="M29.1238 23.9674C29.1238 24.3641 29.0529 24.7749 28.9113 25.1716C28.8688 25.2849 28.8263 25.3982 28.7696 25.5116C28.5288 26.0216 28.2171 26.5032 27.8063 26.9566C27.1121 27.7216 26.3471 28.2741 25.4829 28.6282C25.4688 28.6282 25.4546 28.6424 25.4404 28.6424C24.6046 28.9824 23.6979 29.1666 22.7204 29.1666C21.2754 29.1666 19.7313 28.8266 18.1021 28.1324C16.4729 27.4382 14.8438 26.5032 13.2288 25.3274C12.6763 24.9166 12.1238 24.5057 11.5996 24.0666L16.2321 19.4341C16.6288 19.7316 16.9829 19.9582 17.2804 20.1141C17.3513 20.1424 17.4363 20.1849 17.5354 20.2274C17.6488 20.2699 17.7621 20.2841 17.8896 20.2841C18.1304 20.2841 18.3146 20.1991 18.4704 20.0432L19.5471 18.9807C19.9013 18.6266 20.2413 18.3574 20.5671 18.1874C20.8929 17.9891 21.2188 17.8899 21.5729 17.8899C21.8421 17.8899 22.1254 17.9466 22.4371 18.0741C22.7488 18.2016 23.0746 18.3857 23.4288 18.6266L28.1179 21.9557C28.4863 22.2107 28.7413 22.5082 28.8971 22.8624C29.0388 23.2166 29.1238 23.5707 29.1238 23.9674Z" fill="white"/>
</svg>
