<svg width="30" height="26" viewBox="0 0 30 26" fill="none" xmlns="http://www.w3.org/2000/svg">
<path d="M22.083 0.958252H7.91634C3.66634 0.958252 0.833008 3.08325 0.833008 8.04159V17.9583C0.833008 22.9166 3.66634 25.0416 7.91634 25.0416H22.083C26.333 25.0416 29.1663 22.9166 29.1663 17.9583V8.04159C29.1663 3.08325 26.333 0.958252 22.083 0.958252ZM22.7488 9.58575L18.3147 13.1274C17.3797 13.8783 16.1897 14.2466 14.9997 14.2466C13.8097 14.2466 12.6055 13.8783 11.6847 13.1274L7.25051 9.58575C6.79717 9.21742 6.72634 8.53742 7.08051 8.08409C7.44884 7.63075 8.11468 7.54575 8.56801 7.91409L13.0022 11.4558C14.0788 12.3199 15.9063 12.3199 16.983 11.4558L21.4172 7.91409C21.8705 7.54575 22.5505 7.61659 22.9047 8.08409C23.273 8.53742 23.2022 9.21742 22.7488 9.58575Z" fill="white"/>
</svg>
