<svg width="24" height="24" viewBox="0 0 24 24" fill="none" xmlns="http://www.w3.org/2000/svg">
<path d="M7.56366 9.23041H4.1828V20.0118H7.56366V9.23041Z" fill="white"/>
<path d="M16.709 8.99693C16.5844 8.98135 16.452 8.97356 16.3195 8.96577C14.4266 8.88787 13.3593 10.0096 12.9854 10.4926C12.8841 10.625 12.8374 10.7029 12.8374 10.7029V9.26179H9.60455V20.0431H12.8374H12.9854C12.9854 18.9448 12.9854 17.8542 12.9854 16.7558C12.9854 16.1637 12.9854 15.5717 12.9854 14.9797C12.9854 14.2474 12.9309 13.4684 13.297 12.7985C13.6086 12.2376 14.1695 11.9571 14.8005 11.9571C16.6701 11.9571 16.709 13.6476 16.709 13.8034C16.709 13.8112 16.709 13.8189 16.709 13.8189V20.0899H20.0899V13.0555C20.0899 10.6484 18.8669 9.23063 16.709 8.99693Z" fill="white"/>
<path d="M5.87317 7.83625C6.95735 7.83625 7.83626 6.95735 7.83626 5.87317C7.83626 4.789 6.95735 3.9101 5.87317 3.9101C4.78899 3.9101 3.9101 4.789 3.9101 5.87317C3.9101 6.95735 4.78899 7.83625 5.87317 7.83625Z" fill="white"/>
</svg>
