<svg width="18" height="18" viewBox="0 0 18 18" fill="none" xmlns="http://www.w3.org/2000/svg">
<path d="M4.56348 6.23047H1.18262V17.0118H4.56348V6.23047Z" fill="#ED4747"/>
<path d="M13.709 5.99693C13.5843 5.98135 13.4519 5.97356 13.3195 5.96577C11.4265 5.88787 10.3593 7.00963 9.98535 7.49261C9.88408 7.62504 9.83734 7.70294 9.83734 7.70294V6.26179H6.60449V17.0431H9.83734H9.98535C9.98535 15.9448 9.98535 14.8542 9.98535 13.7558C9.98535 13.1637 9.98535 12.5717 9.98535 11.9797C9.98535 11.2474 9.93082 10.4684 10.297 9.79845C10.6086 9.23757 11.1694 8.95713 11.8004 8.95713C13.67 8.95713 13.709 10.6476 13.709 10.8034C13.709 10.8112 13.709 10.8189 13.709 10.8189V17.0899H17.0898V10.0555C17.0898 7.64841 15.8668 6.23063 13.709 5.99693Z" fill="#ED4747"/>
<path d="M2.87323 4.83631C3.95741 4.83631 4.83632 3.95741 4.83632 2.87324C4.83632 1.78906 3.95741 0.910156 2.87323 0.910156C1.78905 0.910156 0.910156 1.78906 0.910156 2.87324C0.910156 3.95741 1.78905 4.83631 2.87323 4.83631Z" fill="#ED4747"/>
</svg>
