<svg width="225" height="39" viewBox="0 0 225 39" fill="none" xmlns="http://www.w3.org/2000/svg">
<path d="M19.228 35.286H19.27C19.312 35.286 19.354 35.328 19.27 35.328H19.228H19.186C19.144 35.328 19.186 35.286 19.228 35.286ZM8.728 35.286C8.77 35.286 8.854 35.328 8.77 35.328H8.686H8.644C8.56 35.328 8.686 35.286 8.686 35.286H8.728ZM28.09 35.244C28.132 35.244 28.174 35.286 28.09 35.286H28.048L28.09 35.244ZM24.772 35.16C24.772 35.118 24.898 35.118 24.94 35.118C24.982 35.118 25.108 35.118 25.108 35.16C25.108 35.202 24.982 35.244 24.94 35.244C24.898 35.244 24.772 35.202 24.772 35.16ZM23.554 35.16C23.554 35.118 23.764 35.118 23.806 35.118C23.848 35.118 24.058 35.118 24.058 35.16C24.058 35.202 23.848 35.244 23.806 35.244C23.764 35.244 23.554 35.202 23.554 35.16ZM5.494 34.026V34.194C5.494 34.236 5.452 34.32 5.494 34.32C5.536 34.278 5.578 34.11 5.578 34.026C5.578 33.942 5.536 33.9 5.536 33.816V33.774C5.494 33.774 5.494 33.942 5.494 34.026ZM4.024 33.69C4.024 33.816 4.066 34.32 4.15 34.32C4.234 34.32 4.234 33.816 4.234 33.69C4.234 33.564 4.234 33.102 4.15 33.102C4.066 33.102 4.024 33.564 4.024 33.69ZM1.462 32.262C1.462 32.388 1.378 32.766 1.378 32.598C1.378 32.556 1.378 32.346 1.42 32.262H1.462ZM3.1 32.22C3.1 32.136 3.1 32.01 3.058 31.968C3.016 31.968 3.016 32.052 3.016 32.094V32.22C3.016 32.262 3.016 32.514 3.058 32.514C3.1 32.514 3.1 32.262 3.1 32.22ZM4.738 28.524V28.188C4.738 28.188 4.696 28.146 4.696 28.524C4.696 28.902 4.738 28.818 4.738 28.524ZM2.176 27.81C2.176 28.104 2.134 28.44 2.176 28.734C2.218 28.902 2.344 29.07 2.344 28.818C2.344 28.608 2.218 28.062 2.176 27.81ZM6.796 27.936C6.796 27.894 6.796 27.768 6.838 27.768C6.88 27.768 6.88 27.894 6.88 27.936C6.88 27.978 6.88 28.146 6.838 28.146C6.796 28.146 6.796 27.978 6.796 27.936ZM3.814 28.272C3.814 28.524 3.814 28.902 4.024 28.902C3.94 28.734 3.856 27.6 3.814 27.558C3.814 27.558 3.772 27.684 3.772 27.81C3.772 27.936 3.814 28.062 3.814 28.272ZM5.536 27.642V27.768V27.894C5.536 27.936 5.578 27.894 5.578 27.894C5.578 27.894 5.62 27.558 5.578 27.558V27.474H5.536C5.494 27.516 5.536 27.642 5.536 27.642ZM6.88 26.718C6.88 26.802 6.88 26.97 6.838 26.97C6.796 26.97 6.796 26.802 6.796 26.718C6.796 26.634 6.796 26.424 6.838 26.424C6.88 26.424 6.88 26.634 6.88 26.718ZM2.638 25.794C2.638 25.668 2.554 25.836 2.554 25.878C2.554 26.046 2.68 26.004 2.68 25.878C2.68 25.836 2.638 25.836 2.638 25.794ZM1.84 24.954V25.08C1.84 25.122 1.798 25.206 1.84 25.206C1.882 25.206 1.924 25.08 1.924 25.038C1.924 24.996 1.924 24.786 1.882 24.786H1.84V24.954ZM5.032 24.744C5.032 24.87 5.074 25.164 5.158 25.164C5.242 25.164 5.242 24.87 5.242 24.744C5.242 24.618 5.242 24.324 5.158 24.324C5.074 24.324 5.032 24.618 5.032 24.744ZM27.964 23.904V23.862L28.006 23.904L27.964 23.946V23.904ZM6.838 23.904V23.778C6.838 23.736 6.88 23.778 6.88 23.82V23.904V23.946L6.838 24.03V23.946V23.904ZM28.09 22.644H28.048V22.602V22.56C28.048 22.518 28.09 22.518 28.09 22.56V22.602V22.644ZM6.964 21.594V21.636V21.678V21.72V21.804L6.922 21.72V21.678V21.636L6.964 21.594ZM19.522 21.384H19.48L19.522 21.342H19.564C19.564 21.342 19.606 21.384 19.564 21.384H19.522ZM27.544 21.384H27.502L27.544 21.342H27.586C27.586 21.342 27.67 21.384 27.628 21.384H27.586H27.544ZM12.76 21.384C12.676 21.384 12.76 21.3 12.802 21.342L12.76 21.384ZM15.07 21.258C15.07 21.216 15.154 21.174 15.196 21.174C15.238 21.174 15.322 21.216 15.322 21.258C15.322 21.3 15.238 21.3 15.196 21.3C15.154 21.3 15.07 21.3 15.07 21.258ZM12.466 21.048H12.508C12.466 21.048 12.508 21.09 12.466 21.09C12.424 21.09 12.424 21.048 12.466 21.048ZM33.466 17.772C33.466 17.688 33.424 17.478 33.508 17.478C33.592 17.436 33.466 17.73 33.466 17.772ZM11.878 15.756C11.962 15.756 12.004 15.798 11.878 15.798C11.752 15.798 11.794 15.756 11.878 15.756ZM12.508 15.84C12.424 15.84 12.172 15.882 12.172 15.798C12.172 15.756 12.172 15.756 12.214 15.756C12.256 15.756 12.424 15.798 12.508 15.84ZM6.964 10.17V10.212L6.922 10.128V10.086C6.922 10.086 6.964 9.96 6.964 10.044V10.086V10.17ZM14.398 7.776H14.356L14.398 7.734H14.44H14.482C14.524 7.734 14.524 7.776 14.482 7.776H14.44H14.398ZM25.99 7.776H25.906L25.99 7.734H26.032C26.074 7.734 26.158 7.776 26.074 7.776H26.032H25.99ZM12.172 7.692L12.13 7.65H12.172H12.256H12.34L12.298 7.692H12.256H12.172ZM9.148 7.65C9.148 7.608 9.358 7.608 9.442 7.608C9.526 7.608 9.694 7.608 9.694 7.65C9.694 7.692 9.526 7.692 9.442 7.692C9.358 7.692 9.148 7.692 9.148 7.65ZM7.972 7.65C7.972 7.608 8.14 7.608 8.182 7.608C8.224 7.608 8.392 7.608 8.392 7.65C8.392 7.692 8.224 7.692 8.182 7.692C8.14 7.692 7.972 7.692 7.972 7.65ZM4.066 2.274C3.688 2.274 3.814 2.148 4.15 2.232H4.318C4.234 2.232 4.15 2.274 4.066 2.274ZM16.582 2.064H17.002C19.228 2.064 21.286 2.274 23.47 2.274H23.638C24.352 2.274 24.982 2.19 25.654 2.19H25.738H25.78C25.822 2.19 25.822 2.148 25.822 2.19V2.232C25.822 2.316 25.696 2.316 25.612 2.316C26.536 2.274 27.25 2.106 28.216 2.106H28.594H29.056C29.812 2.106 30.148 2.022 30.484 2.022C30.694 2.022 30.904 2.022 31.198 2.106C31.24 2.106 31.324 2.148 31.366 2.148C31.744 2.148 32.542 1.938 33.004 1.938C33.172 1.938 33.298 1.938 33.34 2.022C33.466 2.148 33.718 2.19 33.76 2.358C33.844 2.61 34.39 2.568 34.264 2.988C33.928 3.366 33.886 3.576 33.718 4.08C33.634 4.332 33.298 4.71 33.34 5.088C33.298 5.34 32.878 5.802 32.92 6.012C32.794 6.306 32.836 6.306 32.668 6.684C32.626 6.81 32.584 7.062 32.5 7.104C32.5 7.104 32.08 7.356 31.954 7.356C31.87 7.356 31.786 7.398 31.702 7.44C31.45 7.608 30.988 7.734 30.61 7.86H29.098C28.93 7.86 27.628 7.86 27.628 7.818C27.628 7.692 27.292 7.65 26.956 7.65C26.704 7.65 26.452 7.692 26.326 7.692C26.116 7.692 25.906 7.692 25.738 7.65C25.528 7.608 25.318 7.566 25.108 7.566C24.688 7.566 24.226 7.65 23.806 7.65C23.722 7.65 23.344 7.65 23.344 7.692C23.344 7.734 22.63 7.734 22.504 7.734H21.244C20.824 7.734 20.614 7.818 20.362 7.818C20.278 7.818 19.438 7.776 18.724 7.776C18.22 7.776 17.8 7.818 17.8 7.902C17.716 7.986 16.834 7.86 16.834 7.86H16.708C16.456 7.86 16.246 7.818 15.994 7.818C15.784 7.818 15.658 7.86 15.448 7.86C15.322 7.86 14.818 7.818 14.776 7.734C14.944 7.734 15.154 7.776 15.322 7.734C15.112 7.692 14.902 7.692 14.608 7.692H14.23H13.306C13.138 7.692 12.76 7.692 12.76 7.608C12.76 7.566 12.676 7.566 12.676 7.566C13.096 7.524 13.684 7.566 14.104 7.524C13.978 7.524 13.81 7.482 13.642 7.482H13.264C12.886 7.482 12.382 7.608 12.256 7.608C12.13 7.608 10.576 7.524 10.282 7.524C10.408 7.398 9.526 7.44 9.358 7.44H9.064H8.77H8.56C8.434 7.44 8.518 7.398 8.35 7.398H8.056H7.72H7.468C7.342 7.398 7.174 7.44 7.006 7.44V7.608C7.006 7.734 7.048 8.532 7.006 8.532C6.88 8.532 6.838 8.826 6.838 9.162C6.838 9.414 6.88 9.708 6.88 9.834C6.88 10.044 6.838 10.254 6.796 10.422C6.754 10.632 6.754 10.8 6.754 11.01C6.754 11.43 6.838 11.892 6.838 12.312C6.838 12.396 6.838 12.774 6.88 12.774C6.922 12.774 6.922 13.488 6.922 13.614C6.922 13.95 6.88 14.58 6.88 14.874C6.88 15.294 7.006 15.546 7.006 15.798C7.006 15.882 6.964 16.68 6.964 17.394C6.964 17.898 7.006 18.318 7.09 18.318C7.174 18.318 7.048 19.284 7.048 19.284V19.452C7.048 19.704 6.964 19.914 6.964 20.166C6.964 20.376 7.048 20.502 7.048 20.712C7.048 20.838 7.006 21.342 6.922 21.384C6.922 21.216 6.964 21.006 6.922 20.838C6.88 21.048 6.88 21.258 6.88 21.552C6.88 21.678 6.838 21.804 6.838 21.93C6.838 22.224 6.88 22.56 6.88 22.812C6.88 22.98 6.88 23.4 6.796 23.4C6.754 23.4 6.754 23.484 6.754 23.484C6.712 23.064 6.712 22.434 6.67 22.014V22.518V22.896C6.67 23.274 6.796 23.736 6.796 23.862C6.796 23.988 6.712 25.584 6.712 25.878C6.586 25.752 6.586 26.592 6.586 26.76C6.586 26.886 6.628 27.012 6.628 27.096V27.348V27.558C6.628 27.684 6.586 27.642 6.586 27.81V28.062V28.398V28.692C6.586 28.86 6.628 29.112 6.628 29.28H6.712C7.594 29.28 8.182 29.49 9.106 29.532H9.19C9.106 29.532 8.896 29.532 8.896 29.448C8.896 29.406 8.896 29.364 8.938 29.364H8.98H9.022C9.568 29.406 10.072 29.49 10.66 29.49H11.038C13.054 29.49 14.902 29.238 16.918 29.238H17.296C19.396 29.238 21.58 29.364 23.806 29.364H24.142H24.31H25.402H26.074H26.872H27.208C27.166 29.364 27.166 29.364 27.166 29.406C27.208 29.448 27.25 29.448 27.334 29.448H27.376C27.502 29.448 27.796 29.448 28.09 29.49C28.09 29.448 28.09 29.322 28.048 29.322C28.006 29.322 28.006 28.86 28.006 28.776V28.02C28.006 27.726 27.922 27.642 27.922 27.474C27.922 27.39 27.964 26.928 27.964 26.508C27.964 26.214 27.922 25.962 27.838 25.962C27.712 25.962 27.88 25.374 27.88 25.374V25.29C27.88 25.122 27.922 24.996 27.922 24.828C27.922 24.702 27.88 24.618 27.88 24.492C27.88 24.408 27.88 24.156 27.964 24.114C27.964 24.24 27.964 24.366 28.006 24.45C28.048 24.324 28.048 24.156 28.048 23.988V23.778V23.232C28.048 23.106 28.006 22.896 28.09 22.896C28.132 22.896 28.174 22.854 28.174 22.812C28.174 22.812 28.216 23.652 28.216 23.694C28.216 23.61 28.258 23.526 28.258 23.4V23.19C28.258 22.896 28.132 22.686 28.132 22.602C28.132 22.434 28.174 21.972 28.174 21.636C28.174 21.342 28.3 21.426 28.3 21.258H28.216C28.09 21.258 27.922 21.3 27.796 21.3C27.628 21.3 27.502 21.258 27.376 21.216C27.25 21.174 27.082 21.174 26.956 21.174C26.662 21.174 26.326 21.258 26.032 21.258C25.948 21.258 25.738 21.258 25.738 21.3C25.738 21.342 25.234 21.3 25.15 21.3H24.268C23.932 21.3 23.806 21.426 23.638 21.426C23.554 21.426 22.966 21.384 22.504 21.384C22.168 21.384 21.874 21.426 21.874 21.51C21.874 21.636 21.202 21.468 21.202 21.468H21.118C20.95 21.468 20.782 21.384 20.614 21.384C20.446 21.384 20.362 21.426 20.194 21.426C20.11 21.426 19.816 21.426 19.774 21.342C19.9 21.342 20.068 21.342 20.152 21.3C19.984 21.258 19.858 21.258 19.648 21.258H19.354H18.766C18.64 21.258 18.346 21.3 18.346 21.216C18.346 21.174 18.262 21.174 18.304 21.174C18.598 21.132 19.018 21.132 19.312 21.09H18.976H18.724C18.43 21.09 18.094 21.174 18.01 21.174C17.884 21.174 16.624 21.132 16.624 21.132C16.708 20.964 16.12 21.006 15.994 21.006H15.784H15.616H15.448H15.28H15.112H14.86H14.692C14.608 21.006 13.684 21.132 13.684 21.132C13.684 21.09 13.6 21.048 13.516 21.048C13.264 21.048 13.474 20.964 13.222 21.132C13.054 21.258 12.718 21.216 12.424 21.174C12.088 21.132 12.55 21.132 12.634 21.132C12.634 21.132 12.508 21.09 12.55 21.006C12.634 20.796 12.466 20.922 12.466 20.922C12.424 20.922 12.382 20.88 12.298 20.838C12.046 20.754 11.878 20.67 11.668 20.586C11.08 20.376 11.794 20.124 12.088 20.124C12.172 20.124 12.172 19.998 12.088 20.04C11.836 20.124 11.374 19.662 11.122 19.662C10.87 19.662 11.29 19.452 11.29 19.536C11.248 19.704 11.794 19.494 11.794 19.494C11.92 19.368 11.752 19.452 11.668 19.368C11.542 19.242 10.786 19.284 10.786 19.074C10.786 19.074 10.702 18.654 10.744 18.654C10.828 18.654 10.996 18.57 10.87 18.57C10.828 18.57 10.786 18.486 10.87 18.486C11.122 18.528 10.744 18.402 10.912 18.402H11.038C11.122 18.402 11.458 18.36 11.29 18.318C11.08 18.276 10.66 18.276 10.366 18.234C10.198 18.234 9.946 18.15 10.072 18.15H10.702C10.702 18.15 10.114 18.024 10.45 18.024C10.534 18.024 10.618 17.94 10.492 17.94C10.45 17.94 10.408 17.94 10.45 17.898C10.492 17.814 10.324 17.814 10.282 17.814C10.366 17.772 10.786 17.73 10.786 17.646C10.786 17.604 10.408 17.562 10.366 17.562C10.114 17.52 10.324 17.52 10.618 17.478C10.912 17.436 11.08 17.31 11.29 17.31C11.374 17.31 11.5 17.31 11.5 17.226C11.5 17.058 10.702 17.016 10.66 16.932C10.618 16.848 11.248 16.89 11.332 16.806C11.626 16.596 10.072 16.554 10.324 16.428C10.576 16.26 11.542 16.344 11.542 16.092C11.542 16.05 11.332 16.092 11.29 16.092C11.29 16.092 11.794 15.966 11.794 15.924C11.92 15.966 12.046 16.008 12.172 16.008C12.55 16.008 12.886 15.84 13.306 15.84H13.348C13.39 15.84 13.432 15.84 13.474 15.798V15.756L13.432 15.714C13.432 15.714 13.642 15.756 13.684 15.756C13.894 15.756 14.062 15.714 14.314 15.714H14.818C14.986 15.714 15.238 15.756 15.364 15.756H15.658H15.784H16.036C17.716 15.756 19.396 15.63 21.034 15.63H21.328C22.882 15.63 24.31 15.882 25.822 15.882H25.906C26.41 15.882 26.872 15.756 27.334 15.756H27.376H27.418L27.46 15.798V15.84C27.46 15.924 27.376 15.924 27.334 15.924C27.964 15.882 28.384 15.672 29.098 15.672H29.35H29.686C30.19 15.672 30.442 15.63 30.694 15.63C30.82 15.63 30.988 15.63 31.156 15.714C31.156 15.672 31.198 15.588 31.198 15.672V15.714H31.282C31.576 15.714 32.164 15.546 32.458 15.546C32.542 15.546 32.626 15.546 32.668 15.588C32.71 15.672 32.752 15.798 32.836 15.84C32.962 15.882 32.962 16.092 33.13 16.176C33.466 16.344 33.214 16.722 33.13 16.89C33.172 16.974 33.214 16.974 33.214 16.974C33.256 16.974 33.256 16.848 33.256 16.806C33.214 16.512 33.382 17.184 33.382 17.184C33.382 17.184 33.256 17.982 33.382 17.898C33.466 17.856 33.466 18.486 33.466 18.486V18.528C33.466 18.57 33.508 18.612 33.55 18.612H33.592V18.822V19.368V19.83V20.25V20.544V20.628V20.88C33.592 22.35 33.676 23.778 33.676 25.206V25.458C33.676 26.886 33.466 28.062 33.466 29.448C33.466 29.91 33.55 30.288 33.55 30.708V30.75V30.792H33.508C33.466 30.792 33.424 30.624 33.424 30.582V30.624C33.466 31.254 33.634 31.59 33.634 32.22V32.43V32.724C33.634 33.228 33.676 33.438 33.676 33.606C33.676 33.984 33.55 34.278 33.592 34.74C33.634 35.286 33.76 35.706 33.76 36.336C33.76 36.588 33.55 36.966 33.382 37.05C33.13 37.176 33.172 37.806 32.752 37.638C32.374 37.26 32.122 37.176 31.618 37.008C31.366 36.924 31.03 36.504 30.652 36.546C30.4 36.504 29.938 36.042 29.728 36.084C29.434 35.916 29.434 36 29.056 35.79C28.93 35.748 28.678 35.748 28.636 35.622C28.636 35.58 28.636 35.622 28.594 35.58C28.51 35.496 28.384 35.118 28.384 34.992C28.384 34.95 28.342 34.866 28.342 34.824C27.964 34.866 27.67 34.782 27.502 34.698C27.208 34.53 27.376 34.656 27.082 34.656C26.998 34.656 26.914 34.656 26.914 34.74C26.914 34.74 25.738 34.614 25.612 34.614H25.36H25.066H24.814H24.688H24.562H24.142H23.848C23.638 34.614 22.924 34.656 23.008 34.74C23.05 34.782 22.756 34.782 22.672 34.782C22.336 34.782 22 34.782 21.748 34.74C21.454 34.698 21.454 34.782 21.202 34.782H21.118C20.992 34.782 21.118 34.74 21.076 34.74C20.866 34.698 20.572 34.698 20.32 34.698H19.984H19.48C19.606 34.782 20.068 34.74 20.236 34.74C20.404 34.74 20.614 34.782 20.74 34.782H20.782C20.782 34.824 20.782 34.824 20.782 34.824V34.866H20.278H19.48C19.144 34.866 18.682 34.866 18.472 34.95H18.934C18.892 35.034 18.472 35.034 18.346 35.034C18.136 35.034 18.052 34.992 17.842 34.992C17.632 34.992 17.464 35.076 17.212 35.076H17.044C17.044 35.076 16.204 35.244 16.204 35.118C16.204 35.034 15.49 34.95 15.364 34.95H15.322C15.112 34.95 14.524 35.076 14.104 35.076C13.894 35.076 13.768 35.076 13.726 34.992C13.684 34.866 13.264 34.908 13.054 34.908H11.92C11.794 34.908 11.122 34.95 11.122 34.908C11.122 34.866 10.786 34.866 10.702 34.866C10.408 34.866 10.324 34.74 10.072 34.74H9.862C9.358 34.74 8.938 34.866 8.434 34.866C8.224 34.866 7.258 34.782 7.258 34.992C7.258 35.034 6.082 35.034 5.914 35.034H4.57C4.318 34.95 4.024 34.866 3.814 34.782C3.814 34.992 3.772 35.328 3.772 35.37C3.772 35.37 3.73 35.412 3.73 35.328V34.866V34.782L3.688 34.74C3.688 34.866 3.604 35.034 3.604 34.782C3.604 34.698 3.604 34.656 3.52 34.614V34.698C3.52 34.782 3.52 34.782 3.478 34.74C3.394 34.656 3.394 34.992 3.394 35.034C3.352 34.908 3.352 34.488 3.184 34.488V34.53C3.184 34.656 3.142 34.782 3.142 34.866C3.058 35.286 3.058 34.782 3.058 34.446C2.974 34.404 2.806 34.278 2.806 34.278C2.722 34.236 2.722 33.984 2.68 33.9H2.638C2.596 34.236 2.554 34.53 2.512 34.488C2.554 34.488 2.512 34.362 2.512 34.362C2.512 34.404 2.47 34.404 2.47 34.362C2.428 34.194 2.428 33.9 2.428 33.732C2.344 32.934 2.176 33.942 2.218 34.236C2.218 34.446 2.05 35.034 2.008 34.95C1.882 34.614 1.924 33.186 1.672 33.186C1.63 33.186 1.672 33.522 1.672 33.564C1.672 33.564 1.546 32.85 1.504 32.808C1.504 32.808 1.63 31.59 1.546 31.674C1.462 31.758 1.462 30.918 1.462 30.876C1.504 30.708 1.42 30.75 1.42 30.624V30.582C1.42 30.498 1.42 30.456 1.378 30.414H1.336V30.33C1.252 30.162 1.168 29.994 1.336 29.826V29.784V29.238V28.44V27.726V27.306V27.096V26.718C1.336 24.324 1.252 21.93 1.252 19.578V19.158C1.294 16.89 1.462 14.79 1.462 12.522C1.462 11.808 1.336 11.136 1.336 10.464V10.422V10.38C1.336 10.338 1.336 10.296 1.378 10.296H1.42C1.504 10.296 1.504 10.59 1.504 10.674V10.632V10.548C1.462 9.54 1.252 8.91 1.252 7.944V7.566V7.104C1.252 6.306 1.21 5.928 1.21 5.634C1.21 5.256 1.336 5.004 1.336 4.626C1.126 4.626 0.832 4.584 0.79 4.584C0.79 4.584 0.748 4.542 0.832 4.542H1.252H1.294C1.294 4.458 1.126 4.416 1.294 4.416V4.374V4.206H1.084C1.126 4.206 1.21 4.164 1.252 4.164V3.954C1 3.912 1.084 3.912 1.252 3.912C1.252 3.744 1.084 2.946 1.21 2.82C1.336 2.694 1.378 2.442 1.546 2.4C1.798 2.316 1.714 1.896 2.05 1.854V1.896H2.176C2.512 2.19 2.68 2.274 3.1 2.4C3.184 2.4 3.268 2.4 3.31 2.358C3.31 2.358 4.57 2.442 4.486 2.358C4.402 2.274 5.2 2.274 5.242 2.274C5.41 2.316 5.368 2.274 5.494 2.274H5.578C5.662 2.274 5.704 2.232 5.704 2.19V2.148H6.04H6.922H7.678H8.434H8.854H9.064H9.4C11.794 2.148 14.23 2.064 16.582 2.064ZM21.244 34.824L21.286 34.866H21.244V34.824ZM25.528 2.316C25.528 2.316 25.528 2.316 25.57 2.316H25.528ZM27.208 15.924C27.208 15.924 27.208 15.924 27.25 15.924H27.208ZM20.782 34.782C20.824 34.782 20.866 34.782 20.782 34.782V34.782ZM58.1023 34.866H58.1443V34.95C58.1443 34.992 58.1023 35.076 58.1023 35.076V34.866ZM57.8083 34.53V34.446L57.7663 34.278C57.7663 34.32 57.7663 34.404 57.8083 34.53ZM52.8523 33.984V34.026L52.8103 33.984C52.8103 33.942 52.8523 33.984 52.8523 33.984ZM58.0603 34.068C58.1023 34.152 58.1443 34.362 58.1443 34.404C58.1443 34.446 58.1443 34.488 58.1023 34.488C58.0603 34.446 58.0603 34.278 58.0603 34.194V34.068ZM52.5583 33.564C52.5583 33.48 52.6003 33.48 52.6003 33.564C52.6003 33.564 52.5583 33.648 52.5583 33.606V33.564ZM55.2463 32.514V32.43V32.346C55.2463 32.304 55.2043 32.262 55.2043 32.262C55.2043 32.262 55.1623 32.262 55.1623 32.304V32.388V32.514V32.64C55.1623 32.682 55.2043 32.682 55.2043 32.682C55.2463 32.64 55.2463 32.556 55.2463 32.514ZM54.4063 31.884C54.4063 32.094 54.4903 32.01 54.4903 31.884V31.758L54.4483 31.716C54.4063 31.716 54.4063 31.8 54.4063 31.884ZM56.8843 31.422V31.59C56.8843 31.716 56.8843 32.052 56.9683 32.052C57.0523 32.052 57.0943 31.842 57.0943 31.758V31.59V31.422C57.0943 31.338 57.0523 31.17 56.9683 31.17C56.8843 31.17 56.8843 31.338 56.8843 31.422ZM53.6923 31.128V31.17C53.6923 31.212 53.6503 31.212 53.6503 31.254V31.38V31.506C53.6503 31.548 53.6923 31.548 53.6923 31.548C53.7343 31.548 53.7343 31.338 53.7343 31.296V31.212C53.7343 31.17 53.6923 31.128 53.6923 31.128ZM54.4483 30.33C54.4063 30.33 54.4063 30.456 54.4063 30.498C54.4063 30.54 54.4903 30.666 54.4903 30.582V30.456C54.4903 30.414 54.4903 30.33 54.4483 30.33ZM52.7263 30.078V30.162C52.7263 30.204 52.6843 30.204 52.6843 30.204C52.6423 30.204 52.6423 30.162 52.6423 30.162V30.078V29.952V29.868C52.6423 29.826 52.6843 29.826 52.6843 29.826L52.7263 29.868V29.952V30.078ZM52.7263 28.86V28.944C52.7263 28.986 52.6843 29.028 52.6843 29.028C52.6423 29.028 52.6423 28.986 52.6423 28.944V28.86V28.65V28.566C52.6423 28.524 52.6843 28.482 52.6843 28.482V28.524C52.6843 28.524 52.7263 28.524 52.7263 28.566V28.65V28.86ZM57.4303 28.566V28.482V28.44C57.4303 28.44 57.3883 28.398 57.3883 28.44V28.482C57.3883 28.524 57.3463 28.524 57.3463 28.566V28.692V28.818C57.3463 28.86 57.3883 28.86 57.3883 28.86C57.3883 28.86 57.4303 28.818 57.4303 28.776C57.4723 28.776 57.4303 28.608 57.4303 28.566ZM56.5483 27.852V28.146C56.5483 28.524 56.5903 28.44 56.5903 28.146C56.5903 28.062 56.5903 27.894 56.5483 27.852ZM55.8763 27.432C55.6663 27.432 55.6243 27.81 55.6243 28.146C55.6243 28.44 55.6663 28.776 55.6663 28.776C55.6663 28.734 55.7923 27.6 55.8763 27.432ZM54.1963 27.516C54.1963 27.432 54.1543 27.39 54.1123 27.39C53.8603 27.348 54.0283 28.314 54.0283 28.524C54.0703 28.272 54.1963 27.726 54.1963 27.516ZM52.6003 26.004V25.794H52.6423V25.962V26.004H52.6003ZM54.8683 24.156V24.198V24.282C54.8683 24.324 54.8263 24.408 54.8263 24.45C54.8263 24.492 54.8683 24.534 54.8683 24.576V24.702C54.8683 24.66 54.9103 24.618 54.9103 24.576C54.9103 24.534 54.9523 24.492 54.9523 24.45C54.9523 24.408 54.9103 24.366 54.9103 24.324C54.9103 24.282 54.8683 24.156 54.8683 24.156ZM52.5163 23.694V23.61L52.5583 23.568V23.61V23.652V23.694V23.736C52.5583 23.778 52.5163 23.736 52.5163 23.736V23.694ZM57.3463 22.35V22.392C57.3463 22.434 57.3043 22.434 57.3043 22.476V22.77C57.3043 22.812 57.3463 22.854 57.3463 22.896C57.3463 22.896 57.3883 22.896 57.3883 22.854V22.77V22.644V22.518C57.3883 22.476 57.3463 22.35 57.3463 22.35ZM55.8763 22.728V22.98V23.232C55.8763 23.316 55.8763 23.61 55.9603 23.61C56.0443 23.61 56.0863 23.316 56.0863 23.232V22.98V22.728C56.0863 22.644 56.0443 22.35 55.9603 22.35C55.8763 22.35 55.8763 22.644 55.8763 22.728ZM54.3643 21.846H54.2803C54.1963 22.014 54.3643 21.93 54.3643 22.014V21.972C54.3643 21.93 54.4063 21.846 54.3643 21.846ZM46.8463 19.284L46.9303 19.242H46.9723L47.0143 19.284H46.9723H46.9303H46.8883H46.8463ZM65.9143 11.976V11.934V11.892V11.85V11.808V11.766L65.9563 11.808V11.85V11.934L65.9143 11.976ZM38.7403 8.7V8.616L38.7823 8.658V8.7V8.784H38.7403V8.742V8.7ZM44.2003 8.574V8.826V8.994L44.2423 8.952V8.91H44.2843H44.3263V8.952H44.3683V9.12C44.3683 9.162 44.3263 9.162 44.3263 9.204C44.2843 9.624 44.2843 10.002 44.2423 10.422V10.758V11.136V11.514C44.2423 12.186 44.3263 12.942 44.3683 13.572H44.7043C44.8303 13.572 44.9563 13.614 45.0403 13.614C45.9223 13.614 46.4683 13.782 47.3503 13.824H47.4343C47.3083 13.824 47.2243 13.824 47.1403 13.782V13.74V13.698H47.2243V13.656H47.3083C47.8543 13.698 48.3163 13.782 48.9043 13.782H49.2403C49.5763 13.782 52.7683 13.656 52.7683 13.614C52.8523 13.446 52.9783 13.362 52.9783 13.152C52.9783 12.9 53.2303 12.522 53.3983 12.48C53.8183 12.354 54.0703 12.312 54.3223 12.186C54.5323 12.228 54.9943 11.808 55.2463 11.766C55.4143 11.766 55.5823 11.724 55.7503 11.64C56.0863 11.472 56.4643 11.346 56.8003 11.178C57.0523 11.052 57.5983 10.548 57.7663 11.052C57.8503 11.262 58.0183 11.346 58.0603 11.514C58.1863 11.85 58.3963 11.724 58.3123 12.312C58.2283 12.9 58.2283 13.068 58.1863 13.656H58.2703H58.3543H58.4383C59.6563 13.614 60.8323 13.656 62.0503 13.656C62.3863 13.656 62.6383 13.614 62.9743 13.614C63.3103 13.614 63.5203 13.656 63.8563 13.656C64.3603 13.656 64.9063 13.572 65.4523 13.572H65.9563C66.0823 13.572 66.1243 13.488 66.1243 13.32V12.942C66.1243 12.522 65.9983 12.186 65.9983 11.808V11.598V11.346C65.9983 11.22 66.0403 11.094 66.0403 10.968C66.0403 10.8 65.9983 10.338 65.8723 10.338V10.254V9.918V9.456V7.65L65.8303 6.894V4.836L65.9143 4.416C65.9563 4.248 66.0403 2.862 66.1243 2.82C66.2083 2.778 66.3343 2.778 66.3343 2.652C66.3343 2.61 66.5443 2.4 66.5863 2.4H66.6703C66.6703 2.358 66.7543 2.358 66.8383 2.358H67.0483C67.3003 2.316 67.4263 2.358 67.5103 2.358H67.7623C68.0143 2.442 68.3923 2.274 68.6863 2.316C69.0223 2.358 69.4003 2.232 69.6943 2.232C70.1983 2.232 70.4083 2.274 70.8283 2.148C71.0383 2.148 71.5003 2.484 71.5003 2.652C71.5003 2.694 71.6683 2.778 71.7103 2.82C71.8363 2.904 71.5843 3.324 71.5843 3.408C71.5843 3.45 71.5423 3.534 71.5003 3.618C71.4583 3.702 71.5423 3.786 71.5843 3.996C71.6683 4.332 71.6263 4.5 71.6263 4.836C71.7523 4.92 71.7523 5.088 71.7103 5.382C71.6263 6.012 71.6263 6.264 71.6263 6.978V7.062C71.6683 7.272 71.6683 7.44 71.6683 7.608C71.6683 7.944 71.6263 8.28 71.6263 8.994V10.086V10.296C71.6263 10.38 71.5843 10.422 71.5843 10.464V10.59C71.5423 10.842 71.4583 11.052 71.4583 11.304C71.4583 11.346 71.4163 11.388 71.4163 11.472V11.724V11.976V12.102L71.4583 12.06H71.5003L71.5423 12.102V12.27V12.354C71.5003 12.774 71.4163 13.152 71.4163 13.572V13.95V14.076C71.4583 14.118 71.5423 14.16 71.5423 14.244V14.286C71.5843 14.286 71.5843 14.412 71.5843 14.496V14.706V15.168V15.378V15.798C71.6263 16.26 71.6683 16.89 71.6683 17.352C71.6683 17.856 71.6683 18.066 71.7523 18.486C71.7523 18.612 71.6683 18.822 71.5843 18.864C71.4163 18.948 71.2903 19.2 71.2063 19.368C71.1643 19.494 70.6183 19.2 70.5763 19.158C70.4923 19.116 70.4923 19.2 70.3243 19.242C70.0303 19.326 69.7363 19.326 69.5263 19.326C69.1483 19.326 68.7703 19.242 67.9723 19.242H67.6783C67.5943 19.284 67.4263 19.326 67.3423 19.368H66.0403H65.5783C65.4103 19.368 65.2843 19.284 65.1583 19.284C65.0323 19.284 64.8223 19.326 64.6963 19.326C64.1923 19.326 63.7303 19.242 63.3523 19.242C63.2263 19.242 63.1003 19.284 62.9743 19.284C61.7143 19.242 60.6223 19.2 59.3203 19.2H59.2783H59.2363H59.1943H59.1523H59.1103L59.0683 19.158H59.0263H58.9843H58.9003H58.8583H58.8163H58.7743C58.6483 19.158 58.4803 19.2 58.2703 19.2H58.2283C58.2283 19.326 58.2703 19.452 58.2703 19.62V20.124V20.628V21.09V21.51V21.93V22.434C58.2283 23.274 58.1863 24.072 58.1863 24.954V25.29V26.97V27.684V28.314V28.776V29.154V29.364V29.826V31.338C58.1863 31.716 58.1443 31.926 58.1443 32.22C58.1443 32.304 58.1863 32.388 58.1863 32.43V32.556H58.1443C58.1023 32.598 58.0603 32.64 58.0603 32.724V32.766V32.808V32.85H58.0183C57.9763 32.85 58.1023 33.942 57.9763 33.816C57.8923 33.732 57.8923 34.068 57.8923 34.278C57.8923 34.572 57.9343 34.74 57.9763 34.824C58.0183 35.034 57.9343 35.034 57.9343 35.286C57.9343 35.412 57.8503 35.748 57.8503 35.748V35.412C57.8503 35.37 57.8083 35.37 57.8083 35.37C57.6403 35.37 57.5983 36.084 57.5563 36.588C57.5143 37.008 57.4723 37.134 57.4303 37.134C57.3463 37.134 57.3043 35.622 57.1783 35.58C57.0523 35.58 57.0523 36.084 57.0523 36.252C57.0523 36.546 57.0523 36.714 57.0103 36.714C56.9263 36.714 56.7583 35.454 56.6743 35.412C56.5903 35.412 56.5903 35.622 56.5903 35.706C56.5903 36 56.4643 36.336 56.4223 36.714C56.4223 37.134 56.3803 37.26 56.3803 37.26C56.3383 37.26 56.3803 36.462 56.2963 36.462C56.1703 36.462 56.2123 37.092 56.0863 37.134V37.05C56.0863 36.756 56.0023 37.092 56.0023 36.882C56.0023 36.84 55.9603 36.798 55.9183 36.798C55.8763 36.798 55.8763 36.966 55.8763 37.008C55.8763 37.47 55.7923 36.63 55.7503 36.588V37.512V37.596C55.6243 37.134 55.6663 36.126 55.5823 35.748C55.5403 35.622 55.5403 35.664 55.5403 35.916C55.5403 36 55.4983 36.084 55.4983 36.126V36.336C55.4563 36.252 55.4143 36.168 55.4563 36.378V36.42L55.4143 36.462C55.3723 36.462 55.3303 36.378 55.3303 36.336C55.3303 36.336 55.2883 36.42 55.2883 36.546C55.2883 36.588 54.8263 36.462 54.8263 36.462C54.6583 36.462 54.4903 35.118 54.4903 34.992V34.908C54.4903 34.908 54.3223 35.202 54.3223 35.412C54.3223 35.58 54.3223 35.748 54.3643 35.748C54.4483 35.706 54.2803 36.462 54.2803 36.042C54.2803 36 54.2383 35.832 54.1963 35.832C54.0703 35.832 54.0283 34.53 53.8603 34.488C53.8183 34.488 53.7763 34.53 53.7763 34.572C53.7763 34.698 53.6083 35.538 53.4823 35.58C53.3563 35.58 53.3143 34.95 53.1883 34.908C53.1463 34.908 52.9783 34.11 52.9783 34.068C52.9783 34.026 53.0623 33.984 53.0623 33.942C53.0623 33.9 53.0203 33.858 52.9783 33.858C52.9783 33.858 52.9783 33.9 52.9363 33.9C52.8523 33.942 52.8103 33.774 52.8103 33.774C52.8103 33.816 52.7683 33.9 52.7683 33.984C52.7683 34.068 52.7263 34.278 52.7263 34.278C52.6843 34.278 52.6843 34.194 52.6843 34.026C52.6843 33.606 52.8103 32.892 52.8103 32.892C52.8943 32.724 52.9363 32.682 52.8943 32.682C52.8523 32.682 52.8523 32.514 52.8523 32.472V32.388V32.304C52.8523 32.262 52.8523 32.262 52.8103 32.262C52.8103 32.262 52.8943 30.918 52.8943 30.792V28.356C52.8943 27.978 52.7683 27.936 52.7683 27.81V27.684V27.516C52.7683 27.054 52.8103 26.592 52.8103 26.214V26.13C52.7683 26.13 52.7683 26.088 52.7683 26.046C52.7683 26.046 52.7263 26.046 52.7263 26.004V25.878V25.752C52.7263 25.71 52.7683 25.71 52.7683 25.71C52.8103 25.752 52.8523 25.71 52.8523 25.584V25.29V24.198V23.988C52.8523 23.946 52.8103 23.946 52.8103 23.946V24.03V24.198C52.8103 24.282 52.7683 24.408 52.7683 24.492V24.786V25.122V25.332V25.458C52.7683 25.5 52.7263 25.458 52.7263 25.458V25.416L52.6843 25.374C52.6843 25.374 52.6423 25.374 52.6423 25.332V25.164V23.904V23.484V23.19C52.6423 23.106 52.6003 23.022 52.6003 22.98C52.6003 22.896 52.6003 22.854 52.5583 22.812V23.316C52.4743 23.274 52.4743 22.938 52.4743 22.854V22.686V22.518C52.4743 22.434 52.5163 22.308 52.5163 22.224V22.098V21.93C52.5163 21.804 52.4323 21.678 52.4323 21.51V21.384C52.4323 21.342 52.4743 21.342 52.4743 21.3V21.174L52.4323 21.09C52.4323 21.006 52.3903 20.796 52.3903 20.628V20.376C52.3903 20.292 52.4323 20.25 52.4323 20.25C52.5163 20.04 52.5583 19.62 52.5583 19.326H52.5163H52.3903C51.9283 19.326 51.7183 19.2 51.1723 19.2C50.8783 19.2 50.4163 19.242 50.0803 19.242C49.9543 19.242 49.3243 19.242 49.3243 19.2C49.3243 19.158 48.9883 19.158 48.9043 19.158C48.6103 19.158 48.4843 19.074 48.2743 19.074H48.0643C47.5603 19.074 47.1823 19.2 46.6783 19.2C46.4683 19.2 45.5443 19.116 45.5443 19.326C45.5443 19.368 44.3683 19.368 44.2003 19.368H43.0243V19.41H42.4363H40.8403C40.7563 19.368 39.3283 19.2 39.2863 19.116C39.2443 19.032 39.2023 18.906 39.1183 18.906C39.0343 18.906 38.9083 18.57 38.9083 18.444V18.192V17.73V17.52C38.9503 17.436 38.8663 17.268 38.8663 17.1C38.8243 16.638 38.8243 16.05 38.8243 15.588C38.8243 15.084 38.8243 14.832 38.7403 14.412V14.37V13.866C38.7823 13.824 38.7823 13.74 38.7823 13.614V13.194V12.522V12.018V11.598V11.304C38.7823 11.22 38.8243 11.22 38.8243 11.22V11.178C38.8243 11.136 38.8663 11.136 38.8663 11.094V10.968V10.59V10.464C38.8663 10.296 38.9083 10.338 38.9503 10.128V9.75C38.9503 9.33 38.8243 9.036 38.8243 8.658V8.448V8.196V7.818C38.8243 7.65 38.8243 7.23 38.6983 7.23V7.104C38.6983 7.02 38.6563 6.936 38.6563 6.81V6.348V4.416C38.6983 4.248 38.7823 4.038 38.8243 3.87C38.9083 3.576 39.1603 3.408 39.1603 3.114C39.1603 2.988 39.4123 2.694 39.4123 2.61C39.4123 2.568 39.4963 2.526 39.5803 2.484C40.0003 2.358 40.2523 2.316 40.5043 2.19C40.7143 2.232 41.1343 1.896 41.4283 1.854C41.5963 1.854 41.7643 1.77 41.9323 1.686C42.5203 1.392 43.0663 1.35 43.5283 0.971998C43.5703 0.971998 43.6123 0.929998 43.6543 0.929998V0.971998C43.9483 1.014 43.9063 1.392 44.1163 1.476C44.2843 1.56 44.3263 1.728 44.4943 1.854C44.6623 1.98 44.4103 2.82 44.4103 2.946C44.4103 3.114 44.2843 3.576 44.3683 3.828C44.4523 4.08 44.4943 4.29 44.4943 4.5C44.4943 4.836 44.4103 5.172 44.4103 5.886V6.936V7.188V7.356C44.4103 7.398 44.3683 7.44 44.3683 7.482C44.3263 7.818 44.2003 8.154 44.2003 8.574ZM44.2003 9.12C44.2423 9.12 44.2003 9.078 44.2003 9.078V9.12ZM107.566 34.362V34.488C107.566 34.614 107.524 34.656 107.524 34.488C107.524 34.446 107.566 34.362 107.566 34.362ZM103.282 33.774C103.282 33.984 103.408 33.942 103.408 33.816C103.408 33.774 103.408 33.732 103.366 33.69L103.324 33.648C103.282 33.648 103.282 33.69 103.282 33.774ZM102.274 33.564V33.522C102.274 33.522 102.316 33.606 102.316 33.564C102.316 33.606 102.274 33.648 102.274 33.564ZM107.482 33.522C107.524 33.648 107.566 33.858 107.566 33.942C107.566 34.152 107.482 33.858 107.482 33.732V33.522ZM101.98 33.102C101.98 33.06 102.022 33.06 102.022 33.06V33.102C102.022 33.144 101.98 33.186 101.98 33.102ZM106.264 33.48C106.264 33.606 106.264 33.9 106.39 33.9C106.516 33.9 106.516 33.606 106.516 33.48C106.516 33.354 106.516 33.06 106.39 33.06C106.264 33.06 106.264 33.354 106.264 33.48ZM106.852 30.456V30.582C106.852 30.666 106.81 30.708 106.852 30.75H106.894C106.936 30.75 106.936 30.54 106.936 30.456C106.936 30.414 106.936 30.372 106.894 30.33C106.852 30.33 106.852 30.414 106.852 30.456ZM105.886 29.742C105.886 29.784 105.844 29.868 105.844 30.036C105.844 30.414 105.928 30.372 105.928 30.036C105.928 29.952 105.928 29.784 105.886 29.742ZM102.148 29.574C102.148 29.616 102.148 29.742 102.106 29.742C102.064 29.742 102.064 29.616 102.064 29.574C102.064 29.532 102.064 29.364 102.106 29.364C102.148 29.364 102.148 29.532 102.148 29.574ZM105.046 29.322C104.71 29.322 104.794 30.12 104.752 30.414C104.752 30.54 104.794 30.666 104.794 30.666C104.794 30.624 104.962 29.49 105.046 29.322ZM103.03 29.406C103.03 29.322 102.988 29.28 102.946 29.28C102.694 29.238 102.82 30.162 102.82 30.414C102.904 30.162 103.03 29.616 103.03 29.406ZM102.148 28.314C102.148 28.398 102.148 28.566 102.106 28.566C102.064 28.566 102.064 28.398 102.064 28.314C102.064 28.23 102.064 28.02 102.106 28.02C102.148 28.02 102.148 28.23 102.148 28.314ZM103.828 26.172V26.34V26.466C103.828 26.508 103.828 26.592 103.87 26.592C103.912 26.55 103.912 26.508 103.912 26.466C103.912 26.424 103.954 26.382 103.954 26.34C103.954 26.298 103.912 26.046 103.87 26.046C103.828 26.046 103.828 26.13 103.828 26.172ZM102.064 25.458V25.332C102.064 25.332 102.106 25.29 102.106 25.332V25.458V25.5C102.106 25.542 102.064 25.584 102.064 25.5V25.458ZM106.81 24.24C106.768 24.24 106.768 24.324 106.768 24.366V24.534V24.66C106.768 24.702 106.768 24.786 106.81 24.786C106.81 24.786 106.852 24.786 106.852 24.744C106.852 24.66 106.894 24.618 106.894 24.534C106.894 24.45 106.852 24.282 106.81 24.24ZM105.046 24.87C105.046 25.038 105.046 25.458 105.172 25.458C105.298 25.458 105.298 25.038 105.298 24.87C105.298 24.702 105.298 24.24 105.172 24.24C105.046 24.24 105.046 24.702 105.046 24.87ZM103.198 23.736H103.156C103.072 23.904 103.24 23.778 103.24 23.862C103.24 23.862 103.24 23.736 103.198 23.736ZM87.8678 21.3C87.8678 21.258 87.9098 21.3 87.9098 21.342V21.384C87.9098 21.426 87.8678 21.468 87.8678 21.384V21.342V21.3ZM74.2598 21.342L74.3018 21.3C74.3018 21.3 74.3018 21.3 74.3018 21.342V21.384C74.3018 21.426 74.2598 21.468 74.2598 21.384V21.342ZM75.8138 20.124C75.8138 20.25 75.7298 20.082 75.7298 20.166C75.7298 20.208 75.7718 20.25 75.7718 20.292H75.8138C75.8558 20.292 75.8138 20.124 75.8138 20.124ZM78.7958 19.494V19.662C78.7958 19.704 78.7958 19.746 78.8378 19.746C78.8798 19.704 78.8798 19.578 78.8798 19.494C78.8798 19.41 78.8378 19.368 78.8378 19.284V19.2C78.7958 19.2 78.7958 19.41 78.7958 19.494ZM77.3258 19.158C77.3258 19.284 77.3678 19.788 77.4518 19.788C77.5358 19.788 77.5778 19.284 77.5778 19.158C77.5778 19.032 77.5358 18.528 77.4518 18.528C77.3678 18.528 77.3258 19.032 77.3258 19.158ZM76.4018 17.688C76.4018 17.604 76.4018 17.436 76.3598 17.394C76.3178 17.394 76.3598 17.478 76.3598 17.52C76.3598 17.562 76.3178 17.646 76.3178 17.688C76.3178 17.73 76.3178 17.94 76.3598 17.94C76.4018 17.94 76.4018 17.73 76.4018 17.688ZM78.9638 16.722C78.9638 16.764 79.0058 16.806 79.0058 16.848C79.0478 16.974 79.0898 16.89 79.1318 16.806V16.68C79.0898 16.554 79.0058 16.638 78.9638 16.722ZM78.0818 13.992V13.656C78.0818 13.656 77.9978 13.614 77.9978 13.992C77.9978 14.37 78.0818 14.286 78.0818 13.992ZM75.4778 13.236C75.4778 13.53 75.4358 13.908 75.4778 14.202C75.5198 14.37 75.6458 14.496 75.6458 14.244C75.6458 14.034 75.5198 13.488 75.4778 13.236ZM77.1158 13.74C77.1158 13.992 77.1578 14.328 77.3678 14.328C77.2838 14.16 77.1998 13.068 77.1578 13.026C77.1578 13.026 77.0738 13.152 77.0738 13.278C77.0738 13.404 77.1158 13.53 77.1158 13.74ZM78.8378 13.11V13.236C78.8378 13.278 78.8798 13.362 78.8798 13.362C78.8798 13.362 78.9638 13.026 78.9218 13.026C78.9218 12.984 78.8798 12.942 78.8798 12.942H78.8378C78.7958 12.984 78.8378 13.11 78.8378 13.11ZM87.8678 11.052V10.968L87.9098 11.052C87.9098 11.094 87.8678 11.178 87.8678 11.094V11.052ZM74.2598 11.052L74.3018 10.968V11.052C74.3018 11.094 74.2598 11.178 74.2598 11.094V11.052ZM75.1418 10.422V10.548C75.1418 10.59 75.1418 10.674 75.1838 10.674C75.2258 10.674 75.2258 10.548 75.2258 10.506C75.2258 10.464 75.2258 10.212 75.1838 10.212H75.1418V10.422ZM78.3338 10.212C78.3338 10.338 78.3758 10.632 78.4598 10.632C78.5438 10.632 78.5858 10.338 78.5858 10.212C78.5858 10.086 78.5438 9.75 78.4598 9.75C78.3758 9.75 78.3338 10.086 78.3338 10.212ZM76.6538 9.54H76.6958C76.6958 9.54 76.7378 9.414 76.7378 9.372C76.7378 9.288 76.7378 9.162 76.6958 9.12H76.6538V9.162V9.288C76.6538 9.372 76.6118 9.54 76.6538 9.54ZM93.7478 7.608H93.7898C93.8318 7.608 93.8738 7.65 93.7898 7.65H93.7478H93.7058C93.6638 7.65 93.7058 7.608 93.7478 7.608ZM107.608 31.758C107.566 31.758 107.524 31.842 107.524 31.926V31.968C107.524 32.094 107.524 32.766 107.482 33.018C107.44 33.144 107.398 32.934 107.356 33.06C107.314 33.27 107.482 34.152 107.44 34.194C107.398 34.236 107.272 34.95 107.272 34.95C107.272 34.908 107.314 34.572 107.272 34.572C107.104 34.572 107.02 35.286 106.978 35.79C106.936 36.21 106.936 36.546 106.81 36.21C106.684 35.874 106.768 35.37 106.684 34.992C106.558 34.404 106.516 35.286 106.516 35.496C106.516 35.79 106.516 35.916 106.474 35.916C106.39 35.916 106.264 35.16 106.222 34.908C106.138 34.572 106.012 34.656 106.012 34.95C106.012 35.244 105.886 35.538 105.886 35.916C105.844 36.336 105.844 36.462 105.844 36.462C105.802 36.462 105.802 35.706 105.718 35.706C105.634 35.706 105.55 36.378 105.55 36.462C105.55 36.042 105.424 36.252 105.424 36.126C105.424 35.916 105.34 36.126 105.34 36.21C105.34 36.672 105.214 35.706 105.214 35.79V36.756C105.214 36.84 105.172 36.84 105.172 36.798C105.088 36.336 105.13 35.37 105.046 34.992C105.004 34.698 104.962 35.244 104.962 35.328V35.496C104.962 35.79 104.836 35.202 104.878 35.58C104.878 35.748 104.794 35.664 104.794 35.58C104.794 35.412 104.71 35.622 104.71 35.748C104.71 35.79 104.29 35.664 104.29 35.664C104.08 35.664 104.038 34.278 103.912 34.11C103.912 34.11 103.66 34.992 103.828 34.95C103.912 34.95 103.702 35.664 103.702 35.244C103.702 35.202 103.702 35.076 103.66 35.076C103.492 35.034 103.324 34.068 103.324 33.858C103.324 33.732 103.24 33.606 103.24 33.774C103.24 34.026 103.072 34.32 102.988 34.53C102.736 35.244 102.904 34.194 102.652 34.11C102.568 34.068 102.442 33.354 102.442 33.27C102.442 33.228 102.526 33.186 102.484 33.102C102.526 33.102 102.526 33.018 102.526 32.976V32.85C102.526 32.808 102.526 32.682 102.484 32.682C102.442 32.682 102.442 32.766 102.442 32.808V32.934V33.06C102.442 33.06 102.4 33.102 102.358 33.102C102.274 33.144 102.232 33.018 102.232 33.018C102.232 33.144 102.19 33.774 102.148 33.312C102.106 32.892 102.148 32.304 102.232 32.094C102.4 31.758 102.316 32.01 102.316 31.674C102.316 31.59 102.316 31.464 102.232 31.464C102.232 31.464 102.358 30.12 102.358 29.994V29.7V29.364V29.112V28.986V28.86V28.356V28.062C102.358 27.81 102.316 27.054 102.232 27.138C102.19 27.18 102.19 26.802 102.19 26.718C102.19 26.382 102.19 26.004 102.232 25.71C102.274 25.374 102.19 25.416 102.19 25.122V24.996C102.19 24.828 102.232 24.996 102.232 24.954C102.274 24.702 102.274 24.408 102.274 24.114V23.736C102.274 23.652 102.232 23.19 102.232 23.19C102.148 23.316 102.232 23.82 102.232 24.03C102.232 24.198 102.19 24.408 102.19 24.576C102.19 24.618 102.19 24.66 102.19 24.66C102.148 24.66 102.148 24.618 102.148 24.618H102.106C102.106 24.618 102.064 24.156 102.064 24.03C102.064 23.778 102.106 23.442 102.106 23.148C102.106 22.812 102.148 22.266 102.022 22.014V22.56C101.938 22.518 101.896 22.014 101.896 21.888C101.896 21.678 101.98 21.552 101.98 21.342C101.98 21.09 101.896 20.838 101.896 20.586V20.46C101.896 20.46 101.728 19.452 101.854 19.452C101.938 19.452 102.022 18.612 102.022 18.486C102.022 18.276 101.896 17.604 101.896 17.142C101.896 16.932 101.896 16.722 101.98 16.68C102.106 16.596 102.064 16.218 102.064 15.966V14.664C102.064 14.538 102.022 13.824 102.064 13.824C102.106 13.824 102.106 13.446 102.106 13.362C102.106 13.026 102.19 12.9 102.19 12.648C102.19 12.564 102.232 12.48 102.232 12.396C102.232 11.808 102.064 11.346 102.064 10.8C102.064 10.716 102.106 10.464 102.106 10.17C102.106 9.834 102.106 9.498 101.98 9.498C101.938 9.498 101.938 8.154 101.938 7.986V7.692H101.77C101.266 7.692 100.72 7.608 100.3 7.608C100.132 7.608 100.09 7.65 99.9218 7.65C98.5778 7.608 97.3598 7.566 95.9738 7.524H95.9318H95.8898H95.8478H95.8058H95.7638H95.7218H95.6798H95.6378H95.5538H95.5118H95.4278H95.3858C95.2598 7.524 95.0498 7.566 94.8398 7.566H93.9998H93.6218C93.5798 7.566 93.5798 8.196 93.5798 8.448V8.868V9.162C93.5798 10.002 93.4118 10.548 93.3698 11.43V11.472V11.514C93.3698 11.43 93.3698 11.22 93.4538 11.22C93.4958 11.22 93.4958 11.22 93.4958 11.262V11.304V11.346C93.4538 11.85 93.4118 12.354 93.4118 12.9V13.236C93.4118 15.126 93.6218 16.89 93.6218 18.822V19.2C93.6218 20.082 93.5378 20.838 93.5378 21.72V21.804V21.846V21.93V21.972V22.098V22.14C93.5798 23.316 93.5378 24.492 93.5378 25.668C93.5378 25.962 93.5798 26.214 93.5798 26.508C93.5798 26.802 93.4958 27.054 93.4958 27.39C93.4958 27.894 93.5798 28.398 93.5798 28.944V29.448C93.5798 30.246 93.6218 30.498 93.6218 30.876H93.6638V31.464V32.682C93.7058 32.892 93.7478 33.102 93.6638 33.144C93.6218 33.186 93.4958 34.488 93.4118 34.53C93.2018 34.656 92.9918 34.866 92.6978 34.866H92.4878H92.0258H91.7738C91.5218 34.824 91.1858 34.908 90.8498 34.908C90.5138 34.866 90.1358 34.95 89.8418 34.95H89.2538C89.0018 34.95 88.4978 35.118 88.3298 34.866C88.2458 34.698 87.9938 34.614 87.8258 34.53C87.6998 34.488 87.9938 33.942 88.0358 33.9C88.0778 33.816 87.9938 33.816 87.9518 33.648C87.8678 33.354 87.8678 33.102 87.8678 32.892C87.8678 32.514 87.9098 32.178 87.9098 31.38V31.086C87.8678 31.002 87.8678 30.876 87.8258 30.792V29.49V29.07C87.8258 28.944 87.9098 28.776 87.9098 28.65C87.9098 28.524 87.8258 28.356 87.8258 28.23C87.8258 27.768 87.9518 27.306 87.9518 26.928C87.9518 26.802 87.8678 26.676 87.8678 26.55C87.9098 25.332 87.9518 24.282 87.9938 23.022V22.98V22.938V22.896V22.854V22.812V22.77V22.728V22.686V22.602L88.0358 22.56V22.518V22.476C88.0358 22.35 87.9938 22.224 87.9938 22.014V21.216C87.9938 20.922 88.0358 20.502 87.9518 20.292C87.9518 20.46 87.9098 20.586 87.9098 20.754C87.8258 20.712 87.8258 20.292 87.8258 20.166C87.8258 19.998 87.8678 19.872 87.8678 19.704C87.8678 19.494 87.7838 19.284 87.7838 19.074C87.7838 19.032 87.8258 18.99 87.8258 18.948C87.8258 18.948 87.6578 18.108 87.7838 18.108C87.8258 18.108 87.9098 17.436 87.9098 17.31C87.9098 17.142 87.8258 16.512 87.8258 16.134C87.8258 15.966 87.8258 15.798 87.9098 15.756C88.0358 15.714 87.9518 15.378 87.9518 15.168V14.076C87.9518 13.95 87.9518 13.32 87.9938 13.32C88.0358 13.32 88.0358 13.026 88.0358 12.942C88.0358 12.606 88.1198 12.48 88.1198 12.144C88.1198 11.64 87.9938 11.262 87.9938 10.8C87.9938 10.59 88.0778 9.666 87.8678 9.666C87.8258 9.666 87.8258 8.574 87.8258 8.406V7.776C87.7418 7.776 87.1958 7.86 87.1958 7.776C87.1958 7.692 86.4398 7.608 86.3138 7.608H86.2718C86.0618 7.608 85.4318 7.734 85.0118 7.734C84.8018 7.734 84.6338 7.734 84.5918 7.65C84.5078 7.524 84.1298 7.566 83.9198 7.566C83.6258 7.566 83.0378 7.608 82.7018 7.608C82.5758 7.608 81.9038 7.608 81.9038 7.566C81.9038 7.524 81.5258 7.524 81.4418 7.524C81.3158 7.524 81.0638 7.566 80.9798 7.482C80.8538 7.356 80.2238 7.44 80.0138 7.44C80.0138 7.65 79.9718 7.944 79.9718 8.448V8.868V9.162C79.9718 10.002 79.8038 10.548 79.7618 11.388C79.7618 11.304 79.7618 11.22 79.8458 11.22C79.8878 11.22 79.8878 11.22 79.8878 11.262V11.304V11.346C79.8458 11.85 79.8038 12.354 79.8038 12.9V13.236C79.8038 15.126 80.0138 16.89 80.0138 18.822V19.2C80.0138 20.082 79.9298 20.838 79.9298 21.72V21.804V21.846V21.888V21.972V22.098V22.14C79.9718 23.316 79.9298 24.492 79.9298 25.668C79.9298 25.962 79.9718 26.214 79.9718 26.508C79.9718 26.802 79.8878 27.054 79.8878 27.39C79.8878 27.894 79.9718 28.398 79.9718 28.944V29.448C79.9718 30.246 80.0138 30.498 80.0138 30.876H80.0558V31.464V32.682C80.0978 32.892 80.1398 33.102 80.0558 33.144C80.0138 33.186 79.8878 34.488 79.8038 34.53C79.5938 34.656 79.3838 34.866 79.0898 34.866H78.8798H78.4178H78.1658C77.9138 34.824 77.5778 34.908 77.2418 34.908C76.9058 34.866 76.5278 34.95 76.2338 34.95H75.6458C75.3938 34.95 74.8898 35.118 74.7218 34.866C74.6378 34.698 74.3858 34.614 74.2178 34.53C74.0918 34.488 74.3858 33.942 74.4278 33.9C74.4698 33.816 74.3858 33.816 74.3438 33.648C74.2598 33.354 74.2598 33.102 74.2598 32.892C74.2598 32.514 74.3018 32.178 74.3018 31.38V31.086C74.2598 31.002 74.2598 30.876 74.2178 30.792V29.49V29.07C74.2178 28.944 74.3018 28.776 74.3018 28.65C74.3018 28.524 74.2178 28.356 74.2178 28.23C74.2178 27.768 74.3438 27.306 74.3438 26.928C74.3438 26.802 74.2598 26.676 74.2598 26.55C74.3018 25.332 74.3438 24.282 74.3858 23.022V22.98V22.938V22.896V22.854V22.812V22.77V22.728V22.686V22.602L74.4278 22.56V22.518V22.476C74.4278 22.35 74.3858 22.224 74.3858 22.014V21.216C74.3858 20.922 74.4278 20.502 74.3438 20.292C74.3438 20.46 74.3018 20.586 74.3018 20.754C74.2178 20.712 74.2178 20.292 74.2178 20.166C74.2178 19.998 74.2598 19.872 74.2598 19.704C74.2598 19.494 74.2178 19.284 74.2178 19.074V18.948C74.2178 18.948 74.0498 18.108 74.1758 18.108C74.2178 18.108 74.3018 17.436 74.3018 17.31C74.3018 17.142 74.2178 16.512 74.2178 16.134C74.2178 15.966 74.2178 15.798 74.3018 15.756C74.4278 15.714 74.3438 15.378 74.3438 15.168V14.076C74.3438 13.95 74.3438 13.32 74.3858 13.32C74.4278 13.32 74.4278 13.026 74.4278 12.942C74.4278 12.606 74.5118 12.48 74.5118 12.144C74.5118 11.64 74.3858 11.262 74.3858 10.8C74.3858 10.59 74.4698 9.666 74.2598 9.666C74.2178 9.666 74.2178 8.574 74.2178 8.406V7.482C74.0078 7.398 73.9238 7.23 73.6718 7.23C73.4618 7.23 73.0838 6.936 73.0418 6.768C72.9158 6.348 72.8738 6.138 72.7478 5.886C72.7898 5.676 72.4118 5.214 72.3698 4.92C72.3698 4.752 72.2858 4.584 72.2018 4.416C72.0338 4.08 71.9498 3.702 71.8238 3.366C71.7398 3.114 71.1938 2.61 71.6978 2.442C71.8658 2.358 71.9498 2.148 72.1178 2.106C72.3278 2.064 72.2858 1.812 72.5378 1.812L72.5798 1.854C72.8318 1.854 73.2938 1.938 73.4618 1.938C73.6718 1.938 74.1338 2.064 74.3858 1.98C74.6798 1.896 74.8898 1.896 75.0998 1.896C75.4358 1.896 75.7718 1.98 76.4858 1.98H76.9058H77.2838C78.2078 1.98 78.7958 2.148 79.7618 2.19H79.8458C79.7618 2.19 79.5518 2.19 79.5518 2.106C79.5518 2.064 79.5518 2.064 79.5938 2.064H79.6358H79.6778C80.2658 2.106 80.8118 2.148 81.4418 2.148H81.7778C83.8778 2.148 85.8518 1.938 87.9938 1.938H88.3718C90.4298 1.938 92.5718 2.022 94.5878 2.022H94.6298H94.7138H94.7558H94.8818H95.0078C96.3098 1.98 97.6118 2.022 98.9138 2.022C99.2498 2.022 99.5438 1.98 99.8798 1.98C100.216 1.98 100.51 2.064 100.846 2.064C101.224 2.064 101.644 1.938 102.022 1.938H102.568H103.114C103.828 1.938 104.206 1.896 104.542 1.896C104.752 1.896 104.92 1.896 105.214 1.98C105.256 1.98 105.298 2.022 105.34 2.022C105.718 2.022 106.432 1.812 106.894 1.812C107.062 1.812 107.188 1.812 107.23 1.896C107.314 2.022 107.566 2.064 107.608 2.232C107.692 2.484 108.238 2.442 108.112 2.862C107.86 3.156 107.776 3.282 107.692 3.618C107.902 3.828 107.65 4.584 107.692 4.836C107.692 5.046 107.566 5.592 107.65 5.844C107.734 6.138 107.734 6.348 107.734 6.558C107.734 6.894 107.692 7.272 107.692 8.028V8.532V8.91C107.692 9.918 107.482 10.548 107.44 11.556V11.64C107.44 11.556 107.44 11.304 107.524 11.304C107.566 11.304 107.608 11.304 107.608 11.346V11.388V11.472C107.566 12.102 107.482 12.69 107.482 13.32V13.698C107.482 15.924 107.734 18.024 107.734 20.292V20.712C107.734 23.064 107.608 25.542 107.608 28.02V28.356V28.566V29.742V30.54V31.422V31.758ZM107.608 31.758C107.608 31.842 107.65 31.758 107.608 31.758V31.758ZM102.19 24.66C102.19 24.744 102.19 24.702 102.19 24.66V24.66ZM79.7618 11.472V11.43C79.7618 11.472 79.7618 11.472 79.7618 11.472Z" fill="#2D2D2D"/>
<path d="M114.135 35.748C114.135 35.916 114.093 35.874 114.093 35.748C114.093 35.622 114.135 35.58 114.135 35.748ZM116.403 35.454V35.58V35.706C116.403 35.748 116.445 35.79 116.445 35.79C116.445 35.748 116.487 35.622 116.487 35.58V35.496C116.487 35.454 116.529 35.37 116.487 35.37V35.328H116.445C116.403 35.328 116.403 35.412 116.403 35.454ZM114.429 35.286V35.202C114.471 35.16 114.471 35.076 114.471 35.034C114.471 35.034 114.429 35.202 114.429 35.286ZM119.385 34.698V34.74C119.385 34.74 119.343 34.782 119.343 34.698C119.343 34.74 119.385 34.656 119.385 34.698ZM114.177 34.698V35.16C114.177 35.244 114.093 35.328 114.093 35.202C114.093 35.118 114.135 34.824 114.177 34.698ZM119.637 34.236C119.637 34.236 119.679 34.236 119.679 34.278C119.679 34.362 119.637 34.362 119.637 34.278V34.236ZM118.377 34.656C118.377 34.782 118.377 35.076 118.503 35.076C118.629 35.076 118.629 34.782 118.629 34.656C118.629 34.53 118.629 34.194 118.503 34.194C118.377 34.194 118.377 34.53 118.377 34.656ZM114.723 34.194C114.681 34.194 114.681 34.278 114.681 34.32V34.446C114.681 34.53 114.681 34.572 114.723 34.614C114.723 34.614 114.765 34.488 114.765 34.446V34.362C114.765 34.32 114.765 34.194 114.723 34.194ZM118.923 31.59V31.716C118.923 31.8 118.881 31.884 118.923 31.926H118.965C119.007 31.926 119.007 31.716 119.007 31.632C119.007 31.59 119.007 31.506 118.965 31.464C118.923 31.464 118.923 31.548 118.923 31.59ZM117.999 30.876C117.999 30.918 117.957 31.002 117.957 31.17C117.957 31.548 118.041 31.506 118.041 31.17C118.041 31.086 118.041 30.918 117.999 30.876ZM117.201 30.498C116.865 30.498 116.949 31.296 116.907 31.59C116.907 31.716 116.991 31.8 116.991 31.8C116.991 31.758 117.117 30.666 117.201 30.498ZM115.269 30.582C115.269 30.498 115.269 30.414 115.227 30.414C114.975 30.372 115.059 31.338 115.059 31.59C115.101 31.338 115.269 30.792 115.269 30.582ZM119.595 30.54C119.595 30.582 119.595 30.75 119.553 30.75C119.511 30.75 119.511 30.582 119.511 30.54C119.511 30.498 119.511 30.33 119.553 30.33C119.595 30.33 119.595 30.498 119.595 30.54ZM119.595 29.196C119.595 29.28 119.595 29.49 119.553 29.49C119.511 29.49 119.511 29.28 119.511 29.196C119.511 29.112 119.511 28.902 119.553 28.902C119.595 28.902 119.595 29.112 119.595 29.196ZM116.067 27.348V27.474V27.642C116.067 27.684 116.067 27.768 116.109 27.768C116.151 27.726 116.151 27.642 116.151 27.6V27.474C116.151 27.432 116.151 27.222 116.109 27.222C116.067 27.222 116.067 27.306 116.067 27.348ZM119.553 26.13V26.046C119.553 26.004 119.595 26.046 119.595 26.088V26.13V26.214C119.595 26.298 119.553 26.256 119.553 26.214V26.13ZM117.201 26.046C117.201 26.214 117.201 26.634 117.327 26.634C117.453 26.634 117.453 26.214 117.453 26.046C117.453 25.878 117.453 25.416 117.327 25.416C117.201 25.416 117.201 25.878 117.201 26.046ZM115.437 24.912H115.395C115.311 25.08 115.479 24.954 115.479 25.038C115.479 25.038 115.479 24.912 115.437 24.912ZM122.955 21.804C122.997 21.804 123.039 21.846 122.955 21.846H122.913H122.871C122.787 21.846 122.913 21.804 122.913 21.804H122.955ZM119.511 15.798C119.511 15.882 119.553 15.882 119.553 15.798V15.756V15.714L119.511 15.756V15.798ZM137.235 8.28H137.277L137.361 8.322H137.277H137.235C137.151 8.322 137.193 8.28 137.235 8.28ZM126.399 8.28H126.441C126.483 8.28 126.525 8.322 126.483 8.322H126.399H126.357C126.273 8.322 126.357 8.28 126.399 8.28ZM121.443 8.154C121.443 8.112 121.653 8.112 121.695 8.112C121.737 8.112 121.947 8.112 121.947 8.154C121.947 8.196 121.737 8.238 121.695 8.238C121.653 8.238 121.443 8.196 121.443 8.154ZM120.351 8.154C120.351 8.112 120.477 8.112 120.519 8.112C120.561 8.112 120.729 8.112 120.729 8.154C120.729 8.196 120.561 8.238 120.519 8.238C120.477 8.238 120.351 8.196 120.351 8.154ZM116.487 2.694C116.571 2.694 116.781 2.736 116.907 2.778C116.781 2.778 116.487 2.82 116.445 2.736C116.445 2.694 116.445 2.694 116.487 2.694ZM116.067 2.694C116.193 2.694 116.235 2.736 116.067 2.736C115.899 2.736 115.941 2.694 116.067 2.694ZM128.415 2.61L128.709 2.568C130.809 2.568 132.741 2.778 134.799 2.778H134.967C135.639 2.778 136.227 2.652 136.857 2.652H136.941C136.983 2.652 137.025 2.694 137.025 2.736C137.025 2.82 136.941 2.82 136.857 2.82C137.739 2.778 138.327 2.568 139.251 2.568H139.587H140.049C140.763 2.568 141.057 2.526 141.393 2.526C141.603 2.526 141.813 2.526 142.065 2.61C142.107 2.61 142.149 2.652 142.191 2.652C142.569 2.652 143.325 2.4 143.745 2.4C143.913 2.4 144.039 2.442 144.081 2.526C144.165 2.652 144.417 2.694 144.459 2.862C144.543 3.114 145.047 3.03 144.921 3.45C144.627 3.828 144.543 4.08 144.417 4.584C144.333 4.878 143.997 5.172 144.039 5.55C143.997 5.844 143.661 6.306 143.703 6.516C143.577 6.81 143.619 6.81 143.451 7.188C143.409 7.314 143.367 7.524 143.283 7.566C143.283 7.566 142.863 7.86 142.779 7.86C142.695 7.86 142.569 7.902 142.527 7.944C142.275 8.112 141.855 8.196 141.477 8.322H140.091C139.923 8.322 138.705 8.364 138.705 8.322C138.705 8.112 137.697 8.196 137.487 8.196C137.277 8.196 137.067 8.154 136.899 8.112C136.731 8.07 136.521 8.07 136.353 8.07C135.933 8.07 135.513 8.154 135.135 8.154C135.051 8.154 134.715 8.154 134.715 8.196C134.715 8.238 134.043 8.238 133.917 8.238C133.581 8.238 133.035 8.196 132.741 8.196C132.321 8.196 132.111 8.322 131.859 8.322C131.775 8.322 131.019 8.28 130.347 8.28C129.885 8.28 129.465 8.322 129.465 8.406C129.465 8.532 128.583 8.364 128.583 8.364H128.415C128.163 8.364 127.995 8.28 127.743 8.28C127.533 8.28 127.449 8.364 127.239 8.364C127.113 8.364 126.651 8.322 126.609 8.238C126.777 8.238 126.945 8.28 127.113 8.238C126.903 8.196 126.735 8.154 126.483 8.154H126.105C125.853 8.154 125.517 8.196 125.265 8.196C125.097 8.196 124.719 8.196 124.719 8.112C124.719 8.07 124.635 8.07 124.635 8.07C125.055 8.028 125.643 8.028 126.021 7.986H125.559H125.181C124.803 7.986 124.383 8.07 124.257 8.07C124.131 8.07 122.703 8.028 122.409 8.028C122.535 7.902 121.695 7.902 121.527 7.902C121.443 7.902 121.317 7.944 121.233 7.944H120.981H120.813C120.687 7.944 120.687 7.902 120.561 7.902H120.309H120.015H119.763H119.679C119.679 8.07 119.679 9.498 119.637 9.498C119.511 9.498 119.469 9.876 119.469 10.212C119.469 10.506 119.511 10.8 119.511 10.926C119.511 11.178 119.511 11.346 119.469 11.556C119.427 11.766 119.385 11.976 119.385 12.186C119.385 12.648 119.469 13.152 119.469 13.614C119.469 13.698 119.469 14.118 119.511 14.118C119.553 14.118 119.553 14.916 119.553 15.042V16.092H119.973H120.393H120.771C121.695 16.092 122.283 16.302 123.249 16.344H123.333C123.249 16.344 122.997 16.344 122.997 16.26C122.997 16.218 123.039 16.176 123.081 16.176H123.123H123.165C123.753 16.218 124.299 16.302 124.929 16.302H125.265C126.315 16.302 127.491 16.344 128.457 16.176H128.499H128.793C129.675 16.176 130.053 16.092 130.431 16.092C130.683 16.092 130.935 16.134 131.271 16.218C131.649 16.302 131.733 16.218 132.027 16.05C132.279 15.924 132.447 16.218 132.489 16.386C132.573 16.596 132.825 16.596 132.825 16.932C132.741 17.352 132.699 17.562 132.699 18.066C132.699 18.36 132.657 18.696 132.699 19.032C132.699 19.326 132.573 19.746 132.657 19.998C132.615 20.292 132.657 20.292 132.615 20.67V20.88C132.615 21.006 132.531 21.342 132.405 21.384C132.321 21.384 132.279 21.51 132.237 21.594C132.195 21.636 131.397 21.678 131.229 21.72C131.019 21.762 130.767 21.804 130.557 21.846H128.835H128.499C128.373 21.846 128.121 21.888 128.079 21.804C127.995 21.678 127.617 21.762 127.407 21.762H126.189C126.063 21.762 125.391 21.762 125.391 21.72C125.391 21.678 125.013 21.678 124.929 21.678C124.635 21.678 124.509 21.594 124.257 21.594H124.047C123.501 21.594 123.081 21.72 122.577 21.72C122.367 21.72 121.317 21.636 121.317 21.846C121.317 21.888 120.057 21.888 119.889 21.888H119.637V21.93V22.098C119.637 22.308 119.679 22.476 119.679 22.686C119.679 22.812 119.679 23.358 119.595 23.4C119.595 23.19 119.595 22.98 119.553 22.812C119.511 23.064 119.511 23.274 119.511 23.568V23.988V24.954C119.511 25.122 119.553 25.584 119.469 25.584C119.427 25.584 119.385 25.71 119.385 25.668C119.343 25.206 119.385 24.576 119.343 24.114C119.343 24.282 119.301 24.45 119.301 24.66V25.038C119.301 25.458 119.427 25.962 119.427 26.088C119.427 26.172 119.385 26.382 119.343 26.34V28.23C119.217 28.104 119.259 29.07 119.259 29.238V29.574V29.868V30.078V30.372V30.624C119.259 30.75 119.217 30.876 119.217 31.002V31.296C119.217 31.422 119.343 32.85 119.343 32.85C119.259 32.85 119.301 32.976 119.301 33.06C119.301 33.396 119.217 33.186 119.343 33.522C119.427 33.732 119.469 34.404 119.427 34.824C119.385 35.37 119.343 34.614 119.343 34.488C119.343 34.572 119.301 34.614 119.217 34.572C119.007 34.488 119.133 34.698 119.133 34.74C119.133 34.824 119.007 35.622 118.923 35.664C118.797 35.706 118.713 36.63 118.629 36.252C118.545 35.958 118.335 35.622 118.335 35.328C118.335 35.076 118.251 35.37 118.251 35.496C118.251 35.916 117.873 36.504 117.873 36.84C117.873 37.218 117.705 36.546 117.789 36.546C117.915 36.588 117.747 35.538 117.663 35.664C117.579 35.748 117.453 37.344 117.285 37.344C117.285 37.344 117.243 37.344 117.243 37.302C117.243 37.302 116.865 37.554 116.865 37.428C116.865 37.302 116.781 37.008 116.781 37.218C116.781 37.302 116.697 37.344 116.697 37.218C116.739 36.84 116.613 37.428 116.613 37.134V36.966C116.613 36.882 116.613 36.294 116.571 36.588C116.487 37.008 116.487 38.016 116.403 38.52C116.403 38.52 116.361 38.52 116.361 38.436C116.361 38.31 116.403 37.47 116.403 37.428C116.403 37.428 116.235 38.394 116.235 37.89C116.235 37.806 116.151 37.554 116.151 37.764C116.151 37.848 116.151 37.89 116.109 37.848C116.025 37.764 116.025 38.058 116.025 38.142C116.025 38.058 115.941 37.344 115.857 37.344C115.773 37.344 115.773 38.184 115.731 38.184C115.731 38.184 115.731 38.016 115.689 37.596C115.647 37.176 115.563 36.84 115.563 36.546C115.563 36.462 115.563 36.336 115.521 36.294C115.521 36.252 115.479 36.252 115.479 36.252C115.311 36.252 115.227 37.512 115.185 37.554C115.101 37.638 115.059 36.882 115.059 36.714C114.975 35.874 114.807 37.008 114.849 37.302C114.849 37.512 114.723 38.1 114.681 38.016C114.555 37.68 114.597 36.168 114.345 36.168C114.303 36.168 114.303 36.504 114.303 36.546C114.303 36.546 114.219 35.79 114.177 35.748C114.177 35.748 114.261 34.404 114.177 34.488C114.093 34.614 114.093 33.69 114.093 33.648C114.135 33.48 114.093 33.522 114.093 33.396V33.354C114.093 33.27 114.051 33.186 114.009 33.186H113.967V32.808V31.884V31.044V30.246V29.784V29.574V29.196C113.967 26.676 113.883 24.03 113.883 21.552C113.757 21.468 113.631 21.384 113.463 21.384C113.253 21.384 112.875 21.09 112.833 20.922C112.707 20.502 112.665 20.292 112.539 20.04C112.581 19.83 112.203 19.368 112.161 19.074C112.161 18.906 112.119 18.738 112.035 18.57C111.867 18.234 111.741 17.856 111.615 17.52C111.531 17.268 110.985 16.764 111.489 16.596C111.657 16.512 111.741 16.302 111.909 16.26C112.119 16.218 112.119 15.966 112.371 15.966C113.001 15.966 113.337 16.176 113.925 16.176H114.051C114.093 15.42 114.093 14.622 114.093 13.824C114.093 13.068 114.009 12.312 114.009 11.598V11.556V11.514C114.009 11.472 114.009 11.43 114.051 11.43C114.093 11.43 114.093 11.556 114.093 11.64C114.051 10.632 113.925 9.918 113.925 8.868V8.49V7.986V5.13C113.715 5.13 113.547 5.088 113.505 5.088C113.505 5.088 113.463 5.046 113.547 5.046H113.925C113.925 4.962 113.883 4.92 113.925 4.92V4.71H113.883H113.799C113.841 4.71 113.883 4.668 113.925 4.668C113.925 4.584 113.883 4.542 113.883 4.416C113.883 4.458 113.883 4.458 113.883 4.458L113.967 4.416C113.925 4.206 113.799 3.492 113.925 3.366C114.051 3.24 114.093 3.03 114.261 2.946C114.513 2.82 114.429 2.4 114.765 2.358C114.807 2.358 114.849 2.4 114.891 2.4C115.227 2.694 115.395 2.778 115.815 2.904C115.857 2.904 115.941 2.862 115.941 2.862C115.941 2.862 117.117 2.988 117.033 2.904C116.949 2.778 117.747 2.82 117.789 2.82C117.957 2.862 117.873 2.778 117.999 2.778H118.041C118.125 2.778 118.209 2.736 118.209 2.694H118.545H119.343H120.057H120.729H121.149H121.359H121.695C123.921 2.694 126.189 2.61 128.415 2.61ZM119.595 23.694V23.736V23.778C119.595 23.862 119.553 23.862 119.553 23.778V23.694H119.595ZM119.553 11.262L119.595 11.22V11.262C119.595 11.346 119.553 11.346 119.553 11.262ZM136.731 2.82C136.731 2.82 136.731 2.82 136.773 2.82H136.731ZM114.135 11.766C114.135 11.766 114.093 11.766 114.093 11.724H114.135V11.766ZM180.188 35.16C180.356 35.16 180.314 35.202 180.188 35.202C180.062 35.202 180.02 35.16 180.188 35.16ZM179.264 35.118C179.39 35.118 179.768 35.076 179.81 35.16C179.852 35.244 179.348 35.118 179.264 35.118ZM174.938 32.052C174.938 32.388 175.736 32.304 176.03 32.346C176.156 32.346 176.282 32.262 176.282 32.262C176.24 32.262 175.106 32.136 174.938 32.052ZM179.306 29.952C179.348 29.952 179.264 29.91 179.306 29.91C179.348 29.91 179.39 29.952 179.306 29.952ZM171.2 29.742C171.158 29.742 171.158 29.7 171.116 29.7H171.158H171.2H171.284C171.368 29.7 171.326 29.742 171.284 29.742H171.2ZM175.358 29.7C175.4 29.7 175.526 29.7 175.526 29.742C175.526 29.784 175.4 29.784 175.358 29.784C175.316 29.784 175.148 29.784 175.148 29.742C175.148 29.7 175.316 29.7 175.358 29.7ZM173.804 29.742C173.804 29.7 174.014 29.7 174.098 29.7C174.182 29.7 174.35 29.7 174.35 29.742C174.35 29.784 174.182 29.784 174.098 29.784C174.014 29.784 173.804 29.784 173.804 29.742ZM178.844 29.658C178.844 29.658 178.844 29.616 178.886 29.616C178.97 29.616 178.928 29.658 178.886 29.658H178.844ZM162.59 27.978C162.59 28.02 162.59 28.188 162.548 28.188C162.506 28.188 162.506 28.02 162.506 27.978C162.506 27.936 162.506 27.81 162.548 27.81C162.59 27.81 162.59 27.936 162.59 27.978ZM162.59 26.802C162.59 26.844 162.59 27.054 162.548 27.054C162.506 27.054 162.506 26.844 162.506 26.802C162.506 26.76 162.506 26.55 162.548 26.55C162.59 26.55 162.59 26.718 162.59 26.802ZM162.506 24.072V23.988C162.506 23.988 162.548 23.946 162.548 23.988V24.072V24.156L162.506 24.198V24.156V24.072ZM162.422 21.93C162.422 21.888 162.464 21.888 162.464 21.93V22.014C162.464 22.056 162.422 22.098 162.422 22.014V21.972V21.93ZM162.59 10.548V10.506C162.59 10.464 162.548 10.38 162.548 10.464V10.548V10.632L162.59 10.674V10.548ZM168.974 8.238H169.016C169.058 8.238 169.1 8.28 169.016 8.28H168.974H168.932C168.848 8.28 168.932 8.238 168.974 8.238ZM157.214 8.238C157.256 8.238 157.34 8.28 157.256 8.28H157.214H157.13C157.046 8.28 157.172 8.238 157.172 8.238H157.214ZM178.886 8.238C178.928 8.238 178.97 8.28 178.886 8.28C178.844 8.28 178.844 8.238 178.844 8.238H178.886ZM175.358 8.07C175.4 8.07 175.526 8.07 175.526 8.112C175.526 8.154 175.4 8.196 175.358 8.196C175.316 8.196 175.148 8.154 175.148 8.112C175.148 8.07 175.316 8.07 175.358 8.07ZM173.804 8.112C173.804 8.07 174.014 8.07 174.098 8.07C174.182 8.07 174.35 8.07 174.35 8.112C174.35 8.154 174.182 8.196 174.098 8.196C174.014 8.196 173.804 8.154 173.804 8.112ZM179.306 7.986C179.264 7.986 179.348 7.944 179.306 7.944C179.348 7.944 179.39 7.986 179.306 7.986ZM179.264 2.736C179.39 2.694 179.642 2.652 179.726 2.652C179.894 2.652 179.6 2.736 179.516 2.736H179.264ZM180.188 2.694H180.104C180.146 2.694 180.146 2.652 180.188 2.652C180.314 2.652 180.356 2.694 180.188 2.694ZM162.422 10.8L162.464 10.842C162.464 10.884 162.422 10.926 162.422 10.842V10.8ZM157.718 35.076C157.676 35.076 157.676 35.118 157.634 35.118C157.634 35.118 157.634 35.076 157.676 35.076H157.718ZM157.718 35.076C157.76 35.076 157.802 35.034 157.802 35.034H157.844L157.802 35.076H157.718ZM157.55 35.118C156.584 35.16 155.954 35.286 154.988 35.286H154.61H154.148C153.392 35.286 153.014 35.37 152.678 35.37C152.468 35.37 152.216 35.37 151.922 35.286C151.88 35.286 151.838 35.244 151.796 35.244C151.376 35.244 150.578 35.454 150.116 35.454C149.948 35.454 149.822 35.454 149.78 35.37C149.654 35.244 149.402 35.202 149.36 35.034C149.234 34.782 148.73 34.824 148.856 34.404C149.192 34.026 149.234 33.774 149.402 33.27C149.486 33.018 149.822 32.682 149.78 32.304C149.822 32.052 150.242 31.59 150.2 31.38C150.326 31.086 150.242 31.086 150.452 30.708C150.494 30.582 150.536 30.33 150.62 30.288C150.62 30.288 151.04 30.036 151.166 30.036C151.25 30.036 151.376 29.994 151.46 29.952C151.754 29.784 152.174 29.658 152.552 29.532H154.064C154.232 29.532 155.618 29.532 155.618 29.574C155.618 29.7 155.912 29.7 156.248 29.7H156.92C157.13 29.7 157.34 29.7 157.508 29.742C157.718 29.784 157.928 29.826 158.138 29.826C158.6 29.826 159.02 29.742 159.44 29.742C159.524 29.742 159.902 29.742 159.902 29.7C159.902 29.658 160.658 29.658 160.784 29.658H162.044C162.338 29.658 162.548 29.7 162.716 29.658C162.758 29.406 162.8 29.028 162.8 28.734V28.44V28.146C162.8 28.062 162.758 27.978 162.758 27.894V27.726V27.642V27.432V27.18V26.886C162.758 26.634 162.758 25.92 162.674 26.004C162.632 26.046 162.632 25.71 162.632 25.626C162.632 25.29 162.632 24.954 162.674 24.66C162.716 24.366 162.59 24.324 162.59 24.072V23.946C162.59 23.778 162.674 23.988 162.674 23.946C162.716 23.736 162.716 23.442 162.716 23.148V22.77C162.716 22.686 162.674 22.224 162.674 22.224C162.59 22.35 162.632 22.854 162.632 23.064V23.568C162.632 23.82 162.632 23.61 162.548 23.61C162.548 23.61 162.506 23.19 162.506 23.064V22.224C162.506 21.888 162.548 21.426 162.464 21.174C162.464 21.342 162.422 21.51 162.422 21.678C162.338 21.636 162.338 21.174 162.338 21.048C162.338 20.838 162.38 20.712 162.38 20.502C162.38 20.25 162.338 20.082 162.338 19.83V19.662C162.338 19.662 162.17 18.738 162.296 18.738C162.338 18.738 162.422 17.94 162.422 17.814C162.422 17.604 162.338 16.932 162.338 16.512C162.338 16.302 162.338 16.134 162.422 16.092C162.548 16.008 162.464 15.63 162.464 15.42V14.202C162.464 14.076 162.464 13.362 162.506 13.362C162.548 13.362 162.548 13.026 162.548 12.942C162.548 12.648 162.632 12.522 162.632 12.27V12.018C162.632 11.472 162.506 11.094 162.506 10.548C162.506 10.338 162.59 9.288 162.38 9.288C162.338 9.288 162.338 8.532 162.338 8.406V8.196H162.044H160.784C160.658 8.196 159.902 8.238 159.902 8.196C159.902 8.154 159.524 8.154 159.44 8.154C159.104 8.154 158.978 8.028 158.726 8.028H158.474C157.886 8.028 157.466 8.154 156.92 8.154H156.248C155.912 8.154 155.576 8.154 155.576 8.28C155.576 8.322 154.232 8.322 154.064 8.322H152.552C152.342 8.28 152.174 8.238 151.964 8.196C151.628 8.112 151.502 7.818 151.166 7.818C150.914 7.818 150.536 7.566 150.494 7.398C150.368 6.978 150.284 6.726 150.158 6.474C150.2 6.264 149.822 5.802 149.78 5.55C149.78 5.382 149.696 5.214 149.612 5.046C149.276 4.458 149.234 3.912 148.814 3.45C148.73 3.156 149.066 3.072 149.234 2.946C149.36 2.862 149.402 2.778 149.528 2.736C149.738 2.694 149.696 2.442 149.99 2.442C150.242 2.442 150.788 2.568 150.956 2.568C151.166 2.568 151.67 2.694 151.922 2.61C152.216 2.526 152.426 2.526 152.636 2.526C152.972 2.526 153.392 2.568 154.148 2.568H154.61H154.988C155.996 2.568 156.626 2.778 157.634 2.82H157.718C157.634 2.82 157.382 2.82 157.382 2.736C157.382 2.694 157.424 2.652 157.466 2.652H157.508H157.55C158.18 2.694 158.768 2.778 159.398 2.778H159.818C162.044 2.778 164.102 2.568 166.37 2.568H166.79C169.142 2.568 171.62 2.652 174.098 2.652H174.476H174.686H175.862H176.618H177.5H177.878C177.878 2.694 177.962 2.736 178.046 2.736H178.088C178.172 2.736 178.844 2.736 179.096 2.778C179.222 2.82 179.012 2.862 179.138 2.904C179.348 2.946 180.272 2.778 180.314 2.82C180.356 2.862 181.07 2.988 181.07 2.988C181.028 2.988 180.692 2.946 180.692 2.988C180.692 3.156 181.406 3.24 181.91 3.282C182.33 3.324 182.666 3.324 182.33 3.45C181.994 3.576 181.49 3.492 181.112 3.576C180.524 3.702 181.364 3.744 181.574 3.744C181.868 3.744 181.994 3.786 181.994 3.828C181.994 3.912 181.238 3.996 180.986 4.038C180.65 4.122 180.734 4.248 181.028 4.248C181.322 4.248 181.616 4.374 181.994 4.374C182.414 4.416 182.54 4.416 182.54 4.416C182.54 4.458 181.784 4.458 181.784 4.542C181.784 4.626 182.456 4.71 182.54 4.71C182.12 4.71 182.33 4.836 182.204 4.836C181.994 4.836 182.204 4.92 182.288 4.92C182.75 4.92 181.784 5.046 181.868 5.046H182.834C182.918 5.046 182.918 5.088 182.876 5.088C182.414 5.172 181.448 5.13 181.07 5.214C180.776 5.256 181.364 5.298 181.448 5.298H181.574C181.868 5.298 181.28 5.424 181.658 5.382C181.826 5.382 181.742 5.466 181.658 5.466C181.49 5.466 181.742 5.55 181.868 5.55C181.91 5.55 181.784 5.97 181.784 5.97C181.784 6.18 180.398 6.222 180.23 6.348C180.23 6.348 181.112 6.6 181.07 6.432C181.07 6.348 181.742 6.558 181.322 6.558C181.28 6.558 181.154 6.558 181.154 6.6C181.112 6.768 180.146 6.936 179.936 6.936H179.894C179.768 6.894 179.768 7.02 179.894 7.02C180.146 7.02 180.398 7.188 180.608 7.272C181.322 7.524 180.272 7.356 180.188 7.608C180.146 7.692 179.432 7.818 179.348 7.818C179.306 7.818 179.096 7.692 179.18 7.902C179.222 7.986 179.096 8.028 179.096 8.028C179.222 8.028 179.894 8.07 179.432 8.112C179.012 8.154 178.424 8.112 178.214 8.028C177.878 7.86 178.088 7.944 177.752 7.944C177.668 7.944 177.584 7.944 177.584 8.028C177.584 8.028 176.24 7.902 176.114 7.902H175.82H175.484H175.19H175.064C175.064 7.902 175.022 7.944 174.98 7.944H174.77H174.476C174.392 7.944 174.266 7.902 174.14 7.902C173.888 7.902 173.132 7.944 173.216 8.028C173.258 8.07 172.922 8.07 172.838 8.07C172.502 8.07 172.124 8.07 171.83 8.028C171.494 7.986 171.494 8.112 171.2 8.112C171.158 8.112 171.116 8.07 171.074 8.07C170.906 8.07 171.158 8.028 171.074 8.028C170.822 7.986 170.486 7.986 170.192 7.986H169.814C169.73 7.986 169.268 8.028 169.268 8.028C169.394 8.112 169.898 8.028 170.108 8.028C170.276 8.028 170.486 8.07 170.654 8.07H170.696C170.696 8.112 170.696 8.112 170.696 8.112L170.738 8.154C170.738 8.154 170.276 8.196 170.15 8.196C169.898 8.196 169.52 8.154 169.226 8.154C168.848 8.154 168.428 8.196 168.092 8.238H168.134H168.68C168.638 8.322 168.176 8.322 168.092 8.322V8.364V8.7C168.092 9.666 167.924 10.254 167.882 11.22V11.304C167.882 11.22 167.882 11.01 167.966 11.01C168.008 11.01 168.008 11.01 168.008 11.052L168.05 11.094V11.136C168.008 11.724 167.924 12.27 167.924 12.9V13.278C167.924 15.378 168.134 17.352 168.134 19.494V19.914C168.134 22.14 168.05 24.492 168.05 26.844V27.18V27.348V28.482V29.238V29.532C168.176 29.532 168.638 29.532 168.68 29.616C168.512 29.616 168.302 29.616 168.134 29.658C168.344 29.7 168.554 29.7 168.848 29.7H169.226H170.15C170.318 29.7 170.696 29.658 170.696 29.742C170.696 29.784 170.78 29.826 170.78 29.826C170.99 29.826 171.116 29.784 171.2 29.784C171.368 29.784 172.922 29.868 173.216 29.868C173.09 29.994 173.972 29.952 174.14 29.952H174.476H174.77H174.98H175.232H175.484H175.82H176.114C176.24 29.952 177.584 29.868 177.584 29.868C177.584 29.952 177.71 29.91 177.794 29.91C178.13 29.91 177.878 30.036 178.214 29.868C178.424 29.784 179.012 29.742 179.432 29.784C179.936 29.826 179.18 29.868 179.096 29.868C179.18 29.868 179.222 29.91 179.18 29.994C179.096 30.204 179.306 30.036 179.348 30.036C179.432 30.036 180.188 30.204 180.23 30.288C180.272 30.414 181.154 30.498 180.776 30.582C180.524 30.666 180.188 30.834 179.894 30.834C179.726 30.834 179.81 31.002 179.894 30.96H180.02C180.398 30.96 180.986 31.338 181.322 31.338C181.7 31.338 181.07 31.506 181.07 31.422C181.112 31.296 180.104 31.464 180.23 31.548C180.314 31.632 181.784 31.758 181.784 31.926H181.742C181.742 31.926 181.994 32.346 181.868 32.346C181.742 32.346 181.49 32.43 181.658 32.43C181.742 32.43 181.826 32.514 181.7 32.514C181.322 32.472 181.868 32.598 181.574 32.598H181.448C181.364 32.598 180.776 32.598 181.07 32.64C181.448 32.724 182.414 32.724 182.876 32.808H182.834H181.91C181.91 32.808 182.834 32.934 182.33 32.934C182.288 32.934 182.246 32.976 182.204 32.976C182.12 33.018 182.12 33.06 182.204 33.06C182.288 33.06 182.288 33.06 182.246 33.102C182.162 33.186 182.498 33.144 182.54 33.144C182.456 33.144 181.784 33.27 181.784 33.354C181.784 33.438 182.582 33.438 182.582 33.48C182.582 33.48 182.456 33.48 182.036 33.522C181.616 33.564 181.322 33.648 181.028 33.648C180.944 33.648 180.818 33.648 180.776 33.69V33.732C180.776 33.9 181.952 33.984 181.994 34.026C182.078 34.11 181.364 34.152 181.196 34.152C180.398 34.236 181.448 34.404 181.742 34.362C181.952 34.362 182.54 34.488 182.456 34.53C182.12 34.656 180.692 34.614 180.692 34.866C180.692 34.908 181.028 34.908 181.07 34.908C181.07 34.908 180.356 34.992 180.314 35.034C180.314 35.034 179.054 34.95 179.138 35.034C179.264 35.118 178.382 35.076 178.34 35.076C178.172 35.034 178.214 35.118 178.088 35.118H178.046C177.962 35.118 177.878 35.16 177.878 35.202V35.244H177.542H176.618H175.862H175.106H174.686H174.476H174.098C171.662 35.244 169.226 35.328 166.832 35.328H166.37C164.102 35.328 162.044 35.118 159.818 35.118H159.65C158.936 35.118 158.222 35.202 157.55 35.202H157.508H157.466C157.424 35.202 157.382 35.202 157.382 35.16C157.382 35.118 157.466 35.118 157.55 35.118ZM170.696 8.07C170.738 8.07 170.78 8.07 170.696 8.07V8.07ZM170.78 29.868C170.57 29.868 170.402 29.868 170.234 29.868H169.856H169.352C169.73 29.868 170.318 29.868 170.78 29.868ZM204.632 34.74V34.656V34.572C204.632 34.53 204.59 34.488 204.59 34.488H204.548V34.53C204.548 34.572 204.506 34.572 204.506 34.614V34.74C204.506 34.782 204.548 34.824 204.548 34.866V34.908H204.59C204.632 34.866 204.632 34.782 204.632 34.74ZM207.782 34.152H207.824V34.236C207.782 34.278 207.782 34.194 207.782 34.152ZM202.616 34.152V34.278V34.404C202.616 34.488 202.532 34.866 202.532 34.656C202.532 34.572 202.574 34.278 202.616 34.152ZM206.396 33.648V33.816C206.396 33.942 206.438 34.278 206.522 34.278C206.606 34.278 206.648 34.068 206.648 33.984V33.816V33.648C206.648 33.564 206.606 33.396 206.522 33.396C206.438 33.396 206.396 33.564 206.396 33.648ZM202.91 33.354V33.396C202.91 33.438 202.868 33.438 202.868 33.48V33.606V33.732C202.868 33.774 202.91 33.816 202.91 33.816C202.952 33.816 202.952 33.564 202.952 33.522H202.994C202.994 33.48 202.952 33.48 202.952 33.438C202.952 33.396 202.91 33.354 202.91 33.354ZM203.708 32.724C203.708 32.766 203.75 32.892 203.75 32.808C203.792 32.766 203.792 32.766 203.792 32.724C203.792 32.598 203.708 32.556 203.708 32.724ZM206.984 30.666L206.942 30.708V30.792V30.918V31.044V31.086H206.984C206.984 31.086 207.026 31.086 207.026 31.044V31.002V30.918V30.792V30.708C207.026 30.666 206.984 30.666 206.984 30.666ZM206.06 30.078C206.06 30.162 206.018 30.204 206.018 30.372C206.018 30.75 206.102 30.708 206.102 30.372C206.102 30.288 206.102 30.12 206.06 30.078ZM205.304 29.658C204.968 29.658 205.094 30.456 205.01 30.75C205.01 30.876 205.094 31.002 205.094 31.002C205.094 30.96 205.22 29.826 205.304 29.658ZM203.456 29.784C203.456 29.7 203.414 29.616 203.372 29.616C203.12 29.574 203.246 30.582 203.246 30.792C203.288 30.54 203.456 29.994 203.456 29.784ZM208.034 29.784V29.826C208.034 29.868 208.034 29.91 207.992 29.91C207.992 29.91 207.95 29.868 207.95 29.826V29.784V29.616V29.532C207.95 29.49 207.95 29.448 207.992 29.448L208.034 29.49V29.532V29.616V29.784ZM208.034 28.398V28.482C208.034 28.524 208.034 28.566 207.992 28.566C207.992 28.566 207.95 28.524 207.95 28.482V28.398V28.146V28.02C207.95 27.978 207.95 27.936 207.992 27.936L208.034 27.978V28.02V28.146V28.398ZM207.068 27.642C207.152 27.81 207.278 27.726 207.278 27.558C207.194 27.39 207.068 27.432 207.068 27.642ZM204.254 26.802C204.254 26.76 204.296 26.718 204.296 26.676C204.296 26.634 204.254 26.592 204.254 26.55C204.254 26.508 204.212 26.424 204.212 26.424V26.508C204.212 26.55 204.17 26.634 204.17 26.676C204.17 26.718 204.212 26.802 204.212 26.844V26.928V26.97C204.212 26.928 204.254 26.844 204.254 26.802ZM207.992 25.08V24.912L208.034 24.87V24.912V25.122L207.992 25.08ZM206.942 24.618C206.942 24.618 206.9 24.576 206.9 24.618V24.702V25.038V25.122C206.9 25.164 206.942 25.164 206.942 25.164V25.08C206.942 25.038 206.984 25.038 206.984 24.996V24.87V24.744C206.984 24.702 206.942 24.618 206.942 24.618ZM205.304 24.954V25.206V25.458C205.304 25.542 205.346 25.836 205.43 25.836C205.514 25.836 205.514 25.542 205.514 25.458C205.514 25.374 205.556 25.29 205.556 25.206C205.556 25.122 205.514 25.038 205.514 24.954C205.514 24.87 205.514 24.576 205.43 24.576C205.346 24.576 205.304 24.87 205.304 24.954ZM207.992 13.866H207.95V13.908V13.95V13.992V14.034V14.076L207.992 14.034V13.992V13.95V13.866ZM208.118 9.078V9.246V9.288L208.076 9.246V9.204V9.162L208.118 9.078ZM209.084 7.818C209.084 7.818 209.084 7.776 209.126 7.776H209.21C209.252 7.776 209.294 7.818 209.294 7.818H209.21H209.168H209.084ZM195.896 7.776C195.938 7.776 195.98 7.818 195.98 7.818H195.896H195.854H195.77H195.728C195.728 7.818 195.77 7.776 195.812 7.776H195.896ZM220.34 7.818C220.256 7.818 220.256 7.776 220.34 7.776C220.382 7.776 220.424 7.818 220.34 7.818ZM211.688 7.692H211.772H211.814L211.772 7.734H211.688H211.604L211.562 7.692H211.604H211.688ZM216.14 7.692C216.14 7.65 216.308 7.608 216.35 7.608C216.392 7.608 216.602 7.65 216.602 7.692C216.602 7.734 216.392 7.734 216.35 7.734C216.308 7.734 216.14 7.734 216.14 7.692ZM214.628 7.692C214.628 7.65 214.838 7.608 214.922 7.608C215.006 7.608 215.258 7.65 215.258 7.692C215.258 7.734 215.006 7.734 214.922 7.734C214.838 7.734 214.628 7.734 214.628 7.692ZM220.928 7.482C220.928 7.524 220.886 7.524 220.844 7.524C220.802 7.524 220.886 7.482 220.844 7.482H220.928ZM221.852 2.232H221.726C221.768 2.232 221.81 2.19 221.852 2.19C221.978 2.19 222.02 2.232 221.852 2.232ZM220.844 2.274C220.97 2.232 221.264 2.19 221.348 2.19C221.474 2.19 221.39 2.274 221.306 2.274C221.264 2.274 221.18 2.316 221.096 2.316C221.012 2.316 220.928 2.274 220.844 2.274ZM196.358 2.358H196.442C196.358 2.358 196.106 2.358 196.106 2.274V2.232C196.106 2.19 196.106 2.232 196.148 2.232L196.19 2.19H196.274C196.988 2.232 197.66 2.316 198.374 2.316H198.794C201.314 2.316 203.708 2.106 206.27 2.106H206.732C209.42 2.106 212.192 2.19 215.006 2.19H215.384H215.636H216.98H217.862H218.87H219.248V2.232C219.29 2.274 219.332 2.274 219.416 2.274L219.5 2.316H219.584C219.626 2.358 220.466 2.274 220.634 2.316C220.76 2.358 220.508 2.4 220.676 2.442C220.928 2.484 221.978 2.358 222.02 2.4C222.062 2.442 222.86 2.526 222.86 2.526C222.818 2.526 222.398 2.526 222.398 2.568C222.398 2.736 223.196 2.778 223.784 2.82C224.288 2.862 224.498 2.862 224.498 2.904C224.498 2.988 222.65 3.114 222.65 3.198C222.608 3.282 223.28 3.324 223.448 3.324C223.826 3.324 223.952 3.324 223.952 3.366C223.952 3.45 222.482 3.576 222.482 3.66C222.482 3.744 222.734 3.786 222.818 3.786C223.154 3.786 223.49 3.912 223.952 3.912C224.414 3.954 224.54 3.954 224.54 3.954C224.54 3.996 223.658 3.996 223.658 4.08C223.658 4.164 224.456 4.248 224.54 4.248C224.078 4.248 224.288 4.374 224.162 4.374C223.91 4.374 224.162 4.458 224.288 4.458C224.792 4.458 223.658 4.584 223.784 4.584H224.876C224.96 4.584 225.002 4.626 224.918 4.626C224.414 4.71 223.322 4.668 222.86 4.752C222.524 4.794 223.196 4.836 223.28 4.836H223.448H223.532C223.532 4.878 223.238 4.962 223.574 4.92C223.742 4.92 223.616 5.004 223.532 5.004C223.322 5.004 223.658 5.088 223.784 5.088C223.826 5.088 223.658 5.508 223.658 5.508C223.658 5.676 222.062 5.802 221.894 5.886C221.894 5.886 222.902 6.138 222.86 5.97C222.818 5.886 223.616 6.096 223.154 6.096C223.112 6.096 222.944 6.096 222.944 6.138C222.902 6.264 221.432 6.39 221.432 6.516C221.432 6.558 221.474 6.558 221.516 6.558C221.642 6.558 222.65 6.81 222.65 6.894C222.692 6.978 221.894 7.062 221.894 7.146C221.852 7.23 221.012 7.356 220.928 7.356C220.886 7.356 220.718 7.23 220.718 7.356V7.44C220.76 7.524 220.634 7.566 220.634 7.566C220.676 7.566 221.18 7.566 221.18 7.608C221.18 7.608 221.138 7.65 221.012 7.65H220.508C220.13 7.65 219.794 7.65 219.626 7.566C219.248 7.398 219.458 7.482 219.122 7.482C219.038 7.482 218.912 7.482 218.912 7.566C218.912 7.566 217.4 7.44 217.232 7.44H216.896H216.518H216.224C216.14 7.44 216.056 7.482 216.056 7.482H215.93H215.72H215.384H215.048C214.754 7.482 213.872 7.482 213.956 7.566C213.956 7.566 213.578 7.608 213.494 7.608C213.284 7.608 212.192 7.566 211.982 7.566H211.94C211.94 7.65 211.772 7.65 211.688 7.65H211.562C211.394 7.65 211.562 7.566 211.52 7.566C211.226 7.524 210.89 7.524 210.554 7.524H210.134C209.924 7.524 209.714 7.566 209.546 7.566C209.798 7.566 210.176 7.608 210.47 7.608H211.058H211.1C211.1 7.65 211.1 7.65 211.1 7.65L211.142 7.692C211.142 7.692 210.596 7.734 210.47 7.734H209.462C209.042 7.734 208.496 7.65 208.202 7.776H208.79V7.818C208.538 7.86 208.286 7.902 208.034 7.902V8.07V8.826V9.078C208.034 9.54 207.908 9.96 207.908 10.464V10.884C207.908 11.052 207.992 11.094 207.992 11.178V11.304V11.472V11.892C207.992 11.976 208.034 12.018 208.034 12.06V12.186V12.228C208.034 12.228 208.076 12.27 208.076 12.354V12.69V13.824V14.664V15.168C208.076 15.462 208.202 15.42 208.202 15.672V15.966C208.202 16.176 208.16 16.512 208.16 16.722V17.016C208.16 17.1 208.118 17.184 208.118 17.226V17.31C208.034 17.436 208.202 18.612 208.244 18.612C208.244 18.612 208.286 18.696 208.286 18.78V19.074C208.286 19.242 208.244 19.536 208.244 19.62V19.662V19.788V19.914V20.04C208.244 20.208 208.202 20.376 208.202 20.544C208.202 20.586 208.16 20.67 208.16 20.712V20.88C208.16 21.006 208.202 21.09 208.202 21.216V21.384V21.552C208.202 21.678 208.202 22.098 208.118 22.14V21.51C208.118 21.594 208.076 21.636 208.076 21.72C208.076 21.762 208.034 21.888 208.034 21.972V22.308V22.77V23.274V23.778V24.156V24.408C208.034 24.492 208.034 24.45 207.992 24.45L207.95 24.492V24.534C207.95 24.576 207.908 24.576 207.908 24.534V24.408V24.114V23.778V23.4C207.908 23.274 207.866 23.19 207.866 23.106V22.896V22.812C207.866 22.812 207.824 22.854 207.824 22.896V23.106V23.442V23.862V24.366V24.66C207.824 24.912 207.908 24.786 207.908 24.786V24.87V24.996V25.122V25.206C207.908 25.248 207.908 25.248 207.866 25.248V25.374C207.866 25.836 207.908 26.34 207.908 26.844V27.012V27.18C207.908 27.222 207.866 27.264 207.866 27.264V27.306C207.782 27.18 207.74 27.642 207.74 27.768V28.356V30.54C207.74 30.666 207.866 32.22 207.866 32.22C207.824 32.22 207.824 32.22 207.824 32.262V32.346V32.43C207.824 32.808 207.74 32.556 207.866 32.934C207.95 33.102 208.034 33.396 207.992 33.858C207.992 33.984 207.95 34.488 207.908 34.488V34.404C207.908 34.32 207.866 34.236 207.866 34.152V33.942C207.824 34.194 207.614 33.9 207.614 34.11C207.614 34.152 207.656 34.194 207.656 34.236C207.656 34.32 207.53 35.16 207.446 35.202C207.32 35.244 207.236 36.252 207.152 35.832C207.068 35.538 206.9 35.16 206.9 34.824C206.9 34.656 206.732 34.74 206.774 34.824C206.816 34.866 206.816 34.95 206.816 35.034C206.816 35.454 206.396 36.126 206.396 36.462C206.396 36.504 206.396 36.63 206.354 36.588C206.102 36.336 206.354 36.084 206.354 35.79C206.354 35.58 206.186 35.202 206.186 35.202V35.286C206.186 35.412 205.934 36.966 205.808 36.966V36.924C205.808 36.882 205.43 37.176 205.388 37.05C205.388 36.924 205.304 36.672 205.304 36.84C205.304 36.924 205.22 37.008 205.22 36.84C205.262 36.546 205.136 36.84 205.136 36.84V36.756V36.588V36.336C205.136 36.042 205.094 36.042 205.052 36.168C204.968 36.63 205.052 37.722 204.926 38.226C204.926 38.226 204.884 38.268 204.884 38.184V37.092C204.884 37.092 204.758 38.1 204.758 37.554C204.758 37.47 204.674 37.26 204.674 37.47C204.674 37.68 204.548 37.344 204.548 37.638V37.722C204.422 37.68 204.506 36.966 204.38 36.966C204.296 36.966 204.296 37.848 204.254 37.848C204.254 37.848 204.254 37.68 204.212 37.218C204.17 36.756 204.086 36.462 204.086 36.126V35.958C204.086 35.874 204.002 35.79 203.96 35.79C203.834 35.832 203.666 37.26 203.624 37.26C203.624 37.26 203.582 37.134 203.582 36.756V36.336C203.54 36.084 203.54 36 203.498 36C203.414 36 203.372 36.504 203.372 36.798C203.372 37.008 203.246 37.806 203.204 37.722C203.078 37.344 203.12 35.706 202.868 35.706C202.868 35.706 202.826 35.748 202.826 35.79V35.958V36.126C202.784 36.042 202.742 35.832 202.742 35.664C202.742 35.58 202.7 35.328 202.658 35.286C202.574 35.202 202.742 34.824 202.742 34.488V33.984C202.7 33.816 202.658 34.068 202.616 33.942C202.574 33.732 202.616 33.06 202.616 32.892V32.85L202.574 32.766V32.724C202.574 32.64 202.532 32.598 202.532 32.556H202.49V32.388V32.136V31.8V31.128V29.448V28.902V28.692V28.272V27.726C202.49 27.516 202.448 27.306 202.448 27.054V26.214C202.448 25.542 202.49 24.87 202.49 24.198C202.49 23.106 202.406 22.098 202.406 21.09V20.544C202.406 20.376 202.364 20.208 202.364 20.04V19.536C202.364 19.368 202.406 19.2 202.406 19.032V18.486V17.898V17.394C202.406 17.226 202.448 17.1 202.448 16.932C202.49 15.504 202.616 14.034 202.616 12.564V12.102V11.64V11.22C202.616 10.674 202.49 10.17 202.49 9.666V9.582V9.498V9.456L202.532 9.414V9.372H202.574L202.616 9.414V9.456L202.658 9.54V9.288V8.994C202.658 8.91 202.616 8.784 202.616 8.7V8.49C202.616 8.28 202.574 8.028 202.532 7.86H202.364C202.28 7.86 202.196 7.86 202.154 7.818C202.07 7.692 201.608 7.734 201.356 7.734H199.886C199.76 7.734 198.92 7.776 198.92 7.734C198.92 7.692 198.458 7.692 198.374 7.692C197.996 7.692 197.87 7.608 197.576 7.608C197.492 7.608 197.408 7.566 197.324 7.566C196.694 7.566 196.148 7.734 195.518 7.734C195.392 7.734 195.056 7.692 194.762 7.692C194.384 7.692 194.006 7.692 194.006 7.818C194.006 7.86 192.494 7.86 192.284 7.86H190.604C190.394 7.818 190.142 7.776 189.932 7.734C189.554 7.65 189.386 7.398 189.008 7.398C188.756 7.398 188.294 7.104 188.252 6.936C188.126 6.516 188 6.306 187.874 6.054C187.916 5.844 187.496 5.34 187.454 5.088C187.454 4.92 187.37 4.752 187.286 4.584C186.908 3.996 186.824 3.45 186.362 2.988C186.236 2.652 186.698 2.568 186.866 2.484C186.992 2.4 186.95 2.316 187.118 2.274C187.328 2.232 187.328 1.98 187.664 1.98L187.706 2.022C188 2.022 188.63 2.106 188.798 2.106C189.05 2.106 189.596 2.232 189.89 2.148C190.226 2.064 190.478 2.064 190.73 2.064C191.108 2.064 191.528 2.106 192.41 2.106H192.914C193.082 2.106 193.25 2.148 193.376 2.148C194.51 2.148 195.224 2.316 196.358 2.358ZM208.118 33.648V33.69V33.732C208.118 33.774 208.076 33.69 208.076 33.69L208.118 33.648ZM208.118 22.434V22.602L208.076 22.56V22.518V22.476L208.118 22.434ZM211.1 7.608C211.184 7.608 211.226 7.608 211.1 7.608V7.608Z" fill="white"/>
</svg>
