<svg width="119" height="21" viewBox="0 0 119 21" fill="none" xmlns="http://www.w3.org/2000/svg">
<path d="M10.548 18.626H10.57C10.592 18.626 10.614 18.648 10.57 18.648H10.548H10.526C10.504 18.648 10.526 18.626 10.548 18.626ZM5.048 18.626C5.07 18.626 5.114 18.648 5.07 18.648H5.026H5.004C4.96 18.648 5.026 18.626 5.026 18.626H5.048ZM15.19 18.604C15.212 18.604 15.234 18.626 15.19 18.626H15.168L15.19 18.604ZM13.452 18.56C13.452 18.538 13.518 18.538 13.54 18.538C13.562 18.538 13.628 18.538 13.628 18.56C13.628 18.582 13.562 18.604 13.54 18.604C13.518 18.604 13.452 18.582 13.452 18.56ZM12.814 18.56C12.814 18.538 12.924 18.538 12.946 18.538C12.968 18.538 13.078 18.538 13.078 18.56C13.078 18.582 12.968 18.604 12.946 18.604C12.924 18.604 12.814 18.582 12.814 18.56ZM3.354 17.966V18.054C3.354 18.076 3.332 18.12 3.354 18.12C3.376 18.098 3.398 18.01 3.398 17.966C3.398 17.922 3.376 17.9 3.376 17.856V17.834C3.354 17.834 3.354 17.922 3.354 17.966ZM2.584 17.79C2.584 17.856 2.606 18.12 2.65 18.12C2.694 18.12 2.694 17.856 2.694 17.79C2.694 17.724 2.694 17.482 2.65 17.482C2.606 17.482 2.584 17.724 2.584 17.79ZM1.242 17.042C1.242 17.108 1.198 17.306 1.198 17.218C1.198 17.196 1.198 17.086 1.22 17.042H1.242ZM2.1 17.02C2.1 16.976 2.1 16.91 2.078 16.888C2.056 16.888 2.056 16.932 2.056 16.954V17.02C2.056 17.042 2.056 17.174 2.078 17.174C2.1 17.174 2.1 17.042 2.1 17.02ZM2.958 15.084V14.908C2.958 14.908 2.936 14.886 2.936 15.084C2.936 15.282 2.958 15.238 2.958 15.084ZM1.616 14.71C1.616 14.864 1.594 15.04 1.616 15.194C1.638 15.282 1.704 15.37 1.704 15.238C1.704 15.128 1.638 14.842 1.616 14.71ZM4.036 14.776C4.036 14.754 4.036 14.688 4.058 14.688C4.08 14.688 4.08 14.754 4.08 14.776C4.08 14.798 4.08 14.886 4.058 14.886C4.036 14.886 4.036 14.798 4.036 14.776ZM2.474 14.952C2.474 15.084 2.474 15.282 2.584 15.282C2.54 15.194 2.496 14.6 2.474 14.578C2.474 14.578 2.452 14.644 2.452 14.71C2.452 14.776 2.474 14.842 2.474 14.952ZM3.376 14.622V14.688V14.754C3.376 14.776 3.398 14.754 3.398 14.754C3.398 14.754 3.42 14.578 3.398 14.578V14.534H3.376C3.354 14.556 3.376 14.622 3.376 14.622ZM4.08 14.138C4.08 14.182 4.08 14.27 4.058 14.27C4.036 14.27 4.036 14.182 4.036 14.138C4.036 14.094 4.036 13.984 4.058 13.984C4.08 13.984 4.08 14.094 4.08 14.138ZM1.858 13.654C1.858 13.588 1.814 13.676 1.814 13.698C1.814 13.786 1.88 13.764 1.88 13.698C1.88 13.676 1.858 13.676 1.858 13.654ZM1.44 13.214V13.28C1.44 13.302 1.418 13.346 1.44 13.346C1.462 13.346 1.484 13.28 1.484 13.258C1.484 13.236 1.484 13.126 1.462 13.126H1.44V13.214ZM3.112 13.104C3.112 13.17 3.134 13.324 3.178 13.324C3.222 13.324 3.222 13.17 3.222 13.104C3.222 13.038 3.222 12.884 3.178 12.884C3.134 12.884 3.112 13.038 3.112 13.104ZM15.124 12.664V12.642L15.146 12.664L15.124 12.686V12.664ZM4.058 12.664V12.598C4.058 12.576 4.08 12.598 4.08 12.62V12.664V12.686L4.058 12.73V12.686V12.664ZM15.19 12.004H15.168V11.982V11.96C15.168 11.938 15.19 11.938 15.19 11.96V11.982V12.004ZM4.124 11.454V11.476V11.498V11.52V11.564L4.102 11.52V11.498V11.476L4.124 11.454ZM10.702 11.344H10.68L10.702 11.322H10.724C10.724 11.322 10.746 11.344 10.724 11.344H10.702ZM14.904 11.344H14.882L14.904 11.322H14.926C14.926 11.322 14.97 11.344 14.948 11.344H14.926H14.904ZM7.16 11.344C7.116 11.344 7.16 11.3 7.182 11.322L7.16 11.344ZM8.37 11.278C8.37 11.256 8.414 11.234 8.436 11.234C8.458 11.234 8.502 11.256 8.502 11.278C8.502 11.3 8.458 11.3 8.436 11.3C8.414 11.3 8.37 11.3 8.37 11.278ZM7.006 11.168H7.028C7.006 11.168 7.028 11.19 7.006 11.19C6.984 11.19 6.984 11.168 7.006 11.168ZM18.006 9.452C18.006 9.408 17.984 9.298 18.028 9.298C18.072 9.276 18.006 9.43 18.006 9.452ZM6.698 8.396C6.742 8.396 6.764 8.418 6.698 8.418C6.632 8.418 6.654 8.396 6.698 8.396ZM7.028 8.44C6.984 8.44 6.852 8.462 6.852 8.418C6.852 8.396 6.852 8.396 6.874 8.396C6.896 8.396 6.984 8.418 7.028 8.44ZM4.124 5.47V5.492L4.102 5.448V5.426C4.102 5.426 4.124 5.36 4.124 5.404V5.426V5.47ZM8.018 4.216H7.996L8.018 4.194H8.04H8.062C8.084 4.194 8.084 4.216 8.062 4.216H8.04H8.018ZM14.09 4.216H14.046L14.09 4.194H14.112C14.134 4.194 14.178 4.216 14.134 4.216H14.112H14.09ZM6.852 4.172L6.83 4.15H6.852H6.896H6.94L6.918 4.172H6.896H6.852ZM5.268 4.15C5.268 4.128 5.378 4.128 5.422 4.128C5.466 4.128 5.554 4.128 5.554 4.15C5.554 4.172 5.466 4.172 5.422 4.172C5.378 4.172 5.268 4.172 5.268 4.15ZM4.652 4.15C4.652 4.128 4.74 4.128 4.762 4.128C4.784 4.128 4.872 4.128 4.872 4.15C4.872 4.172 4.784 4.172 4.762 4.172C4.74 4.172 4.652 4.172 4.652 4.15ZM2.606 1.334C2.408 1.334 2.474 1.268 2.65 1.312H2.738C2.694 1.312 2.65 1.334 2.606 1.334ZM9.162 1.224H9.382C10.548 1.224 11.626 1.334 12.77 1.334H12.858C13.232 1.334 13.562 1.29 13.914 1.29H13.958H13.98C14.002 1.29 14.002 1.268 14.002 1.29V1.312C14.002 1.356 13.936 1.356 13.892 1.356C14.376 1.334 14.75 1.246 15.256 1.246H15.454H15.696C16.092 1.246 16.268 1.202 16.444 1.202C16.554 1.202 16.664 1.202 16.818 1.246C16.84 1.246 16.884 1.268 16.906 1.268C17.104 1.268 17.522 1.158 17.764 1.158C17.852 1.158 17.918 1.158 17.94 1.202C18.006 1.268 18.138 1.29 18.16 1.378C18.204 1.51 18.49 1.488 18.424 1.708C18.248 1.906 18.226 2.016 18.138 2.28C18.094 2.412 17.918 2.61 17.94 2.808C17.918 2.94 17.698 3.182 17.72 3.292C17.654 3.446 17.676 3.446 17.588 3.644C17.566 3.71 17.544 3.842 17.5 3.864C17.5 3.864 17.28 3.996 17.214 3.996C17.17 3.996 17.126 4.018 17.082 4.04C16.95 4.128 16.708 4.194 16.51 4.26H15.718C15.63 4.26 14.948 4.26 14.948 4.238C14.948 4.172 14.772 4.15 14.596 4.15C14.464 4.15 14.332 4.172 14.266 4.172C14.156 4.172 14.046 4.172 13.958 4.15C13.848 4.128 13.738 4.106 13.628 4.106C13.408 4.106 13.166 4.15 12.946 4.15C12.902 4.15 12.704 4.15 12.704 4.172C12.704 4.194 12.33 4.194 12.264 4.194H11.604C11.384 4.194 11.274 4.238 11.142 4.238C11.098 4.238 10.658 4.216 10.284 4.216C10.02 4.216 9.8 4.238 9.8 4.282C9.756 4.326 9.294 4.26 9.294 4.26H9.228C9.096 4.26 8.986 4.238 8.854 4.238C8.744 4.238 8.678 4.26 8.568 4.26C8.502 4.26 8.238 4.238 8.216 4.194C8.304 4.194 8.414 4.216 8.502 4.194C8.392 4.172 8.282 4.172 8.128 4.172H7.93H7.446C7.358 4.172 7.16 4.172 7.16 4.128C7.16 4.106 7.116 4.106 7.116 4.106C7.336 4.084 7.644 4.106 7.864 4.084C7.798 4.084 7.71 4.062 7.622 4.062H7.424C7.226 4.062 6.962 4.128 6.896 4.128C6.83 4.128 6.016 4.084 5.862 4.084C5.928 4.018 5.466 4.04 5.378 4.04H5.224H5.07H4.96C4.894 4.04 4.938 4.018 4.85 4.018H4.696H4.52H4.388C4.322 4.018 4.234 4.04 4.146 4.04V4.128C4.146 4.194 4.168 4.612 4.146 4.612C4.08 4.612 4.058 4.766 4.058 4.942C4.058 5.074 4.08 5.228 4.08 5.294C4.08 5.404 4.058 5.514 4.036 5.602C4.014 5.712 4.014 5.8 4.014 5.91C4.014 6.13 4.058 6.372 4.058 6.592C4.058 6.636 4.058 6.834 4.08 6.834C4.102 6.834 4.102 7.208 4.102 7.274C4.102 7.45 4.08 7.78 4.08 7.934C4.08 8.154 4.146 8.286 4.146 8.418C4.146 8.462 4.124 8.88 4.124 9.254C4.124 9.518 4.146 9.738 4.19 9.738C4.234 9.738 4.168 10.244 4.168 10.244V10.332C4.168 10.464 4.124 10.574 4.124 10.706C4.124 10.816 4.168 10.882 4.168 10.992C4.168 11.058 4.146 11.322 4.102 11.344C4.102 11.256 4.124 11.146 4.102 11.058C4.08 11.168 4.08 11.278 4.08 11.432C4.08 11.498 4.058 11.564 4.058 11.63C4.058 11.784 4.08 11.96 4.08 12.092C4.08 12.18 4.08 12.4 4.036 12.4C4.014 12.4 4.014 12.444 4.014 12.444C3.992 12.224 3.992 11.894 3.97 11.674V11.938V12.136C3.97 12.334 4.036 12.576 4.036 12.642C4.036 12.708 3.992 13.544 3.992 13.698C3.926 13.632 3.926 14.072 3.926 14.16C3.926 14.226 3.948 14.292 3.948 14.336V14.468V14.578C3.948 14.644 3.926 14.622 3.926 14.71V14.842V15.018V15.172C3.926 15.26 3.948 15.392 3.948 15.48H3.992C4.454 15.48 4.762 15.59 5.246 15.612H5.29C5.246 15.612 5.136 15.612 5.136 15.568C5.136 15.546 5.136 15.524 5.158 15.524H5.18H5.202C5.488 15.546 5.752 15.59 6.06 15.59H6.258C7.314 15.59 8.282 15.458 9.338 15.458H9.536C10.636 15.458 11.78 15.524 12.946 15.524H13.122H13.21H13.782H14.134H14.552H14.728C14.706 15.524 14.706 15.524 14.706 15.546C14.728 15.568 14.75 15.568 14.794 15.568H14.816C14.882 15.568 15.036 15.568 15.19 15.59C15.19 15.568 15.19 15.502 15.168 15.502C15.146 15.502 15.146 15.26 15.146 15.216V14.82C15.146 14.666 15.102 14.622 15.102 14.534C15.102 14.49 15.124 14.248 15.124 14.028C15.124 13.874 15.102 13.742 15.058 13.742C14.992 13.742 15.08 13.434 15.08 13.434V13.39C15.08 13.302 15.102 13.236 15.102 13.148C15.102 13.082 15.08 13.038 15.08 12.972C15.08 12.928 15.08 12.796 15.124 12.774C15.124 12.84 15.124 12.906 15.146 12.95C15.168 12.884 15.168 12.796 15.168 12.708V12.598V12.312C15.168 12.246 15.146 12.136 15.19 12.136C15.212 12.136 15.234 12.114 15.234 12.092C15.234 12.092 15.256 12.532 15.256 12.554C15.256 12.51 15.278 12.466 15.278 12.4V12.29C15.278 12.136 15.212 12.026 15.212 11.982C15.212 11.894 15.234 11.652 15.234 11.476C15.234 11.322 15.3 11.366 15.3 11.278H15.256C15.19 11.278 15.102 11.3 15.036 11.3C14.948 11.3 14.882 11.278 14.816 11.256C14.75 11.234 14.662 11.234 14.596 11.234C14.442 11.234 14.266 11.278 14.112 11.278C14.068 11.278 13.958 11.278 13.958 11.3C13.958 11.322 13.694 11.3 13.65 11.3H13.188C13.012 11.3 12.946 11.366 12.858 11.366C12.814 11.366 12.506 11.344 12.264 11.344C12.088 11.344 11.934 11.366 11.934 11.41C11.934 11.476 11.582 11.388 11.582 11.388H11.538C11.45 11.388 11.362 11.344 11.274 11.344C11.186 11.344 11.142 11.366 11.054 11.366C11.01 11.366 10.856 11.366 10.834 11.322C10.9 11.322 10.988 11.322 11.032 11.3C10.944 11.278 10.878 11.278 10.768 11.278H10.614H10.306C10.24 11.278 10.086 11.3 10.086 11.256C10.086 11.234 10.042 11.234 10.064 11.234C10.218 11.212 10.438 11.212 10.592 11.19H10.416H10.284C10.13 11.19 9.954 11.234 9.91 11.234C9.844 11.234 9.184 11.212 9.184 11.212C9.228 11.124 8.92 11.146 8.854 11.146H8.744H8.656H8.568H8.48H8.392H8.26H8.172C8.128 11.146 7.644 11.212 7.644 11.212C7.644 11.19 7.6 11.168 7.556 11.168C7.424 11.168 7.534 11.124 7.402 11.212C7.314 11.278 7.138 11.256 6.984 11.234C6.808 11.212 7.05 11.212 7.094 11.212C7.094 11.212 7.028 11.19 7.05 11.146C7.094 11.036 7.006 11.102 7.006 11.102C6.984 11.102 6.962 11.08 6.918 11.058C6.786 11.014 6.698 10.97 6.588 10.926C6.28 10.816 6.654 10.684 6.808 10.684C6.852 10.684 6.852 10.618 6.808 10.64C6.676 10.684 6.434 10.442 6.302 10.442C6.17 10.442 6.39 10.332 6.39 10.376C6.368 10.464 6.654 10.354 6.654 10.354C6.72 10.288 6.632 10.332 6.588 10.288C6.522 10.222 6.126 10.244 6.126 10.134C6.126 10.134 6.082 9.914 6.104 9.914C6.148 9.914 6.236 9.87 6.17 9.87C6.148 9.87 6.126 9.826 6.17 9.826C6.302 9.848 6.104 9.782 6.192 9.782H6.258C6.302 9.782 6.478 9.76 6.39 9.738C6.28 9.716 6.06 9.716 5.906 9.694C5.818 9.694 5.686 9.65 5.752 9.65H6.082C6.082 9.65 5.774 9.584 5.95 9.584C5.994 9.584 6.038 9.54 5.972 9.54C5.95 9.54 5.928 9.54 5.95 9.518C5.972 9.474 5.884 9.474 5.862 9.474C5.906 9.452 6.126 9.43 6.126 9.386C6.126 9.364 5.928 9.342 5.906 9.342C5.774 9.32 5.884 9.32 6.038 9.298C6.192 9.276 6.28 9.21 6.39 9.21C6.434 9.21 6.5 9.21 6.5 9.166C6.5 9.078 6.082 9.056 6.06 9.012C6.038 8.968 6.368 8.99 6.412 8.946C6.566 8.836 5.752 8.814 5.884 8.748C6.016 8.66 6.522 8.704 6.522 8.572C6.522 8.55 6.412 8.572 6.39 8.572C6.39 8.572 6.654 8.506 6.654 8.484C6.72 8.506 6.786 8.528 6.852 8.528C7.05 8.528 7.226 8.44 7.446 8.44H7.468C7.49 8.44 7.512 8.44 7.534 8.418V8.396L7.512 8.374C7.512 8.374 7.622 8.396 7.644 8.396C7.754 8.396 7.842 8.374 7.974 8.374H8.238C8.326 8.374 8.458 8.396 8.524 8.396H8.678H8.744H8.876C9.756 8.396 10.636 8.33 11.494 8.33H11.648C12.462 8.33 13.21 8.462 14.002 8.462H14.046C14.31 8.462 14.552 8.396 14.794 8.396H14.816H14.838L14.86 8.418V8.44C14.86 8.484 14.816 8.484 14.794 8.484C15.124 8.462 15.344 8.352 15.718 8.352H15.85H16.026C16.29 8.352 16.422 8.33 16.554 8.33C16.62 8.33 16.708 8.33 16.796 8.374C16.796 8.352 16.818 8.308 16.818 8.352V8.374H16.862C17.016 8.374 17.324 8.286 17.478 8.286C17.522 8.286 17.566 8.286 17.588 8.308C17.61 8.352 17.632 8.418 17.676 8.44C17.742 8.462 17.742 8.572 17.83 8.616C18.006 8.704 17.874 8.902 17.83 8.99C17.852 9.034 17.874 9.034 17.874 9.034C17.896 9.034 17.896 8.968 17.896 8.946C17.874 8.792 17.962 9.144 17.962 9.144C17.962 9.144 17.896 9.562 17.962 9.518C18.006 9.496 18.006 9.826 18.006 9.826V9.848C18.006 9.87 18.028 9.892 18.05 9.892H18.072V10.002V10.288V10.53V10.75V10.904V10.948V11.08C18.072 11.85 18.116 12.598 18.116 13.346V13.478C18.116 14.226 18.006 14.842 18.006 15.568C18.006 15.81 18.05 16.008 18.05 16.228V16.25V16.272H18.028C18.006 16.272 17.984 16.184 17.984 16.162V16.184C18.006 16.514 18.094 16.69 18.094 17.02V17.13V17.284C18.094 17.548 18.116 17.658 18.116 17.746C18.116 17.944 18.05 18.098 18.072 18.34C18.094 18.626 18.16 18.846 18.16 19.176C18.16 19.308 18.05 19.506 17.962 19.55C17.83 19.616 17.852 19.946 17.632 19.858C17.434 19.66 17.302 19.616 17.038 19.528C16.906 19.484 16.73 19.264 16.532 19.286C16.4 19.264 16.158 19.022 16.048 19.044C15.894 18.956 15.894 19 15.696 18.89C15.63 18.868 15.498 18.868 15.476 18.802C15.476 18.78 15.476 18.802 15.454 18.78C15.41 18.736 15.344 18.538 15.344 18.472C15.344 18.45 15.322 18.406 15.322 18.384C15.124 18.406 14.97 18.362 14.882 18.318C14.728 18.23 14.816 18.296 14.662 18.296C14.618 18.296 14.574 18.296 14.574 18.34C14.574 18.34 13.958 18.274 13.892 18.274H13.76H13.606H13.474H13.408H13.342H13.122H12.968C12.858 18.274 12.484 18.296 12.528 18.34C12.55 18.362 12.396 18.362 12.352 18.362C12.176 18.362 12 18.362 11.868 18.34C11.714 18.318 11.714 18.362 11.582 18.362H11.538C11.472 18.362 11.538 18.34 11.516 18.34C11.406 18.318 11.252 18.318 11.12 18.318H10.944H10.68C10.746 18.362 10.988 18.34 11.076 18.34C11.164 18.34 11.274 18.362 11.34 18.362H11.362C11.362 18.384 11.362 18.384 11.362 18.384V18.406H11.098H10.68C10.504 18.406 10.262 18.406 10.152 18.45H10.394C10.372 18.494 10.152 18.494 10.086 18.494C9.976 18.494 9.932 18.472 9.822 18.472C9.712 18.472 9.624 18.516 9.492 18.516H9.404C9.404 18.516 8.964 18.604 8.964 18.538C8.964 18.494 8.59 18.45 8.524 18.45H8.502C8.392 18.45 8.084 18.516 7.864 18.516C7.754 18.516 7.688 18.516 7.666 18.472C7.644 18.406 7.424 18.428 7.314 18.428H6.72C6.654 18.428 6.302 18.45 6.302 18.428C6.302 18.406 6.126 18.406 6.082 18.406C5.928 18.406 5.884 18.34 5.752 18.34H5.642C5.378 18.34 5.158 18.406 4.894 18.406C4.784 18.406 4.278 18.362 4.278 18.472C4.278 18.494 3.662 18.494 3.574 18.494H2.87C2.738 18.45 2.584 18.406 2.474 18.362C2.474 18.472 2.452 18.648 2.452 18.67C2.452 18.67 2.43 18.692 2.43 18.648V18.406V18.362L2.408 18.34C2.408 18.406 2.364 18.494 2.364 18.362C2.364 18.318 2.364 18.296 2.32 18.274V18.318C2.32 18.362 2.32 18.362 2.298 18.34C2.254 18.296 2.254 18.472 2.254 18.494C2.232 18.428 2.232 18.208 2.144 18.208V18.23C2.144 18.296 2.122 18.362 2.122 18.406C2.078 18.626 2.078 18.362 2.078 18.186C2.034 18.164 1.946 18.098 1.946 18.098C1.902 18.076 1.902 17.944 1.88 17.9H1.858C1.836 18.076 1.814 18.23 1.792 18.208C1.814 18.208 1.792 18.142 1.792 18.142C1.792 18.164 1.77 18.164 1.77 18.142C1.748 18.054 1.748 17.9 1.748 17.812C1.704 17.394 1.616 17.922 1.638 18.076C1.638 18.186 1.55 18.494 1.528 18.45C1.462 18.274 1.484 17.526 1.352 17.526C1.33 17.526 1.352 17.702 1.352 17.724C1.352 17.724 1.286 17.35 1.264 17.328C1.264 17.328 1.33 16.69 1.286 16.734C1.242 16.778 1.242 16.338 1.242 16.316C1.264 16.228 1.22 16.25 1.22 16.184V16.162C1.22 16.118 1.22 16.096 1.198 16.074H1.176V16.03C1.132 15.942 1.088 15.854 1.176 15.766V15.744V15.458V15.04V14.666V14.446V14.336V14.138C1.176 12.884 1.132 11.63 1.132 10.398V10.178C1.154 8.99 1.242 7.89 1.242 6.702C1.242 6.328 1.176 5.976 1.176 5.624V5.602V5.58C1.176 5.558 1.176 5.536 1.198 5.536H1.22C1.264 5.536 1.264 5.69 1.264 5.734V5.712V5.668C1.242 5.14 1.132 4.81 1.132 4.304V4.106V3.864C1.132 3.446 1.11 3.248 1.11 3.094C1.11 2.896 1.176 2.764 1.176 2.566C1.066 2.566 0.912 2.544 0.89 2.544C0.89 2.544 0.868 2.522 0.912 2.522H1.132H1.154C1.154 2.478 1.066 2.456 1.154 2.456V2.434V2.346H1.044C1.066 2.346 1.11 2.324 1.132 2.324V2.214C1 2.192 1.044 2.192 1.132 2.192C1.132 2.104 1.044 1.686 1.11 1.62C1.176 1.554 1.198 1.422 1.286 1.4C1.418 1.356 1.374 1.136 1.55 1.114V1.136H1.616C1.792 1.29 1.88 1.334 2.1 1.4C2.144 1.4 2.188 1.4 2.21 1.378C2.21 1.378 2.87 1.422 2.826 1.378C2.782 1.334 3.2 1.334 3.222 1.334C3.31 1.356 3.288 1.334 3.354 1.334H3.398C3.442 1.334 3.464 1.312 3.464 1.29V1.268H3.64H4.102H4.498H4.894H5.114H5.224H5.4C6.654 1.268 7.93 1.224 9.162 1.224ZM11.604 18.384L11.626 18.406H11.604V18.384ZM13.848 1.356C13.848 1.356 13.848 1.356 13.87 1.356H13.848ZM14.728 8.484C14.728 8.484 14.728 8.484 14.75 8.484H14.728ZM11.362 18.362C11.384 18.362 11.406 18.362 11.362 18.362V18.362ZM30.9107 18.406H30.9327V18.45C30.9327 18.472 30.9107 18.516 30.9107 18.516V18.406ZM30.7567 18.23V18.186L30.7347 18.098C30.7347 18.12 30.7347 18.164 30.7567 18.23ZM28.1607 17.944V17.966L28.1387 17.944C28.1387 17.922 28.1607 17.944 28.1607 17.944ZM30.8887 17.988C30.9107 18.032 30.9327 18.142 30.9327 18.164C30.9327 18.186 30.9327 18.208 30.9107 18.208C30.8887 18.186 30.8887 18.098 30.8887 18.054V17.988ZM28.0067 17.724C28.0067 17.68 28.0287 17.68 28.0287 17.724C28.0287 17.724 28.0067 17.768 28.0067 17.746V17.724ZM29.4147 17.174V17.13V17.086C29.4147 17.064 29.3927 17.042 29.3927 17.042C29.3927 17.042 29.3707 17.042 29.3707 17.064V17.108V17.174V17.24C29.3707 17.262 29.3927 17.262 29.3927 17.262C29.4147 17.24 29.4147 17.196 29.4147 17.174ZM28.9747 16.844C28.9747 16.954 29.0187 16.91 29.0187 16.844V16.778L28.9967 16.756C28.9747 16.756 28.9747 16.8 28.9747 16.844ZM30.2727 16.602V16.69C30.2727 16.756 30.2727 16.932 30.3167 16.932C30.3607 16.932 30.3827 16.822 30.3827 16.778V16.69V16.602C30.3827 16.558 30.3607 16.47 30.3167 16.47C30.2727 16.47 30.2727 16.558 30.2727 16.602ZM28.6007 16.448V16.47C28.6007 16.492 28.5787 16.492 28.5787 16.514V16.58V16.646C28.5787 16.668 28.6007 16.668 28.6007 16.668C28.6227 16.668 28.6227 16.558 28.6227 16.536V16.492C28.6227 16.47 28.6007 16.448 28.6007 16.448ZM28.9967 16.03C28.9747 16.03 28.9747 16.096 28.9747 16.118C28.9747 16.14 29.0187 16.206 29.0187 16.162V16.096C29.0187 16.074 29.0187 16.03 28.9967 16.03ZM28.0947 15.898V15.942C28.0947 15.964 28.0727 15.964 28.0727 15.964C28.0507 15.964 28.0507 15.942 28.0507 15.942V15.898V15.832V15.788C28.0507 15.766 28.0727 15.766 28.0727 15.766L28.0947 15.788V15.832V15.898ZM28.0947 15.26V15.304C28.0947 15.326 28.0727 15.348 28.0727 15.348C28.0507 15.348 28.0507 15.326 28.0507 15.304V15.26V15.15V15.106C28.0507 15.084 28.0727 15.062 28.0727 15.062V15.084C28.0727 15.084 28.0947 15.084 28.0947 15.106V15.15V15.26ZM30.5587 15.106V15.062V15.04C30.5587 15.04 30.5367 15.018 30.5367 15.04V15.062C30.5367 15.084 30.5147 15.084 30.5147 15.106V15.172V15.238C30.5147 15.26 30.5367 15.26 30.5367 15.26C30.5367 15.26 30.5587 15.238 30.5587 15.216C30.5807 15.216 30.5587 15.128 30.5587 15.106ZM30.0967 14.732V14.886C30.0967 15.084 30.1187 15.04 30.1187 14.886C30.1187 14.842 30.1187 14.754 30.0967 14.732ZM29.7447 14.512C29.6347 14.512 29.6127 14.71 29.6127 14.886C29.6127 15.04 29.6347 15.216 29.6347 15.216C29.6347 15.194 29.7007 14.6 29.7447 14.512ZM28.8647 14.556C28.8647 14.512 28.8427 14.49 28.8207 14.49C28.6887 14.468 28.7767 14.974 28.7767 15.084C28.7987 14.952 28.8647 14.666 28.8647 14.556ZM28.0287 13.764V13.654H28.0507V13.742V13.764H28.0287ZM29.2167 12.796V12.818V12.862C29.2167 12.884 29.1947 12.928 29.1947 12.95C29.1947 12.972 29.2167 12.994 29.2167 13.016V13.082C29.2167 13.06 29.2387 13.038 29.2387 13.016C29.2387 12.994 29.2607 12.972 29.2607 12.95C29.2607 12.928 29.2387 12.906 29.2387 12.884C29.2387 12.862 29.2167 12.796 29.2167 12.796ZM27.9847 12.554V12.51L28.0067 12.488V12.51V12.532V12.554V12.576C28.0067 12.598 27.9847 12.576 27.9847 12.576V12.554ZM30.5147 11.85V11.872C30.5147 11.894 30.4927 11.894 30.4927 11.916V12.07C30.4927 12.092 30.5147 12.114 30.5147 12.136C30.5147 12.136 30.5367 12.136 30.5367 12.114V12.07V12.004V11.938C30.5367 11.916 30.5147 11.85 30.5147 11.85ZM29.7447 12.048V12.18V12.312C29.7447 12.356 29.7447 12.51 29.7887 12.51C29.8327 12.51 29.8547 12.356 29.8547 12.312V12.18V12.048C29.8547 12.004 29.8327 11.85 29.7887 11.85C29.7447 11.85 29.7447 12.004 29.7447 12.048ZM28.9527 11.586H28.9087C28.8647 11.674 28.9527 11.63 28.9527 11.674V11.652C28.9527 11.63 28.9747 11.586 28.9527 11.586ZM25.0147 10.244L25.0587 10.222H25.0807L25.1027 10.244H25.0807H25.0587H25.0367H25.0147ZM35.0027 6.416V6.394V6.372V6.35V6.328V6.306L35.0247 6.328V6.35V6.394L35.0027 6.416ZM20.7687 4.7V4.656L20.7907 4.678V4.7V4.744H20.7687V4.722V4.7ZM23.6287 4.634V4.766V4.854L23.6507 4.832V4.81H23.6727H23.6947V4.832H23.7167V4.92C23.7167 4.942 23.6947 4.942 23.6947 4.964C23.6727 5.184 23.6727 5.382 23.6507 5.602V5.778V5.976V6.174C23.6507 6.526 23.6947 6.922 23.7167 7.252H23.8927C23.9587 7.252 24.0247 7.274 24.0687 7.274C24.5307 7.274 24.8167 7.362 25.2787 7.384H25.3227C25.2567 7.384 25.2127 7.384 25.1687 7.362V7.34V7.318H25.2127V7.296H25.2567C25.5427 7.318 25.7847 7.362 26.0927 7.362H26.2687C26.4447 7.362 28.1167 7.296 28.1167 7.274C28.1607 7.186 28.2267 7.142 28.2267 7.032C28.2267 6.9 28.3587 6.702 28.4467 6.68C28.6667 6.614 28.7987 6.592 28.9307 6.526C29.0407 6.548 29.2827 6.328 29.4147 6.306C29.5027 6.306 29.5907 6.284 29.6787 6.24C29.8547 6.152 30.0527 6.086 30.2287 5.998C30.3607 5.932 30.6467 5.668 30.7347 5.932C30.7787 6.042 30.8667 6.086 30.8887 6.174C30.9547 6.35 31.0647 6.284 31.0207 6.592C30.9767 6.9 30.9767 6.988 30.9547 7.296H30.9987H31.0427H31.0867C31.7247 7.274 32.3407 7.296 32.9787 7.296C33.1547 7.296 33.2867 7.274 33.4627 7.274C33.6387 7.274 33.7487 7.296 33.9247 7.296C34.1887 7.296 34.4747 7.252 34.7607 7.252H35.0247C35.0907 7.252 35.1127 7.208 35.1127 7.12V6.922C35.1127 6.702 35.0467 6.526 35.0467 6.328V6.218V6.086C35.0467 6.02 35.0687 5.954 35.0687 5.888C35.0687 5.8 35.0467 5.558 34.9807 5.558V5.514V5.338V5.096V4.15L34.9587 3.754V2.676L35.0027 2.456C35.0247 2.368 35.0687 1.642 35.1127 1.62C35.1567 1.598 35.2227 1.598 35.2227 1.532C35.2227 1.51 35.3327 1.4 35.3547 1.4H35.3987C35.3987 1.378 35.4427 1.378 35.4867 1.378H35.5967C35.7287 1.356 35.7947 1.378 35.8387 1.378H35.9707C36.1027 1.422 36.3007 1.334 36.4547 1.356C36.6307 1.378 36.8287 1.312 36.9827 1.312C37.2467 1.312 37.3567 1.334 37.5767 1.268C37.6867 1.268 37.9287 1.444 37.9287 1.532C37.9287 1.554 38.0167 1.598 38.0387 1.62C38.1047 1.664 37.9727 1.884 37.9727 1.928C37.9727 1.95 37.9507 1.994 37.9287 2.038C37.9067 2.082 37.9507 2.126 37.9727 2.236C38.0167 2.412 37.9947 2.5 37.9947 2.676C38.0607 2.72 38.0607 2.808 38.0387 2.962C37.9947 3.292 37.9947 3.424 37.9947 3.798V3.842C38.0167 3.952 38.0167 4.04 38.0167 4.128C38.0167 4.304 37.9947 4.48 37.9947 4.854V5.426V5.536C37.9947 5.58 37.9727 5.602 37.9727 5.624V5.69C37.9507 5.822 37.9067 5.932 37.9067 6.064C37.9067 6.086 37.8847 6.108 37.8847 6.152V6.284V6.416V6.482L37.9067 6.46H37.9287L37.9507 6.482V6.57V6.614C37.9287 6.834 37.8847 7.032 37.8847 7.252V7.45V7.516C37.9067 7.538 37.9507 7.56 37.9507 7.604V7.626C37.9727 7.626 37.9727 7.692 37.9727 7.736V7.846V8.088V8.198V8.418C37.9947 8.66 38.0167 8.99 38.0167 9.232C38.0167 9.496 38.0167 9.606 38.0607 9.826C38.0607 9.892 38.0167 10.002 37.9727 10.024C37.8847 10.068 37.8187 10.2 37.7747 10.288C37.7527 10.354 37.4667 10.2 37.4447 10.178C37.4007 10.156 37.4007 10.2 37.3127 10.222C37.1587 10.266 37.0047 10.266 36.8947 10.266C36.6967 10.266 36.4987 10.222 36.0807 10.222H35.9267C35.8827 10.244 35.7947 10.266 35.7507 10.288H35.0687H34.8267C34.7387 10.288 34.6727 10.244 34.6067 10.244C34.5407 10.244 34.4307 10.266 34.3647 10.266C34.1007 10.266 33.8587 10.222 33.6607 10.222C33.5947 10.222 33.5287 10.244 33.4627 10.244C32.8027 10.222 32.2307 10.2 31.5487 10.2H31.5267H31.5047H31.4827H31.4607H31.4387L31.4167 10.178H31.3947H31.3727H31.3287H31.3067H31.2847H31.2627C31.1967 10.178 31.1087 10.2 30.9987 10.2H30.9767C30.9767 10.266 30.9987 10.332 30.9987 10.42V10.684V10.948V11.19V11.41V11.63V11.894C30.9767 12.334 30.9547 12.752 30.9547 13.214V13.39V14.27V14.644V14.974V15.216V15.414V15.524V15.766V16.558C30.9547 16.756 30.9327 16.866 30.9327 17.02C30.9327 17.064 30.9547 17.108 30.9547 17.13V17.196H30.9327C30.9107 17.218 30.8887 17.24 30.8887 17.284V17.306V17.328V17.35H30.8667C30.8447 17.35 30.9107 17.922 30.8447 17.856C30.8007 17.812 30.8007 17.988 30.8007 18.098C30.8007 18.252 30.8227 18.34 30.8447 18.384C30.8667 18.494 30.8227 18.494 30.8227 18.626C30.8227 18.692 30.7787 18.868 30.7787 18.868V18.692C30.7787 18.67 30.7567 18.67 30.7567 18.67C30.6687 18.67 30.6467 19.044 30.6247 19.308C30.6027 19.528 30.5807 19.594 30.5587 19.594C30.5147 19.594 30.4927 18.802 30.4267 18.78C30.3607 18.78 30.3607 19.044 30.3607 19.132C30.3607 19.286 30.3607 19.374 30.3387 19.374C30.2947 19.374 30.2067 18.714 30.1627 18.692C30.1187 18.692 30.1187 18.802 30.1187 18.846C30.1187 19 30.0527 19.176 30.0307 19.374C30.0307 19.594 30.0087 19.66 30.0087 19.66C29.9867 19.66 30.0087 19.242 29.9647 19.242C29.8987 19.242 29.9207 19.572 29.8547 19.594V19.55C29.8547 19.396 29.8107 19.572 29.8107 19.462C29.8107 19.44 29.7887 19.418 29.7667 19.418C29.7447 19.418 29.7447 19.506 29.7447 19.528C29.7447 19.77 29.7007 19.33 29.6787 19.308V19.792V19.836C29.6127 19.594 29.6347 19.066 29.5907 18.868C29.5687 18.802 29.5687 18.824 29.5687 18.956C29.5687 19 29.5467 19.044 29.5467 19.066V19.176C29.5247 19.132 29.5027 19.088 29.5247 19.198V19.22L29.5027 19.242C29.4807 19.242 29.4587 19.198 29.4587 19.176C29.4587 19.176 29.4367 19.22 29.4367 19.286C29.4367 19.308 29.1947 19.242 29.1947 19.242C29.1067 19.242 29.0187 18.538 29.0187 18.472V18.428C29.0187 18.428 28.9307 18.582 28.9307 18.692C28.9307 18.78 28.9307 18.868 28.9527 18.868C28.9967 18.846 28.9087 19.242 28.9087 19.022C28.9087 19 28.8867 18.912 28.8647 18.912C28.7987 18.912 28.7767 18.23 28.6887 18.208C28.6667 18.208 28.6447 18.23 28.6447 18.252C28.6447 18.318 28.5567 18.758 28.4907 18.78C28.4247 18.78 28.4027 18.45 28.3367 18.428C28.3147 18.428 28.2267 18.01 28.2267 17.988C28.2267 17.966 28.2707 17.944 28.2707 17.922C28.2707 17.9 28.2487 17.878 28.2267 17.878C28.2267 17.878 28.2267 17.9 28.2047 17.9C28.1607 17.922 28.1387 17.834 28.1387 17.834C28.1387 17.856 28.1167 17.9 28.1167 17.944C28.1167 17.988 28.0947 18.098 28.0947 18.098C28.0727 18.098 28.0727 18.054 28.0727 17.966C28.0727 17.746 28.1387 17.372 28.1387 17.372C28.1827 17.284 28.2047 17.262 28.1827 17.262C28.1607 17.262 28.1607 17.174 28.1607 17.152V17.108V17.064C28.1607 17.042 28.1607 17.042 28.1387 17.042C28.1387 17.042 28.1827 16.338 28.1827 16.272V14.996C28.1827 14.798 28.1167 14.776 28.1167 14.71V14.644V14.556C28.1167 14.314 28.1387 14.072 28.1387 13.874V13.83C28.1167 13.83 28.1167 13.808 28.1167 13.786C28.1167 13.786 28.0947 13.786 28.0947 13.764V13.698V13.632C28.0947 13.61 28.1167 13.61 28.1167 13.61C28.1387 13.632 28.1607 13.61 28.1607 13.544V13.39V12.818V12.708C28.1607 12.686 28.1387 12.686 28.1387 12.686V12.73V12.818C28.1387 12.862 28.1167 12.928 28.1167 12.972V13.126V13.302V13.412V13.478C28.1167 13.5 28.0947 13.478 28.0947 13.478V13.456L28.0727 13.434C28.0727 13.434 28.0507 13.434 28.0507 13.412V13.324V12.664V12.444V12.29C28.0507 12.246 28.0287 12.202 28.0287 12.18C28.0287 12.136 28.0287 12.114 28.0067 12.092V12.356C27.9627 12.334 27.9627 12.158 27.9627 12.114V12.026V11.938C27.9627 11.894 27.9847 11.828 27.9847 11.784V11.718V11.63C27.9847 11.564 27.9407 11.498 27.9407 11.41V11.344C27.9407 11.322 27.9627 11.322 27.9627 11.3V11.234L27.9407 11.19C27.9407 11.146 27.9187 11.036 27.9187 10.948V10.816C27.9187 10.772 27.9407 10.75 27.9407 10.75C27.9847 10.64 28.0067 10.42 28.0067 10.266H27.9847H27.9187C27.6767 10.266 27.5667 10.2 27.2807 10.2C27.1267 10.2 26.8847 10.222 26.7087 10.222C26.6427 10.222 26.3127 10.222 26.3127 10.2C26.3127 10.178 26.1367 10.178 26.0927 10.178C25.9387 10.178 25.8727 10.134 25.7627 10.134H25.6527C25.3887 10.134 25.1907 10.2 24.9267 10.2C24.8167 10.2 24.3327 10.156 24.3327 10.266C24.3327 10.288 23.7167 10.288 23.6287 10.288H23.0127V10.31H22.7047H21.8687C21.8247 10.288 21.0767 10.2 21.0547 10.156C21.0327 10.112 21.0107 10.046 20.9667 10.046C20.9227 10.046 20.8567 9.87 20.8567 9.804V9.672V9.43V9.32C20.8787 9.276 20.8347 9.188 20.8347 9.1C20.8127 8.858 20.8127 8.55 20.8127 8.308C20.8127 8.044 20.8127 7.912 20.7687 7.692V7.67V7.406C20.7907 7.384 20.7907 7.34 20.7907 7.274V7.054V6.702V6.438V6.218V6.064C20.7907 6.02 20.8127 6.02 20.8127 6.02V5.998C20.8127 5.976 20.8347 5.976 20.8347 5.954V5.888V5.69V5.624C20.8347 5.536 20.8567 5.558 20.8787 5.448V5.25C20.8787 5.03 20.8127 4.876 20.8127 4.678V4.568V4.436V4.238C20.8127 4.15 20.8127 3.93 20.7467 3.93V3.864C20.7467 3.82 20.7247 3.776 20.7247 3.71V3.468V2.456C20.7467 2.368 20.7907 2.258 20.8127 2.17C20.8567 2.016 20.9887 1.928 20.9887 1.774C20.9887 1.708 21.1207 1.554 21.1207 1.51C21.1207 1.488 21.1647 1.466 21.2087 1.444C21.4287 1.378 21.5607 1.356 21.6927 1.29C21.8027 1.312 22.0227 1.136 22.1767 1.114C22.2647 1.114 22.3527 1.07 22.4407 1.026C22.7487 0.871999 23.0347 0.849999 23.2767 0.651999C23.2987 0.651999 23.3207 0.629999 23.3427 0.629999V0.651999C23.4967 0.673999 23.4747 0.871999 23.5847 0.915999C23.6727 0.959999 23.6947 1.048 23.7827 1.114C23.8707 1.18 23.7387 1.62 23.7387 1.686C23.7387 1.774 23.6727 2.016 23.7167 2.148C23.7607 2.28 23.7827 2.39 23.7827 2.5C23.7827 2.676 23.7387 2.852 23.7387 3.226V3.776V3.908V3.996C23.7387 4.018 23.7167 4.04 23.7167 4.062C23.6947 4.238 23.6287 4.414 23.6287 4.634ZM23.6287 4.92C23.6507 4.92 23.6287 4.898 23.6287 4.898V4.92ZM56.8202 18.142V18.208C56.8202 18.274 56.7982 18.296 56.7982 18.208C56.7982 18.186 56.8202 18.142 56.8202 18.142ZM54.5762 17.834C54.5762 17.944 54.6422 17.922 54.6422 17.856C54.6422 17.834 54.6422 17.812 54.6202 17.79L54.5982 17.768C54.5762 17.768 54.5762 17.79 54.5762 17.834ZM54.0482 17.724V17.702C54.0482 17.702 54.0702 17.746 54.0702 17.724C54.0702 17.746 54.0482 17.768 54.0482 17.724ZM56.7762 17.702C56.7982 17.768 56.8202 17.878 56.8202 17.922C56.8202 18.032 56.7762 17.878 56.7762 17.812V17.702ZM53.8942 17.482C53.8942 17.46 53.9162 17.46 53.9162 17.46V17.482C53.9162 17.504 53.8942 17.526 53.8942 17.482ZM56.1382 17.68C56.1382 17.746 56.1382 17.9 56.2042 17.9C56.2702 17.9 56.2702 17.746 56.2702 17.68C56.2702 17.614 56.2702 17.46 56.2042 17.46C56.1382 17.46 56.1382 17.614 56.1382 17.68ZM56.4462 16.096V16.162C56.4462 16.206 56.4242 16.228 56.4462 16.25H56.4682C56.4902 16.25 56.4902 16.14 56.4902 16.096C56.4902 16.074 56.4902 16.052 56.4682 16.03C56.4462 16.03 56.4462 16.074 56.4462 16.096ZM55.9402 15.722C55.9402 15.744 55.9182 15.788 55.9182 15.876C55.9182 16.074 55.9622 16.052 55.9622 15.876C55.9622 15.832 55.9622 15.744 55.9402 15.722ZM53.9822 15.634C53.9822 15.656 53.9822 15.722 53.9602 15.722C53.9382 15.722 53.9382 15.656 53.9382 15.634C53.9382 15.612 53.9382 15.524 53.9602 15.524C53.9822 15.524 53.9822 15.612 53.9822 15.634ZM55.5002 15.502C55.3242 15.502 55.3682 15.92 55.3462 16.074C55.3462 16.14 55.3682 16.206 55.3682 16.206C55.3682 16.184 55.4562 15.59 55.5002 15.502ZM54.4442 15.546C54.4442 15.502 54.4222 15.48 54.4002 15.48C54.2682 15.458 54.3342 15.942 54.3342 16.074C54.3782 15.942 54.4442 15.656 54.4442 15.546ZM53.9822 14.974C53.9822 15.018 53.9822 15.106 53.9602 15.106C53.9382 15.106 53.9382 15.018 53.9382 14.974C53.9382 14.93 53.9382 14.82 53.9602 14.82C53.9822 14.82 53.9822 14.93 53.9822 14.974ZM54.8622 13.852V13.94V14.006C54.8622 14.028 54.8622 14.072 54.8842 14.072C54.9062 14.05 54.9062 14.028 54.9062 14.006C54.9062 13.984 54.9282 13.962 54.9282 13.94C54.9282 13.918 54.9062 13.786 54.8842 13.786C54.8622 13.786 54.8622 13.83 54.8622 13.852ZM53.9382 13.478V13.412C53.9382 13.412 53.9602 13.39 53.9602 13.412V13.478V13.5C53.9602 13.522 53.9382 13.544 53.9382 13.5V13.478ZM56.4242 12.84C56.4022 12.84 56.4022 12.884 56.4022 12.906V12.994V13.06C56.4022 13.082 56.4022 13.126 56.4242 13.126C56.4242 13.126 56.4462 13.126 56.4462 13.104C56.4462 13.06 56.4682 13.038 56.4682 12.994C56.4682 12.95 56.4462 12.862 56.4242 12.84ZM55.5002 13.17C55.5002 13.258 55.5002 13.478 55.5662 13.478C55.6322 13.478 55.6322 13.258 55.6322 13.17C55.6322 13.082 55.6322 12.84 55.5662 12.84C55.5002 12.84 55.5002 13.082 55.5002 13.17ZM54.5322 12.576H54.5102C54.4662 12.664 54.5542 12.598 54.5542 12.642C54.5542 12.642 54.5542 12.576 54.5322 12.576ZM46.5022 11.3C46.5022 11.278 46.5242 11.3 46.5242 11.322V11.344C46.5242 11.366 46.5022 11.388 46.5022 11.344V11.322V11.3ZM39.3742 11.322L39.3962 11.3C39.3962 11.3 39.3962 11.3 39.3962 11.322V11.344C39.3962 11.366 39.3742 11.388 39.3742 11.344V11.322ZM40.1882 10.684C40.1882 10.75 40.1442 10.662 40.1442 10.706C40.1442 10.728 40.1662 10.75 40.1662 10.772H40.1882C40.2102 10.772 40.1882 10.684 40.1882 10.684ZM41.7502 10.354V10.442C41.7502 10.464 41.7502 10.486 41.7722 10.486C41.7942 10.464 41.7942 10.398 41.7942 10.354C41.7942 10.31 41.7722 10.288 41.7722 10.244V10.2C41.7502 10.2 41.7502 10.31 41.7502 10.354ZM40.9802 10.178C40.9802 10.244 41.0022 10.508 41.0462 10.508C41.0902 10.508 41.1122 10.244 41.1122 10.178C41.1122 10.112 41.0902 9.848 41.0462 9.848C41.0022 9.848 40.9802 10.112 40.9802 10.178ZM40.4962 9.408C40.4962 9.364 40.4962 9.276 40.4742 9.254C40.4522 9.254 40.4742 9.298 40.4742 9.32C40.4742 9.342 40.4522 9.386 40.4522 9.408C40.4522 9.43 40.4522 9.54 40.4742 9.54C40.4962 9.54 40.4962 9.43 40.4962 9.408ZM41.8382 8.902C41.8382 8.924 41.8602 8.946 41.8602 8.968C41.8822 9.034 41.9042 8.99 41.9262 8.946V8.88C41.9042 8.814 41.8602 8.858 41.8382 8.902ZM41.3762 7.472V7.296C41.3762 7.296 41.3322 7.274 41.3322 7.472C41.3322 7.67 41.3762 7.626 41.3762 7.472ZM40.0122 7.076C40.0122 7.23 39.9902 7.428 40.0122 7.582C40.0342 7.67 40.1002 7.736 40.1002 7.604C40.1002 7.494 40.0342 7.208 40.0122 7.076ZM40.8702 7.34C40.8702 7.472 40.8922 7.648 41.0022 7.648C40.9582 7.56 40.9142 6.988 40.8922 6.966C40.8922 6.966 40.8482 7.032 40.8482 7.098C40.8482 7.164 40.8702 7.23 40.8702 7.34ZM41.7722 7.01V7.076C41.7722 7.098 41.7942 7.142 41.7942 7.142C41.7942 7.142 41.8382 6.966 41.8162 6.966C41.8162 6.944 41.7942 6.922 41.7942 6.922H41.7722C41.7502 6.944 41.7722 7.01 41.7722 7.01ZM46.5022 5.932V5.888L46.5242 5.932C46.5242 5.954 46.5022 5.998 46.5022 5.954V5.932ZM39.3742 5.932L39.3962 5.888V5.932C39.3962 5.954 39.3742 5.998 39.3742 5.954V5.932ZM39.8362 5.602V5.668C39.8362 5.69 39.8362 5.734 39.8582 5.734C39.8802 5.734 39.8802 5.668 39.8802 5.646C39.8802 5.624 39.8802 5.492 39.8582 5.492H39.8362V5.602ZM41.5082 5.492C41.5082 5.558 41.5302 5.712 41.5742 5.712C41.6182 5.712 41.6402 5.558 41.6402 5.492C41.6402 5.426 41.6182 5.25 41.5742 5.25C41.5302 5.25 41.5082 5.426 41.5082 5.492ZM40.6282 5.14H40.6502C40.6502 5.14 40.6722 5.074 40.6722 5.052C40.6722 5.008 40.6722 4.942 40.6502 4.92H40.6282V4.942V5.008C40.6282 5.052 40.6062 5.14 40.6282 5.14ZM49.5822 4.128H49.6042C49.6262 4.128 49.6482 4.15 49.6042 4.15H49.5822H49.5602C49.5382 4.15 49.5602 4.128 49.5822 4.128ZM56.8422 16.778C56.8202 16.778 56.7982 16.822 56.7982 16.866V16.888C56.7982 16.954 56.7982 17.306 56.7762 17.438C56.7542 17.504 56.7322 17.394 56.7102 17.46C56.6882 17.57 56.7762 18.032 56.7542 18.054C56.7322 18.076 56.6662 18.45 56.6662 18.45C56.6662 18.428 56.6882 18.252 56.6662 18.252C56.5782 18.252 56.5342 18.626 56.5122 18.89C56.4902 19.11 56.4902 19.286 56.4242 19.11C56.3582 18.934 56.4022 18.67 56.3582 18.472C56.2922 18.164 56.2702 18.626 56.2702 18.736C56.2702 18.89 56.2702 18.956 56.2482 18.956C56.2042 18.956 56.1382 18.56 56.1162 18.428C56.0722 18.252 56.0062 18.296 56.0062 18.45C56.0062 18.604 55.9402 18.758 55.9402 18.956C55.9182 19.176 55.9182 19.242 55.9182 19.242C55.8962 19.242 55.8962 18.846 55.8522 18.846C55.8082 18.846 55.7642 19.198 55.7642 19.242C55.7642 19.022 55.6982 19.132 55.6982 19.066C55.6982 18.956 55.6542 19.066 55.6542 19.11C55.6542 19.352 55.5882 18.846 55.5882 18.89V19.396C55.5882 19.44 55.5662 19.44 55.5662 19.418C55.5222 19.176 55.5442 18.67 55.5002 18.472C55.4782 18.318 55.4562 18.604 55.4562 18.648V18.736C55.4562 18.89 55.3902 18.582 55.4122 18.78C55.4122 18.868 55.3682 18.824 55.3682 18.78C55.3682 18.692 55.3242 18.802 55.3242 18.868C55.3242 18.89 55.1042 18.824 55.1042 18.824C54.9942 18.824 54.9722 18.098 54.9062 18.01C54.9062 18.01 54.7742 18.472 54.8622 18.45C54.9062 18.45 54.7962 18.824 54.7962 18.604C54.7962 18.582 54.7962 18.516 54.7742 18.516C54.6862 18.494 54.5982 17.988 54.5982 17.878C54.5982 17.812 54.5542 17.746 54.5542 17.834C54.5542 17.966 54.4662 18.12 54.4222 18.23C54.2902 18.604 54.3782 18.054 54.2462 18.01C54.2022 17.988 54.1362 17.614 54.1362 17.57C54.1362 17.548 54.1802 17.526 54.1582 17.482C54.1802 17.482 54.1802 17.438 54.1802 17.416V17.35C54.1802 17.328 54.1802 17.262 54.1582 17.262C54.1362 17.262 54.1362 17.306 54.1362 17.328V17.394V17.46C54.1362 17.46 54.1142 17.482 54.0922 17.482C54.0482 17.504 54.0262 17.438 54.0262 17.438C54.0262 17.504 54.0042 17.834 53.9822 17.592C53.9602 17.372 53.9822 17.064 54.0262 16.954C54.1142 16.778 54.0702 16.91 54.0702 16.734C54.0702 16.69 54.0702 16.624 54.0262 16.624C54.0262 16.624 54.0922 15.92 54.0922 15.854V15.7V15.524V15.392V15.326V15.26V14.996V14.842C54.0922 14.71 54.0702 14.314 54.0262 14.358C54.0042 14.38 54.0042 14.182 54.0042 14.138C54.0042 13.962 54.0042 13.764 54.0262 13.61C54.0482 13.434 54.0042 13.456 54.0042 13.302V13.236C54.0042 13.148 54.0262 13.236 54.0262 13.214C54.0482 13.082 54.0482 12.928 54.0482 12.774V12.576C54.0482 12.532 54.0262 12.29 54.0262 12.29C53.9822 12.356 54.0262 12.62 54.0262 12.73C54.0262 12.818 54.0042 12.928 54.0042 13.016C54.0042 13.038 54.0042 13.06 54.0042 13.06C53.9822 13.06 53.9822 13.038 53.9822 13.038H53.9602C53.9602 13.038 53.9382 12.796 53.9382 12.73C53.9382 12.598 53.9602 12.422 53.9602 12.268C53.9602 12.092 53.9822 11.806 53.9162 11.674V11.96C53.8722 11.938 53.8502 11.674 53.8502 11.608C53.8502 11.498 53.8942 11.432 53.8942 11.322C53.8942 11.19 53.8502 11.058 53.8502 10.926V10.86C53.8502 10.86 53.7622 10.332 53.8282 10.332C53.8722 10.332 53.9162 9.892 53.9162 9.826C53.9162 9.716 53.8502 9.364 53.8502 9.122C53.8502 9.012 53.8502 8.902 53.8942 8.88C53.9602 8.836 53.9382 8.638 53.9382 8.506V7.824C53.9382 7.758 53.9162 7.384 53.9382 7.384C53.9602 7.384 53.9602 7.186 53.9602 7.142C53.9602 6.966 54.0042 6.9 54.0042 6.768C54.0042 6.724 54.0262 6.68 54.0262 6.636C54.0262 6.328 53.9382 6.086 53.9382 5.8C53.9382 5.756 53.9602 5.624 53.9602 5.47C53.9602 5.294 53.9602 5.118 53.8942 5.118C53.8722 5.118 53.8722 4.414 53.8722 4.326V4.172H53.7842C53.5202 4.172 53.2342 4.128 53.0142 4.128C52.9262 4.128 52.9042 4.15 52.8162 4.15C52.1122 4.128 51.4742 4.106 50.7482 4.084H50.7262H50.7042H50.6822H50.6602H50.6382H50.6162H50.5942H50.5722H50.5282H50.5062H50.4622H50.4402C50.3742 4.084 50.2642 4.106 50.1542 4.106H49.7142H49.5162C49.4942 4.106 49.4942 4.436 49.4942 4.568V4.788V4.942C49.4942 5.382 49.4062 5.668 49.3842 6.13V6.152V6.174C49.3842 6.13 49.3842 6.02 49.4282 6.02C49.4502 6.02 49.4502 6.02 49.4502 6.042V6.064V6.086C49.4282 6.35 49.4062 6.614 49.4062 6.9V7.076C49.4062 8.066 49.5162 8.99 49.5162 10.002V10.2C49.5162 10.662 49.4722 11.058 49.4722 11.52V11.564V11.586V11.63V11.652V11.718V11.74C49.4942 12.356 49.4722 12.972 49.4722 13.588C49.4722 13.742 49.4942 13.874 49.4942 14.028C49.4942 14.182 49.4502 14.314 49.4502 14.49C49.4502 14.754 49.4942 15.018 49.4942 15.304V15.568C49.4942 15.986 49.5162 16.118 49.5162 16.316H49.5382V16.624V17.262C49.5602 17.372 49.5822 17.482 49.5382 17.504C49.5162 17.526 49.4502 18.208 49.4062 18.23C49.2962 18.296 49.1862 18.406 49.0322 18.406H48.9222H48.6802H48.5482C48.4162 18.384 48.2402 18.428 48.0642 18.428C47.8882 18.406 47.6902 18.45 47.5362 18.45H47.2282C47.0962 18.45 46.8322 18.538 46.7442 18.406C46.7002 18.318 46.5682 18.274 46.4802 18.23C46.4142 18.208 46.5682 17.922 46.5902 17.9C46.6122 17.856 46.5682 17.856 46.5462 17.768C46.5022 17.614 46.5022 17.482 46.5022 17.372C46.5022 17.174 46.5242 16.998 46.5242 16.58V16.426C46.5022 16.382 46.5022 16.316 46.4802 16.272V15.59V15.37C46.4802 15.304 46.5242 15.216 46.5242 15.15C46.5242 15.084 46.4802 14.996 46.4802 14.93C46.4802 14.688 46.5462 14.446 46.5462 14.248C46.5462 14.182 46.5022 14.116 46.5022 14.05C46.5242 13.412 46.5462 12.862 46.5682 12.202V12.18V12.158V12.136V12.114V12.092V12.07V12.048V12.026V11.982L46.5902 11.96V11.938V11.916C46.5902 11.85 46.5682 11.784 46.5682 11.674V11.256C46.5682 11.102 46.5902 10.882 46.5462 10.772C46.5462 10.86 46.5242 10.926 46.5242 11.014C46.4802 10.992 46.4802 10.772 46.4802 10.706C46.4802 10.618 46.5022 10.552 46.5022 10.464C46.5022 10.354 46.4582 10.244 46.4582 10.134C46.4582 10.112 46.4802 10.09 46.4802 10.068C46.4802 10.068 46.3922 9.628 46.4582 9.628C46.4802 9.628 46.5242 9.276 46.5242 9.21C46.5242 9.122 46.4802 8.792 46.4802 8.594C46.4802 8.506 46.4802 8.418 46.5242 8.396C46.5902 8.374 46.5462 8.198 46.5462 8.088V7.516C46.5462 7.45 46.5462 7.12 46.5682 7.12C46.5902 7.12 46.5902 6.966 46.5902 6.922C46.5902 6.746 46.6342 6.68 46.6342 6.504C46.6342 6.24 46.5682 6.042 46.5682 5.8C46.5682 5.69 46.6122 5.206 46.5022 5.206C46.4802 5.206 46.4802 4.634 46.4802 4.546V4.216C46.4362 4.216 46.1502 4.26 46.1502 4.216C46.1502 4.172 45.7542 4.128 45.6882 4.128H45.6662C45.5562 4.128 45.2262 4.194 45.0062 4.194C44.8962 4.194 44.8082 4.194 44.7862 4.15C44.7422 4.084 44.5442 4.106 44.4342 4.106C44.2802 4.106 43.9722 4.128 43.7962 4.128C43.7302 4.128 43.3782 4.128 43.3782 4.106C43.3782 4.084 43.1802 4.084 43.1362 4.084C43.0702 4.084 42.9382 4.106 42.8942 4.062C42.8282 3.996 42.4982 4.04 42.3882 4.04C42.3882 4.15 42.3662 4.304 42.3662 4.568V4.788V4.942C42.3662 5.382 42.2782 5.668 42.2562 6.108C42.2562 6.064 42.2562 6.02 42.3002 6.02C42.3222 6.02 42.3222 6.02 42.3222 6.042V6.064V6.086C42.3002 6.35 42.2782 6.614 42.2782 6.9V7.076C42.2782 8.066 42.3882 8.99 42.3882 10.002V10.2C42.3882 10.662 42.3442 11.058 42.3442 11.52V11.564V11.586V11.608V11.652V11.718V11.74C42.3662 12.356 42.3442 12.972 42.3442 13.588C42.3442 13.742 42.3662 13.874 42.3662 14.028C42.3662 14.182 42.3222 14.314 42.3222 14.49C42.3222 14.754 42.3662 15.018 42.3662 15.304V15.568C42.3662 15.986 42.3882 16.118 42.3882 16.316H42.4102V16.624V17.262C42.4322 17.372 42.4542 17.482 42.4102 17.504C42.3882 17.526 42.3222 18.208 42.2782 18.23C42.1682 18.296 42.0582 18.406 41.9042 18.406H41.7942H41.5522H41.4202C41.2882 18.384 41.1122 18.428 40.9362 18.428C40.7602 18.406 40.5622 18.45 40.4082 18.45H40.1002C39.9682 18.45 39.7042 18.538 39.6162 18.406C39.5722 18.318 39.4402 18.274 39.3522 18.23C39.2862 18.208 39.4402 17.922 39.4622 17.9C39.4842 17.856 39.4402 17.856 39.4182 17.768C39.3742 17.614 39.3742 17.482 39.3742 17.372C39.3742 17.174 39.3962 16.998 39.3962 16.58V16.426C39.3742 16.382 39.3742 16.316 39.3522 16.272V15.59V15.37C39.3522 15.304 39.3962 15.216 39.3962 15.15C39.3962 15.084 39.3522 14.996 39.3522 14.93C39.3522 14.688 39.4182 14.446 39.4182 14.248C39.4182 14.182 39.3742 14.116 39.3742 14.05C39.3962 13.412 39.4182 12.862 39.4402 12.202V12.18V12.158V12.136V12.114V12.092V12.07V12.048V12.026V11.982L39.4622 11.96V11.938V11.916C39.4622 11.85 39.4402 11.784 39.4402 11.674V11.256C39.4402 11.102 39.4622 10.882 39.4182 10.772C39.4182 10.86 39.3962 10.926 39.3962 11.014C39.3522 10.992 39.3522 10.772 39.3522 10.706C39.3522 10.618 39.3742 10.552 39.3742 10.464C39.3742 10.354 39.3522 10.244 39.3522 10.134V10.068C39.3522 10.068 39.2642 9.628 39.3302 9.628C39.3522 9.628 39.3962 9.276 39.3962 9.21C39.3962 9.122 39.3522 8.792 39.3522 8.594C39.3522 8.506 39.3522 8.418 39.3962 8.396C39.4622 8.374 39.4182 8.198 39.4182 8.088V7.516C39.4182 7.45 39.4182 7.12 39.4402 7.12C39.4622 7.12 39.4622 6.966 39.4622 6.922C39.4622 6.746 39.5062 6.68 39.5062 6.504C39.5062 6.24 39.4402 6.042 39.4402 5.8C39.4402 5.69 39.4842 5.206 39.3742 5.206C39.3522 5.206 39.3522 4.634 39.3522 4.546V4.062C39.2422 4.018 39.1982 3.93 39.0662 3.93C38.9562 3.93 38.7582 3.776 38.7362 3.688C38.6702 3.468 38.6482 3.358 38.5822 3.226C38.6042 3.116 38.4062 2.874 38.3842 2.72C38.3842 2.632 38.3402 2.544 38.2962 2.456C38.2082 2.28 38.1642 2.082 38.0982 1.906C38.0542 1.774 37.7682 1.51 38.0322 1.422C38.1202 1.378 38.1642 1.268 38.2522 1.246C38.3622 1.224 38.3402 1.092 38.4722 1.092L38.4942 1.114C38.6262 1.114 38.8682 1.158 38.9562 1.158C39.0662 1.158 39.3082 1.224 39.4402 1.18C39.5942 1.136 39.7042 1.136 39.8142 1.136C39.9902 1.136 40.1662 1.18 40.5402 1.18H40.7602H40.9582C41.4422 1.18 41.7502 1.268 42.2562 1.29H42.3002C42.2562 1.29 42.1462 1.29 42.1462 1.246C42.1462 1.224 42.1462 1.224 42.1682 1.224H42.1902H42.2122C42.5202 1.246 42.8062 1.268 43.1362 1.268H43.3122C44.4122 1.268 45.4462 1.158 46.5682 1.158H46.7662C47.8442 1.158 48.9662 1.202 50.0222 1.202H50.0442H50.0882H50.1102H50.1762H50.2422C50.9242 1.18 51.6062 1.202 52.2882 1.202C52.4642 1.202 52.6182 1.18 52.7942 1.18C52.9702 1.18 53.1242 1.224 53.3002 1.224C53.4982 1.224 53.7182 1.158 53.9162 1.158H54.2022H54.4882C54.8622 1.158 55.0602 1.136 55.2362 1.136C55.3462 1.136 55.4342 1.136 55.5882 1.18C55.6102 1.18 55.6322 1.202 55.6542 1.202C55.8522 1.202 56.2262 1.092 56.4682 1.092C56.5562 1.092 56.6222 1.092 56.6442 1.136C56.6882 1.202 56.8202 1.224 56.8422 1.312C56.8862 1.444 57.1722 1.422 57.1062 1.642C56.9742 1.796 56.9302 1.862 56.8862 2.038C56.9962 2.148 56.8642 2.544 56.8862 2.676C56.8862 2.786 56.8202 3.072 56.8642 3.204C56.9082 3.358 56.9082 3.468 56.9082 3.578C56.9082 3.754 56.8862 3.952 56.8862 4.348V4.612V4.81C56.8862 5.338 56.7762 5.668 56.7542 6.196V6.24C56.7542 6.196 56.7542 6.064 56.7982 6.064C56.8202 6.064 56.8422 6.064 56.8422 6.086V6.108V6.152C56.8202 6.482 56.7762 6.79 56.7762 7.12V7.318C56.7762 8.484 56.9082 9.584 56.9082 10.772V10.992C56.9082 12.224 56.8422 13.522 56.8422 14.82V14.996V15.106V15.722V16.14V16.602V16.778ZM56.8422 16.778C56.8422 16.822 56.8642 16.778 56.8422 16.778V16.778ZM54.0042 13.06C54.0042 13.104 54.0042 13.082 54.0042 13.06V13.06ZM42.2562 6.152V6.13C42.2562 6.152 42.2562 6.152 42.2562 6.152Z" fill="#2D2D2D"/>
<path d="M60.2611 18.868C60.2611 18.956 60.2391 18.934 60.2391 18.868C60.2391 18.802 60.2611 18.78 60.2611 18.868ZM61.4491 18.714V18.78V18.846C61.4491 18.868 61.4711 18.89 61.4711 18.89C61.4711 18.868 61.4931 18.802 61.4931 18.78V18.736C61.4931 18.714 61.5151 18.67 61.4931 18.67V18.648H61.4711C61.4491 18.648 61.4491 18.692 61.4491 18.714ZM60.4151 18.626V18.582C60.4371 18.56 60.4371 18.516 60.4371 18.494C60.4371 18.494 60.4151 18.582 60.4151 18.626ZM63.0111 18.318V18.34C63.0111 18.34 62.9891 18.362 62.9891 18.318C62.9891 18.34 63.0111 18.296 63.0111 18.318ZM60.2831 18.318V18.56C60.2831 18.604 60.2391 18.648 60.2391 18.582C60.2391 18.538 60.2611 18.384 60.2831 18.318ZM63.1431 18.076C63.1431 18.076 63.1651 18.076 63.1651 18.098C63.1651 18.142 63.1431 18.142 63.1431 18.098V18.076ZM62.4831 18.296C62.4831 18.362 62.4831 18.516 62.5491 18.516C62.6151 18.516 62.6151 18.362 62.6151 18.296C62.6151 18.23 62.6151 18.054 62.5491 18.054C62.4831 18.054 62.4831 18.23 62.4831 18.296ZM60.5691 18.054C60.5471 18.054 60.5471 18.098 60.5471 18.12V18.186C60.5471 18.23 60.5471 18.252 60.5691 18.274C60.5691 18.274 60.5911 18.208 60.5911 18.186V18.142C60.5911 18.12 60.5911 18.054 60.5691 18.054ZM62.7691 16.69V16.756C62.7691 16.8 62.7471 16.844 62.7691 16.866H62.7911C62.8131 16.866 62.8131 16.756 62.8131 16.712C62.8131 16.69 62.8131 16.646 62.7911 16.624C62.7691 16.624 62.7691 16.668 62.7691 16.69ZM62.2851 16.316C62.2851 16.338 62.2631 16.382 62.2631 16.47C62.2631 16.668 62.3071 16.646 62.3071 16.47C62.3071 16.426 62.3071 16.338 62.2851 16.316ZM61.8671 16.118C61.6911 16.118 61.7351 16.536 61.7131 16.69C61.7131 16.756 61.7571 16.8 61.7571 16.8C61.7571 16.778 61.8231 16.206 61.8671 16.118ZM60.8551 16.162C60.8551 16.118 60.8551 16.074 60.8331 16.074C60.7011 16.052 60.7451 16.558 60.7451 16.69C60.7671 16.558 60.8551 16.272 60.8551 16.162ZM63.1211 16.14C63.1211 16.162 63.1211 16.25 63.0991 16.25C63.0771 16.25 63.0771 16.162 63.0771 16.14C63.0771 16.118 63.0771 16.03 63.0991 16.03C63.1211 16.03 63.1211 16.118 63.1211 16.14ZM63.1211 15.436C63.1211 15.48 63.1211 15.59 63.0991 15.59C63.0771 15.59 63.0771 15.48 63.0771 15.436C63.0771 15.392 63.0771 15.282 63.0991 15.282C63.1211 15.282 63.1211 15.392 63.1211 15.436ZM61.2731 14.468V14.534V14.622C61.2731 14.644 61.2731 14.688 61.2951 14.688C61.3171 14.666 61.3171 14.622 61.3171 14.6V14.534C61.3171 14.512 61.3171 14.402 61.2951 14.402C61.2731 14.402 61.2731 14.446 61.2731 14.468ZM63.0991 13.83V13.786C63.0991 13.764 63.1211 13.786 63.1211 13.808V13.83V13.874C63.1211 13.918 63.0991 13.896 63.0991 13.874V13.83ZM61.8671 13.786C61.8671 13.874 61.8671 14.094 61.9331 14.094C61.9991 14.094 61.9991 13.874 61.9991 13.786C61.9991 13.698 61.9991 13.456 61.9331 13.456C61.8671 13.456 61.8671 13.698 61.8671 13.786ZM60.9431 13.192H60.9211C60.8771 13.28 60.9651 13.214 60.9651 13.258C60.9651 13.258 60.9651 13.192 60.9431 13.192ZM64.8811 11.564C64.9031 11.564 64.9251 11.586 64.8811 11.586H64.8591H64.8371C64.7931 11.586 64.8591 11.564 64.8591 11.564H64.8811ZM63.0771 8.418C63.0771 8.462 63.0991 8.462 63.0991 8.418V8.396V8.374L63.0771 8.396V8.418ZM72.3611 4.48H72.3831L72.4271 4.502H72.3831H72.3611C72.3171 4.502 72.3391 4.48 72.3611 4.48ZM66.6851 4.48H66.7071C66.7291 4.48 66.7511 4.502 66.7291 4.502H66.6851H66.6631C66.6191 4.502 66.6631 4.48 66.6851 4.48ZM64.0891 4.414C64.0891 4.392 64.1991 4.392 64.2211 4.392C64.2431 4.392 64.3531 4.392 64.3531 4.414C64.3531 4.436 64.2431 4.458 64.2211 4.458C64.1991 4.458 64.0891 4.436 64.0891 4.414ZM63.5171 4.414C63.5171 4.392 63.5831 4.392 63.6051 4.392C63.6271 4.392 63.7151 4.392 63.7151 4.414C63.7151 4.436 63.6271 4.458 63.6051 4.458C63.5831 4.458 63.5171 4.436 63.5171 4.414ZM61.4931 1.554C61.5371 1.554 61.6471 1.576 61.7131 1.598C61.6471 1.598 61.4931 1.62 61.4711 1.576C61.4711 1.554 61.4711 1.554 61.4931 1.554ZM61.2731 1.554C61.3391 1.554 61.3611 1.576 61.2731 1.576C61.1851 1.576 61.2071 1.554 61.2731 1.554ZM67.7411 1.51L67.8951 1.488C68.9951 1.488 70.0071 1.598 71.0851 1.598H71.1731C71.5251 1.598 71.8331 1.532 72.1631 1.532H72.2071C72.2291 1.532 72.2511 1.554 72.2511 1.576C72.2511 1.62 72.2071 1.62 72.1631 1.62C72.6251 1.598 72.9331 1.488 73.4171 1.488H73.5931H73.8351C74.2091 1.488 74.3631 1.466 74.5391 1.466C74.6491 1.466 74.7591 1.466 74.8911 1.51C74.9131 1.51 74.9351 1.532 74.9571 1.532C75.1551 1.532 75.5511 1.4 75.7711 1.4C75.8591 1.4 75.9251 1.422 75.9471 1.466C75.9911 1.532 76.1231 1.554 76.1451 1.642C76.1891 1.774 76.4531 1.73 76.3871 1.95C76.2331 2.148 76.1891 2.28 76.1231 2.544C76.0791 2.698 75.9031 2.852 75.9251 3.05C75.9031 3.204 75.7271 3.446 75.7491 3.556C75.6831 3.71 75.7051 3.71 75.6171 3.908C75.5951 3.974 75.5731 4.084 75.5291 4.106C75.5291 4.106 75.3091 4.26 75.2651 4.26C75.2211 4.26 75.1551 4.282 75.1331 4.304C75.0011 4.392 74.7811 4.436 74.5831 4.502H73.8571C73.7691 4.502 73.1311 4.524 73.1311 4.502C73.1311 4.392 72.6031 4.436 72.4931 4.436C72.3831 4.436 72.2731 4.414 72.1851 4.392C72.0971 4.37 71.9871 4.37 71.8991 4.37C71.6791 4.37 71.4591 4.414 71.2611 4.414C71.2171 4.414 71.0411 4.414 71.0411 4.436C71.0411 4.458 70.6891 4.458 70.6231 4.458C70.4471 4.458 70.1611 4.436 70.0071 4.436C69.7871 4.436 69.6771 4.502 69.5451 4.502C69.5011 4.502 69.1051 4.48 68.7531 4.48C68.5111 4.48 68.2911 4.502 68.2911 4.546C68.2911 4.612 67.8291 4.524 67.8291 4.524H67.7411C67.6091 4.524 67.5211 4.48 67.3891 4.48C67.2791 4.48 67.2351 4.524 67.1251 4.524C67.0591 4.524 66.8171 4.502 66.7951 4.458C66.8831 4.458 66.9711 4.48 67.0591 4.458C66.9491 4.436 66.8611 4.414 66.7291 4.414H66.5311C66.3991 4.414 66.2231 4.436 66.0911 4.436C66.0031 4.436 65.8051 4.436 65.8051 4.392C65.8051 4.37 65.7611 4.37 65.7611 4.37C65.9811 4.348 66.2891 4.348 66.4871 4.326H66.2451H66.0471C65.8491 4.326 65.6291 4.37 65.5631 4.37C65.4971 4.37 64.7491 4.348 64.5951 4.348C64.6611 4.282 64.2211 4.282 64.1331 4.282C64.0891 4.282 64.0231 4.304 63.9791 4.304H63.8471H63.7591C63.6931 4.304 63.6931 4.282 63.6271 4.282H63.4951H63.3411H63.2091H63.1651C63.1651 4.37 63.1651 5.118 63.1431 5.118C63.0771 5.118 63.0551 5.316 63.0551 5.492C63.0551 5.646 63.0771 5.8 63.0771 5.866C63.0771 5.998 63.0771 6.086 63.0551 6.196C63.0331 6.306 63.0111 6.416 63.0111 6.526C63.0111 6.768 63.0551 7.032 63.0551 7.274C63.0551 7.318 63.0551 7.538 63.0771 7.538C63.0991 7.538 63.0991 7.956 63.0991 8.022V8.572H63.3191H63.5391H63.7371C64.2211 8.572 64.5291 8.682 65.0351 8.704H65.0791C65.0351 8.704 64.9031 8.704 64.9031 8.66C64.9031 8.638 64.9251 8.616 64.9471 8.616H64.9691H64.9911C65.2991 8.638 65.5851 8.682 65.9151 8.682H66.0911C66.6411 8.682 67.2571 8.704 67.7631 8.616H67.7851H67.9391C68.4011 8.616 68.5991 8.572 68.7971 8.572C68.9291 8.572 69.0611 8.594 69.2371 8.638C69.4351 8.682 69.4791 8.638 69.6331 8.55C69.7651 8.484 69.8531 8.638 69.8751 8.726C69.9191 8.836 70.0511 8.836 70.0511 9.012C70.0071 9.232 69.9851 9.342 69.9851 9.606C69.9851 9.76 69.9631 9.936 69.9851 10.112C69.9851 10.266 69.9191 10.486 69.9631 10.618C69.9411 10.772 69.9631 10.772 69.9411 10.97V11.08C69.9411 11.146 69.8971 11.322 69.8311 11.344C69.7871 11.344 69.7651 11.41 69.7431 11.454C69.7211 11.476 69.3031 11.498 69.2151 11.52C69.1051 11.542 68.9731 11.564 68.8631 11.586H67.9611H67.7851C67.7191 11.586 67.5871 11.608 67.5651 11.564C67.5211 11.498 67.3231 11.542 67.2131 11.542H66.5751C66.5091 11.542 66.1571 11.542 66.1571 11.52C66.1571 11.498 65.9591 11.498 65.9151 11.498C65.7611 11.498 65.6951 11.454 65.5631 11.454H65.4531C65.1671 11.454 64.9471 11.52 64.6831 11.52C64.5731 11.52 64.0231 11.476 64.0231 11.586C64.0231 11.608 63.3631 11.608 63.2751 11.608H63.1431V11.63V11.718C63.1431 11.828 63.1651 11.916 63.1651 12.026C63.1651 12.092 63.1651 12.378 63.1211 12.4C63.1211 12.29 63.1211 12.18 63.0991 12.092C63.0771 12.224 63.0771 12.334 63.0771 12.488V12.708V13.214C63.0771 13.302 63.0991 13.544 63.0551 13.544C63.0331 13.544 63.0111 13.61 63.0111 13.588C62.9891 13.346 63.0111 13.016 62.9891 12.774C62.9891 12.862 62.9671 12.95 62.9671 13.06V13.258C62.9671 13.478 63.0331 13.742 63.0331 13.808C63.0331 13.852 63.0111 13.962 62.9891 13.94V14.93C62.9231 14.864 62.9451 15.37 62.9451 15.458V15.634V15.788V15.898V16.052V16.184C62.9451 16.25 62.9231 16.316 62.9231 16.382V16.536C62.9231 16.602 62.9891 17.35 62.9891 17.35C62.9451 17.35 62.9671 17.416 62.9671 17.46C62.9671 17.636 62.9231 17.526 62.9891 17.702C63.0331 17.812 63.0551 18.164 63.0331 18.384C63.0111 18.67 62.9891 18.274 62.9891 18.208C62.9891 18.252 62.9671 18.274 62.9231 18.252C62.8131 18.208 62.8791 18.318 62.8791 18.34C62.8791 18.384 62.8131 18.802 62.7691 18.824C62.7031 18.846 62.6591 19.33 62.6151 19.132C62.5711 18.978 62.4611 18.802 62.4611 18.648C62.4611 18.516 62.4171 18.67 62.4171 18.736C62.4171 18.956 62.2191 19.264 62.2191 19.44C62.2191 19.638 62.1311 19.286 62.1751 19.286C62.2411 19.308 62.1531 18.758 62.1091 18.824C62.0651 18.868 61.9991 19.704 61.9111 19.704C61.9111 19.704 61.8891 19.704 61.8891 19.682C61.8891 19.682 61.6911 19.814 61.6911 19.748C61.6911 19.682 61.6471 19.528 61.6471 19.638C61.6471 19.682 61.6031 19.704 61.6031 19.638C61.6251 19.44 61.5591 19.748 61.5591 19.594V19.506C61.5591 19.462 61.5591 19.154 61.5371 19.308C61.4931 19.528 61.4931 20.056 61.4491 20.32C61.4491 20.32 61.4271 20.32 61.4271 20.276C61.4271 20.21 61.4491 19.77 61.4491 19.748C61.4491 19.748 61.3611 20.254 61.3611 19.99C61.3611 19.946 61.3171 19.814 61.3171 19.924C61.3171 19.968 61.3171 19.99 61.2951 19.968C61.2511 19.924 61.2511 20.078 61.2511 20.122C61.2511 20.078 61.2071 19.704 61.1631 19.704C61.1191 19.704 61.1191 20.144 61.0971 20.144C61.0971 20.144 61.0971 20.056 61.0751 19.836C61.0531 19.616 61.0091 19.44 61.0091 19.286C61.0091 19.242 61.0091 19.176 60.9871 19.154C60.9871 19.132 60.9651 19.132 60.9651 19.132C60.8771 19.132 60.8331 19.792 60.8111 19.814C60.7671 19.858 60.7451 19.462 60.7451 19.374C60.7011 18.934 60.6131 19.528 60.6351 19.682C60.6351 19.792 60.5691 20.1 60.5471 20.056C60.4811 19.88 60.5031 19.088 60.3711 19.088C60.3491 19.088 60.3491 19.264 60.3491 19.286C60.3491 19.286 60.3051 18.89 60.2831 18.868C60.2831 18.868 60.3271 18.164 60.2831 18.208C60.2391 18.274 60.2391 17.79 60.2391 17.768C60.2611 17.68 60.2391 17.702 60.2391 17.636V17.614C60.2391 17.57 60.2171 17.526 60.1951 17.526H60.1731V17.328V16.844V16.404V15.986V15.744V15.634V15.436C60.1731 14.116 60.1291 12.73 60.1291 11.432C60.0631 11.388 59.9971 11.344 59.9091 11.344C59.7991 11.344 59.6011 11.19 59.5791 11.102C59.5131 10.882 59.4911 10.772 59.4251 10.64C59.4471 10.53 59.2491 10.288 59.2271 10.134C59.2271 10.046 59.2051 9.958 59.1611 9.87C59.0731 9.694 59.0071 9.496 58.9411 9.32C58.8971 9.188 58.6111 8.924 58.8751 8.836C58.9631 8.792 59.0071 8.682 59.0951 8.66C59.2051 8.638 59.2051 8.506 59.3371 8.506C59.6671 8.506 59.8431 8.616 60.1511 8.616H60.2171C60.2391 8.22 60.2391 7.802 60.2391 7.384C60.2391 6.988 60.1951 6.592 60.1951 6.218V6.196V6.174C60.1951 6.152 60.1951 6.13 60.2171 6.13C60.2391 6.13 60.2391 6.196 60.2391 6.24C60.2171 5.712 60.1511 5.338 60.1511 4.788V4.59V4.326V2.83C60.0411 2.83 59.9531 2.808 59.9311 2.808C59.9311 2.808 59.9091 2.786 59.9531 2.786H60.1511C60.1511 2.742 60.1291 2.72 60.1511 2.72V2.61H60.1291H60.0851C60.1071 2.61 60.1291 2.588 60.1511 2.588C60.1511 2.544 60.1291 2.522 60.1291 2.456C60.1291 2.478 60.1291 2.478 60.1291 2.478L60.1731 2.456C60.1511 2.346 60.0851 1.972 60.1511 1.906C60.2171 1.84 60.2391 1.73 60.3271 1.686C60.4591 1.62 60.4151 1.4 60.5911 1.378C60.6131 1.378 60.6351 1.4 60.6571 1.4C60.8331 1.554 60.9211 1.598 61.1411 1.664C61.1631 1.664 61.2071 1.642 61.2071 1.642C61.2071 1.642 61.8231 1.708 61.7791 1.664C61.7351 1.598 62.1531 1.62 62.1751 1.62C62.2631 1.642 62.2191 1.598 62.2851 1.598H62.3071C62.3511 1.598 62.3951 1.576 62.3951 1.554H62.5711H62.9891H63.3631H63.7151H63.9351H64.0451H64.2211C65.3871 1.554 66.5751 1.51 67.7411 1.51ZM63.1211 12.554V12.576V12.598C63.1211 12.642 63.0991 12.642 63.0991 12.598V12.554H63.1211ZM63.0991 6.042L63.1211 6.02V6.042C63.1211 6.086 63.0991 6.086 63.0991 6.042ZM72.0971 1.62C72.0971 1.62 72.0971 1.62 72.1191 1.62H72.0971ZM60.2611 6.306C60.2611 6.306 60.2391 6.306 60.2391 6.284H60.2611V6.306ZM94.8606 18.56C94.9486 18.56 94.9266 18.582 94.8606 18.582C94.7946 18.582 94.7726 18.56 94.8606 18.56ZM94.3766 18.538C94.4426 18.538 94.6406 18.516 94.6626 18.56C94.6846 18.604 94.4206 18.538 94.3766 18.538ZM92.1106 16.932C92.1106 17.108 92.5286 17.064 92.6826 17.086C92.7486 17.086 92.8146 17.042 92.8146 17.042C92.7926 17.042 92.1986 16.976 92.1106 16.932ZM94.3986 15.832C94.4206 15.832 94.3766 15.81 94.3986 15.81C94.4206 15.81 94.4426 15.832 94.3986 15.832ZM90.1526 15.722C90.1306 15.722 90.1306 15.7 90.1086 15.7H90.1306H90.1526H90.1966C90.2406 15.7 90.2186 15.722 90.1966 15.722H90.1526ZM92.3306 15.7C92.3526 15.7 92.4186 15.7 92.4186 15.722C92.4186 15.744 92.3526 15.744 92.3306 15.744C92.3086 15.744 92.2206 15.744 92.2206 15.722C92.2206 15.7 92.3086 15.7 92.3306 15.7ZM91.5166 15.722C91.5166 15.7 91.6266 15.7 91.6706 15.7C91.7146 15.7 91.8026 15.7 91.8026 15.722C91.8026 15.744 91.7146 15.744 91.6706 15.744C91.6266 15.744 91.5166 15.744 91.5166 15.722ZM94.1566 15.678C94.1566 15.678 94.1566 15.656 94.1786 15.656C94.2226 15.656 94.2006 15.678 94.1786 15.678H94.1566ZM85.6426 14.798C85.6426 14.82 85.6426 14.908 85.6206 14.908C85.5986 14.908 85.5986 14.82 85.5986 14.798C85.5986 14.776 85.5986 14.71 85.6206 14.71C85.6426 14.71 85.6426 14.776 85.6426 14.798ZM85.6426 14.182C85.6426 14.204 85.6426 14.314 85.6206 14.314C85.5986 14.314 85.5986 14.204 85.5986 14.182C85.5986 14.16 85.5986 14.05 85.6206 14.05C85.6426 14.05 85.6426 14.138 85.6426 14.182ZM85.5986 12.752V12.708C85.5986 12.708 85.6206 12.686 85.6206 12.708V12.752V12.796L85.5986 12.818V12.796V12.752ZM85.5546 11.63C85.5546 11.608 85.5766 11.608 85.5766 11.63V11.674C85.5766 11.696 85.5546 11.718 85.5546 11.674V11.652V11.63ZM85.6426 5.668V5.646C85.6426 5.624 85.6206 5.58 85.6206 5.624V5.668V5.712L85.6426 5.734V5.668ZM88.9866 4.458H89.0086C89.0306 4.458 89.0526 4.48 89.0086 4.48H88.9866H88.9646C88.9206 4.48 88.9646 4.458 88.9866 4.458ZM82.8266 4.458C82.8486 4.458 82.8926 4.48 82.8486 4.48H82.8266H82.7826C82.7386 4.48 82.8046 4.458 82.8046 4.458H82.8266ZM94.1786 4.458C94.2006 4.458 94.2226 4.48 94.1786 4.48C94.1566 4.48 94.1566 4.458 94.1566 4.458H94.1786ZM92.3306 4.37C92.3526 4.37 92.4186 4.37 92.4186 4.392C92.4186 4.414 92.3526 4.436 92.3306 4.436C92.3086 4.436 92.2206 4.414 92.2206 4.392C92.2206 4.37 92.3086 4.37 92.3306 4.37ZM91.5166 4.392C91.5166 4.37 91.6266 4.37 91.6706 4.37C91.7146 4.37 91.8026 4.37 91.8026 4.392C91.8026 4.414 91.7146 4.436 91.6706 4.436C91.6266 4.436 91.5166 4.414 91.5166 4.392ZM94.3986 4.326C94.3766 4.326 94.4206 4.304 94.3986 4.304C94.4206 4.304 94.4426 4.326 94.3986 4.326ZM94.3766 1.576C94.4426 1.554 94.5746 1.532 94.6186 1.532C94.7066 1.532 94.5526 1.576 94.5086 1.576H94.3766ZM94.8606 1.554H94.8166C94.8386 1.554 94.8386 1.532 94.8606 1.532C94.9266 1.532 94.9486 1.554 94.8606 1.554ZM85.5546 5.8L85.5766 5.822C85.5766 5.844 85.5546 5.866 85.5546 5.822V5.8ZM83.0906 18.516C83.0686 18.516 83.0686 18.538 83.0466 18.538C83.0466 18.538 83.0466 18.516 83.0686 18.516H83.0906ZM83.0906 18.516C83.1126 18.516 83.1346 18.494 83.1346 18.494H83.1566L83.1346 18.516H83.0906ZM83.0026 18.538C82.4966 18.56 82.1666 18.626 81.6606 18.626H81.4626H81.2206C80.8246 18.626 80.6266 18.67 80.4506 18.67C80.3406 18.67 80.2086 18.67 80.0546 18.626C80.0326 18.626 80.0106 18.604 79.9886 18.604C79.7686 18.604 79.3506 18.714 79.1086 18.714C79.0206 18.714 78.9546 18.714 78.9326 18.67C78.8666 18.604 78.7346 18.582 78.7126 18.494C78.6466 18.362 78.3826 18.384 78.4486 18.164C78.6246 17.966 78.6466 17.834 78.7346 17.57C78.7786 17.438 78.9546 17.262 78.9326 17.064C78.9546 16.932 79.1746 16.69 79.1526 16.58C79.2186 16.426 79.1746 16.426 79.2846 16.228C79.3066 16.162 79.3286 16.03 79.3726 16.008C79.3726 16.008 79.5926 15.876 79.6586 15.876C79.7026 15.876 79.7686 15.854 79.8126 15.832C79.9666 15.744 80.1866 15.678 80.3846 15.612H81.1766C81.2646 15.612 81.9906 15.612 81.9906 15.634C81.9906 15.7 82.1446 15.7 82.3206 15.7H82.6726C82.7826 15.7 82.8926 15.7 82.9806 15.722C83.0906 15.744 83.2006 15.766 83.3106 15.766C83.5526 15.766 83.7726 15.722 83.9926 15.722C84.0366 15.722 84.2346 15.722 84.2346 15.7C84.2346 15.678 84.6306 15.678 84.6966 15.678H85.3566C85.5106 15.678 85.6206 15.7 85.7086 15.678C85.7306 15.546 85.7526 15.348 85.7526 15.194V15.04V14.886C85.7526 14.842 85.7306 14.798 85.7306 14.754V14.666V14.622V14.512V14.38V14.226C85.7306 14.094 85.7306 13.72 85.6866 13.764C85.6646 13.786 85.6646 13.61 85.6646 13.566C85.6646 13.39 85.6646 13.214 85.6866 13.06C85.7086 12.906 85.6426 12.884 85.6426 12.752V12.686C85.6426 12.598 85.6866 12.708 85.6866 12.686C85.7086 12.576 85.7086 12.422 85.7086 12.268V12.07C85.7086 12.026 85.6866 11.784 85.6866 11.784C85.6426 11.85 85.6646 12.114 85.6646 12.224V12.488C85.6646 12.62 85.6646 12.51 85.6206 12.51C85.6206 12.51 85.5986 12.29 85.5986 12.224V11.784C85.5986 11.608 85.6206 11.366 85.5766 11.234C85.5766 11.322 85.5546 11.41 85.5546 11.498C85.5106 11.476 85.5106 11.234 85.5106 11.168C85.5106 11.058 85.5326 10.992 85.5326 10.882C85.5326 10.75 85.5106 10.662 85.5106 10.53V10.442C85.5106 10.442 85.4226 9.958 85.4886 9.958C85.5106 9.958 85.5546 9.54 85.5546 9.474C85.5546 9.364 85.5106 9.012 85.5106 8.792C85.5106 8.682 85.5106 8.594 85.5546 8.572C85.6206 8.528 85.5766 8.33 85.5766 8.22V7.582C85.5766 7.516 85.5766 7.142 85.5986 7.142C85.6206 7.142 85.6206 6.966 85.6206 6.922C85.6206 6.768 85.6646 6.702 85.6646 6.57V6.438C85.6646 6.152 85.5986 5.954 85.5986 5.668C85.5986 5.558 85.6426 5.008 85.5326 5.008C85.5106 5.008 85.5106 4.612 85.5106 4.546V4.436H85.3566H84.6966C84.6306 4.436 84.2346 4.458 84.2346 4.436C84.2346 4.414 84.0366 4.414 83.9926 4.414C83.8166 4.414 83.7506 4.348 83.6186 4.348H83.4866C83.1786 4.348 82.9586 4.414 82.6726 4.414H82.3206C82.1446 4.414 81.9686 4.414 81.9686 4.48C81.9686 4.502 81.2646 4.502 81.1766 4.502H80.3846C80.2746 4.48 80.1866 4.458 80.0766 4.436C79.9006 4.392 79.8346 4.238 79.6586 4.238C79.5266 4.238 79.3286 4.106 79.3066 4.018C79.2406 3.798 79.1966 3.666 79.1306 3.534C79.1526 3.424 78.9546 3.182 78.9326 3.05C78.9326 2.962 78.8886 2.874 78.8446 2.786C78.6686 2.478 78.6466 2.192 78.4266 1.95C78.3826 1.796 78.5586 1.752 78.6466 1.686C78.7126 1.642 78.7346 1.598 78.8006 1.576C78.9106 1.554 78.8886 1.422 79.0426 1.422C79.1746 1.422 79.4606 1.488 79.5486 1.488C79.6586 1.488 79.9226 1.554 80.0546 1.51C80.2086 1.466 80.3186 1.466 80.4286 1.466C80.6046 1.466 80.8246 1.488 81.2206 1.488H81.4626H81.6606C82.1886 1.488 82.5186 1.598 83.0466 1.62H83.0906C83.0466 1.62 82.9146 1.62 82.9146 1.576C82.9146 1.554 82.9366 1.532 82.9586 1.532H82.9806H83.0026C83.3326 1.554 83.6406 1.598 83.9706 1.598H84.1906C85.3566 1.598 86.4346 1.488 87.6226 1.488H87.8426C89.0746 1.488 90.3726 1.532 91.6706 1.532H91.8686H91.9786H92.5946H92.9906H93.4526H93.6506C93.6506 1.554 93.6946 1.576 93.7386 1.576H93.7606C93.8046 1.576 94.1566 1.576 94.2886 1.598C94.3546 1.62 94.2446 1.642 94.3106 1.664C94.4206 1.686 94.9046 1.598 94.9266 1.62C94.9486 1.642 95.3226 1.708 95.3226 1.708C95.3006 1.708 95.1246 1.686 95.1246 1.708C95.1246 1.796 95.4986 1.84 95.7626 1.862C95.9826 1.884 96.1586 1.884 95.9826 1.95C95.8066 2.016 95.5426 1.972 95.3446 2.016C95.0366 2.082 95.4766 2.104 95.5866 2.104C95.7406 2.104 95.8066 2.126 95.8066 2.148C95.8066 2.192 95.4106 2.236 95.2786 2.258C95.1026 2.302 95.1466 2.368 95.3006 2.368C95.4546 2.368 95.6086 2.434 95.8066 2.434C96.0266 2.456 96.0926 2.456 96.0926 2.456C96.0926 2.478 95.6966 2.478 95.6966 2.522C95.6966 2.566 96.0486 2.61 96.0926 2.61C95.8726 2.61 95.9826 2.676 95.9166 2.676C95.8066 2.676 95.9166 2.72 95.9606 2.72C96.2026 2.72 95.6966 2.786 95.7406 2.786H96.2466C96.2906 2.786 96.2906 2.808 96.2686 2.808C96.0266 2.852 95.5206 2.83 95.3226 2.874C95.1686 2.896 95.4766 2.918 95.5206 2.918H95.5866C95.7406 2.918 95.4326 2.984 95.6306 2.962C95.7186 2.962 95.6746 3.006 95.6306 3.006C95.5426 3.006 95.6746 3.05 95.7406 3.05C95.7626 3.05 95.6966 3.27 95.6966 3.27C95.6966 3.38 94.9706 3.402 94.8826 3.468C94.8826 3.468 95.3446 3.6 95.3226 3.512C95.3226 3.468 95.6746 3.578 95.4546 3.578C95.4326 3.578 95.3666 3.578 95.3666 3.6C95.3446 3.688 94.8386 3.776 94.7286 3.776H94.7066C94.6406 3.754 94.6406 3.82 94.7066 3.82C94.8386 3.82 94.9706 3.908 95.0806 3.952C95.4546 4.084 94.9046 3.996 94.8606 4.128C94.8386 4.172 94.4646 4.238 94.4206 4.238C94.3986 4.238 94.2886 4.172 94.3326 4.282C94.3546 4.326 94.2886 4.348 94.2886 4.348C94.3546 4.348 94.7066 4.37 94.4646 4.392C94.2446 4.414 93.9366 4.392 93.8266 4.348C93.6506 4.26 93.7606 4.304 93.5846 4.304C93.5406 4.304 93.4966 4.304 93.4966 4.348C93.4966 4.348 92.7926 4.282 92.7266 4.282H92.5726H92.3966H92.2426H92.1766C92.1766 4.282 92.1546 4.304 92.1326 4.304H92.0226H91.8686C91.8246 4.304 91.7586 4.282 91.6926 4.282C91.5606 4.282 91.1646 4.304 91.2086 4.348C91.2306 4.37 91.0546 4.37 91.0106 4.37C90.8346 4.37 90.6366 4.37 90.4826 4.348C90.3066 4.326 90.3066 4.392 90.1526 4.392C90.1306 4.392 90.1086 4.37 90.0866 4.37C89.9986 4.37 90.1306 4.348 90.0866 4.348C89.9546 4.326 89.7786 4.326 89.6246 4.326H89.4266C89.3826 4.326 89.1406 4.348 89.1406 4.348C89.2066 4.392 89.4706 4.348 89.5806 4.348C89.6686 4.348 89.7786 4.37 89.8666 4.37H89.8886C89.8886 4.392 89.8886 4.392 89.8886 4.392L89.9106 4.414C89.9106 4.414 89.6686 4.436 89.6026 4.436C89.4706 4.436 89.2726 4.414 89.1186 4.414C88.9206 4.414 88.7006 4.436 88.5246 4.458H88.5466H88.8326C88.8106 4.502 88.5686 4.502 88.5246 4.502V4.524V4.7C88.5246 5.206 88.4366 5.514 88.4146 6.02V6.064C88.4146 6.02 88.4146 5.91 88.4586 5.91C88.4806 5.91 88.4806 5.91 88.4806 5.932L88.5026 5.954V5.976C88.4806 6.284 88.4366 6.57 88.4366 6.9V7.098C88.4366 8.198 88.5466 9.232 88.5466 10.354V10.574C88.5466 11.74 88.5026 12.972 88.5026 14.204V14.38V14.468V15.062V15.458V15.612C88.5686 15.612 88.8106 15.612 88.8326 15.656C88.7446 15.656 88.6346 15.656 88.5466 15.678C88.6566 15.7 88.7666 15.7 88.9206 15.7H89.1186H89.6026C89.6906 15.7 89.8886 15.678 89.8886 15.722C89.8886 15.744 89.9326 15.766 89.9326 15.766C90.0426 15.766 90.1086 15.744 90.1526 15.744C90.2406 15.744 91.0546 15.788 91.2086 15.788C91.1426 15.854 91.6046 15.832 91.6926 15.832H91.8686H92.0226H92.1326H92.2646H92.3966H92.5726H92.7266C92.7926 15.832 93.4966 15.788 93.4966 15.788C93.4966 15.832 93.5626 15.81 93.6066 15.81C93.7826 15.81 93.6506 15.876 93.8266 15.788C93.9366 15.744 94.2446 15.722 94.4646 15.744C94.7286 15.766 94.3326 15.788 94.2886 15.788C94.3326 15.788 94.3546 15.81 94.3326 15.854C94.2886 15.964 94.3986 15.876 94.4206 15.876C94.4646 15.876 94.8606 15.964 94.8826 16.008C94.9046 16.074 95.3666 16.118 95.1686 16.162C95.0366 16.206 94.8606 16.294 94.7066 16.294C94.6186 16.294 94.6626 16.382 94.7066 16.36H94.7726C94.9706 16.36 95.2786 16.558 95.4546 16.558C95.6526 16.558 95.3226 16.646 95.3226 16.602C95.3446 16.536 94.8166 16.624 94.8826 16.668C94.9266 16.712 95.6966 16.778 95.6966 16.866H95.6746C95.6746 16.866 95.8066 17.086 95.7406 17.086C95.6746 17.086 95.5426 17.13 95.6306 17.13C95.6746 17.13 95.7186 17.174 95.6526 17.174C95.4546 17.152 95.7406 17.218 95.5866 17.218H95.5206C95.4766 17.218 95.1686 17.218 95.3226 17.24C95.5206 17.284 96.0266 17.284 96.2686 17.328H96.2466H95.7626C95.7626 17.328 96.2466 17.394 95.9826 17.394C95.9606 17.394 95.9386 17.416 95.9166 17.416C95.8726 17.438 95.8726 17.46 95.9166 17.46C95.9606 17.46 95.9606 17.46 95.9386 17.482C95.8946 17.526 96.0706 17.504 96.0926 17.504C96.0486 17.504 95.6966 17.57 95.6966 17.614C95.6966 17.658 96.1146 17.658 96.1146 17.68C96.1146 17.68 96.0486 17.68 95.8286 17.702C95.6086 17.724 95.4546 17.768 95.3006 17.768C95.2566 17.768 95.1906 17.768 95.1686 17.79V17.812C95.1686 17.9 95.7846 17.944 95.8066 17.966C95.8506 18.01 95.4766 18.032 95.3886 18.032C94.9706 18.076 95.5206 18.164 95.6746 18.142C95.7846 18.142 96.0926 18.208 96.0486 18.23C95.8726 18.296 95.1246 18.274 95.1246 18.406C95.1246 18.428 95.3006 18.428 95.3226 18.428C95.3226 18.428 94.9486 18.472 94.9266 18.494C94.9266 18.494 94.2666 18.45 94.3106 18.494C94.3766 18.538 93.9146 18.516 93.8926 18.516C93.8046 18.494 93.8266 18.538 93.7606 18.538H93.7386C93.6946 18.538 93.6506 18.56 93.6506 18.582V18.604H93.4746H92.9906H92.5946H92.1986H91.9786H91.8686H91.6706C90.3946 18.604 89.1186 18.648 87.8646 18.648H87.6226C86.4346 18.648 85.3566 18.538 84.1906 18.538H84.1026C83.7286 18.538 83.3546 18.582 83.0026 18.582H82.9806H82.9586C82.9366 18.582 82.9146 18.582 82.9146 18.56C82.9146 18.538 82.9586 18.538 83.0026 18.538ZM89.8886 4.37C89.9106 4.37 89.9326 4.37 89.8886 4.37V4.37ZM89.9326 15.788C89.8226 15.788 89.7346 15.788 89.6466 15.788H89.4486H89.1846C89.3826 15.788 89.6906 15.788 89.9326 15.788ZM107.664 18.34V18.296V18.252C107.664 18.23 107.642 18.208 107.642 18.208H107.62V18.23C107.62 18.252 107.598 18.252 107.598 18.274V18.34C107.598 18.362 107.62 18.384 107.62 18.406V18.428H107.642C107.664 18.406 107.664 18.362 107.664 18.34ZM109.314 18.032H109.336V18.076C109.314 18.098 109.314 18.054 109.314 18.032ZM106.608 18.032V18.098V18.164C106.608 18.208 106.564 18.406 106.564 18.296C106.564 18.252 106.586 18.098 106.608 18.032ZM108.588 17.768V17.856C108.588 17.922 108.61 18.098 108.654 18.098C108.698 18.098 108.72 17.988 108.72 17.944V17.856V17.768C108.72 17.724 108.698 17.636 108.654 17.636C108.61 17.636 108.588 17.724 108.588 17.768ZM106.762 17.614V17.636C106.762 17.658 106.74 17.658 106.74 17.68V17.746V17.812C106.74 17.834 106.762 17.856 106.762 17.856C106.784 17.856 106.784 17.724 106.784 17.702H106.806C106.806 17.68 106.784 17.68 106.784 17.658C106.784 17.636 106.762 17.614 106.762 17.614ZM107.18 17.284C107.18 17.306 107.202 17.372 107.202 17.328C107.224 17.306 107.224 17.306 107.224 17.284C107.224 17.218 107.18 17.196 107.18 17.284ZM108.896 16.206L108.874 16.228V16.272V16.338V16.404V16.426H108.896C108.896 16.426 108.918 16.426 108.918 16.404V16.382V16.338V16.272V16.228C108.918 16.206 108.896 16.206 108.896 16.206ZM108.412 15.898C108.412 15.942 108.39 15.964 108.39 16.052C108.39 16.25 108.434 16.228 108.434 16.052C108.434 16.008 108.434 15.92 108.412 15.898ZM108.016 15.678C107.84 15.678 107.906 16.096 107.862 16.25C107.862 16.316 107.906 16.382 107.906 16.382C107.906 16.36 107.972 15.766 108.016 15.678ZM107.048 15.744C107.048 15.7 107.026 15.656 107.004 15.656C106.872 15.634 106.938 16.162 106.938 16.272C106.96 16.14 107.048 15.854 107.048 15.744ZM109.446 15.744V15.766C109.446 15.788 109.446 15.81 109.424 15.81C109.424 15.81 109.402 15.788 109.402 15.766V15.744V15.656V15.612C109.402 15.59 109.402 15.568 109.424 15.568L109.446 15.59V15.612V15.656V15.744ZM109.446 15.018V15.062C109.446 15.084 109.446 15.106 109.424 15.106C109.424 15.106 109.402 15.084 109.402 15.062V15.018V14.886V14.82C109.402 14.798 109.402 14.776 109.424 14.776L109.446 14.798V14.82V14.886V15.018ZM108.94 14.622C108.984 14.71 109.05 14.666 109.05 14.578C109.006 14.49 108.94 14.512 108.94 14.622ZM107.466 14.182C107.466 14.16 107.488 14.138 107.488 14.116C107.488 14.094 107.466 14.072 107.466 14.05C107.466 14.028 107.444 13.984 107.444 13.984V14.028C107.444 14.05 107.422 14.094 107.422 14.116C107.422 14.138 107.444 14.182 107.444 14.204V14.248V14.27C107.444 14.248 107.466 14.204 107.466 14.182ZM109.424 13.28V13.192L109.446 13.17V13.192V13.302L109.424 13.28ZM108.874 13.038C108.874 13.038 108.852 13.016 108.852 13.038V13.082V13.258V13.302C108.852 13.324 108.874 13.324 108.874 13.324V13.28C108.874 13.258 108.896 13.258 108.896 13.236V13.17V13.104C108.896 13.082 108.874 13.038 108.874 13.038ZM108.016 13.214V13.346V13.478C108.016 13.522 108.038 13.676 108.082 13.676C108.126 13.676 108.126 13.522 108.126 13.478C108.126 13.434 108.148 13.39 108.148 13.346C108.148 13.302 108.126 13.258 108.126 13.214C108.126 13.17 108.126 13.016 108.082 13.016C108.038 13.016 108.016 13.17 108.016 13.214ZM109.424 7.406H109.402V7.428V7.45V7.472V7.494V7.516L109.424 7.494V7.472V7.45V7.406ZM109.49 4.898V4.986V5.008L109.468 4.986V4.964V4.942L109.49 4.898ZM109.996 4.238C109.996 4.238 109.996 4.216 110.018 4.216H110.062C110.084 4.216 110.106 4.238 110.106 4.238H110.062H110.04H109.996ZM103.088 4.216C103.11 4.216 103.132 4.238 103.132 4.238H103.088H103.066H103.022H103C103 4.238 103.022 4.216 103.044 4.216H103.088ZM115.892 4.238C115.848 4.238 115.848 4.216 115.892 4.216C115.914 4.216 115.936 4.238 115.892 4.238ZM111.36 4.172H111.404H111.426L111.404 4.194H111.36H111.316L111.294 4.172H111.316H111.36ZM113.692 4.172C113.692 4.15 113.78 4.128 113.802 4.128C113.824 4.128 113.934 4.15 113.934 4.172C113.934 4.194 113.824 4.194 113.802 4.194C113.78 4.194 113.692 4.194 113.692 4.172ZM112.9 4.172C112.9 4.15 113.01 4.128 113.054 4.128C113.098 4.128 113.23 4.15 113.23 4.172C113.23 4.194 113.098 4.194 113.054 4.194C113.01 4.194 112.9 4.194 112.9 4.172ZM116.2 4.062C116.2 4.084 116.178 4.084 116.156 4.084C116.134 4.084 116.178 4.062 116.156 4.062H116.2ZM116.684 1.312H116.618C116.64 1.312 116.662 1.29 116.684 1.29C116.75 1.29 116.772 1.312 116.684 1.312ZM116.156 1.334C116.222 1.312 116.376 1.29 116.42 1.29C116.486 1.29 116.442 1.334 116.398 1.334C116.376 1.334 116.332 1.356 116.288 1.356C116.244 1.356 116.2 1.334 116.156 1.334ZM103.33 1.378H103.374C103.33 1.378 103.198 1.378 103.198 1.334V1.312C103.198 1.29 103.198 1.312 103.22 1.312L103.242 1.29H103.286C103.66 1.312 104.012 1.356 104.386 1.356H104.606C105.926 1.356 107.18 1.246 108.522 1.246H108.764C110.172 1.246 111.624 1.29 113.098 1.29H113.296H113.428H114.132H114.594H115.122H115.32V1.312C115.342 1.334 115.364 1.334 115.408 1.334L115.452 1.356H115.496C115.518 1.378 115.958 1.334 116.046 1.356C116.112 1.378 115.98 1.4 116.068 1.422C116.2 1.444 116.75 1.378 116.772 1.4C116.794 1.422 117.212 1.466 117.212 1.466C117.19 1.466 116.97 1.466 116.97 1.488C116.97 1.576 117.388 1.598 117.696 1.62C117.96 1.642 118.07 1.642 118.07 1.664C118.07 1.708 117.102 1.774 117.102 1.818C117.08 1.862 117.432 1.884 117.52 1.884C117.718 1.884 117.784 1.884 117.784 1.906C117.784 1.95 117.014 2.016 117.014 2.06C117.014 2.104 117.146 2.126 117.19 2.126C117.366 2.126 117.542 2.192 117.784 2.192C118.026 2.214 118.092 2.214 118.092 2.214C118.092 2.236 117.63 2.236 117.63 2.28C117.63 2.324 118.048 2.368 118.092 2.368C117.85 2.368 117.96 2.434 117.894 2.434C117.762 2.434 117.894 2.478 117.96 2.478C118.224 2.478 117.63 2.544 117.696 2.544H118.268C118.312 2.544 118.334 2.566 118.29 2.566C118.026 2.61 117.454 2.588 117.212 2.632C117.036 2.654 117.388 2.676 117.432 2.676H117.52H117.564C117.564 2.698 117.41 2.742 117.586 2.72C117.674 2.72 117.608 2.764 117.564 2.764C117.454 2.764 117.63 2.808 117.696 2.808C117.718 2.808 117.63 3.028 117.63 3.028C117.63 3.116 116.794 3.182 116.706 3.226C116.706 3.226 117.234 3.358 117.212 3.27C117.19 3.226 117.608 3.336 117.366 3.336C117.344 3.336 117.256 3.336 117.256 3.358C117.234 3.424 116.464 3.49 116.464 3.556C116.464 3.578 116.486 3.578 116.508 3.578C116.574 3.578 117.102 3.71 117.102 3.754C117.124 3.798 116.706 3.842 116.706 3.886C116.684 3.93 116.244 3.996 116.2 3.996C116.178 3.996 116.09 3.93 116.09 3.996V4.04C116.112 4.084 116.046 4.106 116.046 4.106C116.068 4.106 116.332 4.106 116.332 4.128C116.332 4.128 116.31 4.15 116.244 4.15H115.98C115.782 4.15 115.606 4.15 115.518 4.106C115.32 4.018 115.43 4.062 115.254 4.062C115.21 4.062 115.144 4.062 115.144 4.106C115.144 4.106 114.352 4.04 114.264 4.04H114.088H113.89H113.736C113.692 4.04 113.648 4.062 113.648 4.062H113.582H113.472H113.296H113.12C112.966 4.062 112.504 4.062 112.548 4.106C112.548 4.106 112.35 4.128 112.306 4.128C112.196 4.128 111.624 4.106 111.514 4.106H111.492C111.492 4.15 111.404 4.15 111.36 4.15H111.294C111.206 4.15 111.294 4.106 111.272 4.106C111.118 4.084 110.942 4.084 110.766 4.084H110.546C110.436 4.084 110.326 4.106 110.238 4.106C110.37 4.106 110.568 4.128 110.722 4.128H111.03H111.052C111.052 4.15 111.052 4.15 111.052 4.15L111.074 4.172C111.074 4.172 110.788 4.194 110.722 4.194H110.194C109.974 4.194 109.688 4.15 109.534 4.216H109.842V4.238C109.71 4.26 109.578 4.282 109.446 4.282V4.37V4.766V4.898C109.446 5.14 109.38 5.36 109.38 5.624V5.844C109.38 5.932 109.424 5.954 109.424 5.998V6.064V6.152V6.372C109.424 6.416 109.446 6.438 109.446 6.46V6.526V6.548C109.446 6.548 109.468 6.57 109.468 6.614V6.79V7.384V7.824V8.088C109.468 8.242 109.534 8.22 109.534 8.352V8.506C109.534 8.616 109.512 8.792 109.512 8.902V9.056C109.512 9.1 109.49 9.144 109.49 9.166V9.21C109.446 9.276 109.534 9.892 109.556 9.892C109.556 9.892 109.578 9.936 109.578 9.98V10.134C109.578 10.222 109.556 10.376 109.556 10.42V10.442V10.508V10.574V10.64C109.556 10.728 109.534 10.816 109.534 10.904C109.534 10.926 109.512 10.97 109.512 10.992V11.08C109.512 11.146 109.534 11.19 109.534 11.256V11.344V11.432C109.534 11.498 109.534 11.718 109.49 11.74V11.41C109.49 11.454 109.468 11.476 109.468 11.52C109.468 11.542 109.446 11.608 109.446 11.652V11.828V12.07V12.334V12.598V12.796V12.928C109.446 12.972 109.446 12.95 109.424 12.95L109.402 12.972V12.994C109.402 13.016 109.38 13.016 109.38 12.994V12.928V12.774V12.598V12.4C109.38 12.334 109.358 12.29 109.358 12.246V12.136V12.092C109.358 12.092 109.336 12.114 109.336 12.136V12.246V12.422V12.642V12.906V13.06C109.336 13.192 109.38 13.126 109.38 13.126V13.17V13.236V13.302V13.346C109.38 13.368 109.38 13.368 109.358 13.368V13.434C109.358 13.676 109.38 13.94 109.38 14.204V14.292V14.38C109.38 14.402 109.358 14.424 109.358 14.424V14.446C109.314 14.38 109.292 14.622 109.292 14.688V14.996V16.14C109.292 16.206 109.358 17.02 109.358 17.02C109.336 17.02 109.336 17.02 109.336 17.042V17.086V17.13C109.336 17.328 109.292 17.196 109.358 17.394C109.402 17.482 109.446 17.636 109.424 17.878C109.424 17.944 109.402 18.208 109.38 18.208V18.164C109.38 18.12 109.358 18.076 109.358 18.032V17.922C109.336 18.054 109.226 17.9 109.226 18.01C109.226 18.032 109.248 18.054 109.248 18.076C109.248 18.12 109.182 18.56 109.138 18.582C109.072 18.604 109.028 19.132 108.984 18.912C108.94 18.758 108.852 18.56 108.852 18.384C108.852 18.296 108.764 18.34 108.786 18.384C108.808 18.406 108.808 18.45 108.808 18.494C108.808 18.714 108.588 19.066 108.588 19.242C108.588 19.264 108.588 19.33 108.566 19.308C108.434 19.176 108.566 19.044 108.566 18.89C108.566 18.78 108.478 18.582 108.478 18.582V18.626C108.478 18.692 108.346 19.506 108.28 19.506V19.484C108.28 19.462 108.082 19.616 108.06 19.55C108.06 19.484 108.016 19.352 108.016 19.44C108.016 19.484 107.972 19.528 107.972 19.44C107.994 19.286 107.928 19.44 107.928 19.44V19.396V19.308V19.176C107.928 19.022 107.906 19.022 107.884 19.088C107.84 19.33 107.884 19.902 107.818 20.166C107.818 20.166 107.796 20.188 107.796 20.144V19.572C107.796 19.572 107.73 20.1 107.73 19.814C107.73 19.77 107.686 19.66 107.686 19.77C107.686 19.88 107.62 19.704 107.62 19.858V19.902C107.554 19.88 107.598 19.506 107.532 19.506C107.488 19.506 107.488 19.968 107.466 19.968C107.466 19.968 107.466 19.88 107.444 19.638C107.422 19.396 107.378 19.242 107.378 19.066V18.978C107.378 18.934 107.334 18.89 107.312 18.89C107.246 18.912 107.158 19.66 107.136 19.66C107.136 19.66 107.114 19.594 107.114 19.396V19.176C107.092 19.044 107.092 19 107.07 19C107.026 19 107.004 19.264 107.004 19.418C107.004 19.528 106.938 19.946 106.916 19.902C106.85 19.704 106.872 18.846 106.74 18.846C106.74 18.846 106.718 18.868 106.718 18.89V18.978V19.066C106.696 19.022 106.674 18.912 106.674 18.824C106.674 18.78 106.652 18.648 106.63 18.626C106.586 18.582 106.674 18.384 106.674 18.208V17.944C106.652 17.856 106.63 17.988 106.608 17.922C106.586 17.812 106.608 17.46 106.608 17.372V17.35L106.586 17.306V17.284C106.586 17.24 106.564 17.218 106.564 17.196H106.542V17.108V16.976V16.8V16.448V15.568V15.282V15.172V14.952V14.666C106.542 14.556 106.52 14.446 106.52 14.314V13.874C106.52 13.522 106.542 13.17 106.542 12.818C106.542 12.246 106.498 11.718 106.498 11.19V10.904C106.498 10.816 106.476 10.728 106.476 10.64V10.376C106.476 10.288 106.498 10.2 106.498 10.112V9.826V9.518V9.254C106.498 9.166 106.52 9.1 106.52 9.012C106.542 8.264 106.608 7.494 106.608 6.724V6.482V6.24V6.02C106.608 5.734 106.542 5.47 106.542 5.206V5.162V5.118V5.096L106.564 5.074V5.052H106.586L106.608 5.074V5.096L106.63 5.14V5.008V4.854C106.63 4.81 106.608 4.744 106.608 4.7V4.59C106.608 4.48 106.586 4.348 106.564 4.26H106.476C106.432 4.26 106.388 4.26 106.366 4.238C106.322 4.172 106.08 4.194 105.948 4.194H105.178C105.112 4.194 104.672 4.216 104.672 4.194C104.672 4.172 104.43 4.172 104.386 4.172C104.188 4.172 104.122 4.128 103.968 4.128C103.924 4.128 103.88 4.106 103.836 4.106C103.506 4.106 103.22 4.194 102.89 4.194C102.824 4.194 102.648 4.172 102.494 4.172C102.296 4.172 102.098 4.172 102.098 4.238C102.098 4.26 101.306 4.26 101.196 4.26H100.316C100.206 4.238 100.074 4.216 99.9644 4.194C99.7664 4.15 99.6784 4.018 99.4804 4.018C99.3484 4.018 99.1064 3.864 99.0844 3.776C99.0184 3.556 98.9524 3.446 98.8864 3.314C98.9084 3.204 98.6884 2.94 98.6664 2.808C98.6664 2.72 98.6224 2.632 98.5784 2.544C98.3804 2.236 98.3364 1.95 98.0944 1.708C98.0284 1.532 98.2704 1.488 98.3584 1.444C98.4244 1.4 98.4024 1.356 98.4904 1.334C98.6004 1.312 98.6004 1.18 98.7764 1.18L98.7984 1.202C98.9524 1.202 99.2824 1.246 99.3704 1.246C99.5024 1.246 99.7884 1.312 99.9424 1.268C100.118 1.224 100.25 1.224 100.382 1.224C100.58 1.224 100.8 1.246 101.262 1.246H101.526C101.614 1.246 101.702 1.268 101.768 1.268C102.362 1.268 102.736 1.356 103.33 1.378ZM109.49 17.768V17.79V17.812C109.49 17.834 109.468 17.79 109.468 17.79L109.49 17.768ZM109.49 11.894V11.982L109.468 11.96V11.938V11.916L109.49 11.894ZM111.052 4.128C111.096 4.128 111.118 4.128 111.052 4.128V4.128Z" fill="#ED4747"/>
</svg>
