<svg width="18" height="18" viewBox="0 0 18 18" fill="none" xmlns="http://www.w3.org/2000/svg">
<path d="M6.56266 13.2091V16.6876C6.56324 16.8058 6.60099 16.9208 6.67058 17.0164C6.74017 17.1119 6.83807 17.1832 6.9504 17.22C7.06274 17.2569 7.18382 17.2574 7.29648 17.2216C7.40915 17.1858 7.5077 17.1155 7.57817 17.0206L9.61292 14.2516L6.56266 13.2091ZM17.7639 0.104306C17.6794 0.044121 17.5799 0.00848417 17.4764 0.00133654C17.3729 -0.00581108 17.2694 0.015809 17.1774 0.0638058L0.302415 8.87631C0.205322 8.92762 0.125322 9.00617 0.0722333 9.1023C0.0191447 9.19843 -0.00472288 9.30798 0.00355981 9.41748C0.0118425 9.52699 0.0519151 9.6317 0.11886 9.71875C0.185804 9.80581 0.276708 9.87143 0.380415 9.90756L5.07166 11.5111L15.0624 2.96856L7.33141 12.2828L15.1937 14.9701C15.2717 14.9963 15.3545 15.0051 15.4363 14.996C15.5181 14.9868 15.5969 14.9599 15.6672 14.9171C15.7375 14.8743 15.7976 14.8167 15.8433 14.7482C15.8889 14.6798 15.9191 14.6021 15.9317 14.5208L17.9942 0.645806C18.0094 0.543093 17.996 0.438159 17.9554 0.342598C17.9147 0.247038 17.8485 0.164569 17.7639 0.104306Z" fill="white"/>
</svg>
