<svg width="608" height="608" viewBox="0 0 608 608" fill="none" xmlns="http://www.w3.org/2000/svg">
<g opacity="0.15">
<path fill-rule="evenodd" clip-rule="evenodd" d="M607.994 305.951C607.998 305.301 608 304.651 608 304C608 303.349 607.998 302.699 607.994 302.049L565.834 302.314C565.838 302.875 565.839 303.437 565.839 304C565.839 304.563 565.838 305.125 565.834 305.686L607.994 305.951ZM568.283 454.341L531.656 433.46C531.104 434.429 530.546 435.393 529.982 436.354L566.339 457.701C566.994 456.586 567.642 455.465 568.283 454.341ZM457.701 566.339L436.354 529.982C435.393 530.546 434.429 531.104 433.46 531.656L454.341 568.283C455.465 567.642 456.585 566.994 457.701 566.339ZM305.951 607.994L305.686 565.834C305.125 565.838 304.563 565.839 304 565.839C303.437 565.839 302.875 565.838 302.314 565.834L302.049 607.994C302.699 607.998 303.349 608 304 608C304.651 608 305.301 607.998 305.951 607.994ZM153.659 568.283L174.54 531.656C173.571 531.104 172.607 530.546 171.646 529.982L150.299 566.339C151.415 566.994 152.535 567.642 153.659 568.283ZM41.6611 457.701L78.018 436.354C77.4539 435.393 76.8958 434.429 76.3437 433.46L39.7169 454.341C40.358 455.465 41.0061 456.585 41.6611 457.701ZM0.00612998 305.951C0.00204535 305.301 0 304.651 0 304C0 303.349 0.00204535 302.699 0.00612998 302.049L42.1659 302.314C42.1624 302.875 42.1606 303.437 42.1606 304C42.1606 304.563 42.1624 305.125 42.1659 305.686L0.00612998 305.951ZM39.7169 153.659L76.3437 174.54C76.8958 173.571 77.4539 172.607 78.018 171.646L41.6612 150.299C41.0062 151.415 40.3581 152.535 39.7169 153.659ZM150.299 41.6611L171.646 78.018C172.607 77.4539 173.571 76.8958 174.54 76.3437L153.659 39.7169C152.535 40.358 151.415 41.0061 150.299 41.6611ZM302.049 0.00612998L302.314 42.1659C302.875 42.1624 303.437 42.1606 304 42.1606C304.563 42.1606 305.125 42.1624 305.686 42.1659L305.951 0.00612998C305.301 0.00204535 304.651 0 304 0C303.349 0 302.699 0.00204535 302.049 0.00612998ZM454.341 39.7169L433.46 76.3437C434.429 76.8958 435.393 77.4539 436.354 78.018L457.701 41.6612C456.586 41.0062 455.465 40.3581 454.341 39.7169ZM566.339 150.299L529.982 171.646C530.546 172.607 531.104 173.571 531.656 174.54L568.283 153.659C567.642 152.535 566.994 151.415 566.339 150.299Z" fill="#2D2D2D"/>
<path fill-rule="evenodd" clip-rule="evenodd" d="M593.996 305.601L581.295 305.533C581.298 305.022 581.299 304.511 581.299 304C581.299 303.609 581.299 303.219 581.297 302.828L581.295 302.468L593.996 302.399C593.999 302.932 594 303.466 594 304C594 304.534 593.999 305.068 593.996 305.601ZM593.747 291.778L581.057 292.304C581.015 291.291 580.968 290.279 580.915 289.269L593.598 288.606C593.654 289.662 593.703 290.719 593.747 291.778ZM592.85 278.001L580.2 279.125C580.11 278.116 580.015 277.108 579.914 276.102L592.552 274.841C592.657 275.892 592.757 276.946 592.85 278.001ZM591.303 264.283L578.72 266.007C578.582 265.002 578.439 264 578.291 262.999L590.854 261.138C591.01 262.185 591.159 263.233 591.303 264.283ZM589.104 250.656L576.617 252.977C576.432 251.98 576.241 250.985 576.045 249.992L588.506 247.533C588.711 248.572 588.91 249.613 589.104 250.656ZM586.257 237.149L573.896 240.066C573.663 239.078 573.424 238.093 573.181 237.11L585.509 234.057C585.764 235.085 586.013 236.116 586.257 237.149ZM582.766 223.794L570.559 227.3C570.279 226.325 569.993 225.352 569.703 224.381L581.871 220.74C582.175 221.756 582.473 222.774 582.766 223.794ZM578.639 210.623L566.614 214.71C566.287 213.749 565.955 212.791 565.618 211.834L577.598 207.614C577.95 208.615 578.297 209.617 578.639 210.623ZM573.885 197.664C573.495 196.676 573.1 195.691 572.7 194.708L560.937 199.498C561.319 200.437 561.697 201.379 562.069 202.323L573.885 197.664ZM568.515 184.948L556.936 190.167C556.519 189.242 556.097 188.319 555.67 187.399L567.19 182.052C567.637 183.014 568.078 183.98 568.515 184.948ZM562.543 172.503L551.227 178.27C550.766 177.365 550.3 176.464 549.829 175.565L561.081 169.673C561.574 170.614 562.061 171.557 562.543 172.503ZM555.984 160.358L544.956 166.658C544.452 165.776 543.943 164.897 543.43 164.022L554.388 157.601C554.925 158.517 555.457 159.436 555.984 160.358ZM548.853 148.539L538.137 155.356C537.592 154.499 537.042 153.646 536.488 152.795L547.128 145.86C547.708 146.75 548.283 147.643 548.853 148.539ZM541.169 137.072L530.789 144.391C530.204 143.561 529.614 142.734 529.02 141.911L539.319 134.478C539.94 135.339 540.557 136.204 541.169 137.072ZM532.949 125.982L522.927 133.785C522.303 132.984 521.675 132.186 521.042 131.392L530.978 123.479C531.639 124.31 532.296 125.144 532.949 125.982ZM524.212 115.295L514.572 123.564C513.911 122.793 513.245 122.025 512.575 121.262L522.125 112.888C522.825 113.686 523.521 114.489 524.212 115.295ZM514.98 105.033L505.742 113.748C505.044 113.01 504.343 112.274 503.638 111.543L512.781 102.727C513.518 103.492 514.251 104.26 514.98 105.033ZM505.273 95.2189L496.457 104.362C495.725 103.657 494.99 102.956 494.252 102.258L502.967 93.0201C503.74 93.7488 504.508 94.4818 505.273 95.2189ZM495.112 85.8751L486.738 95.4245C485.975 94.7549 485.207 94.0894 484.436 93.4281L492.705 83.7877C493.511 84.4792 494.314 85.175 495.112 85.8751ZM484.521 77.0224L476.608 86.9576C475.814 86.3249 475.016 85.6966 474.215 85.0725L482.018 75.0515C482.856 75.704 483.69 76.361 484.521 77.0224ZM473.522 68.6814L466.089 78.9804C465.266 78.3862 464.439 77.7965 463.609 77.2111L470.928 66.8314C471.796 67.4434 472.661 68.0601 473.522 68.6814ZM462.14 60.8716L455.205 71.5118C454.354 70.9575 453.5 70.4077 452.644 69.8625L459.461 59.1468C460.358 59.717 461.25 60.2919 462.14 60.8716ZM450.399 53.6115L443.978 64.5696C443.103 64.0565 442.224 63.5481 441.342 63.0443L447.642 52.0163C448.564 52.5431 449.484 53.0749 450.399 53.6115ZM438.327 46.9188L432.435 58.1706C431.536 57.6999 430.635 57.234 429.73 56.773L435.497 45.457C436.443 45.9392 437.386 46.4265 438.327 46.9188ZM425.948 40.8099L420.601 52.3303C419.681 51.9032 418.758 51.481 417.833 51.0638L423.052 39.4851C424.02 39.9215 424.986 40.3632 425.948 40.8099ZM413.292 35.2999L408.502 47.063C407.563 46.6806 406.621 46.3032 405.677 45.9308L410.336 34.1155C411.324 34.505 412.309 34.8999 413.292 35.2999ZM400.386 30.4024L396.166 42.3816C395.21 42.0447 394.251 41.713 393.29 41.3863L397.377 29.3613C398.383 29.703 399.385 30.05 400.386 30.4024ZM387.26 26.1294L383.619 38.2971C382.648 38.0066 381.675 37.7213 380.7 37.4412L384.206 25.2339C385.226 25.527 386.244 25.8255 387.26 26.1294ZM373.943 22.4907L370.89 34.819C369.907 34.5755 368.922 34.3373 367.934 34.1043L370.851 21.743C371.884 21.9867 372.915 22.2359 373.943 22.4907ZM360.467 19.4942L358.008 31.9546C357.015 31.7586 356.02 31.5679 355.023 31.3825L357.344 18.8958C358.387 19.0897 359.428 19.2892 360.467 19.4942ZM346.862 17.1456L345.001 29.7092C344 29.5609 342.998 29.418 341.993 29.2804L343.717 16.6972C344.767 16.841 345.815 16.9905 346.862 17.1456ZM333.159 15.4478L331.898 28.0856C330.892 27.9852 329.884 27.8901 328.875 27.8005L329.999 15.1496C331.054 15.2433 332.108 15.3427 333.159 15.4478ZM319.394 14.4016L318.731 27.085C317.721 27.0322 316.709 26.9847 315.696 26.9427L316.222 14.2529C317.281 14.2968 318.338 14.3464 319.394 14.4016ZM305.601 14.0043C305.068 14.0014 304.534 14 304 14C303.466 14 302.932 14.0014 302.399 14.0043L302.468 26.7049C302.978 26.7021 303.489 26.7007 304 26.7007C304.511 26.7007 305.022 26.7021 305.533 26.7049L305.601 14.0043ZM291.778 14.2529C290.719 14.2968 289.662 14.3464 288.606 14.4016L289.269 27.085C290.279 27.0322 291.291 26.9847 292.304 26.9427L291.778 14.2529ZM278.001 15.1496L279.125 27.8005C278.116 27.8901 277.108 27.9852 276.102 28.0856L274.841 15.4478C275.892 15.3427 276.946 15.2433 278.001 15.1496ZM264.283 16.6972L266.007 29.2804C265.002 29.418 264 29.5609 262.999 29.7092L261.138 17.1455C262.185 16.9905 263.233 16.841 264.283 16.6972ZM250.656 18.8958L252.977 31.3825C251.98 31.5679 250.985 31.7586 249.992 31.9546L247.533 19.4942C248.572 19.2892 249.613 19.0897 250.656 18.8958ZM237.149 21.743L240.066 34.1043C239.078 34.3373 238.093 34.5755 237.11 34.819L234.057 22.4907C235.085 22.2359 236.116 21.9867 237.149 21.743ZM223.794 25.2339L227.3 37.4412C226.325 37.7213 225.352 38.0066 224.381 38.2971L220.74 26.1293C221.756 25.8254 222.774 25.527 223.794 25.2339ZM210.623 29.3612L214.71 41.3863C213.749 41.7129 212.791 42.0447 211.834 42.3815L207.614 30.4024C208.615 30.05 209.617 29.7029 210.623 29.3612ZM197.664 34.1154L202.323 45.9308C201.379 46.3031 200.437 46.6806 199.498 47.063L194.708 35.2999C195.691 34.8998 196.676 34.505 197.664 34.1154ZM184.948 39.4851L190.167 51.0638C189.242 51.481 188.319 51.9032 187.399 52.3303L182.052 40.8099C183.014 40.3632 183.98 39.9215 184.948 39.4851ZM172.503 45.457L178.27 56.773C177.365 57.234 176.464 57.6999 175.565 58.1706L169.673 46.9188C170.614 46.4265 171.557 45.9392 172.503 45.457ZM160.358 52.0163L166.658 63.0443C165.776 63.5481 164.897 64.0565 164.022 64.5697L157.601 53.6115C158.517 53.0749 159.436 52.5431 160.358 52.0163ZM148.539 59.1469L155.356 69.8626C154.499 70.4078 153.646 70.9575 152.795 71.5119L145.86 60.8716C146.75 60.2919 147.643 59.717 148.539 59.1469ZM137.072 66.8314L144.391 77.2111C143.561 77.7965 142.734 78.3863 141.911 78.9805L134.478 68.6815C135.339 68.0602 136.204 67.4434 137.072 66.8314ZM125.982 75.0515L133.785 85.0725C132.984 85.6966 132.186 86.325 131.392 86.9576L123.479 77.0225C124.31 76.361 125.144 75.704 125.982 75.0515ZM115.295 83.7878L123.564 93.4281C122.793 94.0894 122.025 94.7549 121.262 95.4245L112.888 85.8751C113.686 85.175 114.489 84.4792 115.295 83.7878ZM105.033 93.0201L113.748 102.258C113.01 102.956 112.274 103.657 111.543 104.362L102.727 95.2189C103.492 94.4818 104.26 93.7489 105.033 93.0201ZM95.2189 102.727L104.362 111.543C103.657 112.275 102.956 113.01 102.258 113.748L93.0201 105.033C93.7488 104.26 94.4818 103.492 95.2189 102.727ZM85.8751 112.888L95.4245 121.262C94.7549 122.025 94.0894 122.793 93.4281 123.564L83.7877 115.295C84.4792 114.489 85.175 113.687 85.8751 112.888ZM77.0224 123.479C76.361 124.31 75.704 125.144 75.0515 125.982L85.0725 133.785C85.6966 132.984 86.3249 132.186 86.9576 131.392L77.0224 123.479ZM68.6814 134.478L78.9804 141.911C78.3862 142.734 77.7965 143.561 77.2111 144.391L66.8314 137.072C67.4434 136.204 68.0601 135.339 68.6814 134.478ZM60.8716 145.86L71.5118 152.795C70.9575 153.646 70.4077 154.5 69.8625 155.356L59.1468 148.539C59.717 147.643 60.2919 146.75 60.8716 145.86ZM53.6115 157.601L64.5696 164.022C64.0565 164.897 63.5481 165.776 63.0443 166.658L52.0163 160.358C52.5431 159.436 53.0749 158.517 53.6115 157.601ZM46.9188 169.673L58.1706 175.565C57.6999 176.464 57.234 177.365 56.773 178.27L45.457 172.503C45.9392 171.557 46.4265 170.614 46.9188 169.673ZM40.8099 182.052L52.3303 187.399C51.9032 188.319 51.481 189.242 51.0638 190.167L39.4851 184.948C39.9216 183.98 40.3632 183.014 40.8099 182.052ZM35.2999 194.708C34.8999 195.691 34.505 196.676 34.1155 197.664L45.9308 202.323C46.3032 201.379 46.6806 200.437 47.063 199.498L35.2999 194.708ZM30.4024 207.614L42.3816 211.834C42.0447 212.791 41.713 213.749 41.3863 214.71L29.3613 210.623C29.703 209.617 30.05 208.615 30.4024 207.614ZM26.1294 220.74L38.2971 224.381C38.0066 225.352 37.7213 226.325 37.4412 227.3L25.2339 223.794C25.527 222.774 25.8255 221.756 26.1294 220.74ZM22.4907 234.057L34.819 237.11C34.5755 238.093 34.3373 239.078 34.1043 240.066L21.743 237.149C21.9867 236.116 22.236 235.085 22.4907 234.057ZM19.4942 247.533L31.9546 249.992C31.7586 250.985 31.5679 251.98 31.3825 252.977L18.8958 250.656C19.0897 249.613 19.2892 248.572 19.4942 247.533ZM17.1456 261.138L29.7092 262.999C29.5609 264 29.418 265.002 29.2804 266.007L16.6972 264.283C16.841 263.233 16.9905 262.184 17.1456 261.138ZM15.4478 274.841L28.0856 276.102C27.9852 277.108 27.8901 278.116 27.8005 279.125L15.1496 278.001C15.2433 276.946 15.3427 275.892 15.4478 274.841ZM14.4016 288.606L27.085 289.269C27.0322 290.279 26.9847 291.291 26.9427 292.304L14.2529 291.778C14.2968 290.719 14.3464 289.662 14.4016 288.606ZM14.0043 302.399C14.0014 302.932 14 303.466 14 304C14 304.534 14.0014 305.068 14.0043 305.601L26.7049 305.532C26.7021 305.022 26.7007 304.511 26.7007 304C26.7007 303.489 26.7021 302.978 26.7049 302.468L14.0043 302.399ZM14.2529 316.222C14.2968 317.281 14.3464 318.338 14.4016 319.394L27.085 318.731C27.0322 317.721 26.9847 316.709 26.9427 315.696L14.2529 316.222ZM15.1496 329.999L27.8005 328.875C27.8901 329.884 27.9852 330.892 28.0856 331.898L15.4478 333.159C15.3427 332.108 15.2433 331.054 15.1496 329.999ZM16.6972 343.717L29.2804 341.993C29.418 342.998 29.5609 344 29.7092 345.001L17.1455 346.862C16.9905 345.815 16.841 344.767 16.6972 343.717ZM18.8958 357.344L31.3825 355.023C31.5679 356.02 31.7586 357.015 31.9546 358.008L19.4942 360.467C19.2892 359.428 19.0897 358.387 18.8958 357.344ZM21.743 370.851L34.1043 367.934C34.3373 368.922 34.5755 369.907 34.819 370.89L22.4907 373.943C22.2359 372.915 21.9867 371.884 21.743 370.851ZM25.2339 384.206L37.4412 380.7C37.7213 381.675 38.0066 382.648 38.2971 383.619L26.1293 387.26C25.8254 386.244 25.527 385.226 25.2339 384.206ZM29.3612 397.377L41.3863 393.29C41.7129 394.251 42.0447 395.209 42.3815 396.166L30.4024 400.386C30.05 399.385 29.7029 398.383 29.3612 397.377ZM34.1154 410.336L45.9308 405.677C46.3031 406.621 46.6806 407.563 47.063 408.502L35.2999 413.292C34.8998 412.309 34.505 411.324 34.1154 410.336ZM39.4851 423.052L51.0638 417.833C51.481 418.758 51.9032 419.681 52.3303 420.601L40.8099 425.948C40.3632 424.986 39.9215 424.02 39.4851 423.052ZM45.457 435.497L56.773 429.73C57.234 430.635 57.6999 431.536 58.1706 432.435L46.9188 438.327C46.4265 437.386 45.9392 436.443 45.457 435.497ZM52.0163 447.642C52.5431 448.564 53.0749 449.484 53.6115 450.399L64.5697 443.978C64.0565 443.103 63.5481 442.224 63.0443 441.342L52.0163 447.642ZM59.1469 459.461C59.717 460.358 60.2919 461.25 60.8716 462.14L71.5119 455.205C70.9575 454.354 70.4078 453.501 69.8626 452.644L59.1469 459.461ZM66.8314 470.928L77.2111 463.609C77.7965 464.439 78.3863 465.266 78.9805 466.089L68.6815 473.522C68.0602 472.661 67.4435 471.796 66.8314 470.928ZM75.0515 482.018L85.0725 474.215C85.6966 475.016 86.325 475.814 86.9576 476.608L77.0225 484.521C76.361 483.69 75.704 482.856 75.0515 482.018ZM83.7878 492.705L93.4281 484.436C94.0894 485.207 94.7549 485.975 95.4245 486.738L85.8751 495.112C85.175 494.314 84.4792 493.511 83.7878 492.705ZM93.0201 502.967C93.7489 503.74 94.4818 504.508 95.219 505.273L104.362 496.457C103.657 495.726 102.956 494.99 102.258 494.252L93.0201 502.967ZM102.727 512.781L111.543 503.638C112.275 504.343 113.01 505.045 113.748 505.742L105.033 514.98C104.26 514.251 103.492 513.518 102.727 512.781ZM112.888 522.125C113.687 522.825 114.489 523.521 115.295 524.212L123.564 514.572C122.793 513.911 122.025 513.245 121.262 512.576L112.888 522.125ZM123.479 530.978L131.392 521.042C132.186 521.675 132.984 522.303 133.785 522.927L125.982 532.949C125.144 532.296 124.31 531.639 123.479 530.978ZM134.478 539.319L141.911 529.02C142.734 529.614 143.561 530.204 144.391 530.789L137.072 541.169C136.204 540.557 135.339 539.94 134.478 539.319ZM145.86 547.128L152.795 536.488C153.646 537.042 154.5 537.592 155.356 538.138L148.539 548.853C147.643 548.283 146.75 547.708 145.86 547.128ZM157.601 554.388L164.022 543.43C164.897 543.943 165.776 544.452 166.658 544.956L160.358 555.984C159.436 555.457 158.517 554.925 157.601 554.388ZM169.673 561.081L175.565 549.829C176.464 550.3 177.365 550.766 178.27 551.227L172.503 562.543C171.557 562.061 170.614 561.574 169.673 561.081ZM182.052 567.19L187.399 555.67C188.319 556.097 189.242 556.519 190.167 556.936L184.948 568.515C183.98 568.078 183.014 567.637 182.052 567.19ZM194.708 572.7L199.498 560.937C200.437 561.319 201.379 561.697 202.323 562.069L197.664 573.885C196.676 573.495 195.691 573.1 194.708 572.7ZM207.614 577.598L211.834 565.618C212.791 565.955 213.749 566.287 214.71 566.614L210.623 578.639C209.617 578.297 208.615 577.95 207.614 577.598ZM220.74 581.871L224.381 569.703C225.352 569.993 226.325 570.279 227.3 570.559L223.794 582.766C222.774 582.473 221.756 582.175 220.74 581.871ZM234.057 585.509L237.11 573.181C238.093 573.424 239.078 573.663 240.066 573.896L237.149 586.257C236.116 586.013 235.085 585.764 234.057 585.509ZM247.533 588.506L249.992 576.045C250.985 576.241 251.98 576.432 252.977 576.617L250.656 589.104C249.613 588.91 248.572 588.711 247.533 588.506ZM261.138 590.854L262.999 578.291C264 578.439 265.002 578.582 266.007 578.72L264.283 591.303C263.233 591.159 262.184 591.01 261.138 590.854ZM274.841 592.552L276.102 579.914C277.108 580.015 278.116 580.11 279.125 580.2L278.001 592.85C276.946 592.757 275.892 592.657 274.841 592.552ZM288.606 593.598L289.269 580.915C290.279 580.968 291.291 581.015 292.304 581.057L291.778 593.747C290.719 593.703 289.662 593.654 288.606 593.598ZM302.399 593.996L302.468 581.295C302.813 581.297 303.159 581.298 303.505 581.299C303.67 581.299 303.835 581.299 304 581.299C304.511 581.299 305.022 581.298 305.532 581.295L305.601 593.996C305.068 593.999 304.534 594 304 594C303.466 594 302.932 593.999 302.399 593.996ZM316.222 593.747L315.696 581.057C316.709 581.015 317.721 580.968 318.731 580.915L319.394 593.598C318.338 593.654 317.281 593.703 316.222 593.747ZM329.999 592.85L328.875 580.2C329.884 580.11 330.892 580.015 331.898 579.914L333.159 592.552C332.108 592.657 331.054 592.757 329.999 592.85ZM343.717 591.303L341.993 578.72C342.998 578.582 344 578.439 345.001 578.291L346.862 590.854C345.815 591.01 344.767 591.159 343.717 591.303ZM357.344 589.104L355.023 576.617C356.02 576.432 357.015 576.241 358.008 576.045L360.467 588.506C359.428 588.711 358.387 588.91 357.344 589.104ZM370.851 586.257L367.934 573.896C368.922 573.663 369.907 573.424 370.89 573.181L373.943 585.509C372.915 585.764 371.884 586.013 370.851 586.257ZM384.206 582.766L380.7 570.559C381.675 570.279 382.648 569.993 383.619 569.703L387.26 581.871C386.244 582.175 385.226 582.473 384.206 582.766ZM397.377 578.639L393.29 566.614C394.251 566.287 395.209 565.955 396.166 565.618L400.386 577.598C399.385 577.95 398.383 578.297 397.377 578.639ZM410.336 573.885L405.677 562.069C406.621 561.697 407.563 561.319 408.502 560.937L413.292 572.7C412.309 573.1 411.324 573.495 410.336 573.885ZM423.052 568.515L417.833 556.936C418.758 556.519 419.681 556.097 420.601 555.67L425.948 567.19C424.986 567.637 424.02 568.078 423.052 568.515ZM435.497 562.543L429.73 551.227C430.635 550.766 431.536 550.3 432.435 549.829L438.327 561.081C437.386 561.574 436.443 562.061 435.497 562.543ZM447.642 555.984L441.342 544.956C442.224 544.452 443.103 543.943 443.978 543.43L450.399 554.388C449.483 554.925 448.564 555.457 447.642 555.984ZM459.461 548.853L452.644 538.137C453.501 537.592 454.354 537.042 455.205 536.488L462.14 547.128C461.25 547.708 460.358 548.283 459.461 548.853ZM470.928 541.169L463.609 530.789C464.439 530.204 465.266 529.614 466.089 529.02L473.522 539.319C472.661 539.94 471.796 540.557 470.928 541.169ZM482.018 532.949L474.215 522.927C475.016 522.303 475.814 521.675 476.608 521.042L484.521 530.978C483.69 531.639 482.856 532.296 482.018 532.949ZM492.705 524.212L484.436 514.572C485.207 513.911 485.975 513.245 486.738 512.575L495.112 522.125C494.314 522.825 493.511 523.521 492.705 524.212ZM502.967 514.98L494.252 505.742C494.99 505.044 495.726 504.343 496.457 503.638L505.273 512.781C504.508 513.518 503.74 514.251 502.967 514.98ZM512.781 505.273L503.638 496.457C504.343 495.725 505.045 494.99 505.742 494.252L514.98 502.967C514.251 503.74 513.518 504.508 512.781 505.273ZM522.125 495.112L512.576 486.738C513.245 485.975 513.911 485.207 514.572 484.436L524.212 492.705C523.521 493.511 522.825 494.314 522.125 495.112ZM530.978 484.521L521.042 476.608C521.675 475.814 522.303 475.016 522.927 474.215L532.949 482.018C532.296 482.856 531.639 483.69 530.978 484.521ZM539.319 473.522L529.02 466.089C529.614 465.266 530.204 464.439 530.789 463.609L541.169 470.928C540.557 471.796 539.94 472.661 539.319 473.522ZM547.128 462.14L536.488 455.205C537.042 454.354 537.592 453.5 538.138 452.644L548.853 459.461C548.283 460.358 547.708 461.25 547.128 462.14ZM554.388 450.399L543.43 443.978C543.943 443.103 544.452 442.224 544.956 441.342L555.984 447.642C555.457 448.564 554.925 449.484 554.388 450.399ZM561.081 438.327L549.829 432.435C550.3 431.536 550.766 430.635 551.227 429.73L562.543 435.497C562.061 436.443 561.574 437.386 561.081 438.327ZM567.19 425.948L555.67 420.601C556.097 419.681 556.519 418.758 556.936 417.833L568.515 423.052C568.078 424.02 567.637 424.986 567.19 425.948ZM572.7 413.292L560.937 408.502C561.319 407.563 561.697 406.621 562.069 405.677L573.885 410.336C573.495 411.324 573.1 412.309 572.7 413.292ZM577.598 400.386L565.618 396.166C565.955 395.21 566.287 394.251 566.614 393.29L578.639 397.377C578.297 398.383 577.95 399.385 577.598 400.386ZM581.871 387.26L569.703 383.619C569.993 382.648 570.279 381.675 570.559 380.7L582.766 384.206C582.473 385.226 582.175 386.244 581.871 387.26ZM585.509 373.943L573.181 370.89C573.424 369.907 573.663 368.922 573.896 367.934L586.257 370.851C586.013 371.884 585.764 372.915 585.509 373.943ZM588.506 360.467L576.045 358.008C576.241 357.015 576.432 356.02 576.617 355.023L589.104 357.344C588.91 358.387 588.711 359.428 588.506 360.467ZM590.854 346.862L578.291 345.001C578.439 344 578.582 342.998 578.72 341.993L591.303 343.717C591.159 344.767 591.01 345.816 590.854 346.862ZM592.552 333.159L579.914 331.898C580.015 330.892 580.11 329.884 580.2 328.875L592.85 329.999C592.757 331.054 592.657 332.108 592.552 333.159ZM593.598 319.394L580.915 318.731C580.968 317.721 581.015 316.709 581.057 315.696L593.747 316.222C593.703 317.281 593.654 318.338 593.598 319.394Z" fill="#2D2D2D"/>
</g>
<path fill-rule="evenodd" clip-rule="evenodd" d="M607.994 305.951C607.998 305.301 608 304.651 608 304C608 303.349 607.998 302.699 607.994 302.049L565.834 302.314C565.838 302.875 565.839 303.437 565.839 304C565.839 304.563 565.838 305.125 565.834 305.686L607.994 305.951ZM568.283 454.341L531.656 433.46C531.104 434.429 530.546 435.393 529.982 436.354L566.339 457.701C566.994 456.586 567.642 455.465 568.283 454.341ZM457.701 566.339L436.354 529.982C435.393 530.546 434.429 531.104 433.46 531.656L454.341 568.283C455.465 567.642 456.585 566.994 457.701 566.339ZM305.951 607.994L305.686 565.834C305.125 565.838 304.563 565.839 304 565.839C303.437 565.839 302.875 565.838 302.314 565.834L302.049 607.994C302.699 607.998 303.349 608 304 608C304.651 608 305.301 607.998 305.951 607.994ZM153.659 568.283L174.54 531.656C173.571 531.104 172.607 530.546 171.646 529.982L150.299 566.339C151.415 566.994 152.535 567.642 153.659 568.283ZM41.6611 457.701L78.018 436.354C77.4539 435.393 76.8958 434.429 76.3437 433.46L39.7169 454.341C40.358 455.465 41.0061 456.585 41.6611 457.701ZM0.00612998 305.951C0.00204535 305.301 0 304.651 0 304C0 303.349 0.00204535 302.699 0.00612998 302.049L42.1659 302.314C42.1624 302.875 42.1606 303.437 42.1606 304C42.1606 304.563 42.1624 305.125 42.1659 305.686L0.00612998 305.951ZM39.7169 153.659L76.3437 174.54C76.8958 173.571 77.4539 172.607 78.018 171.646L41.6612 150.299C41.0062 151.415 40.3581 152.535 39.7169 153.659ZM150.299 41.6611L171.646 78.018C172.607 77.4539 173.571 76.8958 174.54 76.3437L153.659 39.7169C152.535 40.358 151.415 41.0061 150.299 41.6611ZM302.049 0.00612998L302.314 42.1659C302.875 42.1624 303.437 42.1606 304 42.1606C304.563 42.1606 305.125 42.1624 305.686 42.1659L305.951 0.00612998C305.301 0.00204535 304.651 0 304 0C303.349 0 302.699 0.00204535 302.049 0.00612998ZM454.341 39.7169L433.46 76.3437C434.429 76.8958 435.393 77.4539 436.354 78.018L457.701 41.6612C456.586 41.0062 455.465 40.3581 454.341 39.7169ZM566.339 150.299L529.982 171.646C530.546 172.607 531.104 173.571 531.656 174.54L568.283 153.659C567.642 152.535 566.994 151.415 566.339 150.299Z" fill="#ED4747"/>
<path fill-rule="evenodd" clip-rule="evenodd" d="M593.996 305.601L581.295 305.533C581.298 305.022 581.299 304.511 581.299 304C581.299 303.609 581.299 303.219 581.297 302.828L581.295 302.468L593.996 302.399C593.999 302.932 594 303.466 594 304C594 304.534 593.999 305.068 593.996 305.601ZM593.747 291.778L581.057 292.304C581.015 291.291 580.968 290.279 580.915 289.269L593.598 288.606C593.654 289.662 593.703 290.719 593.747 291.778ZM592.85 278.001L580.2 279.125C580.11 278.116 580.015 277.108 579.914 276.102L592.552 274.841C592.657 275.892 592.757 276.946 592.85 278.001ZM591.303 264.283L578.72 266.007C578.582 265.002 578.439 264 578.291 262.999L590.854 261.138C591.01 262.185 591.159 263.233 591.303 264.283ZM589.104 250.656L576.617 252.977C576.432 251.98 576.241 250.985 576.045 249.992L588.506 247.533C588.711 248.572 588.91 249.613 589.104 250.656ZM586.257 237.149L573.896 240.066C573.663 239.078 573.424 238.093 573.181 237.11L585.509 234.057C585.764 235.085 586.013 236.116 586.257 237.149ZM582.766 223.794L570.559 227.3C570.279 226.325 569.993 225.352 569.703 224.381L581.871 220.74C582.175 221.756 582.473 222.774 582.766 223.794ZM578.639 210.623L566.614 214.71C566.287 213.749 565.955 212.791 565.618 211.834L577.598 207.614C577.95 208.615 578.297 209.617 578.639 210.623ZM573.885 197.664C573.495 196.676 573.1 195.691 572.7 194.708L560.937 199.498C561.319 200.437 561.697 201.379 562.069 202.323L573.885 197.664ZM568.515 184.948L556.936 190.167C556.519 189.242 556.097 188.319 555.67 187.399L567.19 182.052C567.637 183.014 568.078 183.98 568.515 184.948ZM562.543 172.503L551.227 178.27C550.766 177.365 550.3 176.464 549.829 175.565L561.081 169.673C561.574 170.614 562.061 171.557 562.543 172.503ZM555.984 160.358L544.956 166.658C544.452 165.776 543.943 164.897 543.43 164.022L554.388 157.601C554.925 158.517 555.457 159.436 555.984 160.358ZM548.853 148.539L538.137 155.356C537.592 154.499 537.042 153.646 536.488 152.795L547.128 145.86C547.708 146.75 548.283 147.643 548.853 148.539ZM541.169 137.072L530.789 144.391C530.204 143.561 529.614 142.734 529.02 141.911L539.319 134.478C539.94 135.339 540.557 136.204 541.169 137.072ZM532.949 125.982L522.927 133.785C522.303 132.984 521.675 132.186 521.042 131.392L530.978 123.479C531.639 124.31 532.296 125.144 532.949 125.982ZM524.212 115.295L514.572 123.564C513.911 122.793 513.245 122.025 512.575 121.262L522.125 112.888C522.825 113.686 523.521 114.489 524.212 115.295ZM514.98 105.033L505.742 113.748C505.044 113.01 504.343 112.274 503.638 111.543L512.781 102.727C513.518 103.492 514.251 104.26 514.98 105.033ZM505.273 95.2189L496.457 104.362C495.725 103.657 494.99 102.956 494.252 102.258L502.967 93.0201C503.74 93.7488 504.508 94.4818 505.273 95.2189ZM495.112 85.8751L486.738 95.4245C485.975 94.7549 485.207 94.0894 484.436 93.4281L492.705 83.7877C493.511 84.4792 494.314 85.175 495.112 85.8751ZM484.521 77.0224L476.608 86.9576C475.814 86.3249 475.016 85.6966 474.215 85.0725L482.018 75.0515C482.856 75.704 483.69 76.361 484.521 77.0224ZM473.522 68.6814L466.089 78.9804C465.266 78.3862 464.439 77.7965 463.609 77.2111L470.928 66.8314C471.796 67.4434 472.661 68.0601 473.522 68.6814ZM462.14 60.8716L455.205 71.5118C454.354 70.9575 453.5 70.4077 452.644 69.8625L459.461 59.1468C460.358 59.717 461.25 60.2919 462.14 60.8716ZM450.399 53.6115L443.978 64.5696C443.103 64.0565 442.224 63.5481 441.342 63.0443L447.642 52.0163C448.564 52.5431 449.484 53.0749 450.399 53.6115ZM438.327 46.9188L432.435 58.1706C431.536 57.6999 430.635 57.234 429.73 56.773L435.497 45.457C436.443 45.9392 437.386 46.4265 438.327 46.9188ZM425.948 40.8099L420.601 52.3303C419.681 51.9032 418.758 51.481 417.833 51.0638L423.052 39.4851C424.02 39.9215 424.986 40.3632 425.948 40.8099ZM413.292 35.2999L408.502 47.063C407.563 46.6806 406.621 46.3032 405.677 45.9308L410.336 34.1155C411.324 34.505 412.309 34.8999 413.292 35.2999ZM400.386 30.4024L396.166 42.3816C395.21 42.0447 394.251 41.713 393.29 41.3863L397.377 29.3613C398.383 29.703 399.385 30.05 400.386 30.4024ZM387.26 26.1294L383.619 38.2971C382.648 38.0066 381.675 37.7213 380.7 37.4412L384.206 25.2339C385.226 25.527 386.244 25.8255 387.26 26.1294ZM373.943 22.4907L370.89 34.819C369.907 34.5755 368.922 34.3373 367.934 34.1043L370.851 21.743C371.884 21.9867 372.915 22.2359 373.943 22.4907ZM360.467 19.4942L358.008 31.9546C357.015 31.7586 356.02 31.5679 355.023 31.3825L357.344 18.8958C358.387 19.0897 359.428 19.2892 360.467 19.4942ZM346.862 17.1456L345.001 29.7092C344 29.5609 342.998 29.418 341.993 29.2804L343.717 16.6972C344.767 16.841 345.815 16.9905 346.862 17.1456ZM333.159 15.4478L331.898 28.0856C330.892 27.9852 329.884 27.8901 328.875 27.8005L329.999 15.1496C331.054 15.2433 332.108 15.3427 333.159 15.4478ZM319.394 14.4016L318.731 27.085C317.721 27.0322 316.709 26.9847 315.696 26.9427L316.222 14.2529C317.281 14.2968 318.338 14.3464 319.394 14.4016ZM305.601 14.0043C305.068 14.0014 304.534 14 304 14C303.466 14 302.932 14.0014 302.399 14.0043L302.468 26.7049C302.978 26.7021 303.489 26.7007 304 26.7007C304.511 26.7007 305.022 26.7021 305.533 26.7049L305.601 14.0043ZM291.778 14.2529C290.719 14.2968 289.662 14.3464 288.606 14.4016L289.269 27.085C290.279 27.0322 291.291 26.9847 292.304 26.9427L291.778 14.2529ZM278.001 15.1496L279.125 27.8005C278.116 27.8901 277.108 27.9852 276.102 28.0856L274.841 15.4478C275.892 15.3427 276.946 15.2433 278.001 15.1496ZM264.283 16.6972L266.007 29.2804C265.002 29.418 264 29.5609 262.999 29.7092L261.138 17.1455C262.185 16.9905 263.233 16.841 264.283 16.6972ZM250.656 18.8958L252.977 31.3825C251.98 31.5679 250.985 31.7586 249.992 31.9546L247.533 19.4942C248.572 19.2892 249.613 19.0897 250.656 18.8958ZM237.149 21.743L240.066 34.1043C239.078 34.3373 238.093 34.5755 237.11 34.819L234.057 22.4907C235.085 22.2359 236.116 21.9867 237.149 21.743ZM223.794 25.2339L227.3 37.4412C226.325 37.7213 225.352 38.0066 224.381 38.2971L220.74 26.1293C221.756 25.8254 222.774 25.527 223.794 25.2339ZM210.623 29.3612L214.71 41.3863C213.749 41.7129 212.791 42.0447 211.834 42.3815L207.614 30.4024C208.615 30.05 209.617 29.7029 210.623 29.3612ZM197.664 34.1154L202.323 45.9308C201.379 46.3031 200.437 46.6806 199.498 47.063L194.708 35.2999C195.691 34.8998 196.676 34.505 197.664 34.1154ZM184.948 39.4851L190.167 51.0638C189.242 51.481 188.319 51.9032 187.399 52.3303L182.052 40.8099C183.014 40.3632 183.98 39.9215 184.948 39.4851ZM172.503 45.457L178.27 56.773C177.365 57.234 176.464 57.6999 175.565 58.1706L169.673 46.9188C170.614 46.4265 171.557 45.9392 172.503 45.457ZM160.358 52.0163L166.658 63.0443C165.776 63.5481 164.897 64.0565 164.022 64.5697L157.601 53.6115C158.517 53.0749 159.436 52.5431 160.358 52.0163ZM148.539 59.1469L155.356 69.8626C154.499 70.4078 153.646 70.9575 152.795 71.5119L145.86 60.8716C146.75 60.2919 147.643 59.717 148.539 59.1469ZM137.072 66.8314L144.391 77.2111C143.561 77.7965 142.734 78.3863 141.911 78.9805L134.478 68.6815C135.339 68.0602 136.204 67.4434 137.072 66.8314ZM125.982 75.0515L133.785 85.0725C132.984 85.6966 132.186 86.325 131.392 86.9576L123.479 77.0225C124.31 76.361 125.144 75.704 125.982 75.0515ZM115.295 83.7878L123.564 93.4281C122.793 94.0894 122.025 94.7549 121.262 95.4245L112.888 85.8751C113.686 85.175 114.489 84.4792 115.295 83.7878ZM105.033 93.0201L113.748 102.258C113.01 102.956 112.274 103.657 111.543 104.362L102.727 95.2189C103.492 94.4818 104.26 93.7489 105.033 93.0201ZM95.2189 102.727L104.362 111.543C103.657 112.275 102.956 113.01 102.258 113.748L93.0201 105.033C93.7488 104.26 94.4818 103.492 95.2189 102.727ZM85.8751 112.888L95.4245 121.262C94.7549 122.025 94.0894 122.793 93.4281 123.564L83.7877 115.295C84.4792 114.489 85.175 113.687 85.8751 112.888ZM77.0224 123.479C76.361 124.31 75.704 125.144 75.0515 125.982L85.0725 133.785C85.6966 132.984 86.3249 132.186 86.9576 131.392L77.0224 123.479ZM68.6814 134.478L78.9804 141.911C78.3862 142.734 77.7965 143.561 77.2111 144.391L66.8314 137.072C67.4434 136.204 68.0601 135.339 68.6814 134.478ZM60.8716 145.86L71.5118 152.795C70.9575 153.646 70.4077 154.5 69.8625 155.356L59.1468 148.539C59.717 147.643 60.2919 146.75 60.8716 145.86ZM53.6115 157.601L64.5696 164.022C64.0565 164.897 63.5481 165.776 63.0443 166.658L52.0163 160.358C52.5431 159.436 53.0749 158.517 53.6115 157.601ZM46.9188 169.673L58.1706 175.565C57.6999 176.464 57.234 177.365 56.773 178.27L45.457 172.503C45.9392 171.557 46.4265 170.614 46.9188 169.673ZM40.8099 182.052L52.3303 187.399C51.9032 188.319 51.481 189.242 51.0638 190.167L39.4851 184.948C39.9216 183.98 40.3632 183.014 40.8099 182.052ZM35.2999 194.708C34.8999 195.691 34.505 196.676 34.1155 197.664L45.9308 202.323C46.3032 201.379 46.6806 200.437 47.063 199.498L35.2999 194.708ZM30.4024 207.614L42.3816 211.834C42.0447 212.791 41.713 213.749 41.3863 214.71L29.3613 210.623C29.703 209.617 30.05 208.615 30.4024 207.614ZM26.1294 220.74L38.2971 224.381C38.0066 225.352 37.7213 226.325 37.4412 227.3L25.2339 223.794C25.527 222.774 25.8255 221.756 26.1294 220.74ZM22.4907 234.057L34.819 237.11C34.5755 238.093 34.3373 239.078 34.1043 240.066L21.743 237.149C21.9867 236.116 22.236 235.085 22.4907 234.057ZM19.4942 247.533L31.9546 249.992C31.7586 250.985 31.5679 251.98 31.3825 252.977L18.8958 250.656C19.0897 249.613 19.2892 248.572 19.4942 247.533ZM17.1456 261.138L29.7092 262.999C29.5609 264 29.418 265.002 29.2804 266.007L16.6972 264.283C16.841 263.233 16.9905 262.184 17.1456 261.138ZM15.4478 274.841L28.0856 276.102C27.9852 277.108 27.8901 278.116 27.8005 279.125L15.1496 278.001C15.2433 276.946 15.3427 275.892 15.4478 274.841ZM14.4016 288.606L27.085 289.269C27.0322 290.279 26.9847 291.291 26.9427 292.304L14.2529 291.778C14.2968 290.719 14.3464 289.662 14.4016 288.606ZM14.0043 302.399C14.0014 302.932 14 303.466 14 304C14 304.534 14.0014 305.068 14.0043 305.601L26.7049 305.532C26.7021 305.022 26.7007 304.511 26.7007 304C26.7007 303.489 26.7021 302.978 26.7049 302.468L14.0043 302.399ZM14.2529 316.222C14.2968 317.281 14.3464 318.338 14.4016 319.394L27.085 318.731C27.0322 317.721 26.9847 316.709 26.9427 315.696L14.2529 316.222ZM15.1496 329.999L27.8005 328.875C27.8901 329.884 27.9852 330.892 28.0856 331.898L15.4478 333.159C15.3427 332.108 15.2433 331.054 15.1496 329.999ZM16.6972 343.717L29.2804 341.993C29.418 342.998 29.5609 344 29.7092 345.001L17.1455 346.862C16.9905 345.815 16.841 344.767 16.6972 343.717ZM18.8958 357.344L31.3825 355.023C31.5679 356.02 31.7586 357.015 31.9546 358.008L19.4942 360.467C19.2892 359.428 19.0897 358.387 18.8958 357.344ZM21.743 370.851L34.1043 367.934C34.3373 368.922 34.5755 369.907 34.819 370.89L22.4907 373.943C22.2359 372.915 21.9867 371.884 21.743 370.851ZM25.2339 384.206L37.4412 380.7C37.7213 381.675 38.0066 382.648 38.2971 383.619L26.1293 387.26C25.8254 386.244 25.527 385.226 25.2339 384.206ZM29.3612 397.377L41.3863 393.29C41.7129 394.251 42.0447 395.209 42.3815 396.166L30.4024 400.386C30.05 399.385 29.7029 398.383 29.3612 397.377ZM34.1154 410.336L45.9308 405.677C46.3031 406.621 46.6806 407.563 47.063 408.502L35.2999 413.292C34.8998 412.309 34.505 411.324 34.1154 410.336ZM39.4851 423.052L51.0638 417.833C51.481 418.758 51.9032 419.681 52.3303 420.601L40.8099 425.948C40.3632 424.986 39.9215 424.02 39.4851 423.052ZM45.457 435.497L56.773 429.73C57.234 430.635 57.6999 431.536 58.1706 432.435L46.9188 438.327C46.4265 437.386 45.9392 436.443 45.457 435.497ZM52.0163 447.642C52.5431 448.564 53.0749 449.484 53.6115 450.399L64.5697 443.978C64.0565 443.103 63.5481 442.224 63.0443 441.342L52.0163 447.642ZM59.1469 459.461C59.717 460.358 60.2919 461.25 60.8716 462.14L71.5119 455.205C70.9575 454.354 70.4078 453.501 69.8626 452.644L59.1469 459.461ZM66.8314 470.928L77.2111 463.609C77.7965 464.439 78.3863 465.266 78.9805 466.089L68.6815 473.522C68.0602 472.661 67.4435 471.796 66.8314 470.928ZM75.0515 482.018L85.0725 474.215C85.6966 475.016 86.325 475.814 86.9576 476.608L77.0225 484.521C76.361 483.69 75.704 482.856 75.0515 482.018ZM83.7878 492.705L93.4281 484.436C94.0894 485.207 94.7549 485.975 95.4245 486.738L85.8751 495.112C85.175 494.314 84.4792 493.511 83.7878 492.705ZM93.0201 502.967C93.7489 503.74 94.4818 504.508 95.219 505.273L104.362 496.457C103.657 495.726 102.956 494.99 102.258 494.252L93.0201 502.967ZM102.727 512.781L111.543 503.638C112.275 504.343 113.01 505.045 113.748 505.742L105.033 514.98C104.26 514.251 103.492 513.518 102.727 512.781ZM112.888 522.125C113.687 522.825 114.489 523.521 115.295 524.212L123.564 514.572C122.793 513.911 122.025 513.245 121.262 512.576L112.888 522.125ZM123.479 530.978L131.392 521.042C132.186 521.675 132.984 522.303 133.785 522.927L125.982 532.949C125.144 532.296 124.31 531.639 123.479 530.978ZM134.478 539.319L141.911 529.02C142.734 529.614 143.561 530.204 144.391 530.789L137.072 541.169C136.204 540.557 135.339 539.94 134.478 539.319ZM145.86 547.128L152.795 536.488C153.646 537.042 154.5 537.592 155.356 538.138L148.539 548.853C147.643 548.283 146.75 547.708 145.86 547.128ZM157.601 554.388L164.022 543.43C164.897 543.943 165.776 544.452 166.658 544.956L160.358 555.984C159.436 555.457 158.517 554.925 157.601 554.388ZM169.673 561.081L175.565 549.829C176.464 550.3 177.365 550.766 178.27 551.227L172.503 562.543C171.557 562.061 170.614 561.574 169.673 561.081ZM182.052 567.19L187.399 555.67C188.319 556.097 189.242 556.519 190.167 556.936L184.948 568.515C183.98 568.078 183.014 567.637 182.052 567.19ZM194.708 572.7L199.498 560.937C200.437 561.319 201.379 561.697 202.323 562.069L197.664 573.885C196.676 573.495 195.691 573.1 194.708 572.7ZM207.614 577.598L211.834 565.618C212.791 565.955 213.749 566.287 214.71 566.614L210.623 578.639C209.617 578.297 208.615 577.95 207.614 577.598ZM220.74 581.871L224.381 569.703C225.352 569.993 226.325 570.279 227.3 570.559L223.794 582.766C222.774 582.473 221.756 582.175 220.74 581.871ZM234.057 585.509L237.11 573.181C238.093 573.424 239.078 573.663 240.066 573.896L237.149 586.257C236.116 586.013 235.085 585.764 234.057 585.509ZM247.533 588.506L249.992 576.045C250.985 576.241 251.98 576.432 252.977 576.617L250.656 589.104C249.613 588.91 248.572 588.711 247.533 588.506ZM261.138 590.854L262.999 578.291C264 578.439 265.002 578.582 266.007 578.72L264.283 591.303C263.233 591.159 262.184 591.01 261.138 590.854ZM274.841 592.552L276.102 579.914C277.108 580.015 278.116 580.11 279.125 580.2L278.001 592.85C276.946 592.757 275.892 592.657 274.841 592.552ZM288.606 593.598L289.269 580.915C290.279 580.968 291.291 581.015 292.304 581.057L291.778 593.747C290.719 593.703 289.662 593.654 288.606 593.598ZM302.399 593.996L302.468 581.295C302.813 581.297 303.159 581.298 303.505 581.299C303.67 581.299 303.835 581.299 304 581.299C304.511 581.299 305.022 581.298 305.532 581.295L305.601 593.996C305.068 593.999 304.534 594 304 594C303.466 594 302.932 593.999 302.399 593.996ZM316.222 593.747L315.696 581.057C316.709 581.015 317.721 580.968 318.731 580.915L319.394 593.598C318.338 593.654 317.281 593.703 316.222 593.747ZM329.999 592.85L328.875 580.2C329.884 580.11 330.892 580.015 331.898 579.914L333.159 592.552C332.108 592.657 331.054 592.757 329.999 592.85ZM343.717 591.303L341.993 578.72C342.998 578.582 344 578.439 345.001 578.291L346.862 590.854C345.815 591.01 344.767 591.159 343.717 591.303ZM357.344 589.104L355.023 576.617C356.02 576.432 357.015 576.241 358.008 576.045L360.467 588.506C359.428 588.711 358.387 588.91 357.344 589.104ZM370.851 586.257L367.934 573.896C368.922 573.663 369.907 573.424 370.89 573.181L373.943 585.509C372.915 585.764 371.884 586.013 370.851 586.257ZM384.206 582.766L380.7 570.559C381.675 570.279 382.648 569.993 383.619 569.703L387.26 581.871C386.244 582.175 385.226 582.473 384.206 582.766ZM397.377 578.639L393.29 566.614C394.251 566.287 395.209 565.955 396.166 565.618L400.386 577.598C399.385 577.95 398.383 578.297 397.377 578.639ZM410.336 573.885L405.677 562.069C406.621 561.697 407.563 561.319 408.502 560.937L413.292 572.7C412.309 573.1 411.324 573.495 410.336 573.885ZM423.052 568.515L417.833 556.936C418.758 556.519 419.681 556.097 420.601 555.67L425.948 567.19C424.986 567.637 424.02 568.078 423.052 568.515ZM435.497 562.543L429.73 551.227C430.635 550.766 431.536 550.3 432.435 549.829L438.327 561.081C437.386 561.574 436.443 562.061 435.497 562.543ZM447.642 555.984L441.342 544.956C442.224 544.452 443.103 543.943 443.978 543.43L450.399 554.388C449.483 554.925 448.564 555.457 447.642 555.984ZM459.461 548.853L452.644 538.137C453.501 537.592 454.354 537.042 455.205 536.488L462.14 547.128C461.25 547.708 460.358 548.283 459.461 548.853ZM470.928 541.169L463.609 530.789C464.439 530.204 465.266 529.614 466.089 529.02L473.522 539.319C472.661 539.94 471.796 540.557 470.928 541.169ZM482.018 532.949L474.215 522.927C475.016 522.303 475.814 521.675 476.608 521.042L484.521 530.978C483.69 531.639 482.856 532.296 482.018 532.949ZM492.705 524.212L484.436 514.572C485.207 513.911 485.975 513.245 486.738 512.575L495.112 522.125C494.314 522.825 493.511 523.521 492.705 524.212ZM502.967 514.98L494.252 505.742C494.99 505.044 495.726 504.343 496.457 503.638L505.273 512.781C504.508 513.518 503.74 514.251 502.967 514.98ZM512.781 505.273L503.638 496.457C504.343 495.725 505.045 494.99 505.742 494.252L514.98 502.967C514.251 503.74 513.518 504.508 512.781 505.273ZM522.125 495.112L512.576 486.738C513.245 485.975 513.911 485.207 514.572 484.436L524.212 492.705C523.521 493.511 522.825 494.314 522.125 495.112ZM530.978 484.521L521.042 476.608C521.675 475.814 522.303 475.016 522.927 474.215L532.949 482.018C532.296 482.856 531.639 483.69 530.978 484.521ZM539.319 473.522L529.02 466.089C529.614 465.266 530.204 464.439 530.789 463.609L541.169 470.928C540.557 471.796 539.94 472.661 539.319 473.522ZM547.128 462.14L536.488 455.205C537.042 454.354 537.592 453.5 538.138 452.644L548.853 459.461C548.283 460.358 547.708 461.25 547.128 462.14ZM554.388 450.399L543.43 443.978C543.943 443.103 544.452 442.224 544.956 441.342L555.984 447.642C555.457 448.564 554.925 449.484 554.388 450.399ZM561.081 438.327L549.829 432.435C550.3 431.536 550.766 430.635 551.227 429.73L562.543 435.497C562.061 436.443 561.574 437.386 561.081 438.327ZM567.19 425.948L555.67 420.601C556.097 419.681 556.519 418.758 556.936 417.833L568.515 423.052C568.078 424.02 567.637 424.986 567.19 425.948ZM572.7 413.292L560.937 408.502C561.319 407.563 561.697 406.621 562.069 405.677L573.885 410.336C573.495 411.324 573.1 412.309 572.7 413.292ZM577.598 400.386L565.618 396.166C565.955 395.21 566.287 394.251 566.614 393.29L578.639 397.377C578.297 398.383 577.95 399.385 577.598 400.386ZM581.871 387.26L569.703 383.619C569.993 382.648 570.279 381.675 570.559 380.7L582.766 384.206C582.473 385.226 582.175 386.244 581.871 387.26ZM585.509 373.943L573.181 370.89C573.424 369.907 573.663 368.922 573.896 367.934L586.257 370.851C586.013 371.884 585.764 372.915 585.509 373.943ZM588.506 360.467L576.045 358.008C576.241 357.015 576.432 356.02 576.617 355.023L589.104 357.344C588.91 358.387 588.711 359.428 588.506 360.467ZM590.854 346.862L578.291 345.001C578.439 344 578.582 342.998 578.72 341.993L591.303 343.717C591.159 344.767 591.01 345.816 590.854 346.862ZM592.552 333.159L579.914 331.898C580.015 330.892 580.11 329.884 580.2 328.875L592.85 329.999C592.757 331.054 592.657 332.108 592.552 333.159ZM593.598 319.394L580.915 318.731C580.968 317.721 581.015 316.709 581.057 315.696L593.747 316.222C593.703 317.281 593.654 318.338 593.598 319.394Z" fill="#ED4747"/>
</svg>
