<svg width="106" height="18" viewBox="0 0 106 18" fill="none" xmlns="http://www.w3.org/2000/svg">
<path d="M9 0L11.6926 5.29389L17.5595 6.21885L13.3568 10.4156L14.2901 16.2812L9 13.581L3.70993 16.2812L4.64321 10.4156L0.440492 6.21885L6.30736 5.29389L9 0Z" fill="#ED4747"/>
<path d="M31 0L33.6926 5.29389L39.5595 6.21885L35.3568 10.4156L36.2901 16.2812L31 13.581L25.7099 16.2812L26.6432 10.4156L22.4405 6.21885L28.3074 5.29389L31 0Z" fill="#ED4747"/>
<path d="M53 0L55.6926 5.29389L61.5595 6.21885L57.3568 10.4156L58.2901 16.2812L53 13.581L47.7099 16.2812L48.6432 10.4156L44.4405 6.21885L50.3074 5.29389L53 0Z" fill="#ED4747"/>
<path d="M75 0L77.6926 5.29389L83.5595 6.21885L79.3568 10.4156L80.2901 16.2812L75 13.581L69.7099 16.2812L70.6432 10.4156L66.4405 6.21885L72.3074 5.29389L75 0Z" fill="#ED4747"/>
<path opacity="0.2" d="M97 0L99.6926 5.29389L105.56 6.21885L101.357 10.4156L102.29 16.2812L97 13.581L91.7099 16.2812L92.6432 10.4156L88.4405 6.21885L94.3074 5.29389L97 0Z" fill="#2D2D2D"/>
</svg>
